<svg xmlns="http://www.w3.org/2000/svg" viewBox="0 0 480 121" xmlns:xlink="http://www.w3.org/1999/xlink">
  <title>
    bnr-yahoo copy
  </title>
  <defs>
    <path id="a" d="M.798 24.37h13.73V.594H.797V24.37z"/>
    <path id="c" d="M15.257 40.072V.226H.677v39.846h14.58z"/>
  </defs>
  <g fill="none" fill-rule="evenodd">
    <path d="M-960-792H480v941H-960z"/>
    <g transform="translate(261.987 68.306)">
      <mask id="b" fill="#fff">
        <use xlink:href="#a"/>
      </mask>
      <path fill="#F03" d="M14.398 1.965c-.632.152-2.96.954-3.643 1.148-.068 2.16-.415 11.812-.415 11.812-.19 4.493-2.13 7.47-7.265 9.446l-1.855-.458c2.506-1.497 3.606-2.81 3.925-3.904.512-1.418.77-4.7.77-10.753 0 0-.06-4.566-.17-6.106-.77-.128-3.927-.903-4.902-1.122L.798.593C2.81.653 7.2.717 8.928.717c1.73 0 3.837-.087 5.6-.124l-.13 1.372z" mask="url(#b)"/>
    </g>
    <path fill="#F03" d="M358.35 73.203c-.375.09-1.45.338-2.4.54-.058 1.558.12 13.02.14 15.76 0 .393-.438.594-.793.238-2.467-2.424-10.325-11.377-12.942-14.625-.007 2.03.102 10.187.122 11.7.984.273 3.264.82 3.687.907l.094 1.632c-1.986-.022-8.55-.015-8.67 0l.026-1.583c.85-.358 1.652-.654 2.417-.955.104-.957.092-12.248.097-12.973-.648-.06-1.942-.094-2.834-.136v-1.963c1.076-.02 4.405-.012 6.23 0 2.268 2.594 7.7 8.688 10.457 11.787.028-2.617-.15-8.743-.188-9.8-.468-.086-1.537-.192-2.713-.437l-.154-1.54c.465.04 3.427.088 3.98.088.553 0 3.02-.148 3.532-.19l-.088 1.553zM311.76 77.794c0 2.173-2.013 3.074-4.207 3.43v1.532c4.624-.47 7.574-2.32 7.574-5.042v-.13c0-3.168-2.09-5.916-7.026-6.015 0 0-1.773-.072-2.8-.072h-6.647l.286 1.74c.927.103 2.153.205 2.93.26.072 2.175.29 11.148.144 13.694-.528.116-2.274.47-2.94.638l-.164 1.524c.66-.043 10.192-.04 10.895 0l-.084-1.314c-.678-.182-3.128-.628-3.75-.78-.084-.6-.258-13.297-.22-13.848.99 0 2.802.045 3.59.255 1.886.506 2.42 2.553 2.42 3.834M183.202 37.098c-1.254.123-6.468 1.297-8.222 1.675-1.878.505-19.89 14.676-21.017 17.95-.25 1.134 0 13.32 0 13.32l10.183.686-.358 3.378c-1.466-.103-10.914-.084-16.836-.084-3.003 0-12.167.338-15.26.247l.385-3.22c1.932.163 4.878-.142 6.684-.626 1.806-.482 3.096-1.205 3.096-3.026V56.826c-.626-1.888-15.606-20.856-19.484-23.876-1.126-.38-8.507-1.19-10.258-1.565l.364-3.176h34.184l-.494 2.922c-1.5.378-8.736.52-10.613 1.02 4.88 7.3 12.6 16.7 15.106 20.354 1.377-2.015 14.476-11.237 14.85-14.13-1.877-.375-8.097-1.278-9.095-1.278l-.594-3.235h29.516l-2.134 3.235zM256.01 64.657c-5.385-.322-14.836-.188-20.408 0l.33-2.867c.838-.085 5.242-.786 6.36-.947v-9.807c-2.682 0-17.66.326-20.025.934v8.812s6.453.747 7.96.908l-.346 2.975c-5.874-.33-17.567-.342-23.12-.02l.362-3.192c1.742-.047 6.405-.585 7.493-.756.17-2.187.25-5.64.25-9.258v-4.466c0-1.514-.08-5.89-.166-7.408-1.282-.003-6.633-.508-8.14-.59l.367-2.828c4.83.272 19.73.265 23.838.012l-.422 2.633c-1.167.063-6.455.85-8.076.853v7.82h20.024V36.042c-1.474-.154-5.082-.963-6.676-1.04l.31-2.63c3.35.25 16.585.21 20.13 0l-.25 2.76c-1.086.085-4.97.75-6.247.837v24.96s5.654.694 6.83.86l-.376 2.867z"/>
    <g transform="translate(352.63 27.688)">
      <mask id="d" fill="#fff">
        <use xlink:href="#c"/>
      </mask>
      <path fill="#F03" d="M8.425 28.66h-5.38V.224h12.212L14.16 4.497 8.425 28.66zM4.372 39.92l-3.694.152.71-6.28 3.682.177 3.443-.132-.725 6.15-3.416-.068z" mask="url(#d)"/>
    </g>
    <path fill="#F03" d="M300.39 50.49c0-9.013-8.59-14.484-21.665-14.758l-.632-.003-.633.002c-13.872.293-21.546 5.795-21.546 14.803 0 .046-.005.094-.005.138 0 .046 0 .087.004.134.088 8.483 8.472 14.527 21.546 14.802 0 0 .465.006.633.004.167.002.632-.005.632-.005 13.074-.276 21.506-5.958 21.662-14.767l.002-.352M279.42 61.634c-.45.013-.892.04-1.33.06-.437-.02-.88-.047-1.33-.06-4.527-.127-13.266-2.724-13.266-10.567l-.002-.393.002-.395c0-7.846 8.74-10.444 13.267-10.568.45-.012.892-.04 1.33-.06.437.02.88.048 1.33.06 4.526.124 13.268 2.722 13.268 10.568l.002.395v.393c0 7.843-8.743 10.44-13.27 10.567M351.424 46.916c0-.053-.005-.165-.005-.165-.332-9.43-9.366-15.522-23.91-15.833 0 0-.396-.01-.597-.01-.196 0-.593.01-.593.01-14.55.31-23.62 5.99-23.91 15.834v.314c.29 9.848 9.36 15.662 23.91 15.97 0 0 .397.012.593.01.2.002.596-.01.596-.01 14.544-.308 23.62-6.122 23.91-15.97 0 0 .004-.095.004-.148m-22.52 11.818c-.668.047-1.332.067-1.99.074-.66-.007-1.323-.027-1.992-.074-4.945-.34-13.913-3.393-14.1-11.824.187-8.434 9.155-11.352 14.1-11.693.67-.043 1.332-.065 1.99-.07.66.005 1.324.027 1.993.07 4.947.34 13.913 3.26 14.1 11.693-.187 8.43-9.153 11.484-14.1 11.824M204.958 68.71c-1.516-2.5-7.234-16.673-9.793-23.084l4.695-.738.56-2.422h-7.14l.007.024c-2.713.04-13.767-.06-14.982-.132l-.203 2.522 5.675 1.365s-8.306 16.513-9.963 18.894c-1.476.32-5.082 1.193-6.434 1.352l-.39 3.05c1.12-.16 15.614-.077 16.956 0l.31-2.752-5.052-1.203s2.295-4.8 2.61-5.356c1.658-.32 11.08-.46 11.08-.46l3.354 9.163s-3.993.62-5.572.698l-.354 3.007c1.182 0 20.324-.077 20.877 0l.32-2.7c-1.42-.08-5.22-.986-6.562-1.226zm-21.91-11.91c.475-1.272 4.73-10.366 4.73-10.366l4.005 10.365h-8.734zM322.015 81.262c.375-.928 2.82-6.688 2.82-6.688l2.586 6.708-5.405-.02zm11.393 6.034c-1.892-3.97-5.063-11.768-5.914-13.873l2.262-.304.156-1.525-9.353.326-.034 1.278 2.425.424c-1.6 3.518-5.725 12.51-6.444 13.566-.624.222-1.395.462-2.147.738l-.153 1.427c2.146-.12 6.78-.04 7.505 0l.033-1.28-2.322-.664s1.448-3.522 1.97-4.583c1.805-.025 6.568.02 6.568.02l1.773 4.67s-1.65.352-2.875.588l-.21 1.248c.64 0 9.105-.04 9.404 0l.163-1.475c-.778-.166-2.807-.582-2.807-.582zM282.84 81.263c.378-.93 2.822-6.69 2.822-6.69l2.585 6.71-5.406-.02zm11.396 6.035c-1.184-2.482-4.406-10.242-5.877-13.877l2.448-.443.068-1.38-9.49.324-.016 1.266 2.426.423c-1.602 3.517-5.745 12.523-6.464 13.58-.785.29-1.474.502-2.147.738l-.152 1.427c2.12-.072 6.78-.042 7.505 0l.035-1.28-2.324-.666s1.45-3.522 1.97-4.582c1.804-.026 6.567.022 6.567.022l1.772 4.667s-1.65.353-2.876.588l-.21 1.25c.64 0 9.106-.043 9.404 0l.163-1.476c-.775-.168-2.804-.582-2.804-.582z"/>
  </g>
</svg>
