<svg xmlns="http://www.w3.org/2000/svg" viewBox="0 0 800 92">
  <title>
    hd-thanks
  </title>
  <path fill="#D9BB47" fill-rule="evenodd" d="M75.523 3.143l-1.618-.663-.883-.663-.662.148-.368-.368L69.785.492l-1.25-.22-1.104.073-.514.22-.81.884.295.81-.808.22-.956 1.4-3.31 1.987-2.134.81-1.25.22-1.47.075-.59.294-.588.074-1.324-.22-1.177.146-.59-.22-1.69.22-2.355-.663-2.133-.147-1.618-.59-.59.148-.514-.294-1.25-.22-2.428-.148-1.103-.663-1.25.073-1.03-.516-.81.295-1.03-.59L33.3 3.66l-1.178-.073-.662.147-.515-.295-2.428-.662-.588-.295-.516.295-1.618-.442-1.177-.074-1.178.146-.515-.368-1.177-.147-1.177.37-1.104-.295-2.943.368-.662-.074-.957.515-.81-.148-.514.295-1.912.59-.442.367-1.324.22-1.03.59-.735.81-1.03.588L5.273 7.56l-.147.663-.662.295-.22.59-1.62 2.355-.367 1.252-.294.44-.81 1.99.295 1.25-.368.37-.222.515.074 2.945-.147.515.294 2.21.293 1.03.662.957v.663l.368 1.178.588 1.104.075.59.515.22.662.81.44 1.03.884.222.22.59 1.03.735.22.588h.81l.368.81.59.147 1.838.958 1.25.147.442.368.956.442 1.766.294 3.898-.147.368-.442.44-1.03v-.737l-.293-.515-.148-1.03-.22-.59.44-.81-.588-1.252.22-.588-.073-1.03-.66-2.062-1.25-.81h-1.767l-1.03-.663-.882-.147-.66-.81-.663-.147-.81-1.178-.514-.295-.295-.442.147-.515-.735-1.62.662-3.608.294-.515v-.81l1.84-1.694.367-.59 3.53-1.618.59.147 1.176-.442h.66l1.252.295 1.177.073.44-.22.442.295.588.147 2.28.074.59.22.44.37.295-.222.515-.074.956.442 2.427.442 1.104.368.44.368.075.663-.147 1.178.294.59-.442.442-.515 1.104-.59 2.43-.587 1.104.147.663-.368.368-.515.885.074.515-.295.957v.663l-.59.81v.736l-1.103 3.387-.073 1.178-.368.37.074.588-.736 1.473-.147 1.18.073.588-1.03 1.62-.22.59-.22 2.208-.442.073.147.588-.515.81.074.958-.515.294-.296.516.148 1.178-.662 1.546-1.472 4.344.147 1.178-.662.884-.588 1.62v.662l-.515.957-.956 3.24.073.663-.368 1.25 1.323 1.106.736-.147h1.69l.737-.148 1.177.294 4.266-.295.368-.516.662-.147.44-1.694.81-2.062.148-1.25.515-.957v-.737l-.147-.515.44-.367.295-.59v-.44l.884-2.21.073-.663-.147-.736.662-.736-.147-.663.59-.22.146-1.105.957-3.166.368-2.43.81-1.325 1.323-4.493v-1.104l.368-.442.44-1.103.663-2.357.294-.44-.074-1.106 2.133-5.67-.294-.736.514-.294.147-.663-.072-.66.81-1.327-.148-1.104 1.397-1.032.662-.22 1.986.44 2.574.295.736.37.588-.075 2.354.22.957-.294 1.765.59h1.103l2.207-.442.883.294.515-.22 4.708-.958 1.03-.368.81-.516.66-.073.516-.22 1.177-.957h.808l3.53-3.387.148-.81.81-.22.146-.516 1.692-2.798.148-.59-.074-1.325-.515-.294zM39.037 11.39l-.662-.148-.22.368.514 1.105-.663.368-.59-.368-1.323.515v.736l.44-.147.516.146-.81.663.222.367-.22.59-1.104.22.147-.663-.956-.294.146-.663 1.103.368.514-.22-.515-.295-.295-.957-.956.442-.075-.516.22-.59.663.295.294-.663-.588-.074-.957.295v-.736l1.104-.59-.294-.44 1.398-.81.294-.443.074-.59.294.148v.516l.736.073.368.443.147.663-.957-.074.22.295.075.515h-.662L35.8 10.8l.44.295v.736l.81.737.368-.294.515-.81.074-.663.22.295.295-.737-.295-.073.22-.516.737-.37.588.15-.44.956-.075.515.22.443-.44-.074zM6.597 21.696l.44-.147 1.03 1.105.147.515h-.662v-.515l-.147.59-.294.367h-.514l-.294-1.326-.368-.59h.662zm34.426-11.34l.22-.367.368.295-.072.368.367.295h.957l.588.147-.294.515-.44.295-.37-.442-.66.736h-.443l.22-.516-.072-.442-.44-.294.073-.59zm-2.06 4.05l.662-.073.147.81h-.588v.81l.956-.147-.22.59-.442.22-.44-.295-.663-.073-.368-.59v-.663l.368.59.735-.148-.588-.81.44-.222zM35.21 8.15l.37-.442 1.176.073-.294.738-1.03.368-.588-.22.367-.516zm2.65 9.056l.367-.59.662.148.44.442-1.618.81-.367-.515.515-.294zm-6.694 14.43l.147-.44.44.147v.81l.295.515-.882.737-.074-.442.22-.516-.367-.44.22-.37zM41.98 12.642l.514-.588.368.22.147.443-.37.44.075.222-.59.148-.587-.442.44-.442zm-2.502-.588l.294.368.22.59v.662l-.367-.295-.515-.147-.147-.81.515-.368zM31.68 9.254l.22-1.03.663.294.368.368-1.176.81-.074-.442zM9.097 24.937l.662-.957.22.368-.22.59v.662l-.957-.22.294-.443zm27.144-7.584l.222-.44.588.146-.294 1.324-.662-.515.147-.517zm23.173-6.48l.44-.44.37.22.073.59-.59.294-.514.073.22-.736zm-19.126 1.032l.147-.442h.515l.073.736-.295.515-.735-.516.294-.295zm-3.457 8.467l.588-.22-.22.735v.663l-.515-.22-.22-.443.367-.515zm-3.678 3.976l.073-.663.515.37.147.735-.81.147.075-.59zM46.687 11.61l.147-.368h.368l-.368 1.178-.515-.22-.148-.59h.515zM31.092 35.024l.22-1.4.368.443-.073 1.178-.515-.22zm-20.524-6.626l.515-.442.147.368-.147.663-1.103-.22.588-.37zM42.935 9.475l.368-.295.22-.515.148.515-.44.59-.59.368-.146-.442.44-.22zM69.27 8.15l.368-.442.662.22-1.103.737-.368-.147.44-.368zM11.157 26.41l-.368.515v.295l-.442-.148.147-.662.44-.516.222.516zm44.946-15.757l.368-.295.516.074-.368.516-.736.294.22-.59zM31.24 36.57l.073-.736.44.22.075.59-.22.368-.37-.44zm14.638-22.383l.368-.368.588.146-.368.442-.588.22v-.44zm-41.71 2.725l.515.147-.073.66-.59-.146.148-.662zm2.134 7.657l-.368-.443.44-.147.37.368.146.442-.588-.22zm26.776-5.08l.368.22.073.44h-.59l-.073-.514.22-.147zM28.885 46.14l.368.148.073.515-.81-.147.37-.516zM45.435 9.99l.59.148-.074.44-.514.075V9.99zm-5.295 3.83l.368-.148.44.147-.146.367h-.515l-.147-.368zm-6.768 8.687l.662.368-.294.295-.515-.147.147-.516zm3.384-6.92l.147-.59.295.957h-.736l.294-.368zM24.84 49.234l-.295-.516.588.22.515 1.03-.294-.44-.515-.295zM5.786 27.22H5.42l-.148-.516h.662l-.147.516zm1.765-11.707l.147-.516.44.147-.293.663-.295-.294zm23.614 24.003h.588l-.074.442-.514.073v-.514zM12.04 26.85l.44.37h-.735l-.368-.37h.663zM40.214 10.36l.367.148-.514.368-.44-.442.588-.074zM30.062 37.16l.44-.22v.514l-.66.147.22-.44zm-3.604 11.56v-.516l.515.147-.148.517-.367-.148zm6.84-38.214l.22-.516.296.368.073.442-.588-.294zm1.693 12.37l-.146-.516.515.147.072.516-.44-.148zM28.886 7.56l.147-.588.294.515v.442l-.44-.37zm3.53 26.654l.442.074-.147.442-.44-.147v-.295l.146-.074zm-.66-6.037l.367.147-.074.442-.44-.147v-.296l.146-.147zm4.78-4.933l.074-.442.367.147.073.515-.515-.22zm-.588.59l-.147-.517h.44l.148.368-.44.148zm-9.195 16.64l.515.073-.22.294h-.59l.295-.367zM32.49 11.83l.44-.073-.073.442-.44.073.073-.442zm8.753-3.165v-.442l.368.147.075.516-.442-.22zm-6.105 7.952l.44.59-.734-.148.294-.443zm-5.885 22.678l-.074-.516.367.147.147.44-.44-.072zm2.5-32.544l.516.37h-.957l.44-.37zm4.194-.44l.294-.37.148.442-.735.22.294-.293zM7.552 9.55h.442l-.147.44h-.295v-.44zm3.678 2.944l.442.073-.368.295-.44-.147.366-.22zm22.657 12.96l.295.44-.442-.073-.22-.367h.367zm-.956-7.29h.59l-.148.515-.44-.517zM27.415 43.86l-.294-.442h.662l-.368.442zm-19.2-25.034v.442l-.662-.148.662-.294zm17.95-12.223h.294v.37h-.442l.147-.37zM7.846 24.937v.516l-.515-.22.515-.296zm-.663-5.67l.295.37-.443.293.147-.662zm1.766 8.91l.368.147-.147.295h-.22v-.443zM33.225 15.44l-.147-.443.59.295-.443.147zm4.782-9.13l.147.44-.442.148.295-.59zm.956 1.47l.368.296-.367.294v-.59zM7.847 25.748l-.148.442-.368-.296.515-.147zM31.9 21.55l.222.516h-.368l.147-.516zm-4.78 26.14l.44.072-.587.295.147-.368zM5.787 25.893h.294v.295h-.293v-.296zM29.99 46.952h.293v.295h-.294v-.295zm-1.105-3.24h.294v.295h-.295v-.294zM67.873 7.71l.294.073-.44.443.146-.515zm-31.926 18.48l.22.295-.367.22.147-.514zm-2.87-9.13l.295.516h-.294v-.515zM8.95 22.067h.515l-.515.294v-.294zm19.42 12l.368.37h-.368v-.37zm5.664-16.565h.295v.22h-.296v-.22zM50.88 9.18l.44.295h-.44V9.18zM8.36 11.095h.296v.22H8.36v-.22zm-.66 17.23l.44.294H7.7v-.296zm35.162-14.36h.294v.222h-.294v-.22zm-31.19 18.556h.22v.295h-.22v-.294zm21.774.59h.368v.295l-.368-.295zM8.214 25.232l.295.22-.296.148v-.368zm22.584 17.67l.294.37h-.294v-.37zm.147-36.96h.22v.22h-.22v-.22zM28.37 40.47h.22v.222h-.22v-.22zM6.008 15.587l.073-.147.295.367-.367-.22zM30.724 7.56l.074-.147.147.516-.22-.37zM69.49 9.255l-.588-.294-3.825-.37-1.103.075-.44.22-1.178-.294-2.207.517-.443-.074-.81 1.473-1.838 5.448v1.105l-.37.293-.22.516-.147 1.177-.81 1.914v1.106l-.514.81.147.81-.883 2.06-.662 2.21-.515 2.356-.81 1.62-.147 1.4-1.25 2.65v1.693l-.81 2.872-.66.662v.588l-.37.295-1.838 6.774-1.618 4.344-.148 1.99-.367 1.103-.37.442.22.81-.513.442-.22.515v.59l.293.515.956.736.59.147.66-.073.59-.295.588.22 1.25.148.59-.073.514-.295 1.103.22 2.43-.073.44-.37.662-.882v-.958l.81-1.62.81-2.356.587-1.03-.148-.59-.294-.368 1.692-3.828.294-1.178.073-1.252 1.104-2.798.37-.368-.075-.59.81-2.355v-.663l-.22-.59.955-.956.588-1.84 1.987-2.063v-.662l.956-.368.442-.37 1.03-.514h.59l.44-.81.294.296.515.073 1.03-.37 1.766.59 1.03.663.883.81-.37.59-.146.735.22.442.074.59-.22 1.103.294.957-.294.37.073.588-.587.22-.368.37.147 1.103-.368.443-.735 2.724-.663 1.03v1.253l-.368 1.178-.59.957-.588 4.05.588 4.05.368 1.104.515.367.59 1.03.146.663 1.102.81h.662l.368.368.956.59 1.25.22 1.178-.147.44-.22.442.59 1.104-.295 1.25-.148 2.354-.662.148-.663h.662l1.25-.294.22-.59.957-.81.59.148.146-.516.367-.44 1.765-1.327.294-.44.662-.222.147-1.25.515-.222.883-.736.662-.884.81-.736v-.81l.81-.515v-.81l.808-.957.515-.295.073-.81 1.03-1.473.81-1.767.147-.736.662-.664.44-1.767-.808-.81-1.03-.516-1.84-.442-.808.736-.59 1.473-.882.958-.735 1.84-.957 1.105-.22.958-1.03 1.18-1.25 1.987-.663.81-.44.22v.663l-.443.22-1.324 1.18-2.06 1.25-.44.074-.663-.147-.81-.662-.514-.148-.588-1.178.294-.516.146-1.767.44-1.03.222-.958-.147-.517.442-.22.22-.442v-.515l.663-1.546.074-.516-.15-.516.664-1.03.588-1.84-.074-.664.663-1.104.442-1.252-.294-.957.588-1.03.147-.663-.073-1.914-.22-.442.22-.514.073-.663-.294-1.325-.295-.37.073-.66-1.103-2.873-1.398-.515-.147-.663-2.427-1.62-1.104-.294-1.325.22-1.177-.367-1.177-.074-1.102.22-3.163 1.473-2.06.81-.147.663-.295.515-.44.37-.737.072V25.6l-.367-.957-.37-.442.736-.81.442-1.177-.074-1.252.81-1.398.514-2.356.074-1.104.588-.81.442-1.03 1.25-4.566-.44-.442zm4.194 18.187l-.59-.736-.072-.59.515.222 1.545 1.4-.368.735-.368-.293-.588-.147-.074-.59zm-4.634 1.473l.44-.22.148-.516.662.147-.073.663.81.957-.737.294-.883-1.104-.367.295-.368-.15.368-.367zm-8.534-4.05l.59-1.472.808.443-.368.883.074.59h-1.324l.22-.443zm-10.004 28.2h.515v-.588l1.103.957h.663l-.148.662-2.574-.81.442-.22zm22.51-23.193l-.294-.44-.074-.517.294-.442.515.296.22.59-.073.588-.588-.074zM61.4 29.797l.22.59-.147.66-.515-.146-.294.296-.148-.516.148-.59h.735v-.293zM60 22.14l.588.22-.22.515-.368.37-.442-.296-.22-.516.662-.295zm7.43 5.816l.22-.368.074-.516.588.295-.368.442.22.514-.44.22-.368-.073.073-.514zm7.723 20.91l.59.074-.222.442-.44.147-.516-.148v-.442l.588-.073zM61.62 21.404l.736.074-.368.44h-.662l-.368-.44.662-.074zm14.197 7.29l.368-.37.22.296-.22.514-.44.295-.222-.296.294-.442zm1.47-1.99l.59.075.22.59-1.25-.296.44-.368zm-16.55-6.552l.515-.146.147.59-.516.146-.44-.147.293-.442zm13.977 11.046l-.294-.295v-.588l.588.442.22.515-.514-.074zM62.87 17.132v1.105l-.367-.295-.147-.515.514-.295zm1.104 12.297l-.294-.96.515.37.294.59h-.516zm.22-5.45l.736-.147-.147.515-.588.147v-.515zm-.514-1.03l.44.073-.735.22.22.37.075.514-.368-.368-.074-.737.442-.074zm-.295-3.903l.442-.147.147.736-.81-.295.22-.293zM73.61 33.773l.442.147.22.515-.81-.147.148-.515zm3.09 6.185l.44.147-.146.59-.588-.443.294-.294zm1.618-7.29l.295.516-.59-.074-.22-.442h.515zm-18.243-4.27l-.22-.516.588.22.22.443-.588-.147zm2.943-1.326l-.148.442-.44.147-.074-.44.662-.148zm10.96 5.302l.368.22.22.442-.735-.22.148-.442zm-4.046-5.154l.295.515h-.442l-.368-.22.515-.295zm-12.21 5.743l.367.073-.37.59-.293-.295.294-.367zm18.978-3.83l.44.148-.146.37-.44-.148v-.22l.146-.148zm2.06 1.18l.294.735-.59-.147.296-.588zm-16.7-4.345l.37.294-.516.516.147-.81zm-2.72.294l-.515.516-.148-.516h.663zm16.183 11.855l.515.147-.515.515v-.663zm.368-10.308l-.146-.443.44.22.148.443-.44-.22zm-1.176 9.497l.22.515-.514.148.294-.663zm-17.58-10.235l.44.148-.294.515-.147-.663zm17.653 23.93l.59.147-.295.367-.295-.515zm-.367-4.64l.294.59h-.442l.148-.59zM55.66 31.27l.516.147-.515.294v-.44zm21.04-5.155v.442l-.515-.147.515-.295zm-12.21-.147l.514.147-.515.295v-.442zm-5.813-3.093h.368l-.147.37h-.22v-.37zM77.51 34.583l.073.44-.442.075.37-.515zm.146 1.178l-.294.37-.22-.37h.514zm-2.795-6.7l.37.37-.663-.15.294-.22zm-16.183-8.614l-.22.44-.368-.072.587-.368zm-10.445 31.88l.515-.072-.147.368-.368-.295zm30.896-22.53h.294v.295h-.294v-.293zm-9.343-4.785h.294v.295h-.295v-.294zm-9.12 8.026h.293v.295h-.294v-.294zm16.99 22.973l.296.22-.294.22v-.44zm-4.633-.517l.44.295h-.44v-.295zm-19.494.516l.294.22-.294.22v-.44zm19.935-18.85h.515l-.515.22v-.22zM57.72 28.177l.37.294h-.37v-.293zm0 1.914h.222v.222h-.22v-.22zm17.362 22.385h.294l-.44.294.146-.295zm-1.324-1.03h.22l-.368.22.148-.22zM57.942 36.57l.44.148h-.293l-.148-.147zm20.156-9.056l-.147.368v-.22l.148-.148zm-19.2-5.89l-.073.442v-.295l.073-.146zm61.57 5.154l-2.94-2.65-.958-.663-1.03-.442-1.177-.295h-.662l-1.102-.59h-2.943l-1.103.59-.515-.294h-.588l-1.62.81-.515-.074-2.354.736-.808.957-.515.148-1.618 1.326-.59.147-1.03 1.547-.882.81-1.03.662-.515 1.105-2.06 3.018-.515 1.105-.22 1.178-.662.515v.957l-.662.81-1.104 4.418v1.178l-.22.516-.148 1.62.22 1.104-.22 1.104.81 5.302 1.03 2.06 1.69 2.137 1.693 1.47 1.986 1.032 1.178.442 2.575.515 2.207.073.515-.295h1.397l.295-.294.515-.22.956.146.956-.59.662-.073.295-.515.736-.736.59.147.366-.442 1.25-.367 1.693-1.546.588-.22 1.398 1.177v.59l.884.883 3.016 2.06.956-.514.294.442.442.22.515-.147 1.103.295 1.177-.295h.662l2.647-1.03.515.147.515-.148 2.5-1.914 1.178-.59.59-.882.587-.294.883-.81.736-.957 1.03-.664.148-.59 1.03-1.25.073-.663.884-.663v-.662l.882-.516.074-.883.736-.81 1.765-3.02 1.472-3.24v-.515l-.294-.442-.147-.663-.955-.59-1.104-.367-1.323.147-1.177 1.252-.147.59-1.03 2.208-1.25 1.988-1.692 3.092-3.457 3.682-.956.736-1.618.59-2.208.146-.59-1.62.37-.515-.22-.737.66-1.62-.367-.81.294-.442.073-.66 1.103-1.327v-.736l-.294-1.178v-.664l.294.295.44.074v-.662l.443-.957-.075-.516.662-.958.442-2.43.88-2.356-.072-.663.44-.147-.293-.81.662-.368.515-2.135 1.545-4.27-.074-1.105.515-1.694-.074-.736-.44-.442-1.104-.368-3.09.074-1.177-.22-2.87.44-1.176-.073-.588.883-.37 1.03v.663l-.367.295-.44.958-.443.294-.44-.294zm-5.957 6.11l1.913 1.106v.59l.956 2.134.073.59-.22 3.533.146.59-.59.957-.44 1.105.073.662-.44.442-1.178 2.283-.515.293-.074.59-1.03 1.03-.147.59-3.31 1.987-1.104.442-1.177.22h-1.325l-1.104-.367-.955-.59-.81-.81-1.323-1.987.22-.958-.294-1.914.44-3.976 1.03-2.062.443-.368-.073-.515 1.913-2.43.882-.81-.147-.957.662-.074 2.648-1.62 1.325-.073.44-.367.516-.074 2.207.44.368.37zm5.15 13.254h.44l.516-.22-.368-1.326.736.074 1.177-.516.222.737-.515.148-1.25.884.146.368-.44.44-.222.59-.44-.368-.515-1.03.515.22zm5.223-10.087l-.59.81.37.368.22.59-.736.073v-.442h-.515l-.294-.442.588-.294.22-.59.737-.073zm-2.134 3.166l.44.222-.146.59.073.883.368.147-.147.59-.515.073.074-.663-.368-.295.22-.662-.368-.516.367-.37zm-2.28 8.47l.514.072.368-.442.368.442v.663l-1.62-.22-.293-.516h.662zm2.94-9.868l.443.074.22.294-.294.59-1.104-.148-.147-.442.293-.368h.588zm-2.573 13.843l.22-.442.442.368.22.516-.148.663-.81-.443.075-.662zm4.12-17.082l-.663-.59v-.515l.59.074.587 1.546-.514.22v-.735zm-5.518 8.54l.22-.588.44.147.295.294.368-.294.59-.147-.81.662-.957.442-.147-.516zm2.647 2.725l.295-.442.588-.147.22 1.103-.514.148v-.588l-.442.294-.147-.368zM97.444 40.62l.074-.515.368-.295.515.148-.147.662-.44.295-.37-.295zm9.048-12.885l.515.147.59.81h-.59l-.294-.294-.44-.148.22-.515zM99.357 39l.44-.368.59-.147-.147.515-.81.59-.073-.59zm2.648 14.726l.662.22.147.517-.515.294-.295-1.03zm19.862-16.86v.81h-.515l-.147-.664.662-.147zm-1.104 12.59l-.147-.663.736.147v.663l-.59-.147zM94.65 44.67l.293.442-.662.22-.293-.59.662-.072zm3.824-2.135h.442l.147.662-.59.147v-.81zm26.188 14.21l.22-.294.516.22-.22.443-.442.147-.074-.515zM96.635 45.26l-.368.588h-.515v-.442l.883-.147zm26.776 6.036l-.587-.294.515-.147.515.22.147.442-.59-.22zm-18.683-18.04l-.147-.514h.588v.736l-.44-.22zM108.405 27l.147-.517.515.148-.22.442-.442.22V27zm14.492 2.134l.588-.295v.515l-.662.294.074-.516zm3.825.81l.44.074-.146.59-.515-.15.222-.514zm-.957.22l.59-.146-.295.59h-.515l.22-.443zm-18.463 1.915l-.148.44-.515.075v-.37l.662-.146zm16.92 7.436l-.443-.368h.588l.368.662-.515-.294zm1.838-7.805l.588.222-.588.442v-.663zm-2.943-.293l-.588.515-.148-.515h.735zM112.45 52.475h-.293l.073-.516h.368l-.147.515zm9.784-17.82v-.367l.368.147.074.516-.442-.294zm-.367 8.837l-.147-.368.514.073.148.295h-.515zm-10.74-13.548l-.147-.442.44.147.148.368-.44-.074zm4.487-.957h.44v.368h-.44v-.368zm1.84 24.077l.22.368-.295.147-.295-.296.368-.22zM107.448 29.65l.44.515h-.588l.147-.516zM96.34 49.602l.295.295-.735.294.44-.59zm25.232-18.113l-.147.442-.515-.515.662.073zm-3.236 6.406l-.147-.516.366.22.148.443-.368-.147zm-15.375-6.92l-.293.514-.368-.368.66-.147zm-3.897 21.793l.367.367h-.81l.443-.368zM125.25 42.68l.442.147-.147.294h-.294v-.442zm.442-3.682l-.368.295-.368-.442.736.147zm-5.517 14.947l-.22-.515.66.368-.44.147zm-19.935 2.577h.588l-.147.442-.44-.442zm22.73-3.755l-.294-.443.662.148-.368.294zm-12.652-22.605l-.442.59-.073-.443.515-.147zM95.9 40.4l.44-.148v.515l-.44-.368zm25.378-6.406l.294.368-.662-.074.368-.294zm3.458 14.946l.367-.294v.59l-.367-.296zm-5.812-.147l.368-.294v.588l-.368-.295zm-.22-12.517h.44v.442l-.44-.442zm2.206-3.534h.442l-.59.442.148-.442zm2.06 21.352l.22.442-.514-.147.294-.296zm-20.744-1.325h.515l-.294.367-.22-.368zm17.36-17.672l.074-.442.294.663-.368-.222zm-1.397 18.334h.293v.294h-.294v-.294zm7.355-19.586l.368.148-.22.368-.148-.516zm-24.35 21.647l.442.368h-.44v-.367zm25.16-22.457h.367v.442l-.368-.442zm-27.88 1.62l.22.368-.294.22.074-.588zm11.328-6.48l.073.516-.368-.442.295-.073zm-9.416 24.74l.44.074-.293.294-.147-.368zm-5.002-2.87h.294v.22h-.295v-.22zm-1.766-.59l.293.22-.294.222v-.442zm13.976-24.15h.294v.22h-.294v-.22zM95.386 44.89h.293v.222h-.295v-.22zm6.25-13.18h.296v.222h-.295v-.22zm-1.91 2.136l.293.22-.295.222v-.442zM94.28 40.4h.295v.22h-.294v-.22zm27.807 16.27l-.22-.22.367-.147-.147.368zM94.28 49.678l-.146-.22.44-.075-.293.295zm3.532-13.916l.294.222-.294.147v-.37zm20.818-1.472h.22v.22h-.22v-.22zM97.297 49.382h.22v.22h-.22v-.22zm29.057-14.137l.368.22h-.368v-.22zm-1.766-4.49l-.147.367v-.295l.148-.073zm43.475 20.836l-.147-1.766.956-2.21 1.104-3.46v-.515l-.147-.37.66-.883v-.662l.22-1.03.81-1.916.368-1.84.662-.958.22-5.302-.514-.957.074-.59-.59-1.62v-.662l-.587-.44-.368-1.178-1.25-1.252-1.472-.663-.956-.81-1.766-.368-1.176-.074-1.912.294-.59-.147-.955.59-.662-.148-1.03.59-2.207.882-.956.59-.44.588-.516.295-.81-.737-.073-.515.22-.59-.808-.514-.957-.37-2.354-.22-5.664.295-.81.81-.073.588-.81 1.914.148.59-.662.957-.883 2.28-.073 1.253-.81 1.62.295.662-.44.37-.958 3.017-.368.442.663.516-.958.883.294.81-.588.368-.368.59.074.663-.59 1.767.075.663-.443.294-.294.516-.147.736.074 1.324-.442.22-.368.443v.736l-.22 1.178-.957 1.916.368.81-.66.81.146.515-.588.81-.22 1.62-1.03 2.578-.074 1.25.662.738 1.103.368 1.176.147 1.324-.146 2.354-.663.59.664h1.176l1.103-.295.442-.295.662-.81.147-1.326.368-.442.81-2.283.22-1.693.956-2.136.294-1.104-.074-1.325.957-.81.294-1.84.735-2.136.588-2.282.44-.883-.072-.59.37-.367.22-.59-.442-1.104.81-.884.146-1.178 2.722-2.87 1.03-.59.588-.147.442-.81 1.47-.295.663.147.588-.368.662-.074 1.25.44 1.692 1.4.147.37.073 3.09-.22 1.032-1.03 2.21-.516 2.28-.294.37.147.883-.368.516.074.737-.662.662.22.737-.514.81-.662 2.135-.148 1.178v4.933l.662.663v.663l.295 1.178 1.03 1.4 1.84 1.4.44.073 1.03.59h1.986l.588-.222.59.296.588.073 1.177-.443.368-.368.515.22h.59l1.102-.515.883-.663 1.177-.22.515-.295 2.28-2.062 1.545-.81.368-.442.368-1.178 1.84-1.472.66-.957.368-1.4.81-.662 1.47-1.62.663-2.282.515-.958.735-.736.074-.59 1.325-2.208-1.03-1.62-.956-.736-.59-.147-.735.294-.662.075-.883.59-.515 1.103-.22 1.4-.883.81-.368.515.294.662h-.662l-.736 1.547-.735.81-.59 1.104-1.396 1.914-1.693 1.546-.22.663-.516.44-.66.148-1.03.663-1.25.443-2.06-1.547.293-.515zm-3.236-19.216l.662-.074.146.663h.515v.515l-.294.147 1.472 1.03.073.738-.587.147-.147-.516-.81-.59-.073-.66-.368-.443-.883-.662.295-.294zm-.295 5.596l1.104.957-.147.736-.443.368-.515-.293.368-.295.147-.515-.956-.516.442-.44zm1.84 7.583l-.516-.515-.367.884-.443-.22-.22-.517.514-.442.516-.22.22.44.37.296.514.072-.59.22zm.588-12.222l.956-.367.44.442-.587.368-.37.59-.587-.443.147-.59zm-2.648 1.105h.588l.44.22.296.517h-.515l-.44-.295-.442.516-.368-.663.442-.295zm-.295 7.88l.59-.075.44.22-.294.37-.515.22-.515-.147-.294-.442.587-.146zm-.44-10.162l.514.294-.073 1.326-.735-.958.294-.662zM161.81 46.07v-.59l.442.147.294.368.074.59h-.662l-.147-.516zm2.428 4.564l.44-.368.516-.074.295.295-1.03.515-.516.074.294-.442zm-.588-10.897h.44l-.073.662.22.588-.66-.147.146-.44-.44-.37.367-.293zm-2.354 16.272l-.442-.222-.147-.516h.59l.514.22v.443l-.514.074zm-14.05-26.213l-.368-.516.294-.146h.515l.22.368.074.516-.735-.22zm15.594-.442l.736.22-.515.516-.735-.367.515-.368zm3.016 11.486h.736l-.147.664-.736-.074.146-.59zm-2.795 13.18l.442.295.22.516h-.587l-.368-.147.294-.662zm5.224-19.29l.588-.147-.073.59-.443.22-.294-.22.22-.443zm-4.634-4.197l.44.368-.66.296-.37-.663h.59zm-19.862 11.044l.515.074v.443h-.81l.295-.516zm23.098-12l.515-.443.295.59-.294.073-.955-.22h.44zm.515 2.576l.37-.368.146.662-.44.368-.075-.662zm-19.125-3.166l-.515-.368.22-.37.663.516-.368.22zm-3.236 2.21l.072-.517h.368l.073.368-.147.442-.367-.294zm1.25 3.386l.293.368-.294.37-.516-.148.515-.59zm16.11 15.094l-.222-.663.515.294.22.663-.514-.293zm-.957-20.91l.882-.443-.735.81h-.442l.295-.368zm4.193 24.223l.662.22-.294.295h-.515l.146-.515zm-.81-25.18l.81.146-.957.368.147-.515zm.59 14.356l-.075-.515.516.296v.44l-.44-.22zm2.72.37l.295-.296.075.515-.442.442.074-.662zm-3.31.735h.368v.443h-.515l.147-.442zm-1.765 2.725v-.515l.37.22v.442l-.37-.147zm-22.73 4.344v.588l-.514-.294.515-.295zm-1.176-.516l.367.294-.514.37.148-.664zm2.87-13.695l.22.514-.663-.294.443-.22zm20.743 12l.147.442-.736-.515.59.073zm.368 3.46l.44.296-.514.22.075-.515zm2.574-15.608h.44l-.146.515-.295-.515zm-23.393 6.773l.22.442-.588-.147.367-.295zm18.022 7.584l.073.588h-.368l.294-.59zm-14.42-19.807h.296v.294h-.295v-.294zm22.952 2.282l.368.295-.368.147v-.442zm-21.038 2.357l.22.22-.514.148.294-.368zm19.567 3.534l.075.368h-.368l.294-.368zm-18.757-6.26h.294v.222h-.294v-.22zm-6.694 13.18l.44.296h-.44v-.295zm20.228-13.03h.59l-.59.22v-.22zm2.65 8.54h.22v.294h-.22v-.294zm0-3.976l.293.22-.293.22v-.44zm-10.594-10.97h.22v.293h-.22v-.294zm7.43 24.886h.294v.22h-.295v-.22zm6.914-18.63l.442.222h-.442v-.22zm-25.673-2.87h.294l-.442.294.147-.294zm20.965-3.093l.368.22h-.368v-.22zm-24.716 22.53l-.148.443v-.295l.148-.146zm61.497-39.76l-.44-.22h-2.354l-.81-.368-2.133.22-.588-.146h-1.177l-2.354.588-.515.883-.663 2.063v1.84l-.59-.147-1.03 3.535-.146 1.03-.293.37-1.25 3.755v1.178l-.295.44-.735 2.21.22.884-.956.883-.073 1.768-.588.957-.884 3.534-.294.514.368.81-.442.074-.367.442v.368l.295.368-.662.81-1.177 3.313-.515 1.03v1.178l-.293.516-.368 1.325v.662l-.516.957v1.177l-1.25 2.06-.074 1.18-.662 2.356-.074 1.178-.662.59-.147.515v1.252l-.81 1.325.148 1.473.662-.074.81.517 1.618-.074 2.353.22.59-.294.514-.074 1.986.368 1.618-.957.81-1.473.515-1.693.22-1.325.514-.662-.294-.59.294-.368.515-1.62.293-.44v-.958l.662-.663-.147-.516.442-.957-.148-.588.442-.442.662-2.356.368-.44-.368-.96.44-.293.296-.515.22-1.25.515-1.032-.294-.736.515-.295.368-1.546.22-.442-.147-1.104.808-.22.295-.59 2.574-2.725 4.193-1.62.59.295 1.47-.147.368.442.44.073 1.105-.22-.442.957.516.22.662.81.442 1.03.073.664-.368.44-.22.59.147.736-.662.81-1.104 1.988-1.177.515-1.84 1.546-1.177.368-1.912 1.25-1.323.222-.957.737-.588.957.294.515.515 3.02.81 1.25.59 2.43.66.958.148.59.368.44.147.663.662.957.956.59.516 1.03 1.03 1.252h.956l.22.515.442.368 1.03.442.44.368.663-.073 1.104.294.663-.37.515.296h1.692l1.25-.37 1.324-.072.662-.59.59-.147 2.794-1.62 3.31-3.24.22-.956h.737l.294-.588 1.472-1.988.22-.59.737-.956.072-.737.736-.44 2.354-4.492.81-2.282.22-1.252-.515-.22-.368-.37-.516-1.03h-.59l-.88-.22-1.03.367-1.03 1.4-.957 2.356-.59.958-.44.294-.883 1.988-1.47 2.135-.81.958-.883.737-1.69 1.767-1.104.736-2.06.81h-1.25l-1.25-.368-.884-.59-2.133-2.576.072-.516-.147-.515.074-.59-.81-.514-.59.22-.367-.22-.147-.443 1.913.147.293-.59 1.398-1.103.37-.515.514.295.367-.442 1.105-.515.294-.59.514-.22.22-.59.368-.368.662-.147.515-.294.735-.958.515-1.178h.662l.588-.736 1.104-2.135.662-.957v-.81l.22-.516v-.662l.442-.81-.22-1.105.367-1.62-.736-2.43-.883-2.208-.59-1.106-.955-.294-.736-.884-.515-.368-.808-.073-.956-.663-1.177-.368-1.4-.22-.514.44-1.177-.294-.59-.368-.293.442-.515.368-.515-.442-.515.295-2.428.736-.367.443-.515.073-1.987 1.105-.882.737h-.662l-.073.515-.22.295-.516-.663.222-.662.074-1.252.368-.368v-.81l.44-.442v-1.473l.148-.662.883-2.21-.074-.514.81-1.25-.147-.81.662-1.106v-.515l.81-2.357-.295-.81.59-.957-.37-.442zm7.357 19.44l.294-1.4.516.148.294.295.59.074.514-.517.44.884.37.294.588.15-.442.514-.147.59-.588-.075-1.398.736-.147-.663.662-.22.368-.37.735-.073-.44-.368-1.03-.147-.442-.295-.074.442.22.442-.442.22-.367-.073-.073-.588zm-7.283 22.456l.295-.443.514.074-.074-.367-.44-.074.293-.442.368-1.84h.516l-.074.66.22.443-.367.37.147.515.883.442.147.59-.662.146-.662-.295.147.958-.515-.442-1.177.073-.662-.22.442-.663.148.662.514-.147zm-8.606-24.225l-.22-.515.146-.516.515.368.808.884-.294.515-.515.296v.59l-.148.44-.515.074v-.515l.294-.515.148-.663-.22-.442zm-5.223 5.89l.294-.515.367.147-.368.81.514.148v.515l-.735-.074-.516-.294-.22-.59.66-.147zm2.722-1.398h.368l1.03.736.514.147-.59.22-1.618-.514.295-.59zm18.83-5.964l.737.073-.147.516-.368.44-.442.222-.22-.442-.075-.662.515-.147zm-3.162 2.577l.442-.148.367.148.22.515-.146.736-.81-.735-.514-.074.44-.44zm-12.8-5.08l-.514-.295.074-.59.59.22.44.443.147.516-.514.368-.22-.663zm-5.075 15.46l.735-.22.074-.736.514.295-.147.514-.442.515-.588.147-.147-.516zm1.103-9.13l.295.296.147.515-.957.296v-.663l.515-.442zm18.317 2.063h.515l.294.294-.37.442-.587-.074.147-.663zm-.736-1.105l.442-.368.44.148-.293.515-.662.294.074-.59zm-14.197-.073l.44-.147.37.368-.442.368-.662-.074.294-.515zm3.016-1.84l.81.294-.442.44-.514-.147.147-.59zm11.33 15.682h.587l-.515.147-.22.37-.442.146-.147-.516.736-.147zm-16.406-23.782l.442.294.293.515-.81-.148.074-.662zm18.832 15.83l.44.147.148.59-.957-.442.37-.295zm-6.327 9.13l.515.22-.147.443-.514.147.147-.81zM189.837 25.01l.59.074v.516h-.59v-.59zm1.104 5.228l.148.59-.515.073-.147-.514.515-.148zm13.02-2.577l-.22-.66.515.072.295.295-.59.294zm-24.568 28.275h.515l-.074.516-.44.148v-.663zm32.514-21.94l.073-.59.44.44-.146.517-.368-.368zM199.18 49.75l.22-.294.148.442-.074.44-.368-.072.074-.516zm9.342-16.198l.074-.442.22.295.074.515h-.59l.222-.368zm4.267-1.767h.44l-.074.44-.44.075.073-.515zm-18.54-18.113l.37.515-.663.147.294-.662zm-5.222 20.91h.442v.442h-.442v-.44zm11.182 13.475l.22.515-.44-.22-.37-.442.59.147zm-18.023 6.406l.074-.442.368.295v.442l-.44-.294zm22.657 2.356l.073-.443.368.22-.073.443-.368-.22zm-12.58-36.153l.442-.074-.22.442h-.442l.22-.368zm15.743 12l.22.59-.735-.442.515-.147zm-6.62 19.88l-.074-.44.368.147.148.44-.44-.146zm8.827-16.86l.44.368-.44.295v-.663zM190.94 28.62l.295.514h-.515l.22-.515zm18.465 5.742l.44.073-.146.295h-.295v-.368zm-19.273-4.786l.294.368-.44.294.146-.662zm-.662-.957l.147.514-.59-.368.443-.147zm17.434 24.885l.22-.44.147.81-.366-.37zm6.694 2.725h.294v.368h-.368l.074-.368zm-7.87-15.02l.146.588-.515-.515.367-.074zm-12.433-16.494h.22v.516h-.22v-.516zm7.062 27.538l.294.368-.293.368v-.736zm-20.45 1.767l.44.443h-.44v-.442zm6.252-17.818l.22.37h-.515l.294-.37zm1.69-9.645l.443.22-.074.37-.37-.59zm8.387-9.498h.294v.293h-.293v-.294zM182.26 51.737h.295v.295h-.294v-.295zm4.194-3.166h.294v.295h-.294v-.295zM211.76 30.68l.366.368-.147.295-.22-.663zm.072.81h.442v.368l-.442-.368zm-1.986 2.283l.368.44h-.368v-.44zM202.343 53.8l.22.294-.367.22.147-.514zm2.722-10.75h.294v.22h-.295v-.22zm-1.104-.59l.295.222-.294.22v-.44zm-10.665-24.15l.073.37-.367-.15.295-.22zm19.273 9.94l-.22.22h-.516l.736-.22zm-21.995-6.553l.368.295h-.367v-.295zm14.786 32.47l.367.296h-.368v-.295zm-24.35 2.578l.147.368-.294-.073.147-.295zm4.487-22.162l.295.44-.295-.146v-.294zm-4.34 17.155l.368.22h-.368v-.22zm22.436-26.36l.368.222h-.367v-.22zm-15.742 9.94l.37.222h-.37v-.22zm67.09-10.234l.293-.59.074-.588-.22-.59-.59-.367-.514.073-1.986-.295-.59.074-.44.294-4.708-.294-.442.442-1.03.515-.442.44-.22.59-.295 1.914-.44.442v1.473l-1.103 1.913-.22 1.767-.442.59-.148 1.177-.367.81.073.736-.662 1.178.148.96-.81.66v1.253l-.66 1.546-.663 2.208-.147 1.252-.81 2.356-.22 1.693.074.588-.295.442-.22 1.694.588 3.608-.073.515 1.47 1.62.516 1.4.735.588 3.164 1.62 1.103.294 1.692-.222.662.148h1.913l1.69-.442 4.268-1.767.44.44.075.443-.294 1.178-.074 1.326-.515.294-.735.957-4.34 1.03-1.178.075-.44.368-1.472.368-.442.368-.588-.147-1.03.22-1.986 1.253h-.59l-.955.294-.734.884-2.943 1.84-.515 1.105-.956.81-.662 2.87-.294 2.284.294.294.147.517v.736l.368 1.178 1.397 1.768.22.663 1.4 1.105 3.383 1.178.515-.22.367.44 1.398.222.736-.663.442.37 1.03.22 2.87-.37 6.104-2.944.662-.957 2.5-2.282.516-1.104.81-.442.147-.81 1.03-1.472 1.766-3.166-.147-.81.882-.81v-.736l.735-2.062.074-.59.442-.367.883-1.62.44-.37h.81l.295-.44 2.133-1.18.956-.81 1.103-.514 1.912-1.326 3.605-2.87.44-.96 1.105-.735v-.662l1.03-.663.662-.884.073-.59 1.618-1.398.22-1.104.884-.736 1.103-1.915.736-.883.074-.737.883-1.4V43.05l.442-.442.587-.957v-1.03l-.294-.442-.883-.736-1.618-.736-.736.662-.588.148-.515 1.25-.736.96-.515 1.103-1.324 1.987-.736 1.767-.81.442-.293 1.03-1.62 1.768-1.47 1.914-1.766 1.546v.81l-.662.148-1.104.736-1.397 1.325-.514.22h-.515l-.44-.22-.368-.442.662-2.576.368-.44-.074-.517.22-1.767.37-.442.22-1.178.66-.883.37-2.283.588-.957.073-1.104.293-.516-.147-.81.662-.81.147-.44-.073-.664.368-.368.22-.516V39l.442-1.104-.368-1.325.956-.44.515-2.063-.147-.515.59-.957.513-1.178v-1.252l.59-.884.81-2.134-.148-.81.662-1.62.147-1.25-.882-.517-1.765-.148h-2.5l-1.105-.147-.514.59-.883-.59-1.176.22-1.913 1.03-.367 1.032-.147 1.03-.368 1.105-.514.958-.074.44.147.59-.883 1.62-.44 1.178-.075 1.252-.663 1.104.368.663-.368.368-.147 1.326-.662.884-1.618 4.64.22.66-.588.96.22.588-.66.883-1.178 3.166-.368.443-.956.515-1.03 1.18-.957.66-2.353 1.032-.59-.147h-1.69l-.442-.516-.736.22h-.588l.515-.367-.81-1.472-.368-1.105.588-2.135V45.48l-.22-.516.81-.957-.222-.663.44-.44.222-1.768.662-.958.147-.957.514-1.03-.147-.81.44-.294.296-.515.662-3.165.44-1.105-.073-.663.368-.515.442-1.252-.22-.81.955-1.325.368-1.03-.147-1.18.44-.44zm-6.253 44.988l1.765-.368 1.103.147.22.443-.072 1.693-2.207 3.314-1.472 1.693-.882.736-2.06.957-1.25.147-.957.368v-.515l-.735-.148-.442-.442-.588-.22-.147-.664-.662-.884.22-.515.148-2.282.81-.148.294-.44 1.324-1.032.294-.442.81-.073.956-.368h.81l.44-.295 1.104-.368h.735l.442-.295zm11.254-12.075l.222-.59.44-.294.443.368h-.515l-.294.296.515.368h.515l1.177-.295h.515l.368.368.147.59-.662-.37-.588-.073-1.692.294-.294.588-.442.37.515.367.073.442-.59.294-.22-.81-.588-.146.368-.516 1.03-.81-.442-.44zm1.693-4.27l.59.294h.66l.222.443-.883.736-.662.22v-.59l-.368-.883.44-.22zm-15.595-1.473l.074-.663.81.443-.295.515-.442.368.074.59-.442-.295-.22-.515v-.515l.44.074zm17.214-5.228l1.618.663-.147.514-1.398-.515-.073-.664zm-2.65 16.86l.516.37.368.588-.147.663h-.737l.442-.59-.368-.514-.588-.295.513-.22zm1.62-15.167l-.736.073-.662-.22-.22-.516 2.06.294-.442.37zm-1.766 13.547l.368.59.515.073-.148.663-.956-.663-.295-.59.516-.073zm-1.03-11.265l.368.368-.368 1.105-.294-.442-.147-1.105.44.074zm-.662 4.712v-.662l.81.662-.148.516-.588.147-.074-.663zm-1.25 5.007l-.294-.44v-1.032l.588.295-.294.515.368.442.073.516-.44-.295zm7.724-16.713l.368.295.22.515h-1.103v-.515l.515-.295zm-6.694 17.082l-.147-.516.22-.516.515.295-.147 1.03-.44-.294zm.073-7.143l.515-.442h.59l-.59.81-.515.148v-.516zm5.517 6.185l.442.515-.294.516-.442-.442-.22-.662.514.074zm-5.443 5.67l.295.515-.662-.147-1.324.147.367-.442.662.147.66-.22zm-.293-13.18l.735-.074-.073.516-.296.22h-.588l.22-.662zm-2.28 19.07l.146-.663.295.515.147.736-.81-.146.22-.442zm.146-18.776l.22-.368.516-.22-.222.588-.368.442h-.514l.367-.442zm7.21-12.738l.66.59-.66.368-.22-.22.22-.738zM258.47 57.26l.59-.073.22.442-.59.146-.514-.147.294-.37zm4.193 6.185l.147.442-.662.368-.147-.662.663-.148zm-19.86-18.996h.88l-.44.514h-.662l.222-.515zm6.84 8.098v.81l-.515-.074-.147-.44.663-.296zm7.724 11.56h.44l-.146.81-.44-.074.147-.736zm-4.34-8.836l-.147-.662.514.22.074.37-.147.514-.293-.442zm5.59 9.13v-.662l.515.442v.662l-.515-.44zm2.722-3.386l.146.44-.294.664-.294-.59.147-.22.294-.294zm-13.904-13.622l.588-.147-.294.736-.515-.147.22-.442zm.44 7.658l.296.515-.59.147-.146-.59.44-.072zm14.493.957l.587-.15-.294.664h-.515l.22-.515zm-15.08-28.35l.44.075.147.368-.81.147.222-.59zm19.64 12.15l.22-.442.148.516-.442.442-.368-.368.442-.148zm-17.14 15.315h.662l-.294.442-.515.147.147-.59zm13.903 1.178l.368-.294.222.514-.663.295.073-.517zm5.076-26.285l.587.147-.147.442-.44.073v-.662zm-14.64 23.266l.515.074-.368.59-.44-.443.293-.22zm12.21-16.198l.516-.147-.22.588-.59-.074.295-.368zm-8.973 20.616l.294.295.442.147.368.515-1.03-.663-.44-.148.367-.148zm8.974-15.315l-.146-.515.515.147.146.515-.515-.148zm-2.426 8.247l.515-.074-.148.516h-.515l.147-.442zm1.912-2.65l-.294-.59.515.22.294.37h-.514zm-8.46 14.283l.148-.442.368.22-.074.443-.44-.22zm3.385-2.945l.442.074-.294.368-.515-.147.368-.295zm2.722-14.726l.59-.294-.148.515-.295.147-.148-.368zm-3.53 16.714v.515l-.663-.147.66-.368zm-3.384 3.46l.294.442-.515-.073-.147-.296.368-.073zm-11.476-7.068l-.22-.515.735.294-.515.222zm11.77 12.444l.368.368-.515.294.147-.662zm.956.662v-.44l.294.293.074.516-.368-.368zm7.136-32.912l.294.442-.662-.148.368-.294zm-1.62 10.897l-.22.515-.294-.368.515-.147zm-15.962-14.43l.368.293-.515.22.147-.514zm20.083.514l.515.147-.515.295v-.443zm-23.834 19.88l-.22-.442.515.148-.294.294zm3.017-26.36l.294.295-.44.22.147-.514zm11.55 41.307l.146.515h-.368l.22-.516zm5.59-17.23h.367v.516l-.367-.515zm-5.738-.957l-.222.37-.294-.37h.515zm-11.403-10.38l-.22-.37h.514l-.293.37zm21.7-8.47l-.22-.367h.515l-.295.368zm-2.942 9.573l.368.295-.368.22v-.515zm-8.24 11.34l.075-.443.294.663-.368-.22zm-1.102 1.913l-.147-.44.514.367-.367.073zm11.622-15.388l.295.294-.368.22.073-.515zm-3.09 5.817l.22.368-.366.147.146-.515zm2.28-14.58l.148.443-.22.294.073-.737zm-23.318 16.862l.294.22-.293.222v-.442zm5.444 8.173h.22v.294h-.22v-.293zm6.916 2.724l.147.443h-.295l.148-.442zm-11.402-9.94h.22v.296h-.22v-.295zm24.128-17.89l.294.22-.294.147v-.368zm-15.89 27.17l.295.22-.295.147v-.368zm14.05-11.856l.368.295h-.367v-.296zm-6.988-.368l.442.22h-.442v-.22zm9.416-12.96l.22.443h-.22v-.443zm-22.95 1.547h.22v.22h-.22v-.22zm11.254 19.29l.44.15h-.293l-.146-.15zm60.688-8.392l.074-.957.514-.368.295-.44.073-1.695.59-3.313-.075-.59.22-.81-.66-4.05-.59-.956-.44-1.103-.295-1.252-.515-.147-.294-.37-.15-.588-1.102-1.914-.81-.663-1.103-.368-1.03-1.4-.66-.146-1.546-.737-.663-.074-.295-.443-.514-.294-2.28-.368-.884-.516-.956.294-1.25-.295h-2.87l-4.56.81-.662.735-.59-.073-.587.147-1.84 1.03-1.177.22L287.6 28.4l-.662.957-.81.294-.146.81-.81.736-1.397 1.84-1.618 3.093-.736 1.84-.587 2.282-.442 2.577.296.81-.295 1.177V48.5l.737 1.398v.81l.515 1.03v.59l.515.294.588.957.442 1.103.588.958.515.37.59.146 1.47 1.693.956.59.515-.15.516.15 1.177 1.25.956.368 3.677.958.515-.148 3.384.148 2.428-.22.588.072 2.28-.81.442-.368 1.986-.368 1.104-.442.882-.59.736-.81.588-.146 1.325-.81.588-.147.294-.516 1.62-1.618 2.426-1.105.59.147 2.867-.59.59.075 1.102-.958.662.22 1.25-1.03.516.147 3.016-2.504.515-.147.957-1.77.956-.66.148-.81 1.62-1.547.146-.516-.588-.368.662-.222.44-.957-.146-1.692-1.84-.884-1.25-.074-1.47 1.4-.074.588-.883 1.84-1.03.59-2.575 2.283-.515.222-.073.515-.294.294h-1.472l-.956-.514V45.7zm-13.167-14.136l1.69 1.4.958.588-.074.81.293.44.515.15.295 1.766v2.43l-.295.957-.662.736-1.103.37h-.736l-.368.22-.295.442-.588.147-.957.515-.81.736-.66.884-.516 1.105-.368 2.355.148 1.178.367 1.252-.22.442-.367.294-.074.59-.442.295-2.28.59-1.177-.075-1.176-.368h-.59l-.293.22-1.47-1.03-.81-.884-1.03-.662-.22-1.326-.736-2.282.074-1.62-.22-.59.588-1.25.147-1.915.22-.663 1.104-1.914.81-1.84 1.47-1.768.442-.957.514.148 1.397-1.252.296-.662 1.176-.074.442.22 1.03-.588 2.354-.368.515.294 1.25.22.442.296zM285.76 47.762l.663-.736.59.294.293.516-.81.147.442.957-.882-.368-.515.22-.22-.81.44-.22zm27.66-6.553l.957.22-.147.736-1.104-.294-.147-.516.44-.147zm-25.6 3.092l-.44-.368-.147-.59.44.22.295.443.442.295-.147.736.294.515-.515.148-.074-.515.22-.442-.367-.44zm-1.25 1.767l.368-.37.368.148-.294.442-.44.294-.59.147v-.514l.59-.147zm20.45-2.136l.148-.442h.515l.147.81-.81.147v-.516zm-17.213 6.847v-.588l.515.368.294.663-.662.147-.147-.59zm-1.397.148l-.515-.147-.295-.514.957.147.294.294-.44.22zm18.464-4.933l-.515-.294h.514l.956.37-.662.44-.294-.515zm4.045-1.767l.588-.147v.81l-.662-.147.073-.515zm-.074 2.43l.662.147.294.515-.956-.147v-.515zM287.82 37.97l.075-.442.515-.148v.59l-.22.368-.37-.368zm27.807-1.105l-.367-.22-.074-.59.515.147.295.37-.368.293zm-3.31 6.553l.147-.59h.442l-.22.737-.37.37v-.517zm-.073 4.123l.662-.367-.148.663-.588.294.074-.59zm.588-8.098l.147-.442.44.148-.147.515-.367.295-.074-.516zm-5.37-10.234l.147-.37.514.15-.147.44-.368.22-.148-.44zm-.44 19.438l.587.147-.295.442-.662-.147.368-.442zm1.838.368l.073-.59.442.295.073.662-.588-.368zm2.574-18.26l.515.073-.148.59-.662-.295.294-.368zm.883 9.277l.44.517-.513.073-.442-.368.515-.22zm-29.72 10.015l.663.368-.367.294-.442-.147.148-.515zm23.91-22.384l.514.075-.294.515-.514-.073.294-.516zm8.238 16.715l.588.368-.588.148-.515-.294.515-.22zm-25.01-11.56l.514-.22.366.294-.514.073-.59.368.222-.515zm25.01 16.935h.44l-.073.59-.44.073.073-.663zm-28.248-12.37l.147-.515.442.295-.148.515-.44-.295zm2.06 13.843l.073.59-.44.22v-.663l.367-.147zm-5.738-5.596l-.075-.515h.515l-.147.736-.294-.22zm.735.81l.515.074-.295.442-.515-.073.295-.443zm32-4.123l-.516.662-.295-.59.81-.072zm.955 6.553l-.073-.59.44.295.222.516-.59-.22zm-7.135-5.375l.367-.148.442.148-.147.442-.662-.442zm3.163 3.24l-.074-.516.515.22v.443l-.442-.15zm-1.177-17.966l-.146-.516.515.22.072.517-.44-.22zm-20.596 24.518l-.295.663-.442-.515.736-.148zm.81-16.787l.22.515-.515-.073-.15-.37.443-.073zm18.39-8.32l.22-.442.294.368-.294.442-.22-.368zm-3.605 22.75l.514.075-.295.368-.516-.147.295-.295zm-16.332-9.35l.44-.147-.072.516-.442.073.074-.443zm24.496-1.472l.22.294-.073.515-.44-.663.294-.147zm-6.84 7.068l.587.516-.587.146v-.663zm6.178-.883l.515.073-.294.295-.515.073.294-.44zm-1.913 3.166l-.148-.663.442.59.073.515-.368-.442zm-1.987.22l.442-.22-.148.442-.515.147.22-.368zm6.18-3.828l.294-.295.073.442-.515.22.147-.367zm-5.297 4.86h.368l-.074.44h-.294v-.44zm-20.082-17.672h.515l-.516.516v-.516zm2.427-1.62l.516.516-.662-.147.147-.368zm20.598 11.78l.442.296-.442.294v-.59zm-4.046 8.027h.295l-.147.442h-.295l.147-.442zm.957-2.798l.146.663-.44-.295.293-.368zm-6.254-22.972l.44.073-.146.295h-.294v-.367zm5.664 3.976l.295.367h-.663l.368-.368zm2.354 6.625l.442.516h-.442v-.515zm-10.445-9.572v.442l-.443.147.442-.59zm-12.948 9.425l-.074-.442.515.59-.44-.148zm24.496 7.73l-.074.37-.515.073.588-.44zM292.97 55.2l.515-.146-.588.515.073-.368zm-9.268-11.706l-.295-.368.663.22-.368.148zM312.17 29.65h.294v.294h-.294v-.295zm0 15.314h.294v.295h-.294v-.296zm-3.53 5.45h.293v.293h-.294v-.294zm-20.23 5.153l.44.294h-.44v-.293zm27.07-20.764h.22v.295h-.22v-.295zm-24.054 21.5h.294v.22h-.294v-.22zm2.133-3.68l.293.22-.294.147v-.368zm11.548-23.93l.294.22-.294.147v-.368zm1.618 25.328l-.22-.22.368-.074-.148.295zm-17.213-4.638l.44.295v.22l-.44-.515zm28.395-2.87l.368.22h-.368v-.22zm-33.544 1.103h.294l-.44.22.146-.22zm2.133-7.216l.294.367-.293-.147v-.22zm-.662 9.498l-.147.368v-.22l.147-.148zm.294 5.595l.367.074h-.22l-.148-.074zm77.46-32.102l-1.03-.44-1.177-.222-2.502.147-1.028.295-.59-.295-1.323-.073-.442-.368-1.692.957-.883.81v1.105l-.515.81.147.59-.368.44-.588 1.915-.295.442.147.81-.368.368-.22.516v.662l-.663 1.62v.81l-.514.81v.81l-.515.59-.22.662.074 1.178-.588.736-.147.515.146.81-.368.515-.956 2.21.147.44v.663l-.37.442-.44 1.104.073.59-.662.81-1.102 1.914-.59.22-2.353 2.062-.588.295-3.09.44-2.06-.81-.515-1.103-.294-1.178-.368-.442.515-.81-.147-.59.147-.588-.147-.59.294-.44.957-3.46.293-.443-.147-.81.368-.367.515-1.03 1.102-3.388-.22-.81.66-.957.075-1.104 1.177-2.577-.147-.663.147-.59.662-.883-.147-1.398.735-.81.22-1.767.22-.515-.367-.663-.515-.442-5.958-.147-2.354.22-.956.296-.662.883-.588 2.135-.515.958-.075 1.325-.294 1.252-1.25 3.092-.294 1.104.295.736-.514.368.073.663-.59 1.03-.808 2.284-.22 1.325-.737 1.472-.22 1.252v1.25l-.81 1.253v1.178l-.367.515-.368 1.105v2.945l-.22 1.03.44.81-.147.516.368.59-.072.736 1.103 2.06.663.958.81.59.514.073.294.515 1.178 1.03 1.325.15.44.22 1.03.22.663-.073.368.294.588.073 1.104-.22.367-.296.295.295.514.147 2.28-.59 2.28-.81 1.914-1.178.736-.81.662-.22 1.177-1.18.59-.146.44.22.957 1.18 1.177 1.913 1.397.81 1.105.367 2.427.516 1.84.073 1.618-.662 1.103-.074 1.618-.663 1.988-1.03 1.84-1.252.808-1.03 1.912-1.547.148-.736.956-.81.81-.957.955-.81.147-.59.515-.883.81-.663.44-1.105.588-.957.442-.368.22-1.252.295-.516.44-.294.295-1.104.736-.81.22-.442.22-1.105.075-1.325-2.574-1.473-1.25.515-.957.736-.59 1.695-1.25 1.84-.367 1.178-.883.663-.147.59-.883 1.545-.736.81-.588.958-.368 1.18-3.825 2.428-1.766.368-1.397-.883.073-.588-.147-1.767.22-1.105.81-2.135-.074-1.104.368-.294.294-.515v-.736l.81-1.472-.59-1.178h.884l.588-2.21.295-.367.148-1.62.294-.516 1.25-4.564.957-1.988.072-1.767.59-.735v-.957l.514-.884-.074-.736.22-1.03.295-.443-.368-.294zm-11.256 20.175l.883-.957.515.22h.59v.59l.366.81h-.44l-.516-.294-.22-.516-.81.59-.147.44-.588-.073-.22-.44.587-.37zm.22 3.24l.516-.147-.147.59-.59.81-.513.22.147-1.326.588-.147zm-.293-9.498h.663l.22.442-.073 1.03-1.25-1.105.44-.368zm-19.566 18.04l-.148-1.105.368.294-.073.442.442.22h1.03l-.515.295h-.44l-.296.368-.514.15.148-.664zm18.61-10.604l1.472.442-.22.516-1.25-.294v-.663zm.516-2.65h.81l-.075.59-.515-.075-.44.147-.442-.073v-.516l.662-.073zm-21.922-.22l.368-.517.22.516-.514 1.252-.368-.663.294-.588zm-1.03 6.92h.515l.368-.368.222.442-.22.662-1.25-.59.366-.147zm20.745.663l1.177.22v.516h-.515l-1.03-.515.368-.22zm.735 1.84l.442.295.662.81-.442.075-.367-.442-.442-.22.148-.517zm3.678-2.06v.514l-.515.074v.515l-.22-.442-.073-.663h.81zm-22.362 2.208l.368-.442.367.294-.148.442-.515.22-.073-.514zm21.112 4.344l.588-.147.368.37-.662.22-.515-.074.22-.368zm4.266-25.844l.295-.22.515.073-.442.59-.515.072.147-.516zm-.588-1.325l.588-.15-.588.81-.368-.293.368-.368zm-22.51 16.712l.515.22.146.59-1.103-.81h.44zm-1.618 3.167v-.738l.515.516-.44.662-.074-.44zm3.678 7.582l.662.074-.44.442h-.516l.294-.516zm18.905-14.357l.588-.074-.295.516-.662-.147.37-.295zm.588-12.223l.588.147-.147.44h-.295l-.147-.588zm-19.64 2.283l.072-.516.368.22.074.516-.515-.22zm-2.576 19.953l-.147-.442.515.074.147.442-.515-.074zm-4.193-7.51l.073-.442.44.148-.146.515-.368-.222zm7.797-12.59v-.442l.44.147v.515l-.44-.22zm16.845 7.51l.442.44-.81.15.368-.59zm3.605-5.228l.515.074-.295.368-.44.073.22-.515zm-4.193 22.9h.588l-.44.293-.663.147.514-.44zm1.618-21.06l.368.442h-.442l-.367-.294.442-.147zm-4.78 8.468l.072-.59.294.443-.147.516-.22-.368zm-17.73-1.84l.442-.222v.37l-.368.293-.074-.443zm12.947 6.7l.44.147-.294.294-.44-.148.293-.294zm11.107-7.732h.294v.442h-.44l.147-.442zm-22.142-3.68l.44.146-.293.442-.22-.294.073-.295zm19.64 16.27l.22.59-.66-.368.44-.22zm2.502-19.805v.295h-.515v-.294h.515zm-5.444 3.24l.442.59h-.442v-.59zm-1.84 17.672h.222v.44h-.368l.147-.44zm-18.02-5.375l.22.515-.59-.294.37-.22zm3.31-22.752l.293.368-.44.22.146-.588zm19.566 4.933l.514.148-.368.22-.147-.147v-.222zM334.46 54.02v.37l-.516-.148.515-.22zm21.994-.22l.44.074-.587.294.147-.368zm-23.76-13.253h.294v.294h-.294v-.293zm23.907-5.302l-.44.148-.22-.295.66.147zm-4.633 15.094h.44v.367l-.44-.368zM328.5 51.443l.22.294-.367.22.148-.514zm31.338 1.767h.294v.222h-.294v-.22zm-24.79-20.174h.22v.295h-.22v-.294zm-1.398 19.88l.44.295h-.44v-.294zM416.7 17.5l.295-1.178-.662-5.154-.44-.44-1.105-2.137-2.133-2.208-1.104-.22-.955-.958h-.736l-.59-.368-3.09-.147-1.028.22-.515.294-1.104-.147-.81.81-.66-.147-1.546.957-1.912 1.546-1.62 1.767v.81l-.88.81-1.693 3.24.147.81-.663 1.104.515.957h-.81l.148.81-.663.885-.44 1.178-.59 2.43-.44 1.178-.295.443.368.957-.368.442-1.25 2.282.22.515-.147.44.074.517-.737 1.472-.074 1.104-.663 1.03-.44 1.84.44.517h-.81l-.22 1.694-.882 2.21v1.177l-.368.222-.22 1.03-.736 1.99-.073 1.103-.368.663.073.515-.442.81.075.59-.81 1.104.148 1.104-.515 1.106-.44.368-.148 1.25-.662 1.99-.515.957.515.516-.663.736-1.397 4.27-.147 1.253-.514.957-.736 2.21-.588 2.355-.81 2.135.074.81-.588 1.472-.22 1.03v2.357l-.443 1.18.074 1.178.22 1.03v1.105l.294.515.81.884.22.59.073.735.59.147.44.37.662.882.44.295.736.074.368.59.515.294 1.912.22.956.37 1.913-.075.59.22.514-.367 2.942-.442.59-.368h.808l2.133-1.178 1.84-1.546.81-.295.366-1.25.957-.222.147-.81.81-.884 1.25-2.208.367-.442v-.662l.368-.957.22-1.104.59-.883.44-1.03.59-2.357-.222-.516.074-1.104.294-.516.22-1.03-.22-2.43.074-1.178-.515-.81.44-2.062 4.71-1.62.44-.368.516-.073.81-.664 1.764-1.03.736-.737.515-.075.294-.957.662-.22.81-.884.514-.295.368-1.105 1.47-1.547.222-.59.81-.44.367-1.105 1.177-1.84.073-.663.736-.81.663-1.694.074-.662.882-1.252-.516-.957-1.324-.957-1.692-.22-.588.146-1.692 2.872-.368 1.178-.515.368-.368.515-.22.663-.368.515-.516.368v.737l-.81.368-.146.957-1.472.957-1.103 1.326-2.575 2.208h-.81l-.955 1.105-.736-.146-.44.294-.59.147-1.103-.073-.81.442-1.617-.148-1.104-.294-.81.442-.44-.37-2.428-.956-.81-.736-.146-.516.072-1.104.515-1.104v-.81l.22-.59.737-.883.882-.663h.59l1.323-.59h.66l.37-.293 2.132-.664.147-.442.367-.368.662.295 1.397-1.104 1.103-.662.662-.958.956-.662.148-.81 2.28-2.43.147-.736.515-.368.147-.81.515-.663.59-1.767.66-.736.295-1.326.44-1.178.59-1.03.515-2.357.735-2.21.147-1.25.662-.663-.073-.81.148-1.693-.074-.663 1.104-1.104-.147-.59zm-12.137 17.01l-.883 1.472-1.177 1.178-2.648 2.06-1.765-.44.662-1.252.073-1.326.883-2.135.294-1.03v-.516l.515-.956.074-1.326.37-1.104.513-.81-.22-.663.662-.81 1.47-5.08.148-1.03.515-.883V18.68l.59-.81.22-1.253 1.397-2.283.147-.59.59-.146h2.28l.882.368.44.368.295 1.252-.074 1.767-.368 2.504-.81 1.546-.293 1.325v1.252l-.81.81v.59l-.956 2.723v.59l-1.62 3.165-.22 1.326-.956.736-.22.59zm-10.666 41.82l-1.545 1.473-.22.515-3.164.442-.662-.147-.736-.736-.44-1.178-.148-1.253.073-.663.368-1.178.368-.442-.072-.515-.22-.296.22-.515.735-.81.662-3.314.956-2.135-.072-.515.147-.515.515-.884-.147-.957.368-.37.516-.956.147-1.178-.074-.663.293-.442.442-.293 1.545-.59 1.103.663.662.148.956 1.4.516 1.03.59 2.43.22.294-.516.957v2.502l-.956 3.166-.515 2.21-.736.81-.81 2.06-.367.442zm-5.15-20.395v-.957l.515.368v.736l.295.958v.515l-.663-.22-1.176-.737-.368-.59 1.103.443.294-.515zm-.44-3.24l.146-1.104.81.075-.148.736.736.075-.22.515-1.177.22-.147-.515zm2.353-9.203l.515-.22.368.514-.295.368-.588.22h-.59l-.366-.293.22-.662.736.074zm4.34-3.46l.44-.37.516.075-.147.515-.81.59-.44-.222-.148-.442.588-.147zm5.15-22.68l1.103.15.368.514-1.103-.22-.515.22-.44-.736.587.073zm-12.58 41.38l.22-.367h.37l-.075.663-.588-.074-.147.22h-.662l.294-.662.588.22zm5.665-24.96l-.148-.515.295-.442.368.148v1.03l-.515-.22zm-4.267 20.102l.44-.148.296 1.252-1.104-.957.368-.146zm.074-5.89l.515.073.147.515H388.6v-.442l.442-.147zm1.397 1.914l.44.147-.22.515-.44.295-.15-.957h.37zm6.03-27.096l.222-.516.074-.662.294.368-.147 1.178-.442-.368zm-9.93 31.22l.148.22-.22.368-.59.073-.147-.515.81-.147zm12.138-34.46l-.294-.59h.662l.147.37v.515l-.515-.295zm-1.765 9.13l.515.295-.295.515-.662-.073.443-.738zm-9.416 25.844l-.147-.515.735.148.074.515-.37.148-.293-.294zm3.972-15.388l.146-.516.515-.147-.072.59-.22.367-.37-.294zm6.03-12.59l.222-.443.515.147-.147.516-.368.147-.22-.368zm-4.118 5.374l-.442-.22h.442l.882-.516-.22.662-.662.074zm-1.62 3.608l.443.147.22.515-.956-.294.293-.368zm2.65 1.325l.294.442-.294.22h-.22l-.148-.515.368-.147zm8.165-21.352l.294-.37.37.15-.148.367-.515.147v-.294zM391.322 42.46h.956l-.367.295h-.588v-.294zm2.722 0l-.147-.514.515.22.147.442-.516-.147zm6.032-21.793l-.22-.516.514.222.294.442-.588-.147zm-9.416 31.88l.22-.44.295.44-.44.37-.075-.37zm-2.722-3.018l.515.147-.22.368-.442-.147.148-.37zm10.152-28.79l.662.074-.662.442v-.516zm-5.96 29.305h.37v.442h-.37v-.442zm-.66-2.21v-.588l.514.22-.515.37zm1.323-8.76l.59.367-.59.147v-.516zm-2.722 8.098v-.662l.222.37.074.588-.295-.295zm.075 11.266l-.294-.517.663.147-.368.37zm2.28-22.9l-.147-.442.368.147.147.442-.368-.147zm0 9.94l-.44.515-.148-.442.588-.073zm-8.018 14.357l.515.22-.147.443-.368-.663zm10.96-16.124l.442.515-.59-.147.148-.367zm-2.574-5.375l.442-.22-.295.66-.147-.44zm-13.02 34.826l-.294-.368h.587l-.294.368zm7.43-19.806l.44-.074v.442l-.44-.368zm-.662 13.253l.442-.22-.147.516-.294-.295zm9.27-36.224l.367.515h-.368v-.514zm-1.766 7.51l.22.368h-.514l.294-.368zm5.738 18.996l.367-.294v.515l-.368-.22zm-6.327-16.566l.442-.074-.147.442-.295-.368zm6.547-22.09h.295v.295h-.295v-.293zm-18.61 53.014h.293v.295h-.294v-.295zm10.298-17.524h.294v.295h-.294v-.294zm-1.03-4.638l.294.22-.073.516-.22-.736zm-5.885 9.57l.44.37h-.44v-.37zm6.84-23.78l-.293.294-.44-.074.734-.22zm-.587 5.153l.44.148-.293.22-.147-.367zm-1.913 18.924l-.22-.295.514.073-.295.22zm-.515 1.988l.294.368h-.294v-.368zm3.825-19.586l.368.295h-.368v-.294zm3.752-15.61l.294.222-.293.147v-.368zm-.956 8.837l.295.368h-.294v-.367zm-3.383 6.258l.294.37h-.293v-.37zm61.13 4.86l.073-.957.515-.368.294-.44.073-1.695.588-3.313-.072-.59.22-.81-.662-4.05-.588-.956-.442-1.103-.294-1.252-.515-.147-.294-.37-.147-.588-1.104-1.914-.81-.663-1.102-.368-1.03-1.4-.662-.146-1.545-.737-.662-.074-.293-.443-.515-.294-2.28-.368-.883-.516-.957.294-1.25-.295h-2.87l-4.56.81-.663.735-.588-.073-.59.147-1.838 1.03-1.177.22-3.972 3.388-.662.957-.81.294-.146.81-.81.736-1.397 1.84-1.62 3.093-.734 1.84-.59 2.282-.44 2.577.294.81-.294 1.177V48.5l.736 1.398v.81l.514 1.03v.59l.515.294.59.957.44 1.103.59.958.515.37.588.146 1.47 1.693.958.59.516-.15.515.15 1.178 1.25.956.368 3.678.958.515-.148 3.384.148 2.428-.22.59.072 2.28-.81.44-.368 1.987-.368 1.103-.442.883-.59.736-.81.59-.146 1.323-.81.587-.147.295-.516 1.618-1.618 2.428-1.105.588.147 2.87-.59.587.075 1.104-.958.662.22 1.25-1.03.514.147 3.016-2.504.515-.147.957-1.77.956-.66.147-.81 1.618-1.547.148-.516-.588-.368.662-.222.44-.957-.146-1.692-1.84-.884-1.25-.074-1.47 1.4-.074.588-.883 1.84-1.03.59-2.573 2.283-.515.222-.074.515-.294.294h-1.47l-.958-.514V45.7zm-13.168-14.136l1.69 1.4.957.588-.073.81.294.44.515.15.294 1.766v2.43l-.294.957-.662.736-1.103.37h-.735l-.368.22-.294.442-.59.147-.955.515-.81.736-.66.884-.516 1.105-.37 2.355.148 1.178.368 1.252-.22.442-.37.294-.072.59-.442.295-2.28.59-1.177-.075-1.177-.368h-.588l-.295.22-1.47-1.03-.81-.884-1.03-.662-.22-1.326-.736-2.282.072-1.62-.22-.59.588-1.25.147-1.915.22-.663 1.104-1.914.81-1.84 1.472-1.768.44-.957.516.148 1.398-1.252.294-.662 1.177-.074.44.22 1.03-.588 2.355-.368.515.294 1.25.22.442.296zm-19.274 16.198l.662-.736.588.294.295.516-.808.147.44.957-.882-.368-.515.22-.22-.81.44-.22zm27.66-6.553l.955.22-.146.736-1.103-.294-.146-.516.44-.147zm-25.6 3.092l-.442-.368-.147-.59.44.22.296.443.44.295-.146.736.294.515-.514.148-.073-.515.22-.442-.367-.44zm-1.25 1.767l.367-.37.368.148-.294.442-.44.294-.59.147v-.514l.59-.147zm20.45-2.136l.146-.442h.515l.147.81-.81.147v-.516zM424.57 50.78v-.588l.515.368.294.663-.66.147-.148-.59zm-1.398.148l-.515-.147-.295-.514.956.147.295.294-.44.22zm18.464-4.933l-.515-.294h.515l.956.37-.662.44-.294-.515zm4.046-1.767l.588-.147v.81l-.662-.147.074-.515zm-.074 2.43l.662.147.295.515-.957-.147v-.515zm-23.024-8.688l.073-.442.514-.148v.59l-.22.368-.368-.368zm27.806-1.105l-.368-.22-.074-.59.515.147.295.37-.368.293zm-3.31 6.553l.147-.59h.44l-.22.737-.368.37v-.517zm-.074 4.123l.662-.367-.147.663-.59.294.075-.59zm.588-8.098l.148-.442.44.148-.146.515-.368.295-.074-.516zm-5.37-10.234l.148-.37.515.15-.15.44-.366.22-.148-.44zm-.44 19.438l.588.147-.295.442-.663-.147.368-.442zm1.838.368l.074-.59.44.295.075.662-.59-.368zm2.575-18.26l.514.073-.147.59-.662-.295.294-.368zm.882 9.277l.44.517-.514.073-.44-.368.514-.22zm-29.72 10.015l.663.368-.368.294-.44-.147.146-.515zM441.27 27.66l.515.075-.294.515-.514-.073.294-.516zm8.24 16.715l.588.368-.59.148-.514-.294.515-.22zm-25.012-11.56l.515-.22.368.294-.514.073-.588.368.22-.515zm25.01 16.935h.442l-.073.59-.44.073.072-.663zm-28.246-12.37l.147-.515.44.295-.147.515-.44-.295zm2.06 13.843l.073.59-.442.22v-.663l.368-.147zm-5.74-5.596l-.072-.515h.515l-.147.736-.295-.22zm.737.81l.514.074-.294.442-.515-.073.294-.443zm31.998-4.123l-.515.662-.294-.59.808-.072zm.957 6.553l-.074-.59.442.295.22.516-.587-.22zm-7.136-5.375l.367-.148.44.148-.146.442-.66-.442zm3.162 3.24l-.073-.516.514.22v.443l-.442-.15zm-1.177-17.966l-.147-.516.515.22.074.517-.442-.22zm-20.597 24.518l-.294.663-.442-.515.736-.148zm.81-16.787l.22.515-.515-.073-.147-.37.44-.073zm18.39-8.32l.22-.442.295.368-.295.442-.22-.368zm-3.605 22.75l.515.075-.294.368-.515-.147.293-.295zm-16.33-9.35l.44-.147-.073.516-.44.073.072-.443zm24.495-1.472l.22.294-.072.515-.442-.663.294-.147zm-6.84 7.068l.588.516-.59.146v-.663zm6.178-.883l.515.073-.293.295-.515.073.294-.44zm-1.912 3.166l-.147-.663.44.59.075.515-.368-.442zm-1.986.22l.44-.22-.146.442-.515.147.22-.368zm6.18-3.828l.293-.295.075.442-.515.22.147-.367zm-5.298 4.86h.368l-.073.44h-.295v-.44zm-20.082-17.672h.515l-.515.516v-.516zm2.428-1.62l.515.516-.662-.147.148-.368zm20.597 11.78l.44.296-.44.294v-.59zm-4.046 8.027h.294l-.146.442h-.294l.147-.442zm.956-2.798l.147.663-.44-.295.293-.368zm-6.253-22.972l.442.073-.147.295h-.295v-.367zm5.665 3.976l.294.367h-.663l.368-.368zm2.354 6.625l.44.516h-.44v-.515zm-10.447-9.572v.442l-.44.147.44-.59zm-12.947 9.425l-.073-.442.515.59-.442-.148zm24.496 7.73l-.073.37-.516.073.588-.44zM427.735 55.2l.515-.146-.59.515.075-.368zm-9.27-11.706l-.293-.368.662.22-.368.148zm28.47-13.843h.294v.294h-.296v-.295zm0 15.314h.294v.295h-.296v-.296zm-3.532 5.45h.295v.293h-.295v-.294zm-20.23 5.153l.442.294h-.44v-.293zm27.072-20.764h.22v.295h-.22v-.295zm-24.055 21.5h.294v.22h-.294v-.22zm2.133-3.68l.295.22-.295.147v-.368zm11.55-23.93l.294.22-.294.147v-.368zm1.618 25.328l-.22-.22.368-.074-.147.295zm-17.212-4.638l.44.295v.22l-.44-.515zm28.394-2.87l.368.22h-.368v-.22zm-33.544 1.103h.294l-.44.22.146-.22zm2.134-7.216l.294.367-.294-.147v-.22zm-.663 9.498l-.148.368v-.22l.147-.148zm.294 5.595l.368.074h-.22l-.148-.074zm53.332-30.26l-.147-.59.072-1.03.736-3.315V19.12l-.147-.59-.956-.367-.22-.442-.736-.808-.515-.295-1.618-.368-1.177.072-3.31.737-1.398 1.62-1.25 1.987-.37 1.178-.146 1.178.368 1.178-.073.59.44.442.22 1.178 1.398 2.135.22.59-1.176 2.502v.663l-.588.663-.442 2.503-.294.368-.59.22.15 1.106-.516.368-.59 1.03-.146.516.074 1.104.367.958.662.81 1.544.44 1.324-.44.515-.884.662-2.135.957-1.473v-.81l.367-.442.44-1.178.295-.44.074-.738.22-.59 1.323-1.913 1.177.294 1.987 1.105 1.765 1.325-.147.516.515.957-.662 1.84-.074.59.22.59-.44.44-.22.59.072.44-.294.958-.956 2.136.073 1.25-.663.958-.22 1.326-.59 2.135.075 1.4-.515.883.44 1.325-.146.516.075 1.694.956 3.387 1.325.957.22.515 1.84.957 1.103.368.736-.074.956.222h1.766l2.72-.736 1.03-.59 1.178-.22 3.752-2.21.515-1.104.516-.294 2.06-2.21.956-.735.147-.957.882-.737.662-.81.073-.663.81-.663.588-1.62.515-.368.368-.59-.074-.662.81-.442.22-1.25.44-.958.884-1.252.294-1.03-.073-.664-1.325-.883-.957-.442-1.25-.147-.368.22-1.545 2.21-.44 1.178-.59 1.03-.073.663-.883.81-.663.957-1.03 2.283-1.324 1.104-1.47 1.768-.59 1.03-1.986 1.106-1.177.44-.588-.367-1.25-.442-.075-.59-.367-.956.588-2.283.81-2.356.514-1.03v-1.326l1.324-4.196v-1.18l.295-.514.22-1.62-.66-3.608-.442-.957-1.545-1.915-.736-.663-1.03-.515-.66-.81-.664-.074-.882-.515-.514.073-.956-.956-1.104-.22-1.398-.737h-.662l-.22-.515zm6.473 28.346l.588-.075.294 1.105.515.073v1.105l-.957-.295v-.59l-.147-.44-.662-.737.37-.147zm-2.87-7.438l.442.295-.883.81-.222.515v.59l-.515.073-.294-.515.22-.516.588-.147v-.957l.662-.148zm1.25-2.87l-.146-.517v-.957l.588.663.368-.662.368.442-.147.442-.367.442-.22.59-.442-.443zm.074 6.994l.368-.958.44.516.222.663-.368.368-.735.22-.146-.294.22-.514zm-3.09 4.933l-.367-.517-.147-.662.735.148.662 1.104-.44.22-.442-.293zm1.03-2.284l.59-.294.514-.074.368.368h-.59l-1.03.737-.293-.59.442-.147zm2.134.59l.588.147.22.515-.587.147-.516-.147.294-.663zm-.368 2.87l.368-.294.515.148-.074.662h-.736l-.074-.515zm-1.398-6.92l.81-.074-.148.516-.44.147-.516-.074.294-.514zm2.354-9.278l.515-.073.296.442-1.104.147.294-.516zm-2.5 4.197l.44.148-.146.662h-.515l.22-.81zm3.75-4.27l-.073-.516h.515l-.073.883-.368-.368zm-4.78 8.835l-.59.074-.293-.442.588.147.663-.148-.368.368zm3.457-3.313l-.59-.074-.44-.368 1.47.295-.44.147zm-10.225-20.543h.515l-.368.442-.515-.073.368-.37zm11.917 12.665l.073.66-.662-.146.59-.515zm-8.975-14.727l-.44.59-.148-.443.588-.147zm11.255 34.974h.294l-.148.368h-.294l.147-.368zm-8.827-8.468l.147.44h-.44l.293-.44zm-4.34-25.918l.073.368-.367.147.295-.515zm8.09 28.494l-.22-.22.442-.148-.22.368zm4.562 1.4h.22v.22h-.22v-.22zm-2.87-18.334l-.146.368v-.295l.147-.073zm54.363-13.033l-.588-.295-.515.22h-1.913l-.515.22-.588-.293-1.545.442-2.355.22-2.648 1.252-1.986 1.105-.367.37-1.692.882-1.838 1.473-.662.957-.883.737-.515 1.103-1.177 1.03-.22.516-.074.662-.735.957-.588 1.103-.22 1.18-.442.44-.074.663-.66 1.104-.148 1.915-.588.883v1.4l-.22.515.293.44.074.517-.294 1.104.295 3.314-.146.515.294.442.147 1.325.81 1.178.955 2.577 1.692 1.84.22.516 1.693 1.327 1.84 1.104 2.06.885 2.28.662 2.427.442 2.5.22 2.65-.074.734-.22.662.147 1.545-.59.59.148 1.102-.514.662.073 1.692-.443 2.794-1.693.663.147 2.354-1.766 1.104-.59 2.5-2.576 1.84-1.62.147-.81 1.472-1.104.148-.59.514-1.03.663-.81.588-1.03.147-.59.44-.294.59-.81.147-1.178.735-.957.368-1.4-.22-1.03-.737-.737-1.618-.662-.368.368-1.103.294-.22.663-.957 1.474-.074.736-1.25.957-.22.59-1.4 1.84-.514 1.104-1.03.664-2.354 2.577-.81.148-.88.81-2.135 1.178-.956.737-.368-.148h-.59l-1.103.663-.588.147-.59-.22-.588.22h-1.766l-1.618.59-1.545-.958h-1.397l-1.84-1.325-.514-.22-1.913-2.357-.148-1.252-.662-.883-.22-.516.146-1.178-.294-3.166.515-.957v-1.915l.44-.22.222-.442.146-1.252.44-.22.59-1.032.368-1.325.515-.22 1.03-1.326.44-1.03.736-.147 1.324-1.178h.515l2.353-.663 1.325-.147.44.515.222.516-.22 1.03-.59 1.105-.367 1.326.22 1.178-.073.737.515.737-.147.59.44.367.516 1.104.514.22 1.103 1.032.662.074 1.838.59h.662l3.678-1.4.81-.516.367-1.325.81-.59.294-.367.734-3.387.074-1.032-.368-1.03.074-1.105-.442-1.178-.073-.736-.957-.885-1.03-1.546-1.84-1.547-1.985-1.4-.736.222-.44-.37-1.767-.514-.588-.294-.736.37-.367-.517zm4.635 7.29l.662.146-.442.59-.662.22v.736l-.368.22-.22-.662-.515-.368 1.545-.883zm-1.692 3.312l.662-.22.588.073.442.515-.81-.074-.44.663-.81-.443.368-.515zm-17.802 12.885l.44-.368-.146.588-.515.59-1.103-.443-.295-.515.295-.074.81.516.514-.295zm21.774-13.695l.81-.515.293.515-.293.368-.81.59-.146-.443.148-.515zm-22.142 19.585v-.59l.515.15.148.44-.22.37-.442-.37zm-2.28-4.49l.514.146-.147.516-.662-.15.296-.514zm-.295-2.946l-.293-.588.147.147.59.073.072.736-.515-.37zm23.467-9.94l.59-.294-.075.516-.515.44v-.66zm2.354 2.062v-.59l.516.222-.147.59-.37-.222zm-21.405 18.923l.074-.515.366.294.147.516-.588-.295zm.736-2.577h.295v.59h-.294v-.59zm12.947-24.96h.368v.368h-.515l.147-.368zm-19.567 18.85l-.44.588-.148-.442.588-.147zm23.613-17.6l-.294-.44.66.147-.367.294zm-.515 6.628h.22v.368h-.367l.148-.368zm-.735-7.73l.44.073-.146.44-.294-.515zm-16.478 6.037l.22.44-.588-.293.368-.147zm15.448-5.154l.294.22-.294.22v-.44zm-17.14 14.135l.294.22-.294.222v-.442zm67.014 2.946l.074-.957.516-.368.294-.44.074-1.695.588-3.313-.073-.59.22-.81-.663-4.05-.588-.956-.443-1.103-.294-1.252-.515-.147-.294-.37-.147-.588-1.103-1.914-.81-.663-1.103-.368-1.03-1.4-.66-.146-1.546-.737-.662-.074-.294-.443-.515-.294-2.28-.368-.883-.516-.956.294-1.25-.295h-2.87l-4.56.81-.663.735-.587-.073-.59.147-1.838 1.03-1.177.22-3.972 3.388-.662.957-.81.294-.146.81-.81.736-1.397 1.84-1.618 3.093-.735 1.84-.59 2.282-.44 2.577.294.81-.293 1.177V48.5l.736 1.398v.81l.514 1.03v.59l.515.294.59.957.44 1.103.59.958.514.37.588.146 1.47 1.693.958.59.515-.15.515.15 1.177 1.25.955.368 3.678.958.515-.148 3.384.148 2.427-.22.588.072 2.28-.81.44-.368 1.988-.368 1.103-.442.882-.59.735-.81.59-.146 1.323-.81.588-.147.295-.516 1.618-1.618 2.43-1.105.587.147 2.87-.59.587.075 1.104-.958.662.22 1.25-1.03.515.147 3.016-2.504.516-.147.957-1.77.956-.66.146-.81 1.618-1.547.148-.516-.59-.368.663-.222.44-.957-.146-1.692-1.84-.884-1.25-.074-1.47 1.4-.075.588-.883 1.84-1.03.59-2.574 2.283-.515.222-.074.515-.295.294h-1.47l-.958-.514V45.7zM573.46 31.565l1.692 1.4.956.588-.073.81.294.44.514.15.294 1.766v2.43l-.294.957-.662.736-1.104.37h-.735l-.368.22-.294.442-.588.147-.956.515-.81.736-.66.884-.516 1.105-.368 2.355.147 1.178.367 1.252-.22.442-.37.294-.072.59-.442.295-2.28.59-1.177-.075-1.177-.368h-.59l-.294.22-1.47-1.03-.81-.884-1.03-.662-.22-1.326-.736-2.282.073-1.62-.22-.59.588-1.25.148-1.915.22-.663 1.104-1.914.81-1.84 1.47-1.768.442-.957.515.148 1.397-1.252.294-.662 1.178-.074.44.22 1.03-.588 2.355-.368.515.294 1.25.22.442.296zm-19.273 16.198l.662-.736.587.294.295.516-.81.147.442.957-.883-.368-.514.22-.22-.81.44-.22zm27.66-6.553l.955.22-.147.736-1.103-.294-.147-.516.44-.147zm-25.6 3.092l-.442-.368-.147-.59.442.22.294.443.44.295-.146.736.294.515-.515.148-.073-.515.22-.442-.367-.44zm-1.25 1.767l.367-.37.368.148-.295.442-.44.294-.59.147v-.514l.59-.147zm20.45-2.136l.146-.442h.515l.147.81-.81.147v-.516zm-17.214 6.847v-.588l.515.368.294.663-.662.147-.147-.59zm-1.398.148l-.515-.147-.294-.514.956.147.294.294-.44.22zm18.464-4.933l-.516-.294h.515l.955.37-.662.44-.294-.515zm4.045-1.767l.588-.147v.81l-.662-.147.075-.515zm-.074 2.43l.663.147.295.515-.957-.147v-.515zm-23.023-8.688l.073-.442.515-.148v.59l-.22.368-.368-.368zm27.806-1.105l-.368-.22-.074-.59.516.147.295.37-.367.293zm-3.31 6.553l.147-.59h.44l-.22.737-.367.37v-.517zm-.074 4.123l.66-.367-.146.663-.59.294.075-.59zm.588-8.098l.147-.442.44.148-.146.515-.37.295-.072-.516zm-5.37-10.234l.147-.37.515.15-.148.44-.367.22-.147-.44zm-.442 19.438l.59.147-.296.442-.662-.147.368-.442zm1.84.368l.073-.59.44.295.074.662-.59-.368zm2.574-18.26l.515.073-.147.59-.662-.295.294-.368zm.883 9.277l.44.517-.514.073-.442-.368.515-.22zm-29.72 10.015l.663.368-.368.294-.44-.147.146-.515zm23.908-22.384l.516.075-.294.515-.515-.073.294-.516zm8.24 16.715l.59.368-.59.148-.515-.294.515-.22zm-25.01-11.56l.514-.22.368.294-.515.073-.588.368.22-.515zm25.01 16.935h.44l-.072.59-.44.073.072-.663zm-28.247-12.37l.147-.515.44.295-.146.515-.44-.295zm2.06 13.843l.073.59-.442.22v-.663l.368-.147zm-5.74-5.596l-.072-.515h.516l-.147.736-.296-.22zm.737.81l.515.074-.294.442-.514-.073.294-.443zm32-4.123l-.516.662-.294-.59.81-.072zm.956 6.553l-.074-.59.44.295.222.516-.588-.22zm-7.136-5.375l.368-.148.44.148-.146.442-.662-.442zm3.163 3.24l-.073-.516.515.22v.443l-.442-.15zm-1.177-17.966l-.147-.516.514.22.074.517-.442-.22zM559.19 53.284l-.295.663-.442-.515.736-.148zm.808-16.787l.22.515-.514-.073-.147-.37.44-.073zm18.39-8.32l.22-.442.296.368-.295.442-.22-.368zm-3.604 22.75l.515.075-.295.368-.515-.147.294-.295zm-16.33-9.35l.44-.147-.073.516-.44.073.073-.443zm24.495-1.472l.22.294-.073.515-.442-.663.294-.147zm-6.842 7.068l.59.516-.59.146v-.663zm6.18-.883l.514.073-.294.295-.515.073.294-.44zm-1.913 3.166l-.147-.663.44.59.075.515-.368-.442zm-1.986.22l.44-.22-.147.442-.515.147.22-.368zm6.178-3.828l.294-.295.074.442-.515.22.148-.367zm-5.297 4.86h.37l-.074.44h-.295v-.44zm-20.08-17.672h.514l-.515.516v-.516zm2.427-1.62l.515.516-.663-.147.147-.368zm20.597 11.78l.44.296-.44.294v-.59zm-4.046 8.027h.294l-.147.442h-.294l.148-.442zm.956-2.798l.147.663-.44-.295.294-.368zm-6.252-22.972l.44.073-.146.295h-.294v-.367zm5.664 3.976l.294.367h-.662l.368-.368zm2.354 6.625l.44.516h-.44v-.515zm-10.446-9.572v.442l-.44.147.44-.59zm-12.947 9.425l-.073-.442.515.59-.443-.148zm24.496 7.73l-.073.37-.515.073.588-.44zM561.396 55.2l.515-.146-.588.515.074-.368zm-9.27-11.706l-.293-.368.662.22-.368.148zm28.47-13.843h.294v.294h-.295v-.295zm0 15.314h.294v.295h-.295v-.296zm-3.53 5.45h.293v.293h-.295v-.294zm-20.23 5.153l.44.294h-.44v-.293zm27.07-20.764h.22v.295h-.22v-.295zm-24.055 21.5h.295v.22h-.294v-.22zm2.134-3.68l.295.22-.296.147v-.368zm11.55-23.93l.294.22-.294.147v-.368zm1.618 25.328l-.22-.22.367-.074-.148.295zm-17.213-4.638l.44.295v.22l-.44-.515zm28.393-2.87l.368.22h-.367v-.22zm-33.544 1.103h.293l-.44.22.146-.22zm2.133-7.216l.294.367-.294-.147v-.22zm-.663 9.498l-.147.368v-.22l.147-.148zm.295 5.595l.368.074h-.22l-.148-.074zM629 27l-1.178-.517-.81-1.546-.735-.957-.883-.736-.956-.148-1.47-.81-1.767-.073-.514-.295-1.03.368-.662-.073-.514-.22-1.913.882-1.177.074-4.046 2.503-1.03.368-.515-.147.367-.515.147-1.4-1.324-.81-1.03-.293h-1.25l-2.207.294-.44-.222-1.03-.073-2.355.22-.147.516-.956.516.147 1.4-.66.22-.148 1.694-.515.81.147.662-.367.368-.368 1.252-.075 1.4-.956 1.62-.442 1.177.44.81-.808.735-.074.59-.956 2.87.147 1.105-.368.295-.295 1.104-.44.294-.222.44-.44 1.77-.222.44.148.368v.516l-.81 1.62-.293 1.25v.59l.294.295-.957.295.22.59V51l-.368.368-.81 2.062.148.59-.073.588-1.03 1.546v1.104l-.59 1.473.59 1.62 3.9-.295 1.03.37 1.25-.075 1.103-.295.882.442.515-.442.515-.22h.736l.442-1.62-.073-.59.587-.957.883-2.207.294-2.43.368-.295-.074-.59.442-.81-.074-.588.44-.294.516-1.62-.22-.81.44-.295.59-.882-.368-.59.882-1.62.368-1.177-.147-1.25.368-.148-.074-.442.59-.81.073-.59.81-1.324v-.516l-.148-.368 1.25-1.988.884-.662-.148-.516 3.31-2.43.515.074 1.618-.368 2.28.515.442-.073-.147.59.44.882-.146.295.44 1.18.075.588-.295 1.104-.368 2.946-.44.957-.37.442.148.883-.515 1.03-1.545 5.302-.81 2.136-.22 1.62.074.44-.295.37-.515 1.766-.515 1.105-.81 2.723-.073 1.03.22 1.253 1.178.147 3.604-.074 2.354.22.883-.442.59.22.735-.072.956-1.473.148-1.104.663-.885.368-1.178-.073-.663.735-1.472.515-2.43.074-1.104.44-.37.22-.514.222-1.4-.074-.588.662-.295-.073-.66.735-1.547.074-.516-.147-.663 1.028-2.06.442-2.505 1.177-2.578.44-.294.295-1.105 1.545-1.104.662-1.105.588-.148 1.84-1.178.514.294.588-.22 1.986.073 1.766 1.767v.59l.294.882-.44.59-.222 2.06-.44 2.357-.37.957-.588.957-.073 1.4-.662 1.693-.073 1.178-.515 1.104-.44 1.694-.37.442v3.018l.222 1.178-.147.59.588 2.797.736.81.516 1.032.662.884.882.662 1.398.148.883.662 1.104.074 2.648-.147 1.104.073 1.84-.957.808-.146.44-.368 1.252-.295 1.324-.956.662-.884.59.074 1.396-1.62 1.03-.515.22-.59.295-.368.883-.663.368-.958 1.986-2.65 1.25-1.99.295-1.25.662-.37-.22-.81 1.47-1.545.515-.957.368-1.178.22-1.325-1.838-1.62-.662-.148-1.177.294-.59.515.148.81-.587.147-.368.44-.22.59-.148 1.4h-.81l-.735 1.693-.662.957-.515.295-.147.662-.956 1.473-.147.59-1.25.956-.884 1.4-.513.22-1.104 1.104-.515.22-.735.59h-.59l-.587.22-.736.075-1.103-.81v-3.24l.367-1.104.368-.442-.073-.516.44-1.62v-.736l.368-.368.588-1.546v-1.178l.736-1.473.956-3.24.515-1.03-.735-.664.44-.294.295-.516-.147-.81.515-.957.075-1.326-.442-.957.368-.958-.514-.148.22-.81-.146-.662-.368-.516-.147-.736-.957-.81-.956-1.62-3.53-1.914-.957.147-.442-.367-.588-.147-1.84.147-.66-.074-.516.22-2.43.368-.293.368-.368.148-.663-.074-.44.22-.663.81-1.177.37-1.177 1.25-.662.148-1.25 1.325-.59-.294zm-8.83-.296l.59.22.22.59.368-.22h.515l.442.22-.515.442-.662.883-.442.22-.515-.073.37-.442.146-.736-.662-.296.147-.81zm1.4 3.903l.44.81 1.25-.442.075.442-1.03.957-.957-.148.148-.662-.736-.295v-.516l.81-.147zm-5.518-1.326v-.735h.368l-.147.442h.662l.883-.295-.442 1.252H616.2l-.59-.147.442-.516zm27.07 1.327l.59.147.588.368.22.59-.662-.295v.662l-.588-.222-.147-.59-.442-.293.443-.368zm-23.098 12l-.44-.44-.295-.59.66.074.516.37.294.662-.736-.074zm.736-12.737l.368-.294.22-.59h.368v.59l-.44.442-.59.294.074-.442zm.81 5.817l-.516-.147-.662.073.22-.515.59-.147.22.443.59.073-.443.22zm19.346 14.873l.956.295-.368.44-.588.075v-.81zm-37.443-19.806h1.03l-.662.663-.735-.442.368-.22zm21.112.663l.442.81-.59-.074-.514-.368.662-.368zm20.01-1.4l-.075-.81.442.222.147.514-.148.515-.368-.442zm-44.36 9.867l.37.294v.516l-.81-.147.44-.663zm23.394-11.707l.44-.295.147.442-.294.295-.588.072.294-.515zm16.918 26.948l.294-.368h.442l-.22.59-.442.22-.074-.442zM623.335 26.85l.882-.588.074.37-.44.072-.295.442-.44.295.22-.59zm-1.25 6.85l.588-.222-.148.663-.662.148.22-.59zm-21.334-.958l.075-.516.662.516-.368.442-.37-.442zm.663 5.743l.662-.147-.22.59-.59.072.148-.515zm19.126-.663l.367.368.147.59-.662-.295.147-.663zm4.413-8.983h.588l-.293.662h-.368l.073-.663zm14.86 20.616l.66.147-.366.442h-.442l.147-.59zm-35.75-15.536v-.59l.513.222-.073.59-.44-.222zm1.396-3.46l.66-.295-.66.81-.442-.22.44-.296zm38.84 7.73l.515-.147-.148.59-.515.146.148-.59zm-2.06 5.228l.515-.22-.22.588-.59.295.295-.662zm-24.422-12.81v-.664l.44.368.074.515-.514-.22zm1.03-.96l.073-1.103.222.368-.148 1.252-.147-.516zm22.14 23.857l-.072-.515h.368l.147.736-.44-.22zm-16.844-18.333l.147-.516.442.147-.44.663-.148-.294zm-1.84 6.7l.516.294-.295.22h-.514l.295-.514zm-7.723-12.885l.074-.442.442.147-.147.516-.37-.22zm-11.99-1.915l.442.148-.147.368-.442-.147v-.22l.147-.148zm16.11 20.396l.442-.148-.148.442-.514.074.22-.368zM602.885 36.57l-.295.516-.44-.368.735-.147zm15.742-11.707h.662l-.222.295h-.44v-.295zm-17.655 11.855h.294v.515h-.294v-.515zm16.257-3.976h.293l.147.294-.515.148.074-.442zm-16.994 8.1h.295v.514h-.294v-.515zm20.818-14.874l-.294.663-.22-.515.514-.147zm19.053 5.3l-.148-.44.367.147.147.442-.367-.148zm-18.244-6.773l.59.368h-.737l.147-.368zm-2.133 1.767l-.368.37-.368-.37h.736zm1.766 10.824l.44.294-.44.295v-.59zm-20.45 4.565l.44.075-.588.44.148-.514zm18.61-2.797l-.22-.515.515.147-.293.368zm21.113-5.964l.366.146-.147.295h-.22v-.44zm-15.23-3.02l.516-.22-.515.662v-.442zm-5.736.295l.294.368-.368.294.074-.662zm21.92 1.546h.222v.37h-.368l.147-.37zm-42.59 10.898l-.148-.442.588.37-.44.072zm25.304-13.4l-.368.59-.147-.296.515-.294zm-30.38 15.24l.367.295-.368.22v-.514zm51.42-13.18h.293v.296h-.293v-.295zm-22.658-2.06h.294v.294h-.294v-.294zm-2.28 19.88l-.295.368-.294-.22.59-.148zm22.215 5.006h.294v.295h-.295v-.296zm-.515-2.724l.368.295-.074.368-.294-.663zm-15.448-23.193h.368l-.294.368-.074-.368zM602.15 31.71l.293.222-.294.147v-.37zm38.177 10.456l.442.22h-.443v-.22zm-46.05 6.333l.295.146-.368.147.074-.294zm79.3-25.183l-1.177-.515-1.25.073-.515.295-.957-.59-.662.222-1.177-.147-.59.22-1.103-.22-.367.368-1.104-.295-.44.295-.663.883-.515.22v.664l-.883 2.798-.074 1.104.15.59-.443.44-1.324 2.946.074.516-.147.662-.663.884v.663l-.882 2.724.073 1.178-.367.442-.514 1.104-.59 2.43-.514 1.105.147.663-.883 1.4.147.662-.295.368-.074 2.43-.368.515-.074.442.295.81v1.914l.955 3.533.956.295v1.104l.37.22h.588l.735.885 1.545.81 2.575.662.515-.222.44.074.516.294 1.177-.44 1.178.146 4.708-1.473 1.103-1.18.956-.588.588-.147.662-.957.883-.81.587-.295 2.207-2.798 1.618-1.693.442-1.104 1.986-3.02.44-1.177.663-.662.148-.442-.147-1.62.957-.147.22-.59.074-1.252-.294-1.25-1.766-.59-1.324-.074-.588.22-.442 1.18-1.397 1.84-.368 1.104v.663l-1.03.81-.22.737-.37.368-.146.663-.81.883-1.324 2.137-1.03.736-.22.59-.663.293-.81.958-1.25.662h-.588l-1.84.442h-.66l-1.398-.957-.957-2.723.442-.295.367-1.03-.074-.59.294-.515-.073-.736.44-.368.295-.59v-1.177l.956-1.914.22-1.104-.146-.662.883-1.473.44-1.177.295-2.356.662-.957.22-1.767.442-.957-.073-.59.81-1.472.368-1.105-.074-.663.515-.884.073-1.178-.22-.515.588-.22.368-.443-.294-.59.294-.662-.44-.368zm-4.708-6.11l.146.44.883.443 3.09.44.955-.293.515.147 2.795-2.135.736-.958v-.59l.516-1.62-.147-.662.293-.663-.294-.44.146-.664-.368-.515-.442-1.178-1.177-1.547-1.104-.147-.22-.442-2.502-.957h-.735l-1.178.22-2.87 1.326-1.544 2.356-.44 1.178.146.662v2.135l.22 1.252 1.177 1.252.59 1.03.81-.074zm-5.812 29.083l1.47-.295-.293.147-.368.958h-1.103l-.295-.958.588.148zm-1.62 4.197l.81.368-.294.59-.81-.59.295-.368zm6.475-21.72l-.22-.737.735.22.073.59-.587-.074zm-.294 2.502l.44-.222.44.148-.293.44-.662.075.074-.44zm-1.693-1.18l.22.37-.22.44-.59-.514.59-.295zm-2.06 21.575l.147-.663.368.515-.22.59-.295-.442zm-1.913-2.798l.22.147.075.515h-.59l.294-.663zm-1.47-1.62l.367-.442.148.663-.294.147-.22-.368zm-.737 5.89v-.515l.368.294.074.516-.443-.295zm2.502 4.64l.146.44h-.59l.443-.44zm3.235-4.198l.442.294-.59.147.148-.44zm-.515-20.25l.368.295-.368.295v-.59zm-1.986 2.283h.368v.516l-.368-.517zm8.313-5.816l.44.294h-.44v-.293zm-6.915 2.135l-.22-.22.367-.148-.148.368zm.588-3.46h.22l-.367.22.147-.22zm45.682 23.12l-.147-1.768.956-2.21 1.105-3.46v-.515l-.148-.37.662-.883v-.662l.22-1.03.81-1.916.367-1.84.662-.958.22-5.302-.515-.957.074-.59-.59-1.62v-.662l-.588-.44-.368-1.178-1.25-1.252-1.472-.663-.956-.81-1.766-.368-1.177-.074-1.912.294-.588-.147-.956.59-.662-.148-1.03.59-2.207.882-.956.59-.44.588-.516.295-.81-.737-.072-.515.22-.59-.81-.514-.955-.37-2.354-.22-5.664.295-.81.81-.074.588-.81 1.914.148.59-.662.957-.883 2.28-.074 1.253-.81 1.62.295.662-.44.37-.957 3.017-.368.442.662.516-.956.883.295.81-.588.368-.368.59.072.663-.588 1.767.074.663-.442.294-.294.516-.147.736.073 1.324-.44.22-.37.443v.736l-.22 1.178-.956 1.916.368.81-.662.81.147.515-.588.81-.22 1.62-1.03 2.578-.074 1.25.662.738 1.103.368 1.177.147 1.324-.146 2.353-.663.59.664h1.176l1.102-.295.44-.295.663-.81.147-1.326.368-.442.81-2.283.22-1.693.956-2.136.295-1.104-.073-1.325.956-.81.295-1.84.735-2.136.59-2.282.44-.883-.073-.59.367-.367.22-.59-.44-1.104.81-.884.146-1.178 2.722-2.87 1.03-.59.588-.147.44-.81 1.473-.295.662.147.588-.368.662-.074 1.25.44 1.693 1.4.148.37.073 3.09-.22 1.032-1.03 2.21-.514 2.28-.294.37.147.883-.37.516.075.737-.662.662.22.737-.515.81-.662 2.135-.147 1.178v4.933l.66.663v.663l.295 1.178 1.03 1.4 1.84 1.4.44.073 1.03.59h1.987l.588-.222.59.296.587.073 1.177-.443.368-.368.515.22h.588l1.104-.515.882-.663 1.177-.22.513-.295 2.28-2.062 1.546-.81.366-.442.368-1.178 1.84-1.472.66-.957.37-1.4.808-.662 1.472-1.62.662-2.282.515-.958.736-.736.074-.59 1.324-2.208-1.03-1.62-.956-.736-.59-.147-.734.294-.662.075-.883.59-.516 1.103-.22 1.4-.884.81-.367.515.294.662h-.662l-.736 1.547-.736.81-.59 1.104-1.397 1.914-1.69 1.546-.222.663-.515.44-.662.148-1.03.663-1.25.443-2.06-1.547.294-.515zm-3.237-19.218l.662-.074.147.663h.515v.515l-.295.147 1.47 1.03.075.738-.59.147-.146-.516-.81-.59-.072-.66-.368-.443-.883-.662.295-.294zm-.294 5.596l1.104.957-.147.736-.44.368-.516-.293.37-.295.146-.515-.956-.516.44-.44zm1.84 7.583l-.515-.515-.368.884-.44-.22-.222-.517.515-.442.515-.22.22.44.37.296.514.072-.59.22zm.59-12.222l.955-.367.44.442-.587.368-.368.59-.59-.443.15-.59zm-2.65 1.105h.59l.44.22.294.517h-.514l-.442-.295-.44.516-.37-.663.442-.295zm-.294 7.88l.59-.075.44.22-.294.37-.515.22-.515-.147-.294-.442.588-.146zm-.44-10.162l.514.294-.074 1.326-.736-.958.295-.662zm-1.767 13.916v-.59l.44.147.295.368.073.59h-.662l-.147-.516zm2.427 4.564l.44-.368.516-.074.294.295-1.03.515-.514.074.294-.442zm-.59-10.897h.443l-.074.662.22.588-.66-.147.146-.44-.442-.37.368-.293zm-2.353 16.272l-.44-.222-.148-.516h.588l.515.22v.443l-.516.074zm-14.05-26.213l-.368-.516.295-.146h.515l.22.368.075.516-.736-.22zm15.595-.442l.735.22-.515.516-.736-.367.515-.368zm3.015 11.486h.736l-.146.664-.736-.074.147-.59zm-2.795 13.18l.44.295.222.516h-.59l-.366-.147.294-.662zm5.223-19.29l.588-.147-.072.59-.442.22-.294-.22.22-.443zm-4.635-4.197l.442.368-.662.296-.368-.663h.588zm-19.86 11.044l.514.074v.443h-.81l.295-.516zm23.097-12l.515-.443.294.59-.294.073-.956-.22h.44zm.515 2.576l.368-.368.147.662-.442.368-.073-.662zm-19.126-3.166l-.515-.368.22-.37.662.516-.368.22zm-3.237 2.21l.074-.517h.37l.072.368-.147.442-.368-.294zm1.25 3.386l.295.368-.294.37-.515-.148.515-.59zm16.11 15.094l-.22-.663.515.294.22.663-.514-.293zm-.956-20.91l.884-.443-.735.81h-.443l.294-.368zm4.194 24.223l.662.22-.294.295h-.515l.147-.515zm-.81-25.18l.81.146-.956.368.147-.515zm.59 14.356l-.074-.515.515.296v.44l-.44-.22zm2.722.37l.294-.296.073.515-.44.442.073-.662zm-3.31.735h.367v.443h-.515l.147-.442zm-1.766 2.725v-.515l.368.22v.442l-.368-.147zm-22.73 4.344v.588l-.516-.294.515-.295zm-1.178-.516l.368.294-.515.37.147-.664zm2.87-13.695l.22.514-.662-.294.44-.22zm20.744 12l.147.442-.736-.515.59.073zm.367 3.46l.442.296-.515.22.073-.515zm2.575-15.608h.44l-.146.515-.294-.515zm-23.393 6.773l.22.442-.587-.147.367-.295zm18.023 7.584l.074.588h-.368l.294-.59zM688.51 30.532h.294v.294h-.294v-.294zm22.95 2.282l.37.295-.37.147v-.442zm-21.037 2.357l.22.22-.515.148.295-.368zm19.567 3.534l.073.368h-.367l.294-.368zm-18.758-6.26h.294v.222h-.294v-.22zm-6.694 13.18l.44.296h-.44v-.295zm20.23-13.03h.588l-.59.22v-.22zm2.647 8.54h.22v.294h-.22v-.294zm0-3.976l.295.22-.295.22v-.44zm-10.593-10.97h.22v.293h-.22v-.294zm7.43 24.886h.294v.22h-.294v-.22zm6.915-18.63l.44.222h-.44v-.22zm-25.673-2.87h.294l-.44.294.146-.294zm20.965-3.093l.367.22h-.368v-.22zm-24.718 22.53l-.147.443v-.295l.147-.146zm71.87-24.444l-.442 1.766-.294.442-.44.294-.957.148-.59-.295-.515-1.104-.81-.81-3.09-1.693-.88-.736-1.178-.073-.957-.368-.662.146-.588-.294-4.635.663-.662.736-.515-.073-.514.295h-.736l-2.28 1.914-.59-.147-1.544 1.692-.883.663-.513.22-3.016 3.535-.147.663-.956 1.914-.956.957-.66 2.504-1.105 2.135-.147.59-.073 1.84-.442 1.25-.073.664.22.59-.294 1.104v1.105l.147.59-.22 1.84.147 1.178.515.957-.147 1.105.662.957.147.59.515 1.03-.147.515 1.03 1.4 1.618 1.545 1.765 1.4.736.073.588.22.883.59.59.22.734-.515.882.81 4.046-.442 1.03.148.44-.442 2.355-.957.44-.37.516.296.808-.663.59-.073-.075.59.442.956.44.22-.808.737.294.957-.514.22-1.397 1.032-.516.22h-1.25l-1.104.442-4.635 1.104-2.133 1.03-.736-.294-.662.663h-.662l-.735.663-.59.073-3.162 2.284-.147.59-.294.44-.883.442-1.03 3.976-.367 2.43.442.663.588 1.84 2.133 2.8.957.588 1.03.368 2.206.516 1.176.59h1.177l1.545-.295 1.104.148 1.47-.442.59.147.588-.147 1.692-.81 1.103-.22 2.207-1.694 1.986-1.326.22-.515 1.546-1.545.294-.663.662-.368.294-.81.515-.294v-.663l.735-.663-.074-.59.59-.146.147-.59 1.47-3.018.295-1.104v-.59l.442-.44.515-1.842.513-1.104 1.62-1.105.66-.957h.59l2.28-1.546.588-.074.295-.515.515-.442 1.692-.81 2.65-2.28 1.028-.664 1.913-2.356.956-.663.22-.59 1.398-1.62.147-.66.294-.443.808-.736v-.81l.883-.81 1.472-2.65.736-.958 1.103-2.798.148-1.4-1.84-1.324-1.102-.295-.736.147-.662.884-.294 1.252-.81.44-.146.59-.662.737-.368 1.178-2.428 3.756-.44 1.104-3.532 3.83-1.692 1.545-1.765 1.252-1.986 1.104.22.443-.072.368-.515-.367-.22-.59.072-1.324-.148-.59.59-.736.146-.442.074-1.252.956-1.914.368-2.43.81-1.105.072-1.103 1.104-2.798.073-1.105.442-.59v-.588l.22-.37-.147-.514.59-.515.22-1.252.882-2.283v-.81l.368-.59.147-1.25.368-1.178.588-1.105.22-1.25-.072-.664.368-.442.442-1.104.147-1.4.368-.44.147-.59-.074-.59-.588-1.104-.442-.294h-8.165l-1.47 1.252v.515zm-10.152 7.804l1.324.073.59-.147.22.59.367.367h.737l.22.516 1.178 1.472.22.59.442 3.533-.368.37-.222.514.074.59.22.44-.514 1.032.073.59-.882 1.766-.44.442-.222 1.178-.294.515-2.28 2.65-.22.516-2.208 1.032-1.397 1.03-1.325.148-.44.295-1.62-.81-2.206-.884-.074-.735-.882-.884.073-.588-.368-1.178.147-.81-.294-.81.147-1.988.368-1.104.294-.442-.22-.957.662-.81.514-.957.735-2.283.808-.294.22-.59.737-1.105.22-.59.736-.146.37-.37 1.985-1.104 2.207-.81.588.148zm-4.413 37.92l.294 1.692-.66.22-.37.517v.59l-.22.514-.81 1.03-.514 1.105-2.942 2.43-1.177.147-.368.294-2.355-.22-.515-.222-1.398-1.178-.294-1.252.22-1.178 1.03-1.4 4.047-2.576 1.177-.147.956-.662.662.22.368-.293 1.84-.368.587.073.368.22.074.443zM728.38 48.277l-.588-.884h.81l.882 1.105-.736.44.515.22.588-.072-.146.515h-.515l-.663-.368-.44-.442.293-.515zm22.29 9.13l.367.515.147.663-.515-.147.22.66-.294.517-.662.147.368-1.694-.22-.59.587-.072zm-4.856 2.06l.59-.146.587.22.148.516-.515.22-.735.738.073-.59-.366-.515.22-.44zm1.913 2.43l-.515-.367.662.075.44.515.663-.295.148.442-.295.516-.588.294h-.59l.37-.736-.295-.44zm-1.177-2.944l-.294-.515.294-.443.588.147.515-.074.295.516-.81.515-.588-.146zm-11.623-28.127l.368-.368.368.367.147.663-.59.147-.66-.073-.442-.295-.294-.59.662.442.44-.295zm10.3 22.163l.293.294.515.22-.44.075-.663-.148-.515.368-.59-.074-.22-.442.663-.147.514-.442.442.295zm3.162-.515l.514-.148v.957l.515.148-.295.368-.515.147-.662-1.4.44-.072zm-1.84 3.68l.515-.146 1.103.367.442.294-.515.296-1.104-.442-.734.147.294-.514zm-5.81-27.168v-.59l.366.148.074.59.515.367-.368.368h-.515l-.368-.368.295-.515zm-11.33 24.518l.147-.515h.736l.22.515-.44.37-.59.22-.073-.59zm14.492 7.29l.073-.59.662.074.295.44-.295.443-.662.147-.073-.515zm6.988-8.762l-.44-.442-.222-.662h.515l.294.59.442.22v.59l-.59-.295zm-4.855.294l.294-.44.514-.075.368.368-.368.515-.662.148-.147-.516zm3.016 4.124l.37-.147.293-.442h.368v.664l-.588.295-.735.146.294-.515zm-9.783-.147l.515.368-.294.443-.81.736.37-1.105-.222-.515.44.073zm6.253 7.363l.22.442.516.147-.147.442-.37.22-.66-1.177.44-.074zm5.885-8.762l.588-.294-.073.662-.22.442-.663-.294.368-.516zm.736-3.68l.59-.81.514-.148-.294.59-.515.514-.59.295.296-.442zm4.71-12.003h-.443l-.22-.514 1.103.073.147.515-.588-.074zM734.926 27.59l.662-.147-.074.59-.295.294-.44-.074.147-.662zm10.667 34.753l.367.37.59.073-.22.368h-.516l-.44-.22.22-.59zm-12.432-29.966l.515-.442.147.368-.22.515-.516.22.074-.66zm16.992 30.556l.59-.295.146.442-.956.295-.368-.22.588-.222zm-4.855-5.596l.294-.294.588.294-.588.368-.515.074.22-.442zm-16.552-6.258l-.22-.516.588.074.294.294-.22.442-.442-.294zm-1.765-2.136l.294-.294.44.515-.514.222-.44-.074.22-.368zm-1.472.22l.663.148-.22.516-.442.147v-.81zm17.435 6.407l.074-.663.367.22v.59l-.22.368-.222-.515zm-9.71-.147l.295 1.4-.368-.222-.147-1.03.22-.148zm-4.413-10.456l-.074-.368.44-.147.15.367-.296.59-.22-.443zm23.613-6.185l.515-.22-.294.808-.515-.22.295-.37zm-4.782 15.977l-.44-.663.514.148.44.81-.514-.295zm-14.785-18.334l.367-.294.22.514-.44.295-.147-.517zm-4.56 1.03l.22-.367.22.59-.515.367.074-.59zm16.99 28.864l.15-.516.366.37-.22.515-.295-.368zm7.946-31.366l.368.074-.147.442-.515.147.294-.662zm-5.076 15.242l-.22-.59.515.37.294.588-.59-.368zm-17.066-9.35l.515-.075-.147.442-.515.073.147-.442zm20.89-2.872l.15-.442.293.368-.294.59-.147-.516zm-21.846 9.498l-.295-.59.958.516-.662.074zm-1.62 6.332l.222.442-.44.073-.222-.368.44-.147zm17.95 7.51l.515-.147-.146.442-.588.073.22-.368zm10.814-18.26h.44v.442h-.44v-.442zm-29.278-6.332l.22.515-.44-.073-.22-.37.44-.072zm27.66-5.67l.147-.515.293.294-.074.442-.368-.222zM730.734 39l.515.368h-.59l-.367-.22.44-.148zm23.76-9.277l.515-.074-.148.368-.44.147.073-.442zm-22.583 1.4l.516.146-.515.515v-.663zm.958-1.768h.662l-.22.294h-.442v-.295zm1.986 3.83h.44v.367h-.44v-.368zm-9.196 9.718v-.516l.368.295v.368l-.368-.147zm7.577-9.204l.22.44-.587.222.367-.663zm8.975-6.333l-.294-.442.735.074-.44.367zm12.652 7.584v.516h-.588l.588-.515zM733.53 52.99l.22.442-.515.22.295-.662zm22.656-18.996h.442l-.147.368h-.294v-.368zm-25.82-2.062h.442l-.147.368h-.294v-.368zm18.76 19.29v.516l-.516-.073.515-.442zm-14.64-22.014l.515.44-.514.075v-.515zm-7.724 10.16v.59l-.294-.148v-.294l.294-.148zm9.636-9.498l.148.59h-.442l.294-.59zm17.36 8.983l.442-.294v.588l-.44-.295zm.957-6.258l.368.294-.662.146.295-.44zm-2.427 9.498l-.59.442-.146-.295.736-.147zm-23.613 10.53l-.148-.59.515.515-.367.074zm26.04-21.206l.368.073-.074.295h-.295v-.368zm-9.49 39.686l-.367.22-.368-.367.736.147zm-3.015 1.62l-.22.44-.442-.072.662-.367zm9.636-29.38l-.22.37-.442-.22.662-.15zM730 46.29l-.15-.516.516.442-.367.074zm18.463 2.356h.44v.442l-.44-.442zm3.53 0h.442v.442l-.442-.442zm1.472-3.24l.367.147-.367.37v-.517zm-22.95-8.173l.366.295-.366.22v-.515zm23.76 10.235l.293.368h-.515l.22-.368zm-.663-6.7h.515l.147.368-.662-.37zm-23.76-5.67l.44.074-.735.294.294-.368zm23.098-5.45l.294.075-.147.295-.294-.148.147-.22zm-1.84 18.114l.442.22h-.81l.37-.22zm4.93-11.928h.294v.295h-.295v-.296zm-4.194 21.868l-.294-.368.59.147-.296.222zm-9.49-3.387h.295v.295h-.293v-.295zm.516-25.917h.294v.294h-.294v-.294zm12.8 3.24h.294v.294h-.294v-.295zm-10.078 22.825h.294v.294h-.294v-.294zm4.34-.22l.44.367h-.44v-.368zm-6.327 16.86h.663l-.663.22v-.22zM729.042 42.24l-.294-.22.44-.148-.146.368zm27.586-13.548l.294-.22.22.294-.514-.074zm-20.377-1.914h.296v.22h-.295v-.22zm-8.458 19.66l.294.22-.294.22v-.44zm23.54 7.215h.22v.294h-.22v-.294zm4.634 4.638l.22-.293v.59l-.22-.296zm-21.627-1.913l.44.294h-.44v-.293zm18.536-21.647l-.22-.22.44-.148-.22.368zm-24.496 9.572h.22v.294h-.22v-.294zm10.152-12.812l.44.295h-.44v-.295zm-7.724 2.577l.44-.073.075.662-.22-.59h-.295zm9.342 43.515l.147.442h-.22l.073-.442zM727.792 43.86l-.074.294-.294-.147.368-.147zm21.92-1.84h.222v.22h-.22v-.22zM739.49 29.722l.294.442-.294-.147v-.295zm16.55 12.296l.443.515-.514-.442.073-.074zm-5.37 19.364l-.146.44v-.293l.147-.146zm-6.25-2.283l-.148.443v-.295l.147-.147zm47.52-29.745l.367-.442.22-.663v-.736L792.38 27l.808-.59.294-1.62.956-1.105.957-2.798.22-1.25.662-.517.957-2.356-.81-.147 1.325-1.104.22-.516-.148-.81.515-.22.294-.516.15-1.177.366-.442.368-1.103.22-1.252-1.103-.59-1.25-.146-.514.293-.515-.22-1.912-.074-.735-.222h-.515l-1.62.368-1.764-.22-.588.073-1.104.514-.515.074-.294.44-.368 1.106-.515 3.608.368.662-.515.22-.294.37-.075 1.84.22.442-.808 1.62-.22 1.25.073.664-.515.81.22.515-.44.884-.222 1.177.295 1.105-.662.368V27l-.442 1.103v2.577l-.368.663-.294 1.03.147 1.032-.516.883-.515 3.166-.516.957.148.517-.074 1.104-.44 2.43.293.443.957.662 1.104.37 1.325.072.882-.736.59-.146.367-.37.956-2.06-.22-1.105.956-.884v-.957l.662-.885.588-1.767.662-.884v-.957l.662-.442-.294-.81.44-.368.296-.515.294-1.178-.074-.515.515-.075zM781.49 48.572l-1.104-.368-1.398.074-1.03.294-1.986 1.105-.44.368-1.913 3.092-.147 1.03.22 1.694-.22.59 1.25 2.136.81 1.03.81.295.44.664 1.693.515 1.03.146 1.765-.294.663.147.515-.37 1.25-.44.662-.958.957-.663.44-1.03.443-1.695.367-.515-.44-1.105.22-.662-.074-1.178-1.47-2.357-.663-.22-2.06-1.473-.588.147zm8.018-32.618l.44-.073.59.222.44.59.148.66-.662.15-.073-.664-.368-.295h-.662l.147-.59zm-.147 8.1l.147-.59.368.295v.588l-.515.22v-.514zm-.957 3.755l.59.146-.148.515-.515-.072-.294-.295.366-.294zm.662-2.21l-.367-.516.736.295.22.514-.588-.294zm-1.618 3.313h.59l-.59.516v-.517zm3.972-8.762l.442.148-.147.295h-.295v-.442zm.147-5.374l.514.368h-.662l.147-.368zm-1.25 6.332l.44-.22-.294.662-.147-.442zm-2.28.81l.146.442h-.442l.295-.442zm2.867-1.767l.368.148-.147.442-.22-.59zm1.25-.735l.075-.442.294.663-.368-.22zM779.506 52.4h.22v.295h-.22V52.4zm8.9-29.23l.443.295h-.442v-.295zm2.208-.515h.294v.22h-.294v-.22zm-2.207 6.626l.295.222-.294.22v-.44zm1.766-14.798h.294l-.368.294.074-.294z"/>
</svg>
