<svg xmlns="http://www.w3.org/2000/svg" viewBox="0 0 256 56">
  <title>
    hd-speakers
  </title>
  <path fill="#f6fcf9" fill-rule="evenodd" d="M25.688 44.232l.096.336.816.432.192.336.912.816.672.432.576.528 1.392.528.576.384.912.096.768.528 1.248.048 1.488.384h.384l.624-.192.288.144.672.144.816-.288.336.144.672-.048 1.44-.336.384.048 1.344-.48 1.2-.288.912-.624h.432l1.056-.624 1.824-1.44 2.256-2.208.192-.72.528-.432.144-.72.384-.576.24-.192.144-.72-.048-.336.624-.624-.048-.432.432-2.4-.144-1.2.048-.768-.288-.624.192-.528-.528-1.824-.528-1.392-.384-.576-.096-.528-.432-.48-.24-.864-1.104-1.536-.144-.432-.72-.624-.096-.432-.576-.528-1.392-1.776-.672-.432-.912-1.296-1.632-1.632-.912-1.248-.384-.048-.24-.192-.096-.72-.576-.912-.288-.72-.48-2.16.432-.912.048-.816.288-.192.48-.96.384-.192 1.296-.96.432.096.384-.048.816-.288.384-.048 1.776.336.816.288.624.384.528.528.48.768.144.384-.432.672-1.056 1.008-.288.72-.336 1.44-.048.816.144.864.72 1.2.48.576 1.248.816.672.192.816.048.816-.192.336.144.72-.192.48-.48.72-.288 1.056-.96.864-2.544.048-.768-.144-.864.192-.576-.144-.672.048-.336-.816-2.304-.432-.624-.048-.528-1.2-1.056-.432-.72-.336-.144-.288-.384-.432-.096-.24-.432-.72-.384L48.92 3.72l-.432.048-.624-.24h-.384l-.288-.192-1.2-.192-1.584.096-.816-.24-.624.24-.768-.048-.576.384-1.152.144-.336.144-.336-.096-.816.576-.384.144-1.92 1.152-.192.528-.528.096-.528.912-.432.048-.144.432-.432.624-.048.48-.336.144-.48.912-.144 1.152-.288.576-.144.672v.624l-.192.432.192.432-.096 1.536.24.672v.912l.384.528.048.432 1.248 2.736.624.576.192.432h.624l-.288.336.72.96 3.12 3.552.624.288.432.864 1.152.816.096.384.384.576.288.192.384.576.096.384.768 1.248.72 2.208.096.816-.096 1.488.192.624-1.872 3.888-.624.384-1.584 1.488-.72.096-1.392.48-.768.048-.72-.096-.768.192-2.16-.528-.768-.096-.624-.48-1.296-.768-.528-.576-.816-1.44-.624-.288v-1.872l-.144-.336.384-1.008-.048-.48.624-.528.528-.624.624-.48 1.92-.144.768.24 1.536 1.344 1.104-.336.24-.192.144-.288.048-.432.72-.336.864-1.248.528-.528.384-1.152-1.104-1.488-1.152-.96-1.296-.768-.72-.288-1.584-.432-1.68-.24-.384.192-.432-.048-.72.096-.336-.048-1.968.624-.624.528-.432.144-.624.384-2.208 2.208v.528l-.48.528-.336.624-.624 1.872.192.624L23 36.216v.816l.192 1.632.288 1.536.528 1.008.864 2.112.72.768.192-.144-.096.288zm12.864-23.328l.528-.528.288.096.576-.384v.528L39.8 21l-.528.048.336.192-.048.336-.144.24-.336.048.24-.432-.24-.384-.336.096v.48l-.72.24-.096-.528.384.048.336-.144-.096-.336zm-2.208-6.096l.48-.48.384-.192.048.288-.096.768-.192.288-.672-.192-.288-.192-.144-.336.48.048zm3.984 6.816v-.48l.528.384.096-.288.672.192.144.288-.192.336-.288-.24-.816.144-.144-.336zm-3.264-9.6l.144.288v1.152l-.336-.48-.528.192.336-.672v-.48h.384zm4.224 11.28l-.528-.384.336-.24-.336-.288.288-.144.336.096.24.24-.336.528.288.096.144.24-.528.096.096-.24zm1.44 1.392l.192-.24.144-.384h.432l.384.432-.528-.144-.288.24-.096.384-.624.096v.336l-.144-.288.048-.432h.48zM40.76 19.32l.192.336-.672-.048-.144.288-.72-.192-.144-.336h.768l.384.096.336-.144zm10.848-4.752l.048-.432.384.144.528.48-.336.192h-.48l-.144-.384zm-8.784 7.968l.336-.768.432.096.288.192-.672.384-.144.336-.24-.24zM29.24 32.904l-.288-.192-.048-.384.336.192.816-.096-.528.624-.288-.144zm5.952-20.784l.336.336.336-.336.24.288-.048.432-.864-.288v-.432zm4.848 10.272h.384l-.48.912-.192-.336-.048-.48.336-.096zm-1.536-4.512l-.144-.432h.384v.432l.432.096-.192.336-.432-.096-.048-.336zm3.648 5.904l.336-.192.24-.384.24.336-.336.144-.096.288-.384.144-.336-.048.336-.288zm-4.56-14.4l.192-.24L38.12 9l-.192 1.008-.336-.192v-.432zm6.384 15.456l.384-.048.24.096.048.336-.384-.144-.24.336-.336-.336.288-.24zM50.12 15l.144-.384.432.144-.384.624-.432-.096.24-.288zm-4.176 11.76l.24-.72v-.384l.048.384.192.096-.096.24v.528l-.336.192-.048-.336zm5.904-15.024l.336-.24v.816l-.384-.096-.24-.192.288-.288zm-13.68-1.2l.288.768h-.432l-.192-.672.336-.096zm-12.24 24.528l.432-.144.384.144-.768.384-.384-.096.336-.288zM35.96 10.776l.24-.24.288.096-.144.432-.288.24-.192-.144.096-.384zm1.968 5.616l.192.288v.768l-.48-.624.288-.432zm8.688 12.48l.24.24.384.096-.192.336-.336-.096-.288-.24.192-.336zm-1.584-4.464l.336-.336.288.528-.624.192v-.384zm5.952-13.248l.144-.288h.432l-.096.336-.24.144-.384.048.144-.24zM48.68 36.312l.432-.528h.144l-.048.288-.192.336-.384.192.048-.288zm-17.76-6.048l.144.384v.336l-.336.192.096-.48-.24-.24.336-.192zm3.024.432l.336-.048.096.528h-.432l-.096-.192.096-.288zM41 19.992l.192-.336.384.096-.72.576-.288-.144.432-.192zm-2.448.912L38.12 21l-.048-.432.384-.192.096.528zm6.912 6l-.24-.192.048-.432.432.432.096.384-.336-.192zm-13.92 2.928l.288-.144.24.336-.336.192-.384-.192.192-.192zm15.024.816l.48-.096v.288l-.336.192-.288-.048.144-.336zm-7.728-15.6l.576-.336-.144.384-.24.24-.288.048.096-.336zm5.232 11.088l-.048-.384.288.192.096.384-.288.24-.048-.432zm1.392 1.344l.24-.288.288.432h-.672l-.24-.192.384.048zm7.104-16.704l.048.528-.336-.096-.192-.24.48-.192zm-15.696 7.152l.144-.672.192.192-.192.72-.144-.24zm6.768 9.024l.24-.288.048.432-.24.192H43.4l.24-.336zm-11.472 1.776l.096-.384.336.192-.192.432-.24-.24zm16.944 6.432l.048-.528h.288l-.144.384-.048.48-.144-.336zM36.536 16.776l.048-.288.288-.192v.624l-.336-.144zM47.048 28.2v-.768l.144.288.144.72-.288-.24zM37.592 8.376l.048-.432.288.24v.384l-.336-.192zm14.112 1.632l.144-.384.24.288v.336l-.384-.24zm1.392 2.976L53 13.32l-.384.048v-.288l.48-.096zm-14.544 3.12l.24.432-.192.048-.336-.144.288-.336zM25.784 36.888v-.384l.336.144-.048.384-.288-.144zm8.496-7.776l.432.096-.288.24-.384-.144.24-.192zm1.776-10.608l.288.24-.24.24-.24-.048.192-.432zm9.072 9.504l.144-.288.096.192v.336h-.432l.192-.24zm2.016 8.4v-.432l.24.24.096.384-.336-.192zm-5.136-14.352v-.384l.24.24.048.336-.096.048-.192-.24zm1.44-.864l-.096-.384.288.048.144.288-.336.048zM29.048 31.8v.432l-.24-.144-.096-.288h.336zm15.6-4.992v-.336h.288l-.096.432-.192-.096zM37.64 11.16l.288.144-.288.192-.24-.24.24-.096zm-4.848 20.832l.192-.288.144.24-.144.288-.192-.24zm11.568-4.08l.288-.096-.144.384-.288-.048.144-.24zm4.608 5.904l.288.096-.192.192-.336-.096.24-.192zM38.456 19.032l.288.336h-.48l.192-.336zm-5.136 10.08v-.336l.24.192-.048.336-.192-.192zM53.816 12.6l.144.24-.288.048-.144-.24.288-.048zM27.608 41.304l.048-.384.336.336-.384.048zm15.888-14.832v-.336l.192.192.096.336-.288-.192zm1.248.96h.288l-.096.288h-.192v-.288zm2.928 1.152h.288l-.096.48-.192-.48zm-.288 3.216l.288.192-.336.24.048-.432zm-8.496-16.224l.288.336h-.384l.096-.336zm6.576 14.592l.096-.336.24.432-.336-.096zm7.344-16.56l.192.288-.288.192.096-.48zm-10.8 7.2h.24v.24h-.24v-.24zM36.68 11.16h.336l-.144.336-.192-.336zm-8.496 22.128l.192.384h-.288l.096-.384zm-.912 2.304h.192v.288l-.24-.096.048-.192zm6.912-5.568h.192v.24h-.24l.048-.24zm5.328-11.184l.288-.048.144.336-.432-.288zm8.592-13.008l.192.336h-.288l.096-.336zm4.512 3.888v.288l-.336-.192.336-.096zm-1.92 6.384l.24-.192v.384l-.24-.192zm-12.576-4.08h.24v.384l-.24-.384zm14.544-.048l.336-.048-.096.288-.24-.24zm-5.952 14.976l.144.24-.432-.096.288-.144zm-8.736-12.24l.192.24-.432-.096.24-.144zm9.168 25.776v.24l-.336-.096.336-.144zm2.064-.336l.24-.192v.336l-.24-.144zM35.192 10.968l.24.336h-.24v-.336zm2.304 1.104l.144.24h-.336l.192-.24zm-10.32 27.84l-.144-.24h.336l-.192.24zm19.44-8.544l.192.048-.096.192-.192-.096.096-.144zm4.368-18.624l.048-.288.192.384-.24-.096zM42.776 25.32h.192v.192h-.192v-.192zM46.424 39l.288.048-.384.192.096-.24zm-5.76-16.416h.192v.192h-.192v-.192zm-5.376 8.544l-.096-.288.336.24-.24.048zM49.784 13.8h.192v.192h-.192V13.8zM32.408 29.736h.192v.192h-.192v-.192zm1.44 16.128h.192v.192h-.192v-.192zm18-32.88l.24.288h-.24v-.288zm-6.192 11.808l.24-.096v.288l-.24-.192zm-16.128 5.136l.048.288h-.24l.192-.288zm9.216-9.84h.24v.288l-.24-.288zm-6.048 8.976l.144.192-.24.144.096-.336zm4.272-12.96l.24-.096.192.192-.432-.096zm12.048 21.792l.096.24-.192.144.096-.384zM38.648 22.68h.24l-.144.24-.096-.24zm-.816-9.6l-.144.192H37.4l.432-.192zm7.2 9.936h.144v.192h-.144v-.192zm2.112 7.008l.24.192h-.24v-.192zM42.776 6.648l.192.24-.24-.096.048-.144zM48.2 37.992l.288.096h-.192l-.096-.096zm-3.456-14.064l-.096.24v-.192l.096-.048zm1.584 6l.048.048-.144.144.096-.192zm33.77 1.2l.24-.768-.048-.432.24-.288.144-.816.24-.336-.096-.624.192-.288.144-.768-.144-.72.096-.336.048-1.632.144-.864-.192-.336-.096-.72-.192-.336-.048-.816-.528-.96-.096-.432-.576-.624-.048-.48-1.2-1.008-.48-.576-.432-.096-.912-.672-3.888-.576-.672.336-1.824.288-.528.48-1.536.528-.336.24-.432-.48-.096-.384-.576-.384-.672-.24-.336.144-1.104-.096-.672.192-.672-.192-1.056.096-.768-.048-.576.48-.384.144-.48 1.536-.384.672.144.432-.192.288-.672 2.256-.384.624.048.48-.24.72-.336.624v.768l-.336.336v.432l-.336.96v.672l-.576.96-.24.768-.096.912-.336.528v.336l-.48 1.44-.048.72-.48.96-.912 3.12-.288.624v.432l-.288 1.056-.336.528-.096.912-.384.624-.048.384-.72 2.16-.096 1.152-.816 1.68.192.528-.336.624-.528 1.392-.48 1.728.72.768 4.224.144 1.632-.192.096-.384.624-.816.096-.864.192-.336-.048-.432.624-1.296.384-1.488.528-1.392-.096-.528.24-.24.288-.72.096-.912.24-.288.24-.672.336-1.488.432-.576-.096-.336.384-1.152-.048-.432-.432-.192.336-.144.672.096.864.768.336.672.624.384.24.288.624.384.384.096.192.336.288.24.816.144.288.24 1.776.288.432-.24.384.144.72.048.72-.096 2.064-.72.288-.336.336-.192h.624l.096-.528.384-.048.672-.288 2.304-2.352.432-.096.576-.432.576.288.72-.384h.384l2.256-.576 2.064-.912.24-.336 1.344-.912.864-1.2.288-.192.192-.72.528-.384.096-.336.864-1.44.288-.72v-.336l-.144-.336-.576-.384-.24-.336h-.384l-.624-.144-.912.528-.48.528v.384l-.144.24-.048.336-.576.432-1.392 1.776-1.248.672-.72.288-.864.096-.336-.336.144-.384zm-7.392-9.408l.24-.144v.384l.96 1.584.144 1.104-.096.768.096.768.144.384-.384.912.096.384-.192.288-.336 1.2v.384l-.432.576-.24.672-1.008.288-.768.048-.144-.288-.864-.672-.432-.72-1.056-1.152.048-.384-.576-1.872.096-.768-.384-.432.096-.768h.336l.144-.24.048-.432-.096-.432.24-.336 1.2-1.056.72-.384 1.104.048.72.24.288.192.288-.144zm-8.592 6.048l.528-.288.432.144.288.768-.048.48.528.576-.048.48.96 1.632 1.056 1.008.096.384.24.336.624.432-.096.384-.336.528-.624.24h-.816l-1.488-.48-.336.048-.144-.336-.24-.24-.336-.144v-.48l-.24-.24-.384-.096-.096-1.776.192-3.168.288-.192zm-2.832-2.88l.144-.192.912.096-.48 1.056.192.24.288.096-.384.096-.432-.192.096-.768-.384-.096.048-.336zm3.072-2.352l.096-.432.384.144.096.288-.048.336-.192.288-.432-.048-.288.24-.48.096.24-.336.336-.24.384.144-.096-.48zm12.24 7.296l.192-.288.528.816-.624.528-.048-.288.192-.24-.336-.192.096-.336zm.576-4.896l.48-.432.288.192-.096.432-.192.288-.624-.192.144-.288zM75.298 30.6l.624-.288.384-.048-.336.624h-.816l.144-.288zm2.688-6.624l.384-.096.384.144.048.384-.336.048-.624-.144.144-.336zm-1.584 2.448l.384.048.24.336-.288.192.048.432-.384-.192.192-.336-.384-.192.192-.288zm-14.064-2.256l.24-.192.432.864-.48-.048-.288-.288.096-.336zm12.576 7.344l.624.384.144.336-.528-.048-.336-.24.096-.432zM63.25 21.96l.384-.096.192.432-.336.144-.384-.144-.24-.288.384-.048zm3.648-1.248l.384-.096.192.72-.72-.288.144-.336zm9.696 3.072l.096-.336h.432v.432l-.432.192-.096-.288zM64.978 19.56l.048.336-.096.336-.24.288v-.48l-.144-.384.432-.096zM62.53 33.912l.144-.72.336.192-.24.768-.24-.24zm.048-6.528l.288.24.096.432-.432-.24-.288-.288.336-.144zm12.672 8.544l-.096-.384.096-.336.192.192.096.72-.288-.192zM65.218 21.192l.384-.144-.048.384-.192.24-.288-.096.144-.384zm-1.824-1.968l-.288-.144-.096-.336.432.048.192.24-.24.192zm14.256 8.304l.336.336h-.384l-.24-.144-.144-.288.432.096zM62.866 20.28l.336-.096-.048.336-.288.192-.192-.192.192-.24zm8.304 15.552l.384.096-.144.336-.336.096.096-.528zm5.52-6.816l.192-.288.336.048-.384.528-.144-.288zm-.288-7.632l-.096.48-.288-.048-.048-.336.432-.096zm-10.752.96l.192.384h-.384l-.192-.336.384-.048zm-1.536 13.824v-.48l.288.192.048.432-.336-.144zM78.61 27.24l-.096.24-.336.048-.096-.384.528.096zm-18.24-2.544l.192-.288.192.144-.048.288-.336.096v-.24zm18.912 1.2l.048-.432.288.144.048.336-.384-.048zm-9.984 11.136l-.24-.288.48.048.24.288-.48-.048zm8.496-6.288l.144-.384.192.336-.048.384-.288-.336zm-15.696-1.872l-.144-.432.288.096.144.624-.288-.288zm15.552-6.048l-.24-.048-.096-.288.528.048-.192.288zm-9.6 14.16l.048-.336.288.192-.048.336-.288-.192zm-3.168-12.96l-.24-.384h.336l.048.336.24.096-.384-.048zm-.72.24l.192-.288.192.24-.192.288-.192-.24zm14.304-1.872v-.384l.24.144.096.336-.336-.096zm-17.568 4.752l.096-.288.24.192-.144.336-.192-.24zm-.864 3.216l.288-.048-.048.288-.288.048.048-.288zm1.392-.864v-.432l.336.384-.336.048zm1.056-8.688l-.096.336-.336-.192.432-.144zm12.576-.384l.192.384-.432-.192.24-.192zm-12.96 11.04l.288.096-.096.192h-.192v-.288zm-1.2-5.616v.336l-.336-.192.336-.144zm1.872-4.464l.336.096-.144.288-.192-.384zm10.992-2.064l.336.048-.24.144-.288-.048.192-.144zm2.304 14.4h.24l-.096.288h-.144v-.288zm.096-10.704l.24.24-.24.192v-.432zM60.946 33.192l.144.288-.384-.096.24-.192zm2.352-3.12l.192.096-.096.192-.192-.096.096-.192zm4.08-11.328l.24.192-.336.096.096-.288zM64.642 24.6l.192.24-.192.192V24.6zm-1.008 9.936l.192.24h-.336l.144-.24zm-3.696-8.976l.24.096-.336.192.096-.288zm14.88 1.872h.192v.192h-.192v-.192zm.336 2.208l.288.096-.192.192-.096-.288zm1.344-8.256h.192v.192h-.192v-.192zm-6 16.8l.144.24-.336-.096.192-.144zm-4.08-18.096h.24v.24l-.24-.24zm8.928 12.816l.192.144-.192.144v-.288zm-15.792-2.928h.192v.144h-.192v-.144zm5.472 8.592l-.144-.144.288-.096-.144.24zm-6.24-13.104l.24.192h-.24v-.192zm1.344 6.48l.24.192h-.24v-.192zm7.44 6.048l.048.24h-.144l.096-.24zm7.872-16.128l-.096.24v-.144l.096-.096zm28.49 5.472l.144-.336.288-.192.48-1.056.528-1.488.144-.816-.288-.624.288-.624-.144-.672-.048-.864-.672-1.008-.288-.816-.336-.192-.768-.816-.624-.384-.48-.048-.192-.288-.864-.672-.48.096-.24-.24-1.488-.288-.624-.288h-1.344l-.624.288-.72-.096-1.632.144-.768.192-.624.336h-.576l-.96.576-.288.048-.144.336-.24.192-1.008.48-1.728 1.296-1.008 1.296-.576.576v.528l-.288.24-.864 1.104v.336l-.336.576-.048.48-.288.192-.144.288-.096.768-.576 1.488-.048.72.096.384-.144.336-.096.672.144 3.552.24.768.048.768.432.576.672 1.44.816 1.248.672.384.048.336.192.288.384.048.288.192.384.48.624.192.192.24.48.048.912.48 1.536.288.624.24.528-.192.24.192.72.24.768-.048.288-.192.096.288.288.144.672-.24 1.68-.096.816-.144 1.584-.48h.624l1.68-.768.384-.048.624-.768h.624l.528-.528 2.4-1.92 1.056-1.152.432-.672.336-.192.768-.912.912-1.296v-.528l.528-.48 1.152-1.92.288-1.152-.336-.96-.72-.288-.288-.24-.384.096-.768-.096-1.2 1.968-.48.528v.624l-.528.432-.144.336-.432.528-.384.096-.144.384-.528.624-.624.432-.96 1.008-.336.144-.192.384-.576.48-1.44.72-.336-.096-.864.48-1.44.432-1.536.048-.72.24h-.816l-.48-.144-.384-.336h-.432l-.432-.384-.624-.096-.432-.432-.624-.24-.336-.576-.288-.144.096-.432-.336-.336L91.26 33l.192-.624.624-.384 2.064-.432.288-.144.144.24.24.096 2.208-.24 1.536-.672.768-.24 1.344-.624.528-.432h.336l.24-.096.144-.384.24-.288.72-.432.48-.528.048-.384.528-.096zm-5.904-5.328h.384l.144.432.672 1.056-.144.432.048.816-.144.336-.816.72-.288.72-.384.144-.192.336-.288.24-.864.144-.624.336-.192.336-.528-.096-.288.192-1.056.24-.288.192-.336-.096h-2.016l.288-1.104-.048-.768.576-1.008.912-1.296 2.064-2.208 1.968-.192.768.048.384.144.288-.096zm-10.032 7.728l.432-.096.192.384.96.768-.192.336-.288.24-.384.096-.672-.192-.24-.288.192-.384.336-.24-.24-.288-.384-.096.288-.24zm-.336-1.632l.24-.336.096.336-.48.624-.432-.336-.432.336.24.192.384.096-.192.96-.432-.096-.048-.864-.336-.72.384-.096.432.096.192-.24.384.048zm-.72 2.928l.48-.624.192.288v.72l-.432.096-.432-.192.192-.288zm.096 1.488l.24-.288.336-.096.096.288v.384l-.384.144-.336-.048.048-.384zm-.768-.24l-.096-.336.096-.288h.288l.096.72-.288.192-.096-.288zm2.736 1.824l.048-.384h.24l.096.624-.528.048.144-.288zm.624-1.056l-.144-.768h.24l.144.384-.144.624-.096-.24zM91.5 22.584v-.288l.144.288.24.144-.192.24-.336.096-.096-.336.24-.144zm-2.064 9.264l.144-.288.432.192-.24.288-.384.144.048-.336zm-.912.192l.24-.192.336.096-.144.288-.384.144-.048-.336zm-.384 3.888l-.096-.432h.384v.672l-.288-.24zm1.728.096l.048-.48.336.096-.048.528-.336-.144zM87.9 26.52l.432.192-.144.288-.384.048.096-.528zm1.728-2.016v-.336l.384-.096-.096.576-.288-.144zm-.624 5.28l.096-.336.384.288-.288.336-.192-.288zm-.96-.672v-.384l.336.144.048.384-.384-.144zm0-3.744l.288-.048.24.144-.336.336-.192-.432zm3.504 13.008l.048-.336h.288v.432l-.336-.096zm-3.552-13.968l.096-.288.336-.144-.192.144v.48l-.24-.192zm10.896-6.384l.24.336-.432.096.192-.432zm-10.56 10.32l.096-.288.24.144-.096.288-.24-.144zm3.024-7.392l.24.192-.336.336.096-.528zm-4.176 5.76l.336-.288-.096.48-.24-.192zm1.152-.816l.336.288-.336.096v-.384zm2.496 5.424h.24v.24h-.24v-.24zm-3.312-5.424l.192.24-.288.24.096-.48zm2.592 10.752h.24l-.096.24h-.144v-.24zm10.08-14.304h.288l-.288.288v-.288zM89.58 27.96l.24.336h-.24v-.336zm11.04-9.504h.192v.192h-.192v-.192zm-10.8 10.272l.096.288h-.24l.144-.288zm11.52-5.76l-.192.144-.24-.144h.432zM87.612 34.056l.192.144-.192.144v-.288zm-2.064-4.464l-.144-.144.24-.096-.096.24zm.288 1.296l.192.24h-.192v-.24zm2.928-3.456l.192.24h-.192v-.24zm-.336 6.432h.144l-.048.288-.096-.288zm37.417-15.12l-1.92-1.728-.624-.432-.67-.288-.77-.192h-.43l-.72-.384h-1.92l-.72.384-.337-.192h-.384l-1.057.528-.336-.048-1.536.48-.527.624-.336.096-1.056.864-.383.096-.672 1.008-.576.528-.673.432-.336.72-1.343 1.968-.336.72-.143.768-.432.336v.624l-.432.528-.72 2.88v.768l-.144.336-.097 1.056.144.72-.144.72.528 3.456.673 1.344 1.104 1.392 1.104.96 1.297.672.768.288 1.68.336 1.44.048.336-.192h.913l.192-.192.336-.144.625.096.624-.384.43-.048.193-.336.48-.48.384.096.24-.288.816-.24 1.104-1.008.384-.144.913.768v.384l.576.576 1.967 1.344.624-.336.193.288.288.144.337-.096.72.192.768-.192h.432l1.728-.672.336.096.337-.096 1.632-1.248.767-.384.384-.576.385-.192.576-.528.48-.624.673-.432.096-.384.67-.816.05-.432.575-.432v-.432l.576-.336.05-.576.48-.528 1.15-1.968.96-2.112v-.336l-.19-.288-.097-.432-.624-.384-.72-.24-.865.096-.768.816-.096.384-.67 1.44-.817 1.296-1.104 2.016-2.257 2.4-.624.48-1.057.384-1.44.096-.384-1.056.24-.336-.145-.48.432-1.056-.24-.528.192-.288.047-.432.72-.864v-.48l-.192-.768v-.432l.192.192.288.048v-.432l.288-.624-.048-.336.432-.624.288-1.584.576-1.536-.047-.432.288-.096-.19-.528.43-.24.337-1.392 1.008-2.784-.048-.72.336-1.104-.048-.48-.288-.288-.72-.24-2.016.048-.767-.144-1.872.288-.767-.048-.384.576-.24.672v.432l-.24.192-.29.624-.287.192-.288-.192zm-3.888 3.984l1.248.72v.384l.624 1.392.047.384-.144 2.304.096.384-.385.624-.288.72.048.432-.288.288-.768 1.488-.337.192-.048.384-.672.672-.096.384-2.16 1.296-.72.288-.768.144h-.865l-.72-.24-.624-.384-.527-.528-.864-1.296.143-.624-.192-1.248.29-2.592.67-1.344.29-.24-.05-.336 1.25-1.584.575-.528-.096-.624.43-.048 1.73-1.056.863-.048.288-.24.337-.048 1.44.288.24.24zm3.36 8.64h.288l.336-.144-.24-.864.48.048.77-.336.143.48-.336.096-.816.576.097.24-.288.288-.145.384-.288-.24-.336-.672.337.144zm3.408-6.576l-.384.528.24.24.145.384-.48.048v-.288h-.336l-.193-.288.384-.192.145-.384.48-.048zm-1.392 2.064l.288.144-.095.384.048.576.24.096-.096.384-.336.048.05-.432-.24-.192.143-.432-.24-.336.24-.24zm-1.488 5.52l.336.048.24-.288.24.288v.432l-1.055-.144-.192-.336h.432zm1.92-6.432l.288.048.144.192-.192.384-.72-.096-.096-.288.19-.24h.385zm-1.68 9.024l.144-.288.287.24.144.336-.095.432-.528-.288.048-.432zm2.688-11.136l-.432-.384v-.336l.385.048.384 1.008-.337.144v-.48zm-3.6 5.568l.144-.384.288.096.192.192.24-.192.384-.096-.527.432-.624.288-.097-.336zm1.728 1.776l.193-.288.384-.096.144.72-.335.096v-.384l-.288.192-.096-.24zm-16.08-3.408l.05-.336.24-.192.335.096-.096.432-.29.192-.24-.192zm5.905-8.4l.336.096.385.528h-.384l-.19-.192-.29-.096.145-.336zm-4.656 7.344l.287-.24.384-.096-.095.336-.528.384-.048-.384zm1.727 9.6l.432.144.095.336-.336.192-.193-.672zm12.96-10.992v.528h-.336l-.095-.432.432-.096zm-.72 8.208l-.096-.432.48.096v.432l-.383-.096zm-17.04-3.12l.192.288-.433.144-.192-.384.432-.048zm2.496-1.392h.288l.097.432-.384.096v-.528zm17.088 9.264l.145-.192.336.144-.143.288-.288.096-.05-.336zm-18.287-7.488l-.24.384h-.336v-.288l.576-.096zm17.472 3.936l-.384-.192.337-.096.336.144.096.288-.385-.144zm-12.192-11.76l-.096-.336h.384v.48l-.287-.144zm2.4-4.08l.096-.336.335.096-.144.288-.287.144v-.192zm9.456 1.392l.383-.192v.336l-.432.192.05-.336zm2.495.528l.288.048-.096.384-.336-.096.145-.336zm-.624.144l.385-.096-.192.384h-.336l.144-.288zM117.254 22.2l-.096.288-.336.048v-.24l.433-.096zm11.04 4.848l-.288-.24h.384l.24.432-.337-.192zm1.2-5.088l.384.144-.384.288v-.432zm-1.92-.192l-.384.336-.097-.336h.48zm-6.96 13.728h-.192l.05-.336h.24l-.097.336zm6.384-11.616v-.24l.24.096.048.336-.288-.192zm-.24 5.76l-.096-.24.337.048.096.192h-.336zm-7.008-8.832l-.097-.288.288.096.097.24-.288-.048zm2.927-.624h.288v.24h-.288v-.24zm1.2 15.696l.144.24-.19.096-.193-.192.24-.144zm-6.528-15.264l.287.336h-.384l.096-.336zm-7.25 13.008l.193.192-.48.192.288-.384zm16.465-11.808l-.096.288-.337-.336.432.048zm-2.112 4.176l-.096-.336.24.144.096.288-.24-.096zM114.42 21.48l-.19.336-.24-.24.43-.096zm-2.543 14.208l.24.24h-.528l.287-.24zm17.088-6.576l.288.096-.096.192h-.192v-.288zm.288-2.4l-.24.192-.24-.288.48.096zm-3.6 9.744l-.144-.336.43.24-.287.096zm-13.008 1.68h.384l-.097.288-.288-.288zm14.832-2.448l-.192-.288.432.096-.24.192zm-8.256-14.736l-.287.384-.048-.288.336-.096zm-9.407 6.672l.288-.096v.336l-.287-.24zm16.56-4.176l.192.24-.432-.048.24-.192zm2.256 9.744l.24-.192v.384l-.24-.192zm-3.793-.096l.24-.192v.384l-.24-.192zm-.144-8.16h.288v.288l-.287-.288zm1.44-2.304h.288l-.383.288.096-.288zm1.344 13.92l.144.288-.335-.096.192-.192zm-13.536-.864h.337l-.192.24-.144-.24zm11.33-11.52l.047-.288.192.432-.24-.144zm-.913 11.952h.192v.192h-.193v-.192zm4.8-12.768l.24.096-.144.24-.096-.336zM113.27 37.464l.287.24h-.288v-.24zm16.415-14.64h.24v.288l-.24-.288zm-18.192 1.056l.144.24-.192.144.048-.384zm7.392-4.224l.048.336-.24-.288.192-.048zm-6.144 16.128l.29.048-.193.192-.096-.24zm-3.263-1.872h.192v.144h-.193v-.144zm-1.152-.384l.192.144-.192.144v-.288zm9.12-15.744h.192v.144h-.192v-.144zm-7.968 12.768h.192v.144h-.193v-.144zm4.08-8.592h.192v.144h-.193v-.144zm-1.248 1.392l.19.144-.19.144v-.288zm-3.553 4.272h.192v.144h-.193v-.144zM126.9 38.232l-.143-.144.24-.096-.096.24zm-18.143-4.56l-.096-.144.29-.048-.193.192zm2.304-9.072l.193.144-.192.096v-.24zm13.585-.96h.144v.144h-.145v-.144zm-13.92 9.84h.144v.144h-.145v-.144zm18.96-9.216l.24.144h-.24v-.144zm-1.152-2.928l-.096.24v-.192l.096-.048zM149.007 7.32l-.288-.144h-1.537l-.528-.24-1.392.144-.384-.096h-.77l-1.535.384-.336.576-.433 1.344v1.2l-.384-.096-.672 2.304-.095.672-.192.24-.816 2.448v.768l-.192.288-.48 1.44.144.576-.625.576-.048 1.152-.384.624-.576 2.304-.192.336.24.528-.288.048-.24.288v.24l.192.24-.433.528-.768 2.16-.337.672v.768l-.192.336-.24.864v.432l-.335.624v.768l-.816 1.344-.05.768-.43 1.536-.05.768-.43.384-.097.336v.816l-.528.864.096.96.433-.048.528.336 1.057-.048 1.536.144.384-.192.336-.048 1.296.24 1.055-.624.528-.96.336-1.104.143-.864.336-.432-.193-.384.192-.24.335-1.056.192-.288V34.2l.432-.432-.097-.336.288-.624-.095-.384.288-.288.432-1.536.24-.288-.24-.624.288-.192.192-.336.144-.816.335-.672-.192-.48.336-.192.24-1.008.143-.288-.096-.72.528-.144.192-.384 1.68-1.776 2.736-1.056.384.192.96-.096.24.288.288.048.72-.144-.288.624.336.144.432.528.288.672.048.432-.24.288-.143.384.096.48-.432.528-.72 1.296-.767.336-1.2 1.008-.768.24-1.248.816-.864.144-.624.48-.385.624.192.336.336 1.968.528.816.385 1.584.432.624.096.384.24.288.096.432.43.624.625.384.336.672.673.816h.624l.144.336.29.24.67.288.29.24.43-.048.72.192.433-.24.336.192h1.103l.816-.24.863-.048.432-.384.384-.096 1.823-1.056 2.16-2.112.144-.624h.48l.192-.384.96-1.296.143-.384.48-.624.048-.48.48-.288 1.537-2.928.528-1.488.144-.816-.337-.144-.24-.24-.336-.672h-.384l-.576-.144-.672.24-.672.912-.624 1.536-.385.624-.288.192-.576 1.296-.96 1.392-.527.624-.576.48-1.104 1.152-.72.48-1.344.528h-.817l-.816-.24-.576-.384-1.39-1.68.047-.336-.096-.336.05-.384-.53-.336-.383.144-.24-.144-.096-.288 1.25.096.19-.384.913-.72.24-.336.336.192.24-.288.72-.336.19-.384.337-.144.144-.384.24-.24.433-.096.336-.192.48-.624.335-.768h.432l.384-.48.72-1.392.433-.624v-.528l.144-.336v-.432l.288-.528-.144-.72.24-1.056-.48-1.584-.575-1.44-.384-.72-.623-.192-.48-.576-.336-.24-.527-.048-.624-.432-.77-.24-.91-.144-.337.288-.768-.192-.384-.24-.19.288-.337.24-.336-.288-.336.192-1.583.48-.24.288-.336.048-1.295.72-.576.48h-.433l-.048.336-.145.192-.336-.432.143-.432.048-.816.24-.24v-.528l.29-.288v-.96l.095-.432.576-1.44-.047-.336.528-.816-.095-.528.432-.72v-.336l.528-1.536-.192-.528.384-.624-.24-.288zm4.8 12.672l.192-.912.335.096.192.192.384.048.337-.336.288.576.24.192.384.096-.29.336-.095.384-.384-.048-.91.48-.097-.432.432-.144.24-.24.48-.048-.288-.24-.672-.096-.288-.192-.048.288.143.288-.288.144-.24-.048-.048-.384zm-4.752 14.64l.192-.288.336.048-.048-.24-.288-.048.192-.288.24-1.2h.335l-.048.432.144.288-.24.24.097.336.576.288.096.384-.433.096-.432-.192.096.624-.335-.288-.768.048-.432-.144.288-.432.096.432.335-.096zM143.44 18.84l-.145-.336.096-.336.337.24.528.576-.192.336-.336.192v.384l-.096.288-.335.048v-.336l.192-.336.096-.432-.144-.288zm-3.41 3.84l.193-.336.24.096-.24.528.336.096v.336l-.48-.048-.337-.192-.144-.384.43-.096zm1.777-.912h.24l.672.48.335.096-.384.144-1.055-.336.192-.384zm12.288-3.888l.48.048-.096.336-.24.288-.29.144-.143-.288-.048-.432.335-.096zm-2.064 1.68l.29-.096.24.096.143.336-.096.48-.528-.48-.337-.048.288-.288zm-8.35-3.312l-.337-.192.048-.384.385.144.288.288.096.336-.337.24-.144-.432zm-3.313 10.08l.48-.144.048-.48.336.192-.095.336-.288.336-.384.096-.096-.336zm.72-5.952l.192.192.095.336-.624.192v-.432l.337-.288zm11.952 1.344h.335l.192.192-.24.288-.384-.048.096-.432zm-.48-.72l.287-.24.288.096-.192.336-.432.192.05-.384zm-9.265-.048l.288-.096.24.24-.288.24-.432-.048.192-.336zm1.968-1.2l.528.192-.287.288-.336-.096.096-.384zm7.392 10.224h.384l-.337.096-.144.24-.29.096-.095-.336.48-.096zM141.95 14.472l.29.192.19.336-.527-.096.048-.432zm12.29 10.32l.287.096.096.384-.624-.288.24-.192zm-4.13 5.952l.337.144-.096.288-.335.096.096-.528zm-8.16-13.152l.385.048v.336h-.384v-.384zm.72 3.408l.097.384-.336.048-.095-.336.336-.096zm8.497-1.68l-.144-.432.336.048.19.192-.383.192zm-16.032 18.432h.336l-.047.336-.288.096v-.432zm21.216-14.304l.05-.384.287.288-.096.336-.24-.24zm-8.303 10.272l.144-.192.097.288-.048.288-.24-.048.047-.336zm6.096-10.56l.048-.288.145.192.048.336H154l.143-.24zm2.784-1.152h.288l-.048.288-.288.048.047-.336zM144.83 10.2l.24.336-.43.096.19-.432zm-3.407 13.632h.288v.288h-.287v-.288zm7.296 8.784l.143.336-.288-.144-.24-.288.384.096zm-11.76 4.176l.047-.288.24.192v.288l-.288-.192zm14.783 1.536l.048-.288.24.144-.047.288-.24-.144zm-8.208-23.568l.288-.048-.144.288h-.29l.145-.24zm10.272 7.824l.144.384-.48-.288.337-.096zm-4.32 12.96l-.048-.288.24.096.095.288-.288-.096zm5.76-10.992l.288.24-.288.192v-.432zm-12.576-4.608l.193.336h-.336l.144-.336zm12.05 3.744l.287.048-.096.192h-.19v-.24zm-12.577-3.12l.192.24-.288.192.096-.432zm-.432-.624l.097.336-.384-.24.288-.096zm11.377 16.224l.144-.288.097.528-.24-.24zm4.368 1.776h.192v.24h-.24l.048-.24zm-5.136-9.792l.095.384-.336-.336.24-.048zM144.206 17.4h.144v.336h-.143V17.4zm4.608 17.952l.192.24-.192.24v-.48zm-13.344 1.152l.29.288h-.29v-.288zm4.08-11.616l.145.24h-.336l.19-.24zm1.105-6.288l.288.144-.048.24-.24-.384zm5.472-6.192h.192v.192h-.193v-.192zm-9.12 22.608h.192v.192h-.193v-.192zm2.736-2.064h.192v.192h-.192v-.192zm16.512-11.664l.24.24-.096.192-.145-.432zm.048.528h.288v.24l-.287-.24zm-1.296 1.488l.24.288h-.24v-.288zM150.11 36.36l.145.192-.24.144.096-.336zm1.777-7.008h.192v.144h-.193v-.144zm-.72-.384l.192.144-.193.144v-.288zm-6.96-15.744l.048.24-.24-.096.192-.144zm12.576 6.48l-.144.144h-.337l.48-.144zm-14.352-4.272l.24.192h-.24v-.192zm9.65 21.168l.24.192h-.24V36.6zm-15.89 1.68l.097.24-.192-.048.096-.192zm2.93-14.448l.19.288-.19-.096v-.192zm-2.833 11.184l.24.144h-.24v-.144zm14.64-17.184l.24.144h-.24v-.144zm-10.272 6.48l.24.144h-.24v-.144zm40.73 3.024l.144-.336.287-.192.48-1.056.528-1.488.144-.816-.29-.624.29-.624-.145-.672-.048-.864-.672-1.008-.288-.816-.336-.192-.767-.816-.624-.384-.48-.048-.193-.288-.864-.672-.48.096-.24-.24-1.488-.288-.624-.288h-1.343l-.624.288-.72-.096-1.632.144-.767.192-.624.336h-.577l-.96.576-.288.048-.144.336-.24.192-1.007.48-1.728 1.296-1.008 1.296-.576.576v.528l-.287.24-.864 1.104v.336l-.337.576-.048.48-.288.192-.144.288-.096.768-.576 1.488-.047.72.096.384-.145.336-.096.672.143 3.552.24.768.048.768.433.576.672 1.44.816 1.248.673.384.048.336.193.288.384.048.288.192.384.48.623.192.192.24.48.048.912.48 1.536.288.624.24.528-.192.24.192.72.24.768-.048.288-.192.097.288.288.144.672-.24 1.68-.096.816-.144 1.584-.48h.624l1.68-.768.385-.048.624-.768h.623l.528-.528 2.4-1.92 1.057-1.152.432-.672.335-.192.768-.912.912-1.296v-.528l.528-.48 1.152-1.92.288-1.152-.336-.96-.72-.288-.288-.24-.385.096-.768-.096-1.2 1.968-.48.528v.624l-.528.432-.145.336-.432.528-.384.096-.145.384-.528.624-.624.432-.96 1.008-.336.144-.192.384-.576.48-1.44.72-.337-.096-.864.48-1.44.432-1.537.048-.72.24h-.816l-.48-.144-.384-.336h-.432l-.43-.384-.625-.096-.432-.432-.624-.24-.337-.576-.288-.144.096-.432-.335-.336-.192-.384.192-.624.624-.384 2.063-.432.288-.144.145.24.24.096 2.208-.24 1.536-.672.767-.24 1.344-.624.53-.432h.335l.24-.096.144-.384.24-.288.72-.432.48-.528.047-.384.528-.096zm-5.904-5.328h.385l.144.432.67 1.056-.143.432.048.816-.144.336-.815.72-.288.72-.384.144-.192.336-.287.24-.864.144-.625.336-.192.336-.528-.096-.288.192-1.056.24-.287.192-.336-.096h-2.016l.29-1.104-.05-.768.577-1.008.912-1.296 2.063-2.208 1.968-.192.77.048.383.144.288-.096zm-10.03 7.728l.43-.096.193.384.96.768-.192.336-.287.24-.384.096-.673-.192-.24-.288.192-.384.335-.24-.24-.288-.384-.096.29-.24zm-.337-1.632l.24-.336.096.336-.48.624-.433-.336-.432.336.24.192.384.096-.193.96-.432-.096-.048-.864-.336-.72.385-.096.432.096.192-.24.383.048zm-.72 2.928l.48-.624.192.288v.72l-.432.096-.432-.192.193-.288zm.096 1.488l.24-.288.335-.096.096.288v.384l-.383.144-.336-.048.05-.384zm-.77-.24l-.095-.336.096-.288h.29l.095.72-.288.192-.096-.288zm2.737 1.824l.048-.384h.24l.096.624-.527.048.144-.288zm.624-1.056l-.143-.768h.24l.144.384-.143.624-.096-.24zm1.873-10.464v-.288l.144.288.24.144-.192.24-.336.096-.097-.336.24-.144zm-2.064 9.264l.143-.288.432.192-.24.288-.384.144.05-.336zm-.913.192l.24-.192.336.096-.144.288-.385.144-.048-.336zm-.384 3.888l-.096-.432h.384v.672l-.287-.24zm1.728.096l.05-.48.335.096-.048.528-.336-.144zm-1.967-9.504l.432.192-.144.288-.383.048.096-.528zm1.728-2.016v-.336l.385-.096-.096.576-.29-.144zm-.623 5.28l.096-.336.384.288-.288.336-.193-.288zm-.96-.672v-.384l.336.144.048.384-.383-.144zm0-3.744l.288-.048.24.144-.336.336-.193-.432zM169 38.376l.05-.336h.287v.432l-.336-.096zm-3.55-13.968l.095-.288.336-.144-.19.144v.48l-.24-.192zm10.895-6.384l.24.336-.432.096.192-.432zm-10.56 10.32l.096-.288.24.144-.095.288-.24-.144zm3.024-7.392l.24.192-.337.336.096-.528zm-4.177 5.76l.336-.288-.097.48-.24-.192zm1.152-.816l.336.288-.335.096v-.384zm2.496 5.424h.24v.24h-.24v-.24zm-3.31-5.424l.19.24-.287.24.096-.48zm2.59 10.752h.24l-.095.24h-.144v-.24zm10.08-14.304h.29l-.29.288v-.288zm-10.607 5.616l.24.336h-.24v-.336zm11.04-9.504h.192v.192h-.192v-.192zm-10.8 10.272l.096.288h-.24l.143-.288zm11.52-5.76l-.192.144-.24-.144h.433zm-13.728 11.088l.192.144-.192.144v-.288zM163 29.592l-.143-.144.24-.096-.096.24zm.29 1.296l.19.24h-.19v-.24zm2.927-3.456l.192.24h-.193v-.24zm-.336 6.432h.145l-.048.288-.096-.288zm27.723-16.128l-.096-.384.048-.672.48-2.16v-.768l-.096-.384-.625-.24-.144-.288-.48-.528-.335-.192-1.056-.24-.77.048-2.16.48-.91 1.056-.817 1.296-.24.768-.096.768.24.768-.048.384.287.288.144.768.913 1.392.144.384-.768 1.632v.432l-.385.432-.288 1.632-.192.24-.384.144.097.72-.336.24-.383.672-.096.336.05.72.24.624.43.528 1.01.288.863-.288.336-.576.43-1.392.625-.96v-.528l.24-.288.288-.768.192-.288.048-.48.144-.384.864-1.248.77.192 1.295.72 1.152.864-.096.336.337.624-.432 1.2-.048.384.144.384-.287.288-.144.384.047.288-.192.624-.624 1.392.05.816-.433.624-.144.864-.384 1.392.047.912-.336.576.29.864-.097.336.048 1.104.625 2.208.864.624.143.336 1.2.624.72.24.48-.048.624.144h1.152l1.775-.48.672-.384.768-.144 2.448-1.44.336-.72.335-.192 1.344-1.44.623-.48.096-.624.575-.48.432-.528.048-.432.528-.432.384-1.056.336-.24.24-.384-.048-.432.528-.288.144-.816.288-.624.576-.816.193-.672-.048-.432-.864-.576-.623-.288-.816-.096-.24.144-1.007 1.44-.288.768-.384.672-.047.432-.576.528-.432.624-.672 1.488-.864.72-.96 1.152-.385.672-1.296.72-.77.288-.383-.24-.816-.288-.047-.384-.24-.624.384-1.488.528-1.536.336-.672v-.864l.865-2.736v-.768l.192-.336.144-1.056-.43-2.352-.29-.624-1.007-1.248-.48-.432-.672-.336-.43-.528-.433-.048-.576-.336-.335.048-.624-.624-.72-.144-.91-.48h-.433l-.144-.336zm4.224 18.48l.384-.048.193.72.336.048v.72l-.625-.192v-.384l-.096-.288-.433-.48.24-.096zm-1.872-4.848l.288.192-.576.528-.144.336v.384l-.336.048-.192-.336.144-.336.383-.096v-.624l.432-.096zm.816-1.872l-.095-.336v-.624l.384.432.24-.432.24.288-.097.288-.24.288-.144.384-.29-.288zm.05 4.56l.24-.624.287.336.144.432-.24.24-.48.144-.095-.192.144-.336zm-2.017 3.216l-.24-.336-.096-.432.48.096.432.72-.29.144-.287-.192zm.672-1.488l.384-.192.335-.048.24.24h-.384l-.67.48-.193-.384.288-.096zm1.392.384l.384.096.145.336-.384.096-.335-.096.192-.432zm-.24 1.872l.24-.192.336.096-.048.432h-.48l-.048-.336zm-.912-4.512l.528-.048-.096.336-.288.096-.337-.048.192-.336zm1.536-6.048l.337-.048.192.288-.72.096.19-.336zm-1.63 2.736l.287.096-.096.432h-.335l.144-.528zm2.447-2.784l-.048-.336h.335l-.048.576-.24-.24zm-3.12 5.76l-.384.048-.192-.288.385.096.432-.096-.24.24zm2.256-2.16l-.384-.048-.29-.24.96.192-.287.096zM190.53 17.64h.337l-.24.288-.336-.048.24-.24zm7.777 8.256l.048.432-.432-.096.384-.336zm-5.856-9.6l-.287.384-.096-.288.384-.096zm7.345 22.8h.192l-.096.24h-.19l.095-.24zm-5.76-5.52l.096.288h-.287l.192-.288zm-2.832-16.896l.048.24-.24.096.193-.336zm5.28 18.576l-.144-.144.287-.096-.144.24zm2.976.912h.143v.144h-.144v-.144zm-1.873-11.952l-.096.24v-.192l.097-.048zm26.138 8.448l.144-.288.047-2.352-.288-.384v-.48l-.29-1.152-.67-1.296.095-.528-.72-1.344v-.432l-.288-.336-.96-2.064-.528-.624-.48-1.104-.337-.288-.048-.432-.816-2.16-.433-.24-.096-.72-.143-.336-.432-.528-.336-.192-.817-.048-.336-.288-.432.048-.624-.24-.43.096-.72-.336-.77-.144-.72.144-.287.24-.048.432-.576.912.095.432-.528.816-.24.672-.096.816-.67.816-.24.768-.24 1.488-.48.096v.432l-.433.48.048.432-.576.624.095.528-.288.24-.528 1.008-.433.624h-1.248l-1.92 1.392-.145.432-.24.336-.336.24v.48l-.433 1.104.048 1.248-.144.432.145.24v.72l.72 2.064.288.096.24.24v.624l.336.24.815 1.344 2.928 2.064 1.344.624.816.24.864.096.288.24.432.096.432-.048.815.24.864-.288.67.288.72.048 3.12-.384h.72l.673-.432.384-.096.432.048.335-.192 1.536-.48.53-.48.43-.096.96-.624.48-.048.77-.816 1.247-.864.912-1.2.623-.432.096-.384.383-.576.96-1.056.24-.72.288-.192.433-.528v-.528l.528-.336.193-.816.72-1.392.144-1.152-.384-.144-1.008-.768-.384-.048-.383.096-.336.288-.43.192-1.01 2.208-.48.576v.624l-.623.336-.288.816-.337.24-1.44 1.872-.624.24h-.433l-.096.288-.24.096.145-.816-.432-.72.192-.24zm-10.464-10.8l.913 1.68.24.864.72.816-.192.288.337.576.096.72.528.528v.528l.577 1.824.144 2.592-.095.816-.24.72-.288.528.096.528-1.44 1.104-.336.144-.096.432h-.335l-.288-.192-.336.192h-1.103l-.768-.192-.72-.048-.193-.336-1.104-.96-.336-.576-.048-.384.095-.336.912-1.248.096-.528.576-.96-.097-.768.048-.672-.335-.624-.24-.768v-.768l.192-.72.432-.576-.05-.432.145-.432.528-.48.528-1.008.193-.816.72-1.056h.528zm7.057 13.632l.24-.144.432.048.335.288-.048.672-.144.288h-.336l-.192-.624.192-.336-.288.144-.193-.336zm-.096-2.64l.145.432-.192.336-.336.192-.048-.336.287-.624-.336-.24-.43-.144.095-.384.336-.048.24.192v.336l.24.288zm-1.68 4.848l.673.24.432-.048.192.432-.384-.096h-.768l-.288-.096-.24-.336.384-.096zm.385-3.12l.672.048.24.24-.384.336-.336-.192-.288-.048-.24-.288.335-.096zm.288 1.632l.192-.288.24-.144.336.048-.095.288-.336.096.095.384-.192.288-.336-.336.096-.336zm1.248-2.448l.433-.24v.912l-.384-.048-.433-.384.384-.24zm-1.92.144l.433-.144.384.048.096.336-.816.096-.336-.096.24-.24zm3.265.96l.336.24.145.384h-.384l-.335-.24-.144-.384h.385zm-1.2-4.08l-.192-.336-.048-.288.384.144.19.384-.047.384-.384.144.095-.432zm-3.408 2.688l.336-.096-.192.624-.335-.288.192-.24zm-.144 3.36l.096.528-.337-.144-.192-.336.433-.048zm2.256-7.632l.143-.288.24.24-.192.288h-.287l.096-.24zm2.11.528l.337-.192v.432l-.24.192-.096-.432zm-15.647 4.32l-.144-.432.335.096.192.288-.384.048zm1.248-2.496l.29.048-.097.336-.336-.096.144-.288zm-.67-.816l.335.048-.144.24-.383.048.192-.336zm15.455 3.168l-.048-.384.384.528-.095.096-.24-.24zm-2.832-3.6l-.144-.384.287.192.096.432-.24-.24zm1.152-.864l-.144-.336.48.288-.335.048zm-15.12 1.728h.192v.24h-.288l.095-.24zm18.432 5.136h.192v.24h-.29l.097-.24zm.48.576h.24l-.096.288h-.143v-.288zm-5.856-10.416l.29-.144.143.288-.432-.144zm3.985 10.416h.144l-.05.288h-.19l.095-.288zm-15.792-4.224l.096.336-.29-.096.193-.24zm-.096-1.056l.192.192-.29.144.097-.336zm8.736-9.696l.24.048-.384.24.143-.288zm2.448 14.64h.193v.192h-.192v-.192zm-9.647-1.632l-.096-.24.336.096-.24.144zm11.232-2.256l.192.24h-.288l.095-.24zm-13.632.24l.288.048.05.24-.337-.288zm10.992 5.52l.24.24h-.24v-.24zm1.392-3.024l.192.144-.193.144V35.4zm-.768-13.104l.143.24h-.144v-.24zm2.927 15.072h.24v.144l-.24-.144z"/>
</svg>
