<svg xmlns="http://www.w3.org/2000/svg" viewBox="0 0 256 56">
  <title>
    hd-timetable
  </title>
  <path fill="#f6fcf9" fill-rule="evenodd" d="M63.56 14.384l.192-1.488.144-.288-.528-2.352-.816-.96-.624-.576-.768-.144L60.248 8h-1.68l-.96.48h-.384l-.24.384-.72.48-.048.528-.576.528.048.384-.336.576.096.384-.768 1.248-.288.192-.768.192-1.632.096-.768.144-.24-.192-.384-.096-.384.144-.816-.048-.336.096-.192-.288-.336-.144h-1.2l-1.008-.48-.48.048-.384-.192-1.728-.24-.672-.24-.288-.24-.384.096-1.296-.384h-.432l-.24-.336-.624.096-.864-.432-.72-.192h-1.2l-.576-.288-.384.096-.288-.24-.432-.192-.432.192-.432-.384-3.36-.384-.72.048-.72.192-.24-.192-.384-.096-.432.336-.336-.192-1.248-.048-.576.288-1.488.24-.24.288-.432-.096-.576.432-1.152.384-.624.384-2.256 1.776-.384.768-.528.576v.624l-.72.432v.432l-.72 2.016.048.768-.24.336-.144.72.096 1.152v1.584l.288.72-.192.432.24.24.24.72.144.912.72.864.336.192v.384l.432.624.528.528.192.336.384.048.24.144.336.768 2.64 1.296 1.488.48 1.632.288.72-.288.288.24h.384l.816-.336v-.432l.288-.528-.144-.384.24-.768-.24-.336-.096-.336-.048-1.2-.432-2.208-.96-.624-.624.096-.288-.288h-.528l-.624-.432h-.432l-1.056-1.152-.624-.528-.096-1.056-.192-.672-.048-.768.624-2.448 1.68-1.488.528-.576.528.192.624-.336h.432l.432-.24h2.688l.672-.144 1.344.576.336.048.72-.192.24.288.72.288.72-.192 1.056.528.72.912.048.384-.192.72-.288.384v.48l-.672 1.776-.576 2.448-.336.528v.48l-.288.672-.096.768-.432.432v1.536l-.432.528-.192.816.096.432-.576.912-.192.768.048.72-.672.864-.048.864-.48 1.392-.144.72.048.384-.384.432.096.384-.384.528-.24 1.104-.192.288.096.624-.624.528.096.816-.432.72v.72l-.24.288-.288.624-.24 1.536-.48.912v.432l-.24.816.096.288.528.528.336.144 1.248-.096.624.288 3.408-.288.72-.24.048-.384.768-1.68-.096-.624.288-.336.24-1.056.384-1.056-.096-.288.24-.288.288-.72.144-.864-.048-.432.48-.528.144-.384.048-.816-.144-.384.72-.48v-.816l.432-.96v-.672l.624-1.056-.096-.624.192-.384v-.432l.384-.528.192-.672-.048-.384.24-.288.144-.672.24-.288.144-1.152.576-1.44.192-.72.048-.768.336-.672v-.48l.528-1.056.096-.912.24-.24.288-1.008.192-.336-.096-.48.144-.336.48-.576.096-.48.24-.192 1.44-.048.432.336.528.048.384-.144.24.24 1.68.288.288.192.432-.192.624.288.72.192.72.048.768-.144.624.144 1.584.048 1.632-.144 3.6-1.008 2.352-2.064.48-.624-.144-.624.624-.24.096-.384zM57.8 22.88l-2.256.096H52.52l-.432.624-.576 1.488-.048.816-.432.528v.48l-.288 1.008.048.48-.24.24-.384.624v.72l-.24.288-.432 1.2-.048.816-.528.96-.768 3.024-.288.624.048.624-.288.288-.384 1.488-.192.336v.48l.192.336-.288.624.144.768-.048.336-.192.336.192.24.096.72.336.336-.144.432.336.672.864 1.296.576.528 1.392.816.624-.096.624.336.432.096.72-.24.336.24h.864l1.2-.288.336.096 2.4-1.152.192-.528.72-.336.432-.096.288-.336.768-.432.144-.72.384-.144.576-.48.912-1.248.528-.528v-.528l1.536-1.68v-.336l.48-.912.048-.432.288-.192.432-.72v-.432l.576-.816.24-.72-.048-.432-.528-.528-.672-.432-.912-.192-.48.624-.432.096-.048.48-.576.432-.048.432-.48 1.152-1.68 2.544.096.528h-.528L59 41.36l-.384.192-.912.768-.672.336H56.6l-.24.24-.816.192-.336-.24-.432-.096-.24-.24-.288-.72-.384-1.536.384-1.104v-.384l.576-1.152.816-2.784.288-1.488.24-.24.624-1.776-.096-.432 1.536-4.368-.096-.768.336-.24.144-.288.24-1.248-.624-1.152-.432.048zm-16.176-7.152l.72-.096-.096.288-.624.24.192.432.912.096.144-.432.192.288-.096.432.336.432-1.056-.384-.624-.432-.24-.336-.096-.432.336-.096zm12.528-.864l.192.816.192.288.288.192-.096.24-.336.048-.144-.528-.816.096.048-.432.192-.288.096-.384.384-.048zm-2.784 25.392l.096-.336.288.096v1.056l-.816.72v-.336l.288-.288-.096-.384-.432.096-.096-.336h.72l.048-.288zm-10.56-22.32l.192-.288.384-.096.336.144-.528.24.384.096-.144.336-.432.48-.288-.288-.288-.144v-.384l.336.336.192-.048-.144-.384zm17.76-5.952l.048.336-.336.576.288.288.336.144-.144.192h-.384v-.24l-.24-.192v-.912l.432-.192zM49.64 37.616l.336.528.432-.096.384.144.144.384-.432.048-.384-.192-.288-.288-.384-.192.192-.336zm2.352-2.352l.336-.096.72.24.192.24-.48.096-.384-.144-.384.048-.24-.144.24-.24zm-31.92-11.52l.384-.24.192.624.528.096v.384l-.384-.144-.288-.288-.48-.048.048-.384zm19.824-3.648l-.192-.72.096-.384.144.48.384.144-.096.192v.432l-.432.192.096-.336zm-5.952 18.288l-.096-.432h.192l.864.72h-.816l-.144-.288zm4.608-16.464l1.056.672.096.384-.24-.336-1.104-.288.192-.432zM35.72 36.368l-.24-.288.048-.336.72.528-.144.336-.288.144-.096-.384zm-15.408-16.56l.432.192-.192.864-.24-.192.048-.288-.096-.336-.336-.24h.384zm2.016 5.184l.24-.24.192.384.288.144.096.288-.48-.192h-.432l.096-.384zm17.76-7.92l-.096-.288.048-.336.384.096.144.336-.144.288-.336-.096zm-1.968 6.48l.672-.096.048.48-.912-.144.192-.24zm13.968 15.552l.384-.432.144.192-.192.288.096.336h-.528l.096-.384zm-19.68 2.976l-.24-.288.336.096.24.24.288.096-.192.336-.336.192-.048-.288.24-.144-.288-.24zm24.048-28.368v-.48l.288.384h.384l-.048.288-.48.144-.144-.336zm-16.992 1.872l-.24.144-.432.048-.336-.144-.096-.336.336.096.192.24.288-.144.144-.192.144.288zm.816-2.112l-.432-.672.432.144.288.24.192.336-.48-.048zM22.904 25.904l.384-.096-.288.288-.768.336.192-.528h.48zm29.52-8.352l.192-.336.288.096.192.192-.192.192-.72.048.24-.192zm3.648-1.968l.288.096.096.384h-.528l-.192-.336.336-.144zM32.6 40.448l.192-.24.336.048-.192.48h-.528l.192-.288zM59.672 14.96l.24-.288.384-.096-.432.576-.336.144.144-.336zM21.08 18.992l.192.288v.432l-.288-.192-.144-.336.24-.192zm31.296 24.144l.144-.384.384.096-.288.528-.24-.24zm-17.808-8.064l-.096-.384.624.096-.192.336-.336-.048zm18.096 2.784l-.144-.336.384.096v.528l-.432-.096.192-.192zM41.48 14.384l.24-.192.432-.048-.288.336-.384.192v-.288zm-21.312 4.272l.288.24.192.384-.336-.144-.192-.288-.288-.192h.336zm30.672 17.52l-.144.48-.288-.096-.096-.288.528-.096zM40.232 14.144l-.192-.432.336.144.192.24v.288l-.336-.24zm.528 1.008l.432-.144-.144.288-.288.192-.288-.096.288-.24zm17.088-1.104h.288l-.144.48-.288.048.144-.528zM36.968 26.96l.432.096-.144.288-.24.096-.048-.48zm17.856-12.096l.384.048-.096.288-.336.096.048-.432zm-34.08 7.152l.336.192-.144.24-.288.096.096-.528zm18.912-7.2l-.048-.336.336.144.096.384-.384-.192zM28.28 12.368l.048-.384.24.192.048.384-.336-.192zm10.56 15.408l.048-.336.288.192v.336l-.336-.192zm1.776-3.12l-.048-.336.384.096-.096.336-.24-.096zm16.704-9.12l.384-.144-.288.432-.336-.096.24-.192zm-33.84-1.44l.192.384-.384-.144-.144-.288.336.048zm12.24 22.8l.144.24.288.144-.288.096-.24-.096.096-.384zm1.104-5.856l-.048-.336h.24l.096.432-.288-.096zm14.88 6.096l.384-.144-.24.336-.384.192.24-.384zm.624-.432l-.048-.528.24.384v.432l-.192-.288zm-1.392-.576l.336.096.048.336h-.192l-.192-.432zm-13.968-1.344l.336.096-.096.24-.336-.096.096-.24zm1.824-15.168l-.096.432-.336-.336.432-.096zM21.8 25.76l.288.048.048.288h-.24l-.096-.336zm31.776 18.912l.288-.048-.048.288-.288.048.048-.288zm-14.688-23.76l.384-.048-.192.24-.288.048.096-.24zm13.056 12.624l.432.096-.384.24-.048-.336zm.864-4.32h.288v.24h-.288v-.24zm-3.456 6.288l-.096.432-.24-.336.336-.096zM37.64 30.8h.192v.336h-.192V30.8zm15.264 1.392l-.192-.336h.384l-.192.336zm-13.632-15.6l.24-.336v.528l-.24-.192zm18.72-.336l.144-.336.096.24-.096.288-.144-.192zm-8.016 25.392l.336-.144-.096.24-.24.144v-.24zm2.208-12.192l.288.096-.384.288.096-.384zm-12.192-8.064l-.144-.24.288.096.096.336-.24-.192zm-20.256.816h.288l-.096.24h-.192v-.24zM50.792 35.6h.336l-.336.336V35.6zM21.896 21.392h.24l-.096.288h-.144v-.288zm-2.4-1.152h.192l-.096.288H19.4l.096-.288zm19.152 6.336l-.192-.288.432.096-.24.192zm15.84-12.528h.288l-.288.336v-.336zm-33.216 9.648h.144v.288l-.24-.096.096-.192zm37.008-12.24l-.144.288-.192-.288h.336zm-6.72 4.704l.144.288h-.336l.192-.288zm-1.344 28.656l.096-.288.192.432-.288-.144zM37.832 25.568l.096.288-.288.144.192-.432zm-4.512 8.16l-.192.24-.192-.24h.384zM41 20.624l-.048.24h-.384l.432-.24zm-14.592-9.696l.192.096-.096.192-.192-.096.096-.192zm6.192 23.76l.192.096-.096.192-.192-.096.096-.192zm21.024-2.016l.288.144-.048.288-.24-.432zM51.32 43.568l.336.096-.336.144v-.24zM24.104 26.096h.24v.336l-.24-.336zm28.416 5.232l.192.24h-.336l.144-.24zm-16.8-1.248h.24l-.096.336-.144-.336zm-14.064-6h.336l-.192.24-.144-.24zm12.048 19.632l-.144-.24.384.096-.24.144zm7.68-26.928h.192v.192h-.192v-.192zm-1.344 8.784h.192v.192h-.192v-.192zm-2.496 9.744h.192v.192h-.192v-.192zm-3.168 1.584l.288.144v.24l-.288-.384zm4.272-19.584l.24.288h-.24v-.288zm17.52-4.32l.288-.096v.24l-.288-.144zm-4.704 26.112l-.144-.24.336.096-.192.144zM42.584 18.8l-.048-.336.24.432-.192-.096zm10.224-2.112l.096.24-.192.144.096-.384zm-.96 29.184h.24v.24l-.24-.24zM41.288 12.56h.192v.144h-.192v-.144zm-4.8 23.184l.288.192h-.288v-.192zm-2.304 5.328l.192.144-.192.144v-.288zm2.544-6.864l.24-.048v.192l-.24-.144zm22.56-20.736l.24-.048v.192l-.24-.144zm-23.04 15.216l.144.24-.24-.096.096-.144zm11.616-12.672h.144v.144h-.144v-.144zm36.65 9.696l-.768-.336-.528-1.008-.48-.624-.576-.48-.624-.096-.96-.528-1.152-.048-.336-.192-.672.24-.432-.048-.336-.144-1.248.576-.768.048-2.64 1.632-.672.24-.336-.096.24-.336.096-.912-.864-.528-.672-.192h-.816l-1.44.192-.288-.144-.672-.048-1.536.144-.096.336-.624.336.096.912-.432.144-.096 1.104-.336.528.096.432-.24.24-.24.816-.048.912-.624 1.056-.288.768.288.528-.528.48-.048.384-.624 1.872.096.72-.24.192-.192.72-.288.192-.144.288-.288 1.152-.144.288.096.24V38l-.528 1.056-.192.816v.384l.192.192-.624.192.144.384v.336l-.24.24-.528 1.344.096.384-.048.384-.672 1.008v.72l-.384.96.384 1.056 2.544-.192.672.24.816-.048.72-.192.576.288.336-.288.336-.144h.48l.288-1.056-.048-.384.384-.624.576-1.44.192-1.584.24-.192-.048-.384.288-.528-.048-.384.288-.192.336-1.056-.144-.528.288-.192.384-.576-.24-.384.576-1.056.24-.768-.096-.816.24-.096-.048-.288.384-.528.048-.384.528-.864v-.336l-.096-.24.816-1.296.576-.432-.096-.336 2.16-1.584.336.048 1.056-.24 1.488.336.288-.048-.096.384.288.576-.096.192.288.768.048.384-.192.72-.24 1.92-.288.624-.24.288.096.576-.336.672-1.008 3.456-.528 1.392-.144 1.056.048.288-.192.24-.336 1.152-.336.72-.528 1.776-.048.672.144.816.768.096 2.352-.048 1.536.144.576-.288.384.144.48-.048.624-.96.096-.72.432-.576.24-.768-.048-.432.48-.96.336-1.584.048-.72.288-.24.144-.336.144-.912-.048-.384.432-.192-.048-.432.48-1.008.048-.336-.096-.432.672-1.344.288-1.632.768-1.68.288-.192.192-.72 1.008-.72.432-.72.384-.096 1.2-.768.336.192.384-.144 1.296.048 1.152 1.152v.384l.192.576-.288.384-.144 1.344-.288 1.536-.24.624-.384.624-.048.912-.432 1.104-.048.768-.336.72-.288 1.104-.24.288v1.968l.144.768-.096.384.384 1.824.48.528.336.672.432.576.576.432.912.096.576.432.72.048 1.728-.096.72.048 1.2-.624.528-.096.288-.24.816-.192.864-.624.432-.576.384.048.912-1.056.672-.336.144-.384.192-.24.576-.432.24-.624 1.296-1.728.816-1.296.192-.816.432-.24-.144-.528.96-1.008.336-.624.24-.768.144-.864-1.2-1.056-.432-.096-.768.192-.384.336.096.528-.384.096-.24.288-.144.384-.096.912h-.528l-.48 1.104-.432.624-.336.192-.096.432-.624.96-.096.384-.816.624-.576.912-.336.144-.72.72-.336.144-.48.384h-.384l-.384.144-.48.048-.72-.528v-2.112l.24-.72.24-.288-.048-.336.288-1.056v-.48l.24-.24.384-1.008v-.768l.48-.96.624-2.112.336-.672-.48-.432.288-.192.192-.336-.096-.528.336-.624.048-.864-.288-.624.24-.624-.336-.096.144-.528-.096-.432-.24-.336-.096-.48-.624-.528-.624-1.056-2.304-1.248-.624.096-.288-.24-.384-.096-1.2.096-.432-.048-.336.144-1.584.24-.192.24-.24.096-.432-.048-.288.144-.432.528-.768.24-.768.816-.432.096-.816.864-.384-.192zm-5.76-.192l.384.144.144.384.24-.144h.336l.288.144-.336.288-.432.576-.288.144-.336-.048.24-.288.096-.48-.432-.192.096-.528zm.912 2.544l.288.528.816-.288.048.288-.672.624-.624-.096.096-.432-.48-.192v-.336l.528-.096zm-3.6-.864v-.48h.24l-.096.288h.432l.576-.192-.288.816h-.768l-.384-.096.288-.336zm17.664.864l.384.096.384.24.144.384-.432-.192v.432l-.384-.144-.096-.384-.288-.192.288-.24zm-15.072 7.824l-.288-.288-.192-.384.432.048.336.24.192.432-.48-.048zm.48-8.304l.24-.192.144-.384h.24v.384l-.288.288-.384.192.048-.288zm.528 3.792l-.336-.096-.432.048.144-.336.384-.096.144.288.384.048-.288.144zm12.624 9.696l.624.192-.24.288-.384.048v-.528zM67.858 28.16h.672l-.432.432-.48-.288.24-.144zm13.776.432l.288.528-.384-.048-.336-.24.432-.24zm13.056-.912l-.048-.528.288.144.096.336-.096.336-.24-.288zm-28.944 6.432l.24.192v.336l-.528-.096.288-.432zM81.01 26.48l.288-.192.096.288-.192.192-.384.048.192-.336zm11.04 17.568l.192-.24h.288l-.144.384-.288.144-.048-.288zM80.818 25.616l.576-.384.048.24-.288.048-.192.288-.288.192.144-.384zm-.816 4.464l.384-.144-.096.432-.432.096.144-.384zm-13.92-.624l.048-.336.432.336-.24.288-.24-.288zm.432 3.744l.432-.096-.144.384-.384.048.096-.336zm12.48-.432l.24.24.096.384-.432-.192.096-.432zm2.88-5.856h.384l-.192.432h-.24l.048-.432zm9.696 13.44l.432.096-.24.288h-.288l.096-.384zM68.242 30.224v-.384l.336.144-.048.384-.288-.144zm.912-2.256l.432-.192-.432.528-.288-.144.288-.192zm25.344 5.04l.336-.096-.096.384-.336.096.096-.384zm-1.344 3.408l.336-.144-.144.384-.384.192.192-.432zm-15.936-8.352v-.432l.288.24.048.336-.336-.144zm.672-.624l.048-.72.144.24-.096.816-.096-.336zm14.448 15.552l-.048-.336h.24l.096.48-.288-.144zM81.346 31.04l.096-.336.288.096-.288.432-.096-.192zm-1.2 4.368l.336.192-.192.144h-.336l.192-.336zm-5.04-8.4l.048-.288.288.096-.096.336-.24-.144zm-7.824-1.248l.288.096-.096.24-.288-.096v-.144l.096-.096zm10.512 13.296l.288-.096-.096.288-.336.048.144-.24zm-10.32-7.104l-.192.336-.288-.24.48-.096zm10.272-7.632h.432l-.144.192h-.288v-.192zm-11.52 7.728h.192v.336h-.192v-.336zm10.608-2.592h.192l.096.192-.336.096.048-.288zm-11.088 5.28h.192v.336h-.192v-.336zM79.33 25.04l-.192.432-.144-.336.336-.096zm12.432 3.456l-.096-.288.24.096.096.288-.24-.096zM79.858 24.08l.384.24h-.48l.096-.24zm-1.392 1.152l-.24.24-.24-.24h.48zm1.152 7.056l.288.192-.288.192v-.384zm-13.344 2.976l.288.048-.384.288.096-.336zm12.144-1.824l-.144-.336.336.096-.192.24zm13.776-3.888l.24.096-.096.192h-.144v-.288zm-9.936-1.968l.336-.144-.336.432v-.288zm-3.744.192l.192.24-.24.192.048-.432zm14.304 1.008h.144v.24h-.24l.096-.24zm-27.792 7.104l-.096-.288.384.24-.288.048zm16.512-8.736l-.24.384-.096-.192.336-.192zm-19.824 9.936l.24.192-.24.144v-.336zm33.552-8.592h.192v.192h-.192v-.192zm-14.784-1.344h.192v.192h-.192v-.192zm-1.488 12.96l-.192.24-.192-.144.384-.096zm14.496 3.264h.192v.192h-.192v-.192zm-.336-1.776l.24.192-.048.24-.192-.432zm-10.08-15.12h.24l-.192.24-.048-.24zm-16.08 2.304l.192.144-.192.096v-.24zM91.906 35.6l.288.144h-.288V35.6zm-30.048 4.128l.192.096-.24.096.048-.192zm60.17-5.568l.144-.336.288-.192.48-1.056.528-1.488.144-.816-.288-.624.288-.624-.144-.672-.048-.864-.672-1.008-.288-.816-.336-.192-.768-.816-.624-.384-.48-.048-.192-.288-.864-.672-.48.096-.24-.24-1.488-.288-.624-.288h-1.344l-.624.288-.72-.096-1.632.144-.768.192-.624.336h-.576l-.96.576-.288.048-.144.336-.24.192-1.008.48-1.728 1.296-1.008 1.296-.576.576v.528l-.288.24-.864 1.104v.336l-.336.576-.048.48-.288.192-.144.288-.096.768-.576 1.488-.048.72.096.384-.144.336-.096.672.144 3.552.24.768.048.768.432.576.672 1.44.816 1.248.672.384.048.336.192.288.384.048.288.192.384.48.624.192.192.24.48.048.912.48 1.536.288.624.24.528-.192.24.192.72.24.768-.048.288-.192.096.288.288.144.672-.24 1.68-.096.816-.144 1.584-.48h.624l1.68-.768.384-.048.624-.768h.624l.528-.528 2.4-1.92 1.056-1.152.432-.672.336-.192.768-.912.912-1.296v-.528l.528-.48 1.152-1.92.288-1.152-.336-.96-.72-.288-.288-.24-.384.096-.768-.096-1.2 1.968-.48.528v.624l-.528.432-.144.336-.432.528-.384.096-.144.384-.528.624-.624.432-.96 1.008-.336.144-.192.384-.576.48-1.44.72-.336-.096-.864.48-1.44.432-1.536.048-.72.24h-.816l-.48-.144-.384-.336h-.432l-.432-.384-.624-.096-.432-.432-.624-.24-.336-.576-.288-.144.096-.432-.336-.336-.192-.384.192-.624.624-.384 2.064-.432.288-.144.144.24.24.096 2.208-.24 1.536-.672.768-.24 1.344-.624.528-.432h.336l.24-.096.144-.384.24-.288.72-.432.48-.528.048-.384.528-.096zm-5.904-5.328h.384l.144.432.672 1.056-.144.432.048.816-.144.336-.816.72-.288.72-.384.144-.192.336-.288.24-.864.144-.624.336-.192.336-.528-.096-.288.192-1.056.24-.288.192-.336-.096h-2.016l.288-1.104-.048-.768.576-1.008.912-1.296 2.064-2.208 1.968-.192.768.048.384.144.288-.096zm-10.032 7.728l.432-.096.192.384.96.768-.192.336-.288.24-.384.096-.672-.192-.24-.288.192-.384.336-.24-.24-.288-.384-.096.288-.24zm-.336-1.632l.24-.336.096.336-.48.624-.432-.336-.432.336.24.192.384.096-.192.96-.432-.096-.048-.864-.336-.72.384-.096.432.096.192-.24.384.048zm-.72 2.928l.48-.624.192.288v.72l-.432.096-.432-.192.192-.288zm.096 1.488l.24-.288.336-.096.096.288v.384l-.384.144-.336-.048.048-.384zm-.768-.24l-.096-.336.096-.288h.288l.096.72-.288.192-.096-.288zm2.736 1.824l.048-.384h.24l.096.624-.528.048.144-.288zm.624-1.056l-.144-.768h.24l.144.384-.144.624-.096-.24zm1.872-10.464v-.288l.144.288.24.144-.192.24-.336.096-.096-.336.24-.144zm-2.064 9.264l.144-.288.432.192-.24.288-.384.144.048-.336zm-.912.192l.24-.192.336.096-.144.288-.384.144-.048-.336zm-.384 3.888l-.096-.432h.384v.672l-.288-.24zm1.728.096l.048-.48.336.096-.048.528-.336-.144zm-1.968-9.504l.432.192-.144.288-.384.048.096-.528zm1.728-2.016v-.336l.384-.096-.096.576-.288-.144zm-.624 5.28l.096-.336.384.288-.288.336-.192-.288zm-.96-.672v-.384l.336.144.048.384-.384-.144zm0-3.744l.288-.048.24.144-.336.336-.192-.432zm3.504 13.008l.048-.336h.288v.432l-.336-.096zm-3.552-13.968l.096-.288.336-.144-.192.144v.48l-.24-.192zm10.896-6.384l.24.336-.432.096.192-.432zm-10.56 10.32l.096-.288.24.144-.096.288-.24-.144zm3.024-7.392l.24.192-.336.336.096-.528zm-4.176 5.76l.336-.288-.096.48-.24-.192zm1.152-.816l.336.288-.336.096v-.384zm2.496 5.424h.24v.24h-.24v-.24zm-3.312-5.424l.192.24-.288.24.096-.48zm2.592 10.752h.24l-.096.24h-.144v-.24zm10.08-14.304h.288l-.288.288v-.288zm-10.608 5.616l.24.336h-.24v-.336zm11.04-9.504h.192v.192h-.192v-.192zm-10.8 10.272l.096.288h-.24l.144-.288zm11.52-5.76l-.192.144-.24-.144h.432zM105.708 40.88l.192.144-.192.144v-.288zm-2.064-4.464l-.144-.144.24-.096-.096.24zm.288 1.296l.192.24h-.192v-.24zm2.928-3.456l.192.24h-.192v-.24zm-.336 6.432h.144l-.048.288-.096-.288zm31.417-25.584l-.72-.048-.67.288-.193.288-.624-.288-.96.432-2.208.576-1.392.528-.096.384-.432.576-.096.816-.337.624-.144.672.047.432-.528 1.248v.432l-.337.192-.24.288-.384.24-.337.096-1.44.096-.336.288-.384.144-.24.768v.768l-.24.192-.336.576-.336 1.968.097.144.672.336 1.44.48-.625 2.736-.144 1.536-.527.864-.288.672-.192.768-.048.864-.336.72-.77 3.024.145.384-.144.384.29.528-.145.816.048.864.24.768.384.576.096.72.432.432.096.384 1.393 1.104 1.392.72 1.584.432h1.727l1.248-.336h.384l.43.192.337-.192.768-.24 1.008-.624h.432l.528-.624h.288l.625-.24.576-.576.385-.528.432-.192.288-.336h.336l.48-.576 3.6-4.896v-.48l.72-.864.193-.384v-.432l.432-.528.336-1.584-.19-.288-.72-.528-.72-.384h-.625l-.528.432-.336.672-.48 1.488-.527.192-.096.432-.624.816-.096.432-.528.384-.337.624v.432l-.24.096h-.336l-.192.336-.48.528-1.68 1.488-.672.432-1.488.72h-1.92l-.336-.144-.193-.288-.528.096-.05-.432-.335-.288.096-.336-.335-.624.096-1.296.96-3.648.433-1.008.72-2.208-.096-.528.576-1.056.144-1.248.528-.336-.288-.72 1.488-.384.768-.096.768.144.337-.144.768-.048.336-.192.193.24.336.144 1.247-.096.432-.24.48-.912.43-1.632.05-.768.43-.528v-.912l-.623-.432-.672.288-.288-.192-.72-.192-.72.288-.336-.144-1.487-.048-.336-.096-.288-.24-.05-.672-.143-.336 1.44-4.128-.096-.528.193-.24.24-.672-.096-.816-.336-.048zm-4.367 11.568l-.768-.816-.192-.672.336.096.19.624h.433l.096.336.527.96-.24.288-.192-.192v-.336l-.192-.288zm-3.84 5.664l.288.048v.48l-.19.24-.29.096-.24-.144-.095-.288.144-.384.383-.048zm1.248-3.744l.77-.192-.29.24v.432l-.24.096-.815-.24.192-.384.384.048zm.673-1.632v.48l.336.144-.29.24-.863.288.24-.336.384-.288-.19-.336.383-.192zm-1.056-.336h.24l.096.768-.72.096.384-.864zm1.392-3.216l.43.816h-.383l-.48-.72.432-.096zm-1.393.288h.336l.144.336.384.096-.19.336-.673-.432v-.336zm-.624.528l.432.096-.192.336.192.336h-.288l-.24-.24-.096-.384.193-.144zm1.44 1.728l.432-.048.528.096.24.24-.336.096-.288-.192-.625.096.048-.288zm.096-3.408l-.05-.192.29-.096.335.144.192.24-.432.048-.384.192.05-.336zm.863 6.048l.24-.144-.192.72-.335-.096v-.336l.288-.144zm-.432 15.264l.337-.144.336.096-.096.24h-.768l.19-.192zm-1.343-.192l.144-.288.24.144.05.384-.385.048-.048-.288zm.528-14.304l.336.192-.095.336-.432-.096.192-.432zm2.976-8.64v-.48l.29.096v.672l-.29-.288zm-2.11.576l.335-.192v.384l-.288.144-.288-.096.24-.24zm2.927-1.968l-.192-.24.336-.096.24.144-.047.288-.336-.096zm-7.104 12.576h.288l-.047.384-.336.096.096-.48zm1.056-5.712v-.384l.335.24-.048.384-.288-.24zm.335 17.76l.48-.144-.24.336-.384.192.145-.384zm4.8-18.624l-.144-.384.433.144v.288l-.288-.048zm-4.224 6.096l.24-.096.097.336-.432.096.096-.336zm-1.007 6.192l.096-.24.335.048-.048.336-.384-.144zm.336-9.408l-.145-.288.48.096v.288l-.336-.096zm.43 10.368l.145.288-.24.24-.144-.384.24-.144zm3.217-14.208l.144-.24.145.432-.432.096.144-.288zm-5.472 16.32h.288v.288h-.288v-.288zm8.784-19.152l-.29-.144.48-.096.097.192-.288.048zm-3.265 6.576v-.336l.192.24.048.384-.24-.288zm1.584-6.624l-.337.336-.096-.288.432-.048zm-4.657 9.216l.24.24-.528-.096.288-.144zm5.328-4.8l-.143-.288h.336l-.192.288zm-6.383 10.8l-.336.144-.095-.24.432.096zM132.9 23.6h.24l-.095.24h-.144v-.24zm-3.455 19.584l.144.24-.24.192.095-.432zm-1.728-.72h.192v.192h-.193v-.192zm7.632-21.36h.19v.192h-.19v-.192zm-5.233 22.32h.192v.192h-.193v-.192zm3.36-15.648h.288v.24l-.288-.24zm1.632-1.536h.24v.288l-.24-.288zm0-3.36l.287.096.144.24-.19-.144-.24-.192zm-2.4-.336h.19v.144h-.19v-.144zm-4.273 21.072l.192.144-.193.144v-.288zm2.928.288h.192v.144h-.192v-.144zm6-18.816l-.144-.144.29-.096-.145.24zm-2.16-5.472h.144v.144h-.145v-.144zm.96 23.472l.192.192-.096.096-.095-.288zm-7.632-9.84l.192.192-.096.096-.097-.288zm30.986-7.68l-1.92-1.728-.625-.432-.672-.288-.768-.192h-.432l-.72-.384h-1.92l-.72.384-.336-.192h-.384l-1.056.528-.336-.048-1.535.48-.528.624-.336.096-1.055.864-.384.096-.67 1.008-.577.528-.672.432-.335.72-1.344 1.968-.335.72-.144.768-.43.336v.624l-.433.528-.72 2.88v.768l-.144.336-.096 1.056.144.72-.143.72.528 3.456.672 1.344 1.104 1.392 1.105.96 1.296.672.77.288 1.68.336 1.44.048.335-.192h.912l.192-.192.335-.144.624.096.623-.384.432-.048.192-.336.48-.48.384.096.24-.288.817-.24 1.104-1.008.385-.144.912.768v.384l.576.576 1.968 1.344.625-.336.192.288.288.144.336-.096.72.192.77-.192h.43l1.73-.672.335.096.336-.096 1.633-1.248.768-.384.385-.576.384-.192.575-.528.48-.624.672-.432.096-.384.672-.816.048-.432.576-.432v-.432l.575-.336.048-.576.48-.528 1.152-1.968.96-2.112v-.336l-.192-.288-.096-.432-.624-.384-.72-.24-.864.096-.77.816-.095.384-.672 1.44-.816 1.296-1.104 2.016-2.256 2.4-.624.48-1.056.384-1.44.096-.384-1.056.24-.336-.144-.48.43-1.056-.24-.528.193-.288.048-.432.72-.864v-.48l-.19-.768v-.432l.19.192.29.048v-.432l.287-.624-.048-.336.43-.624.29-1.584.575-1.536-.048-.432.288-.096-.192-.528.432-.24.336-1.392 1.01-2.784-.05-.72.337-1.104-.048-.48-.29-.288-.72-.24-2.015.048-.768-.144-1.872.288-.768-.048-.384.576-.24.672v.432l-.24.192-.288.624-.288.192-.288-.192zm-3.89 3.984l1.25.72v.384l.623 1.392.048.384-.143 2.304.096.384-.384.624-.29.72.05.432-.29.288-.767 1.488-.336.192-.048.384-.673.672-.096.384-2.16 1.296-.72.288-.767.144h-.864l-.72-.24-.625-.384-.528-.528-.864-1.296.144-.624-.192-1.248.288-2.592.672-1.344.288-.24-.048-.336 1.248-1.584.576-.528-.097-.624.432-.048 1.728-1.056.864-.048.288-.24.336-.048 1.44.288.24.24zm3.36 8.64h.29l.335-.144-.24-.864.48.048.768-.336.144.48-.336.096-.815.576.096.24-.287.288-.144.384-.29-.24-.335-.672.336.144zm3.41-6.576l-.385.528.24.24.144.384-.48.048v-.288h-.337l-.192-.288.385-.192.144-.384.48-.048zm-1.393 2.064l.288.144-.096.384.047.576.24.096-.096.384-.335.048.048-.432-.24-.192.144-.432-.24-.336.24-.24zm-1.488 5.52l.335.048.24-.288.24.288v.432l-1.056-.144-.193-.336h.432zm1.92-6.432l.287.048.144.192-.19.384-.72-.096-.097-.288.192-.24h.384zm-1.68 9.024l.143-.288.288.24.145.336-.096.432-.53-.288.05-.432zm2.687-11.136l-.432-.384v-.336l.384.048.383 1.008-.336.144v-.48zm-3.6 5.568l.144-.384.29.096.19.192.24-.192.385-.096-.528.432-.624.288-.096-.336zM160.575 38l.192-.288.384-.096.145.72-.336.096v-.384l-.29.192-.095-.24zm-16.08-3.408l.048-.336.24-.192.336.096-.097.432-.288.192-.24-.192zm5.904-8.4l.335.096.384.528h-.385l-.192-.192-.288-.096.144-.336zm-4.657 7.344l.288-.24.385-.096-.096.336-.53.384-.047-.384zm1.728 9.6l.433.144.096.336-.337.192-.192-.672zm12.96-10.992v.528h-.335L160 32.24l.43-.096zm-.72 8.208l-.095-.432.48.096v.432l-.384-.096zm-17.04-3.12l.193.288-.432.144-.19-.384.43-.048zm2.497-1.392h.288l.096.432-.383.096v-.528zm17.088 9.264l.144-.192.335.144-.144.288-.287.096-.048-.336zm-18.288-7.488l-.24.384h-.336v-.288l.577-.096zm17.472 3.936l-.385-.192.336-.096.337.144.096.288-.384-.144zm-12.193-11.76l-.096-.336h.385v.48l-.288-.144zm2.4-4.08l.096-.336.336.096-.145.288-.288.144v-.192zm9.456 1.392l.384-.192v.336l-.432.192.048-.336zm2.496.528l.287.048-.096.384-.335-.096.144-.336zm-.625.144l.384-.096-.193.384h-.336l.145-.288zm-12.048 1.248l-.096.288-.335.048v-.24l.432-.096zm11.04 4.848l-.288-.24h.383l.24.432-.336-.192zm1.2-5.088l.384.144-.383.288v-.432zm-1.92-.192l-.384.336-.096-.336h.48zm-6.96 13.728h-.192l.048-.336h.24l-.096.336zm6.384-11.616v-.24l.24.096.05.336-.29-.192zm-.24 5.76l-.095-.24.336.048.097.192h-.336zm-7.007-8.832l-.096-.288.288.096.096.24-.287-.048zm2.928-.624h.29v.24h-.29v-.24zm1.2 15.696l.145.24-.192.096-.192-.192.24-.144zm-6.527-15.264l.288.336h-.383l.096-.336zm-7.248 13.008l.192.192-.48.192.288-.384zM160.24 28.64l-.097.288-.336-.336.432.048zm-2.113 4.176l-.096-.336.24.144.097.288-.24-.096zm-10.032-4.512l-.192.336-.24-.24.432-.096zm-2.544 14.208l.24.24h-.527l.288-.24zm17.09-6.576l.287.096-.096.192h-.19v-.288zm.287-2.4l-.24.192-.24-.288.48.096zm-3.6 9.744l-.144-.336.432.24-.288.096zm-13.008 1.68h.383l-.096.288-.288-.288zm14.83-2.448l-.19-.288.43.096-.24.192zm-8.255-14.736l-.288.384-.048-.288.335-.096zm-9.408 6.672l.288-.096v.336l-.288-.24zm16.56-4.176l.192.24-.433-.048.24-.192zm2.256 9.744l.24-.192v.384l-.24-.192zm-3.792-.096l.24-.192v.384l-.24-.192zm-.143-8.16h.288v.288l-.288-.288zm1.44-2.304h.288l-.384.288.097-.288zm1.344 13.92l.145.288-.336-.096.19-.192zm-13.535-.864h.336l-.19.24-.145-.24zm11.328-11.52l.048-.288.193.432-.24-.144zm-.912 11.952h.193v.192h-.192v-.192zm4.8-12.768l.24.096-.143.24-.096-.336zm-15.887 14.112l.288.24h-.287v-.24zm16.416-14.64h.24v.288l-.24-.288zm-18.193 1.056l.144.24-.19.144.047-.384zm7.392-4.224l.047.336-.24-.288.192-.048zm-6.145 16.128l.288.048-.192.192-.095-.24zm-3.264-1.872h.193v.144h-.192v-.144zm-1.15-.384l.19.144-.19.144v-.288zm9.12-15.744h.19v.144h-.19v-.144zm-7.97 12.768h.193v.144h-.192v-.144zm4.08-8.592h.193v.144h-.192v-.144zm-1.247 1.392l.192.144-.192.144v-.288zm-3.552 4.272h.193v.144h-.192v-.144zm18.145 10.608l-.144-.144.24-.096-.095.24zm-18.144-4.56l-.095-.144.288-.048-.192.192zm2.305-9.072l.192.144-.192.096v-.24zm13.584-.96h.143v.144h-.144v-.144zm-13.92 9.84h.143v.144h-.144v-.144zm18.96-9.216l.24.144h-.24v-.144zm-1.153-2.928l-.096.24v-.192l.097-.048zm18.266-5.232l.24-.384v-.624l.384-.624.576-2.352.336-.624.047-.432.24-.672v-.432l.192-.24.24-.672.19-1.536-.24-.288-.335-.192-.336-.048-.337.144-.384-.144-1.153.048-.576-.144-.19.144-1.2-.096-1.393.288-.336-.096-.48.672-.095.432.048.432-.24.24-.576 1.056.096.528-.624 1.152-.097.768-.432 1.44-.335 1.632-.24.288-.24.768v.528l-.384.672-.43 1.488-.337.672.096.528-.48.96-.913 2.928.096.528-.48.72-.096.816-.72 2.16.048.864-.528.144.144.624-.527 1.008v.528l-.384.624-.29 1.344.05.336-.385.576-.24.72.096.72-.24.192-.383.528.048.336-.384.96v.72l-.383.672v.336l.144.336.53.528 1.92.144.815-.048.432-.192 1.968.096.432-.144.336-.24.528-.576v-.624l.193-.24.624-1.728-.24-.288.144-.336.193.384.624.432.048.384.432.624 1.536 1.44.672.384.384.096 1.343.768.384.048.432-.192.623.24h1.296l.383-.144.528.144.577-.336 1.44-.336.96-.672 1.344-.672.097-.336.192-.192h.335l.144-.384 1.2-.96.095-.432.624-.288 1.487-.384.816.048.768-.336 1.153-.192.528-.384.625-.048.528-.48.816-.24.767-.816 1.008-.72.432-.672 1.056-.912.48-1.008.24-.24-.096-.672.624-.288v-.72l.193-.624-.288-.624-.288-.192-.72-.24-.864-.144-1.248 1.488-.336.816-.625.48-.864 1.248-1.87 1.104-.77.24H193l-.19-.384-.05-.48.24-.24.29-.624.24-1.104.287-.624-.096-.528.24-.624-.047-.528.24-.528v-.768l-.24-.72.144-.288-.096-1.488-.335-.48.288-.768-.912-2.16-.43-.672-.625-.528v-.528l-.432-.048-.336-.192-.288-.672h-.53l-.43-.48-1.873-.672-.672-.144-.336.144-.385-.144-1.44.192-.72-.048-.432.384h-.384l-.72.24-1.393.72-.816.192-.623-1.008.336-.24zm6.24 7.632l.048.336.193.336.288.192-.24.336-.19 2.304-.193.48.096.336-.816 1.776v.528l-.336.144-.623.816-.912-.144-.672-.384-.576-.528-.72-.912-.576-.48.097-.48-.432-.144v-.384l-.384-1.344v-.768l.29-2.4.623-.768.096-.384.863-.432 1.44-.384.768.096.385.192.576.48.913 1.2v.384zm-5.28 10.656l-.288.144-1.2.24-.384.192-1.775-.72.048-.432-.384-.048-.29-.192-.43-.528-.29-.192.24-.384-.24-.336.097-.288-.192-.336.048-.672-.144-.288.48-2.016.335-.768.24-.24.816.528v.432l.193.192.432 1.392 1.152 1.872 1.488 1.44.192.672-.144.336zm-6.336-15.072l.336-.624.096-.384.575.24-.48.48.336.768.24.336.433.096-.288.384-.432-.48-.528-.336-.432-.096.144-.384zm1.2-1.68l1.008-.48.192-.288h.288v.336l.24.576h-.336l-.29-.288-.24.096.05.336-.145.288-.24-.192-.048-.432-.528.432.047-.384zm-2.064 3.216l.24-.24.096-.384h.43l-.335.672-.432.48-.288-.096-.096-.336.383-.096zm1.056-4.224l.335-.624.24.24-.048.48-.384.192.048.432-.287-.096-.096-.288.192-.336zm-2.545 15.024l.336-.576.385.048.24.192-.24.288-.672.336-.048-.288zm10.752 4.896l-.768-.624.815-.096.336.816-.383-.096zm-5.376-18.288l.24-.192.385-.048v.72l-.624-.096v-.384zm5.905 16.512l.24-.336.432-.096-.288.864h-.337l-.048-.432zm6.432-10.416l.288-.24h.336l.24.288-.96.384.097-.432zm-13.824-8.352l-.192-.288v-.432l.625.288-.096.528-.337-.096zm-1.056 7.968l.336-.624.24.096-.096.336-.24.288.096.336-.432-.096.097-.336zm-2.208 5.376l.335-.96.24.096-.144.384-.095.672-.336-.192zm-1.585 5.424l.048.288.336.096-.05.336-.287.096-.336-.816h.288zm1.44-7.872l.384.096.095.336-.336.144-.29-.048.145-.528zm3.888-2.304l-.336-.24V30.8l.528.288.096.336h-.287zm-1.2-3.456l.336.096-.097.432-.384-.144-.24-.288.383-.096zm9.36 15.696l.24-.24.384-.144v.336l-.144.192-.48-.144zm-12.576-10.752h.48l-.672.432-.24-.336.432-.096zm18.768 1.296l.192-.24.384-.048-.19.384-.337.24-.048-.336zm-6.144 7.968l-.24-.096-.143-.384.432.048.19.24-.24.192zm-7.487-19.248v-.288l.384.528-.384.144-.24-.288.24-.096zm5.712 17.952l-.144.336-.335.144-.048-.48h.528zm-5.712-14.112l.192.384-.384.048-.24-.384.433-.048zm10.848 8.304l.24.192.097.336-.384-.192-.24-.336h.288zm-14.207-3.456l.192.336-.384.048-.24-.336.433-.048zm2.496-3.024l.72.528-.817-.192.096-.336zm-.625 2.928l-.096.528-.24-.192-.097-.336h.432zm-.048-5.712l.384-.048v.336h-.527l.144-.288zm0-4.464l.336-.048-.192.48h-.287l.144-.432zm3.168 21.504v-.432l.288.144.048.384-.335-.096zm.72.72l-.048-.384.336.096.048.384-.335-.096zm-2.928-21.6l.24-.192.192.24-.53.288.097-.336zm1.392-1.584l.335.048-.096.24-.337.048-.096-.192.192-.144zm7.055 22.08l.288.048-.24.336-.384-.336.335-.048zm-11.856-5.136l-.05-.432.29.192.143.336-.384-.096zm-1.153 5.088l.336.048.048.288h-.383v-.336zm5.52-.288l.336.288-.288.144-.24-.336.192-.096zm11.904-10.032l.05-.336.24.096.047.384-.336-.144zm-14.35-10.32l.143.336-.288.048-.144-.288.29-.096zm-2.64 18.336l.287.336h-.528l.24-.336zm4.127-14.208l.24.096-.096.288-.24-.096V26l.097-.096zm-3.024 8.16l.24.096-.096.288-.24-.096v-.192l.096-.096zm11.76 7.008l-.096-.24.336.048.048.288-.287-.096zm-14.88-1.152l-.096-.24.336.048.048.288-.287-.096zm18.912-5.184l.048-.288.24.144-.048.288-.24-.144zm-.672-1.392l.192.384-.528-.288.336-.096zm.384 2.592h.24v.288h-.24v-.288zm.672 1.248h.383l-.336.336-.048-.336zm-13.777-5.328l.336.288h-.433l.096-.288zm-2.256-9.12l-.24.336-.192-.24.432-.096zm10.752 22.08l-.193.336-.24-.192.432-.144zm.335-5.136h.288l-.096.24h-.192v-.24zm-12.048-9.072h.384l-.383.288v-.288zm16.752 2.928l-.193.288-.24-.192.432-.096zm-16.993 5.952h.24v.432l-.24-.432zm14.784 2.928l-.095.336-.24-.24.336-.096zm-11.95-18.528h.143l-.048.288h-.192l.096-.288zm-3.745 15.264l.288.336h-.288v-.336zm9.6 6.288l-.192.24-.192-.24h.385zm-7.92-13.056l.048.288-.288.096.24-.384zm14.976 5.664l.193.192-.336.096.144-.288zm-12-10.416h.337l-.192.24-.144-.24zm13.68 11.472l-.143-.24h.336l-.192.24zM176.346 20l.096.336-.287-.192.192-.144zm11.184 20.88l.143.24-.24.144.096-.384zm-11.09-14.352h.193v.192h-.192v-.192zm.625-5.472h.192v.192h-.192v-.192zm-1.44 8.304h.192v.192h-.192v-.192zm2.304-.144l.287.24h-.288v-.24zm9.12 11.328l.24-.096.143.192-.384-.096zm-.865 1.584l.288.192h-.288v-.192zm1.968.096h.144v.192h-.144v-.192zm1.056-12.672h.143v.192h-.144v-.192zm-11.28-3.696h.19V26h-.19v-.144zm11.28 1.296h.143v.192h-.144v-.192zM174.856 40.88H175v.192h-.143v-.192zm3.6-23.376l.192.288-.24-.096.047-.192zm10.896 17.04l.192-.192-.192.432v-.24zm-17.568-.192h.24v.192l-.24-.192zm2.976-11.904l.24.192h-.24v-.192zm13.537 16.08l.288.144h-.288v-.144zm-9.888-18.96h.143v.144h-.144v-.144zm12.72 17.424l.19.096-.24.096.05-.192zm-18.673.624l-.096.432v-.336l.097-.096zm4.848-9.216l.288.096h-.192l-.095-.096zm12.24 10.128l-.096.24v-.192l.095-.048zm-19.152-.288l-.048.288v-.192l.048-.096zm39.098-24.336l-.48.048-.383.144-.288-.192-1.68-.096-.24-.144-.385.144-2.304.192-.383.528-.336.192.05.384-.29.672-.095.864-.336.384v.864l-.53.72-.047.384L201.38 20l-.097 1.2-.576.768v.72l-.864 2.496-.096.864-.432.72.096.72-.623.672.192 1.008-.29.24-.96 2.16.097.384-.192 1.104-.384.192-.72 3.264-.335.624.096.528-.335.24-.144.288-.48 3.984.193.432v.72l.24.624.096.624.575 1.056.576.432.097.48.384.096.29.192.19.288h.48l.337.144.528.432 2.736.144.72-.144.53.144 1.007-.576.864-.144.433-.432.768-.288 1.345-.816 1.68-1.536v-.432l1.104-.624.047-.528.576-.528.816-1.248.48-.528.095-.48.24-.336.048-.336.336-.096.48-1.104.047-.48.288-.288.384-.672.575-1.344-.144-.24-.143-.672-.288-.288-1.105-.384-.288-.192-.336.144-.527.528-.816 1.152v.624l-.72.816.096.624-.24.288-.384.144-.097.528-.768.624-.096.384-.385.672-.912 1.152-.144.384-.385.096-.576.48-.433.576-.384-.048-.288.192-.48-.048-.72.288-.816-.048-.77-.24-.047-.384-.48-.528.336-.72-.097-.816.048-.432.24-.768.24-.288-.143-.528.192-.24.287-1.104.048-.672.24-.24.432-1.488.288-.24-.096-.528.19-.288.433-1.2.192-.288-.192-.72.336-.192.143-.384.24-.288.096-.864.43-1.104v-.624l.337-.624-.048-.432.383-1.056.384-.672.144-.768-.047-.432.384-.576.24-.768-.096-.672.577-.96.24-.672.144-.768-.047-.432.432-.192.24-.96-.048-.384.432-1.056.143-2.208-.432-.096zm-9.36 26.16l.193.144-.048.288h.528l-.432.576-.72.336.05-.384.19-.288-.047-.48.288-.192zm1.2 1.92l.385.048.096.336-.335.048-.144.192-.335-.048-.192.432-.288-.096-.144-.288.193-.144h.336l.095-.288.336-.192zm-3.167 1.248v-.336l.384.144.096.384-.048.384-.24.24-.336-.192-.145-.336.48-.096-.192-.192zm3.312.672l.24-.24.336.576-.43.048-.097.384h-.336v-.624l.288-.144zm-2.4-.816l-.048-.48h.48l.048.48-.144.144-.335-.144zm3.024-11.52l.24-.192v.432l-.193.384-.192-.192-.096-.288.24-.144zm-.145 2.304l-.144-.192.673-.288-.096.384-.24.24-.192-.144zm-1.728-.336l.048-.288.384-.096.047.384-.24.24-.24-.24zm-2.976 5.712l.913.624-.672-.144-.287-.192.048-.288zm2.353 4.992h.432l.096.336-.72-.096.193-.24zm4.224-22.704l.192-.192.24.24-.193.288-.336-.048.097-.288zm-3.552 16.128l.288-.192.096.288-.24.24h-.29l.145-.336zm1.008 1.44l.432.048-.096.288-.337.096v-.432zm.048-5.616l.385-.144-.096.384-.337.144.048-.384zm-1.39 5.136v-.336h.335v.336h-.336zm-1.057-.528l.096-.336.24.144v.384l-.337-.192zm1.104 3.84l-.048-.384h.24v.624l-.193-.24zm.384 1.68h.29l-.097.336-.288.096.096-.432zm1.25-15.264l.335-.192-.192.432-.336.048.192-.288zm-2.93 11.856l-.095-.336.288.096.096.336-.29-.096zm5.233-14.064l-.096-.288h.288v.48l-.192-.192zm.384.384l-.144-.288.288.048.193.288-.336-.048zm-1.2.72l.288.048-.144.24-.287-.048.144-.24zm-1.92-1.44h.432l-.097.336-.336-.336zm.144 14.352l.385.096-.384.24v-.336zm.625-4.368l-.096.384-.24-.288.335-.096zm-3.168-3.264h.24l-.048.24h-.193v-.24zm1.488 4.08h.432l-.336.24-.095-.24zm1.008-5.424l.144.24-.336.144.193-.384zm3.456-7.152v.336l-.29-.192.29-.144zm-2.305 1.824l.24.096-.096.192h-.145v-.288zm2.88.288l-.048-.288.336.288h-.288zm-2.448 7.008l.336.096-.336.144v-.24zm1.776-5.28l.24-.144-.096.384-.144-.24zM199.22 36.8l.335.048-.24.192-.096-.24zm3.36-4.176h.287l.096.24-.384-.24zm-1.873 11.952h.288v.24l-.288-.24zM200.66 34.4l.19-.048.145.288-.336-.24zm2.11-6.048l.24.384-.335-.288.096-.096zm-2.927 7.536l.288.192h-.287v-.192zm30.41-1.728l.144-.336.288-.192.48-1.056.528-1.488.144-.816-.288-.624.287-.624-.144-.672-.048-.864-.672-1.008-.288-.816-.336-.192-.77-.816-.623-.384-.48-.048-.192-.288-.864-.672-.48.096-.24-.24-1.487-.288-.624-.288h-1.345l-.624.288-.72-.096-1.63.144-.77.192-.623.336h-.576l-.96.576-.287.048-.144.336-.24.192-1.01.48-1.727 1.296-1.008 1.296-.576.576v.528l-.29.24-.863 1.104v.336l-.336.576-.047.48-.288.192-.144.288-.095.768-.576 1.488-.05.72.097.384-.144.336-.096.672.144 3.552.24.768.05.768.43.576.673 1.44.816 1.248.67.384.05.336.19.288.385.048.288.192.384.48.624.192.193.24.48.048.912.48 1.536.288.625.24.528-.192.24.192.72.24.768-.048.29-.192.095.288.288.144.672-.24 1.68-.096.816-.144 1.585-.48h.624l1.68-.768.383-.048.624-.768h.624l.53-.528 2.4-1.92 1.055-1.152.432-.672.336-.192.768-.912.913-1.296v-.528l.528-.48 1.153-1.92.288-1.152-.335-.96-.72-.288-.288-.24-.384.096-.768-.096-1.2 1.968-.48.528v.624l-.528.432-.144.336-.432.528-.383.096-.144.384-.528.624-.624.432-.96 1.008-.335.144-.192.384-.576.48-1.44.72-.336-.096-.863.48-1.44.432-1.536.048-.72.24h-.815l-.48-.144-.384-.336h-.43l-.433-.384-.624-.096-.432-.432-.623-.24-.336-.576-.287-.144.096-.432-.337-.336-.192-.384.193-.624.624-.384 2.064-.432.29-.144.143.24.24.096 2.208-.24 1.537-.672.768-.24 1.344-.624.527-.432h.336l.24-.096.144-.384.24-.288.72-.432.48-.528.048-.384.528-.096zm-5.904-5.328h.383l.144.432.672 1.056-.145.432.048.816-.144.336-.817.72-.288.72-.384.144-.19.336-.29.24-.863.144-.624.336-.192.336-.527-.096-.288.192-1.056.24-.29.192-.335-.096h-2.016l.287-1.104-.048-.768.575-1.008.912-1.296 2.064-2.208 1.97-.192.767.048.384.144.29-.096zm-10.033 7.728l.432-.096.19.384.96.768-.19.336-.29.24-.383.096-.672-.192-.24-.288.192-.384.336-.24-.24-.288-.384-.096.287-.24zm-.336-1.632l.24-.336.097.336-.48.624-.432-.336-.432.336.24.192.384.096-.192.96-.432-.096-.048-.864-.336-.72.383-.096.432.096.192-.24.384.048zm-.72 2.928l.48-.624.193.288v.72l-.432.096-.43-.192.19-.288zm.097 1.488l.24-.288.336-.096.096.288v.384l-.385.144-.336-.048.047-.384zm-.768-.24l-.097-.336.096-.288h.287l.096.72-.288.192-.096-.288zm2.735 1.824l.048-.384h.24l.096.624-.53.048.145-.288zm.624-1.056l-.145-.768h.24l.144.384-.145.624-.096-.24zm1.87-10.464v-.288l.145.288.24.144-.192.24-.336.096-.096-.336.24-.144zm-2.063 9.264l.144-.288.433.192-.24.288-.384.144.047-.336zm-.912.192l.24-.192.336.096-.143.288-.384.144-.048-.336zm-.384 3.888l-.095-.432h.384v.672l-.29-.24zm1.73.096l.047-.48.336.096-.048.528-.336-.144zm-1.97-9.504l.433.192-.144.288-.385.048.096-.528zm1.73-2.016v-.336l.383-.096-.096.576-.288-.144zm-.625 5.28l.096-.336.385.288-.288.336-.192-.288zm-.96-.672v-.384l.336.144.05.384-.385-.144zm0-3.744l.288-.048.24.144-.336.336-.192-.432zM217.87 45.2l.047-.336h.288v.432l-.336-.096zm-3.553-13.968l.096-.288.336-.144-.193.144v.48l-.24-.192zm10.896-6.384l.24.336-.432.096.193-.432zm-10.56 10.32l.096-.288.24.144-.097.288-.24-.144zm3.024-7.392l.24.192-.336.336.097-.528zm-4.176 5.76l.337-.288-.096.48-.24-.192zm1.153-.816l.336.288-.337.096v-.384zm2.496 5.424h.24v.24h-.24v-.24zm-3.313-5.424l.192.24-.29.24.097-.48zm2.592 10.752h.24l-.097.24h-.144v-.24zm10.08-14.304h.287l-.288.288v-.288zm-10.61 5.616l.24.336h-.24v-.336zm11.04-9.504h.193v.192h-.192v-.192zm-10.8 10.272l.097.288h-.24l.144-.288zm11.52-5.76l-.19.144-.24-.144h.43zM213.934 40.88l.192.144-.192.144v-.288zm-2.064-4.464l-.145-.144.24-.096-.096.24zm.287 1.296l.192.24h-.193v-.24zm2.928-3.456l.192.24h-.192v-.24zm-.336 6.432h.143l-.048.288-.096-.288z"/>
</svg>
