<svg xmlns="http://www.w3.org/2000/svg" viewBox="0 0 256 56">
  <title>
    hd-venue
  </title>
  <path fill="#f6fcf9" fill-rule="evenodd" d="M78.024 45.824l.672-.336 1.296-.864.384-.096.768-.816 2.496-1.68.528-.528.192-.336.624-.288.336-.624.72-.384.816-.864.432-.672.336-.144.72-.672.192-.528 1.008-1.056 1.344-1.824 1.008-1.104 1.296-2.256.48-.576.192-.816.72-1.248.048-.432.624-.624.144-.768.432-.576.24-.624-.096-.432.528-.72.144-1.152.384-.576v-.624l.528-1.152-.096-.912.24-.288.096-.432-.192-.336-.048-.384.336-1.392.048-.528-.288-2.304-.288-.432-.864-2.496-.384-.096-.144-.528-1.92-1.584-.672-.384-.768-.24-.384.192-.192-.192L91.704 8l-.624.192-.384-.096-.768.048-1.776.912-.144.384-.912 1.296v.432l-.24.816.192 1.104-.144.432.72.96.096.432 1.488 1.056 1.44.576.864.144.336.624.288.816-.096.384.096 1.296-.24.192-.192.336.096.72-.288.528-.096.912-.624 1.92-.144.864-.432.192-.576 1.392-.144.816-1.008 1.248-1.632 2.64v.624l-.336-.144-.288.048v.528l-.336.24-.528.576-.816 1.44-.576.048-.432.672-2.4 2.64h-.336l-.288.144-1.008 1.008-.384.096-.384-.288-.192-.288-.048-.672.192-1.584-.096-.384.336-.624-.144-.528.336-.816-.096-.336.288-1.584-.192-.384.336-.624.096-1.824.24-.72.048-.72-.288-.336.288-.624.144-.768-.048-.336-.192-.336.24-1.104.048-.816-.288-.72.144-.816-.096-.768-.576-1.92V18.8l-.48-.624-.672-1.44-.432-.672-.288-.24-.096-.384-.432-.624-.288-.192-.768-.24-.048-.336-.384-.528-.48-.096-.624-.624-.912-.336-.864-.192-.672-.384-.672.048-1.344-.336-3.216.144-.672.288-.48.048-.288.24-1.584.288-1.632 1.104-1.632 1.632-.72.432-.288.816-.528.432-.384.624-.288.72-.384.624.192.432-.336.288-.192.336.096.336-.288.672.048.864L57 23.504l.24.72-.192.24v.384l.288.624V26l.24.384-.096.432.288.288.192.864.864 1.248.288.24v.336l.288.288.672.432.288.288.048.432 1.008.72.24.336.528-.096.288.288.768.384.288.288 1.536.336.72.048.336-.096.624.336h.816l.816-.24.576-.384v-.816l.144-.672-.336-.528.096-.528-.288-.72-.624-2.544-.432-.624-2.736-1.248-1.344-1.92-.096-.384.096-.432-.24-1.152.144-.384.192-1.68.288-.192.576-.864.336-.144 1.104-.96.384-.144h.48l.576-.336h.432l.72-.192.624.384.864.144 1.488 1.152.912 1.152.288.816.048.432.336.624.096.768v2.928l.096.72-.192.72.096.624-.192.336-.048 1.248-.288 1.44.096.336-.24.432V32l-.336 1.392-.048.768.192.768-.288.192-.288 1.488.048 1.248-.144.288-.144.672-.144 1.536-.192.72.144.288-.096.672.048.432-.384.528v1.92l.096.768-.24.432.624.624.624-.192.576.288 1.248-.192 1.536.192.624-.192.336.096.336-.24.816-.096.288-.576h.384zM75.672 24.8h.288l.672-.24-.048.432-.48.384-.336-.336-.528.144-.096-.336.192-.192.336.144zm-13.728.144l.144.144-.144.336v.768l-.384.144-.384-.192-.144-.432.336-.048.24-.192.336-.096v-.432zM76.2 26l.24.336.384.192-.288.192h-.864v-.624L76.2 26zm-2.256 10.944l.048-.336.384-.048.24.336-.528.432H73.8l.144-.384zm2.88-16.752l.192-.48.336.192-.336.768-.48-.192.288-.288zm-.144 12.336l-.336-.048-.24-.192-.096-.336.816.24.24.288-.384.048zm-1.632 9.312l.24-.192.096-.336.384.24v.384l-.336-.048-.576.24.192-.288zM73.8 39.92l.096-.288.72.384v.336l-.384-.192.192-.096-.72.096.096-.24zm2.304-17.616l-.48-.096-.048-.288.288.192h.336l.288-.192.24.24-.24.288-.384-.144zm-.048 1.008l.048-.432.288.24.096.24-.576.336-.24-.432.384.048zm-1.248 12.672l-.096-.432.24.24.096.384.432-.096.096.192-.288.096h-.576l.096-.384zm1.488-.24l.336-.096-.048.384-.192.24-.336-.144-.144-.288.384-.096zm-15.792-9.312l.24.192.144.336-.432-.048-.288-.24v-.336l.336.096zm13.728 11.136h.384l.144.384-.432.096-.336-.192.24-.288zm1.2 2.208l-.384-.048.336-.192.72.48-.24.288-.288.048.192-.432-.336-.144zm1.296-1.536l.144.24-.144.288-.432-.096-.096-.336.528-.096zm-.096 2.16l.096-.384.432.144-.144.384-.288.24-.096-.384zm-.384-6.624l.048-.528h.24l.096.528-.432.384.048-.384zM74.856 19.28l.096-.816.192.24v.48l-.096.336-.192-.24zm-.336 13.44l.336-.048.096.432-.336.096-.096.336v-.816zm-1.632-15.552l.336.288.048.288-.72-.432.336-.144zm3.024 11.136h.288l-.096.432-.336.096.144-.528zm-.864.432l.288.24.144.288-.528-.096.096-.432zm-.384-.48l-.048-.384h.336v.528l-.288-.144zm1.104 8.592l-.096-.384.384.096.048.432-.336-.144zm-13.2-10.512l.144.384-.384-.048-.144-.336h.384zm13.056-5.184l.048-.48.24.336v.48l-.288-.336zm-.96-.576l.048-.24.24.048-.096.384-.336.192.144-.384zM62.04 27.44l.336-.096-.096.432h-.336l.096-.336zm15.072 2.88l.432-.144-.24.336-.384.192.192-.384zm-14.016-4.752l-.144.24-.288.096-.096-.192.528-.144zm11.04.144l.288-.048-.048.288-.288.048.048-.288zm.672 15.36l.24.336-.528-.096.288-.24zm-2.16-2.688l-.192.384-.24-.288.432-.096zm1.056-21.888l.384.288-.384.096v-.384zm1.44 6.576h.192v.288h-.288l.096-.288zm3.168 18.288l.384.048-.528.288.144-.336zm-1.296.48l.144.192-.096.192-.24-.096.192-.288zm-1.44-11.232v.336l-.336-.336h.336zm.096 2.928v.336h-.336l.336-.336zM60.024 21.104l-.048-.24.24.096-.048.336-.144-.192zm-1.008 3.408l-.288.24-.144-.24h.432zM94.728 15.2h.24l-.048.24h-.192v-.24zM77.16 41.456l.096-.288.192.432-.288-.144zm-.672 1.2l.048.432-.24-.144.192-.288zm.96-18.528l.144.288-.24.144.096-.432zm-15.264.432h.288v.288l-.288-.288zM91.08 14.192h.288v.288l-.288-.288zM64.392 28.64l-.144-.24h.336l-.192.24zm-3.504-6l.24.192-.24.144v-.336zm3.984 4.944l.24-.192-.096.384-.144-.192zM60.504 23.6h.192v.192h-.192V23.6zm16.944-.864l.432-.096-.336.24-.096-.144zM94.2 12.512h.24l-.24.288v-.288zm-1.536-.24h.288v.24l-.288-.24zM74.76 38.336h.288v.24l-.288-.24zm1.248-.816l.192.24-.288-.048.096-.192zm16.512-22.8l.192.144-.192.144v-.288zM77.448 25.28l.192.288h-.192v-.288zm14.064-12.24l.288.192h-.288v-.192zm-14.496 8.256l.192.144-.192.144v-.288zm-2.496 2.496h.192v.144h-.192v-.144zm-.912 18.96l.288.192h-.288v-.192zm17.664-30.144l.192.144-.192.144v-.288zm-15.408 5.424l.192-.096.144.192-.336-.096zm16.992-4.08l.096.24-.192-.048.096-.192zM74.952 25.664l.288.144h-.288v-.144zm1.152 14.976l-.096.24v-.192l.096-.048zm38.81-7.2l.144-.336.288-.192.48-1.056.528-1.488.144-.816-.288-.624.288-.624-.144-.672-.048-.864-.672-1.008-.288-.816-.336-.192-.768-.816-.624-.384-.48-.048-.192-.288-.864-.672-.48.096-.24-.24-1.488-.288-.624-.288h-1.344l-.624.288-.72-.096-1.632.144-.768.192-.624.336h-.576l-.96.576-.288.048-.144.336-.24.192-1.008.48-1.728 1.296-1.008 1.296-.576.576v.528l-.288.24-.864 1.104v.336l-.336.576-.048.48-.288.192-.144.288-.096.768-.576 1.488-.048.72.096.384-.144.336-.096.672.144 3.552.24.768.048.768.432.576.672 1.44.816 1.248.672.384.048.336.192.288.384.048.288.192.384.48.624.192.192.24.48.048.912.48 1.536.288.624.24.528-.192.24.192.72.24.768-.048.288-.192.096.288.288.144.672-.24 1.68-.096.816-.144 1.584-.48h.624l1.68-.768.384-.048.624-.768h.624l.528-.528 2.4-1.92 1.056-1.152.432-.672.336-.192.768-.912.912-1.296v-.528l.528-.48 1.152-1.92.288-1.152-.336-.96-.72-.288-.288-.24-.384.096-.768-.096-1.2 1.968-.48.528v.624l-.528.432-.144.336-.432.528-.384.096-.144.384-.528.624-.624.432-.96 1.008-.336.144-.192.384-.576.48-1.44.72-.336-.096-.864.48-1.44.432-1.536.048-.72.24h-.816l-.48-.144-.384-.336h-.432l-.432-.384-.624-.096-.432-.432-.624-.24-.336-.576-.288-.144.096-.432-.336-.336-.192-.384.192-.624.624-.384 2.064-.432.288-.144.144.24.24.096 2.208-.24 1.536-.672.768-.24 1.344-.624.528-.432h.336l.24-.096.144-.384.24-.288.72-.432.48-.528.048-.384.528-.096zm-5.904-5.328h.384l.144.432.672 1.056-.144.432.048.816-.144.336-.816.72-.288.72-.384.144-.192.336-.288.24-.864.144-.624.336-.192.336-.528-.096-.288.192-1.056.24-.288.192-.336-.096h-2.016l.288-1.104-.048-.768.576-1.008.912-1.296 2.064-2.208 1.968-.192.768.048.384.144.288-.096zM98.978 35.84l.432-.096.192.384.96.768-.192.336-.288.24-.384.096-.672-.192-.24-.288.192-.384.336-.24-.24-.288-.384-.096.288-.24zm-.336-1.632l.24-.336.096.336-.48.624-.432-.336-.432.336.24.192.384.096-.192.96-.432-.096-.048-.864-.336-.72.384-.096.432.096.192-.24.384.048zm-.72 2.928l.48-.624.192.288v.72l-.432.096-.432-.192.192-.288zm.096 1.488l.24-.288.336-.096.096.288v.384l-.384.144-.336-.048.048-.384zm-.768-.24l-.096-.336.096-.288h.288l.096.72-.288.192-.096-.288zm2.736 1.824l.048-.384h.24l.096.624-.528.048.144-.288zm.624-1.056l-.144-.768h.24l.144.384-.144.624-.096-.24zm1.872-10.464V28.4l.144.288.24.144-.192.24-.336.096-.096-.336.24-.144zm-2.064 9.264l.144-.288.432.192-.24.288-.384.144.048-.336zm-.912.192l.24-.192.336.096-.144.288-.384.144-.048-.336zm-.384 3.888l-.096-.432h.384v.672l-.288-.24zm1.728.096l.048-.48.336.096-.048.528-.336-.144zm-1.968-9.504l.432.192-.144.288-.384.048.096-.528zm1.728-2.016v-.336l.384-.096-.096.576-.288-.144zm-.624 5.28l.096-.336.384.288-.288.336-.192-.288zm-.96-.672v-.384l.336.144.048.384-.384-.144zm0-3.744l.288-.048.24.144-.336.336-.192-.432zm3.504 13.008l.048-.336h.288v.432l-.336-.096zm-3.552-13.968l.096-.288.336-.144-.192.144v.48l-.24-.192zm10.896-6.384l.24.336-.432.096.192-.432zm-10.56 10.32l.096-.288.24.144-.096.288-.24-.144zm3.024-7.392l.24.192-.336.336.096-.528zm-4.176 5.76l.336-.288-.096.48-.24-.192zM99.314 32l.336.288-.336.096V32zm2.496 5.424h.24v.24h-.24v-.24zM98.498 32l.192.24-.288.24.096-.48zm2.592 10.752h.24l-.096.24h-.144v-.24zm10.08-14.304h.288l-.288.288v-.288zm-10.608 5.616l.24.336h-.24v-.336zm11.04-9.504h.192v.192h-.192v-.192zm-10.8 10.272l.096.288h-.24l.144-.288zm11.52-5.76l-.192.144-.24-.144h.432zM98.594 40.16l.192.144-.192.144v-.288zm-2.064-4.464l-.144-.144.24-.096-.096.24zm.288 1.296l.192.24h-.192v-.24zm2.928-3.456l.192.24h-.192v-.24zm-.336 6.432h.144l-.048.288-.096-.288zm38.522 1.056l-.096-1.152.624-1.44.72-2.256v-.336l-.096-.24.432-.576v-.432l.144-.672.528-1.248.24-1.2.432-.624.144-3.456-.336-.624.048-.384-.384-1.056v-.432l-.384-.288-.24-.768-.816-.816-.96-.432-.624-.528-1.152-.24-.768-.048-1.248.192-.384-.096-.624.384-.432-.096-.672.384-1.44.576-.624.384-.288.384-.336.192-.528-.48-.048-.336.144-.384-.528-.336-.624-.24-1.536-.144-3.696.192-.528.528-.048.384-.528 1.248.096.384-.432.624-.576 1.488-.048.816-.528 1.056.192.432-.288.24-.624 1.968-.24.288.432.336-.624.576.192.528-.384.24-.24.384.048.432-.384 1.152.048.432-.288.192-.192.336-.096.48.048.864-.288.144-.24.288v.48l-.144.768-.624 1.248.24.528-.432.528.096.336-.384.528-.144 1.056-.672 1.68-.048.816.432.48.72.24.768.096.864-.096 1.536-.432.384.432h.768l.72-.192.288-.192.432-.528.096-.864.24-.288.528-1.488.144-1.104.624-1.392.192-.72-.048-.864.624-.528.192-1.2.48-1.392.384-1.488.288-.576-.048-.384.24-.24.144-.384-.288-.72.528-.576.096-.768 1.776-1.872.672-.384.384-.096.288-.528.96-.192.432.096.384-.24.432-.048.816.288 1.104.912.096.24.048 2.016-.144.672-.672 1.44-.336 1.488-.192.24.096.576-.24.336.048.48-.432.432.144.48-.336.528-.432 1.392-.096.768v3.216l.432.432v.432l.192.768.672.912 1.2.912.288.048.672.384h1.296l.384-.144.384.192.384.048.768-.288.24-.24.336.144h.384l.72-.336.576-.432.768-.144.336-.192 1.488-1.344 1.008-.528.24-.288.24-.768 1.2-.96.432-.624.24-.912.528-.432.96-1.056.432-1.488.336-.624.48-.48.048-.384.864-1.44-.672-1.056-.624-.48-.384-.096-.48.192-.432.048-.576.384-.336.72-.144.912-.576.528-.24.336.192.432h-.432l-.48 1.008-.48.528-.384.72-.912 1.248-1.104 1.008-.144.432-.336.288-.432.096-.672.432-.816.288-1.344-1.008.192-.336zm-2.112-12.528l.432-.048.096.432h.336v.336l-.192.096.96.672.048.48-.384.096-.096-.336-.528-.384-.048-.432-.24-.288-.576-.432.192-.192zm-.192 3.648l.72.624-.096.48-.288.24-.336-.192.24-.192.096-.336-.624-.336.288-.288zm1.2 4.944l-.336-.336-.24.576-.288-.144-.144-.336.336-.288.336-.144.144.288.24.192.336.048-.384.144zm.384-7.968l.624-.24.288.288-.384.24-.24.384-.384-.288.096-.384zm-1.728.72h.384l.288.144.192.336h-.336l-.288-.192-.288.336-.24-.432.288-.192zm-.192 5.136l.384-.048.288.144-.192.24-.336.144-.336-.096-.192-.288.384-.096zm-.288-6.624l.336.192-.048.864-.48-.624.192-.432zm-1.152 9.072v-.384l.288.096.192.24.048.384h-.432l-.096-.336zm1.584 2.976l.288-.24.336-.048.192.192-.672.336-.336.048.192-.288zm-.384-7.104h.288l-.048.432.144.384-.432-.096.096-.288-.288-.24.24-.192zm-1.536 10.608l-.288-.144-.096-.336h.384l.336.144v.288l-.336.048zm-9.168-17.088l-.24-.336.192-.096h.336l.144.24.048.336-.48-.144zm10.176-.288l.48.144-.336.336-.48-.24.336-.24zm1.968 7.488h.48l-.096.432-.48-.048.096-.384zm-1.824 8.592l.288.192.144.336h-.384l-.24-.096.192-.432zm3.408-12.576l.384-.096-.048.384-.288.144-.192-.144.144-.288zm-3.024-2.736l.288.24-.432.192-.24-.432h.384zm-12.96 7.2l.336.048v.288h-.528l.192-.336zm15.072-7.824l.336-.288.192.384-.192.048-.624-.144h.288zm.336 1.68l.24-.24.096.432-.288.24-.048-.432zm-12.48-2.064l-.336-.24.144-.24.432.336-.24.144zm-2.112 1.44l.048-.336h.24l.048.24-.096.288-.24-.192zm.816 2.208l.192.24-.192.24-.336-.096.336-.384zm10.512 9.84l-.144-.432.336.192.144.432-.336-.192zm-.624-13.632l.576-.288-.48.528h-.288l.192-.24zm2.736 15.792l.432.144-.192.192h-.336l.096-.336zm-.528-16.416l.528.096-.624.24.096-.336zm.384 9.36l-.048-.336.336.192v.288l-.288-.144zm1.776.24l.192-.192.048.336-.288.288.048-.432zm-2.16.48h.24v.288h-.336l.096-.288zm-1.152 1.776v-.336l.24.144v.288l-.24-.096zm-14.832 2.832v.384l-.336-.192.336-.192zm-.768-.336l.24.192-.336.24.096-.432zm1.872-8.928l.144.336-.432-.192.288-.144zm13.536 7.824l.096.288-.48-.336.384.048zm.24 2.256l.288.192-.336.144.048-.336zm1.68-10.176h.288l-.096.336-.192-.336zm-15.264 4.416l.144.288-.384-.096.24-.192zm11.76 4.944l.048.384h-.24l.192-.384zm-9.408-12.912h.192v.192h-.192v-.192zm14.976 1.488l.24.192-.24.096v-.288zm-13.728 1.536l.144.144-.336.096.192-.24zm12.768 2.304l.048.24h-.24l.192-.24zm-12.24-4.08h.192v.144h-.192v-.144zm-4.368 8.592l.288.192h-.288v-.192zm13.2-8.496h.384l-.384.144v-.144zm1.728 5.568h.144v.192h-.144v-.192zm0-2.592l.192.144-.192.144v-.288zm-6.912-7.152h.144v.192h-.144v-.192zm4.848 16.224h.192v.144h-.192v-.144zm4.512-12.144l.288.144h-.288v-.144zm-16.752-1.872h.192l-.288.192.096-.192zm13.68-2.016l.24.144h-.24v-.144zm-16.128 14.688l-.096.288v-.192l.096-.096zm50.33-16.704l-.673-.288-.768-.144-1.632.096-.672.192-.384-.192-.865-.048-.288-.24-1.104.624-.576.528v.72l-.336.528.097.384-.24.288-.384 1.248-.192.288.097.528-.24.24-.144.336v.432l-.432 1.056v.528l-.335.528v.528l-.336.384-.145.432.048.768-.384.48-.097.336.096.528-.24.336-.625 1.44.096.288v.432l-.24.288-.287.72.048.384-.43.528-.72 1.248-.385.144-1.536 1.344-.385.192-2.016.288-1.345-.528-.336-.72-.193-.768-.24-.288.336-.528-.096-.384.096-.384-.096-.384.192-.288.623-2.256.192-.288-.096-.528.24-.24.335-.672.72-2.208-.144-.528.433-.624.048-.72.77-1.68-.097-.432.096-.384.43-.576-.095-.912.48-.528.144-1.152.143-.336-.24-.432-.336-.288-3.888-.096-1.537.144-.624.192-.433.576-.384 1.392-.336.624-.048.864-.193.816-.816 2.016-.19.72.19.48-.335.24.048.432-.384.672-.53 1.488-.143.864-.48.96-.144.816v.816l-.528.816v.768l-.24.336-.24.72v1.92l-.144.672.29.528-.097.336.24.384-.048.48.72 1.344.432.624.528.384.336.048.193.336.768.672.865.096.288.144.672.144.432-.048.24.192.384.048.72-.144.24-.192.193.192.336.096 1.487-.384 1.488-.528 1.248-.768.48-.528.432-.144.768-.768.384-.096.288.144.624.768.767 1.248.912.528.72.24 1.583.336 1.2.048 1.056-.432.72-.048 1.055-.432 1.296-.672 1.2-.816.53-.672 1.247-1.008.096-.48.624-.528.528-.624.624-.528.095-.384.336-.576.53-.432.287-.72.384-.624.29-.24.143-.816.192-.336.288-.192.192-.72.48-.528.144-.288.143-.72.048-.864-1.68-.96-.815.336-.624.48-.383 1.104-.816 1.2-.24.768-.575.432-.096.384-.577 1.008-.48.528-.384.624-.24.768-2.497 1.584-1.152.24-.91-.576.047-.384-.096-1.152.145-.72.528-1.392-.048-.72.24-.192.192-.336v-.48l.528-.96-.384-.768h.577l.384-1.44.193-.24.096-1.056.19-.336.817-2.976.624-1.296.05-1.152.383-.48v-.624l.336-.576-.05-.48.145-.672.192-.288-.24-.192zm-7.345 13.152l.576-.624.335.144h.384v.384l.24.528h-.29l-.335-.192-.144-.336-.527.384-.096.288-.384-.048-.144-.288.383-.24zm.144 2.112l.336-.096-.096.384-.384.528-.336.144.096-.864.384-.096zm-.192-6.192h.432l.144.288-.047.672-.816-.72.288-.24zm-12.768 11.76l-.096-.72.24.192-.047.288.288.144h.673l-.336.192h-.288l-.193.24-.336.096.097-.432zm12.144-6.912l.96.288-.143.336-.816-.192v-.432zm.337-1.728h.528l-.048.384-.336-.048-.287.096-.288-.048v-.336l.432-.048zm-14.304-.144l.24-.336.144.336-.336.816-.24-.432.193-.384zm-.672 4.512h.337l.24-.24.144.288-.143.432-.816-.384.24-.096zm13.537.432l.768.144v.336h-.336l-.673-.336.24-.144zm.48 1.2l.288.192.432.528-.288.048-.24-.288-.29-.144.097-.336zm2.4-1.344v.336l-.336.048v.336l-.143-.288-.048-.432h.527zm-14.592 1.44l.24-.288.24.192-.096.288-.337.144-.048-.336zm13.776 2.832l.385-.096.24.24-.432.144-.336-.048.144-.24zm2.785-16.848l.192-.144.336.048-.288.384-.336.048.095-.336zm-.384-.864l.385-.096-.384.528-.24-.192.24-.24zm-14.687 10.896l.336.144.095.384-.72-.528h.288zm-1.056 2.064v-.48l.336.336-.288.432-.048-.288zm2.4 4.944l.432.048-.29.288h-.335l.192-.336zm12.336-9.36l.384-.048-.192.336-.432-.096.24-.192zm.384-7.968l.384.096-.095.288h-.192l-.096-.384zM151.3 28.112l.05-.336.24.144.047.336-.336-.144zm-1.68 13.008l-.095-.288.336.048.097.288-.336-.048zm-2.735-4.896l.048-.288.288.096-.095.336-.24-.144zm5.088-8.208v-.288l.288.096v.336l-.287-.144zm10.992 4.896l.288.288-.528.096.24-.384zm2.352-3.408l.336.048-.192.24-.287.048.144-.336zm-2.736 14.928h.385l-.288.192-.432.096.336-.288zm1.057-13.728l.24.288h-.288l-.24-.192.287-.096zm-3.12 5.52l.048-.384.192.288-.096.336-.143-.24zm-11.568-1.2l.287-.144v.24l-.24.192-.048-.288zm8.447 4.368l.288.096-.192.192-.288-.096.192-.192zm7.248-5.04h.192v.288h-.288l.095-.288zm-14.448-2.4l.288.096-.192.288-.144-.192.047-.192zm12.816 10.608l.144.384-.432-.24.288-.144zm1.632-12.912v.192h-.336v-.192h.335zm-3.552 2.112l.288.384h-.287v-.384zm-1.2 11.52h.144v.288h-.24l.096-.288zm-11.76-3.504l.144.336-.384-.192.24-.144zm2.16-14.832l.192.24-.288.144.096-.384zm12.768 3.216l.337.096-.24.144-.096-.096v-.144zm-12.67 14.448v.24l-.337-.096.336-.144zm14.35-.144l.29.048-.385.192.096-.24zm-15.503-8.64h.192v.192h-.193v-.192zm15.6-3.456l-.288.096-.145-.192.432.096zm-3.024 9.84h.288v.24l-.287-.24zm-15.312.72l.145.192-.24.144.096-.336zm20.45 1.152h.19v.144h-.19v-.144zm-16.177-13.152h.144v.192h-.144v-.192zm-.912 12.96l.29.192h-.29v-.192zm41.5-8.448l.143-.336.288-.192.48-1.056.53-1.488.143-.816-.288-.624.288-.624-.144-.672-.05-.864-.67-1.008-.29-.816-.335-.192-.768-.816-.624-.384-.48-.048-.192-.288-.863-.672-.48.096-.24-.24-1.488-.288-.625-.288h-1.344l-.623.288-.72-.096-1.632.144-.768.192-.624.336h-.576l-.96.576-.288.048-.145.336-.24.192-1.008.48-1.728 1.296-1.01 1.296-.575.576v.528l-.288.24-.864 1.104v.336l-.336.576-.048.48-.29.192-.143.288-.096.768-.575 1.488-.048.72.096.384-.144.336-.097.672.144 3.552.24.768.048.768.432.576.672 1.44.815 1.248.672.384.048.336.192.288.384.048.29.192.383.48.624.192.192.24.48.048.91.48 1.537.288.624.24.53-.192.24.192.72.24.767-.048.288-.192.096.288.29.144.67-.24 1.68-.096.817-.144 1.584-.48h.625l1.68-.768.384-.048.623-.768h.624l.528-.528 2.4-1.92 1.056-1.152.433-.672.336-.192.767-.912.912-1.296v-.528l.527-.48 1.152-1.92.287-1.152-.336-.96-.72-.288-.287-.24-.384.096-.77-.096-1.2 1.968-.48.528v.624l-.527.432-.144.336-.433.528-.384.096-.144.384-.53.624-.623.432-.96 1.008-.336.144-.19.384-.577.48-1.44.72-.336-.096-.864.48-1.44.432-1.536.048-.72.24h-.816l-.48-.144-.383-.336h-.432l-.432-.384-.624-.096-.433-.432-.624-.24-.336-.576-.288-.144.095-.432-.336-.336-.193-.384.192-.624.623-.384 2.064-.432.288-.144.144.24.24.096 2.207-.24 1.536-.672.768-.24 1.345-.624.528-.432h.336l.24-.096.143-.384.24-.288.72-.432.48-.528.048-.384.53-.096zm-5.905-5.328h.384l.143.432.672 1.056-.144.432.05.816-.145.336-.816.72-.29.72-.383.144-.192.336-.288.24-.864.144-.624.336-.193.336-.528-.096-.29.192-1.055.24-.288.192-.336-.096h-2.015l.288-1.104-.048-.768.576-1.008.913-1.296 2.064-2.208 1.968-.192.768.048.384.144.288-.096zm-10.032 7.728l.432-.096.192.384.96.768-.192.336-.288.24-.384.096-.672-.192-.24-.288.193-.384.336-.24-.24-.288-.385-.096.288-.24zm-.336-1.632l.24-.336.096.336-.48.624-.432-.336-.43.336.24.192.383.096-.192.96-.43-.096-.05-.864-.335-.72.384-.096.43.096.193-.24.384.048zm-.72 2.928l.48-.624.192.288v.72l-.433.096-.432-.192.192-.288zm.096 1.488l.24-.288.336-.096.095.288v.384l-.384.144-.335-.048.048-.384zm-.768-.24l-.096-.336.095-.288h.288l.096.72-.29.192-.095-.288zm2.736 1.824l.05-.384h.24l.095.624-.528.048.144-.288zm.625-1.056l-.144-.768h.24l.145.384-.144.624-.095-.24zm1.872-10.464V28.4l.144.288.24.144-.19.24-.337.096-.096-.336.24-.144zm-2.064 9.264l.144-.288.432.192-.24.288-.385.144.048-.336zm-.912.192l.24-.192.337.096-.144.288-.384.144-.05-.336zm-.383 3.888l-.096-.432h.385v.672l-.288-.24zm1.728.096l.048-.48.336.096-.05.528-.335-.144zm-1.968-9.504l.432.192-.145.288-.384.048.097-.528zm1.728-2.016v-.336l.384-.096-.097.576-.288-.144zm-.624 5.28l.097-.336.384.288-.287.336-.192-.288zm-.96-.672v-.384l.337.144.048.384-.384-.144zm0-3.744l.29-.048.24.144-.337.336-.192-.432zm3.505 13.008l.048-.336h.288v.432l-.335-.096zm-3.552-13.968l.096-.288.335-.144-.192.144v.48l-.24-.192zm10.896-6.384l.24.336-.433.096.192-.432zm-10.56 10.32l.095-.288.24.144-.096.288-.24-.144zm3.023-7.392l.24.192-.336.336.096-.528zm-4.176 5.76l.336-.288-.096.48-.24-.192zM175.76 32l.335.288-.336.096V32zm2.495 5.424h.24v.24h-.24v-.24zM174.943 32l.192.24-.288.24.096-.48zm2.592 10.752h.24l-.096.24h-.145v-.24zm10.08-14.304h.288l-.288.288v-.288zm-10.608 5.616l.24.336h-.24v-.336zm11.04-9.504h.192v.192h-.193v-.192zm-10.8 10.272l.096.288h-.24l.144-.288zm11.52-5.76l-.192.144-.24-.144h.432zM175.04 40.16l.19.144-.19.144v-.288zm-2.065-4.464l-.144-.144.24-.096-.095.24zm.288 1.296l.192.24h-.192v-.24zm2.928-3.456l.193.24h-.192v-.24zm-.335 6.432H176l-.05.288-.095-.288z"/>
</svg>
