<?xml version="1.0" standalone="no"?>
<!DOCTYPE svg PUBLIC "-//W3C//DTD SVG 20010904//EN"
 "http://www.w3.org/TR/2001/REC-SVG-20010904/DTD/svg10.dtd">
<svg version="1.0" xmlns="http://www.w3.org/2000/svg"
 width="512.000000pt" height="512.000000pt" viewBox="0 0 512.000000 512.000000"
 preserveAspectRatio="xMidYMid meet">
<metadata>
Created by potrace 1.11, written by Peter Selinger 2001-2013
</metadata>
<g transform="translate(0.000000,512.000000) scale(0.100000,-0.100000)"
fill="#000000" stroke="none">
<path d="M1415 4245 c-14 -13 -26 -32 -26 -42 -7 -104 -3 -2343 4 -2358 24
-52 37 -55 260 -55 131 0 216 4 229 11 45 24 45 7 43 1234 -2 638 -3 1166 -4
1173 0 7 -12 24 -26 37 -24 25 -24 25 -240 25 -216 0 -216 0 -240 -25z"/>
<path d="M2359 4241 l-29 -29 0 -1182 0 -1182 29 -29 29 -29 206 0 c124 0 214
4 229 11 49 22 49 21 49 508 0 251 1 463 4 471 3 13 41 15 280 15 195 0 285 4
306 12 46 20 53 53 52 234 l-2 163 -26 23 c-15 13 -39 23 -54 24 -15 0 -145 1
-289 1 -239 1 -263 3 -268 18 -3 10 -5 126 -4 259 2 236 3 241 23 245 12 3
190 4 397 4 267 -1 381 3 397 11 41 22 46 47 47 231 2 190 -4 217 -50 238 -19
9 -190 12 -661 12 l-636 0 -29 -29z"/>
<path d="M1406 1369 l-26 -20 0 -228 c0 -225 0 -228 23 -249 l23 -22 1135 0
1136 0 21 23 c21 22 22 31 22 244 0 208 -1 222 -21 247 l-20 26 -1133 0
c-1131 0 -1133 0 -1160 -21z"/>
</g>
</svg>
