<?xml version="1.0" standalone="no"?>
<!DOCTYPE svg PUBLIC "-//W3C//DTD SVG 20010904//EN"
 "http://www.w3.org/TR/2001/REC-SVG-20010904/DTD/svg10.dtd">
<svg version="1.0" xmlns="http://www.w3.org/2000/svg"
 width="16.000000pt" height="16.000000pt" viewBox="0 0 16.000000 16.000000"
 preserveAspectRatio="xMidYMid meet">
<metadata>
Created by potrace 1.11, written by Peter Selinger 2001-2013
</metadata>
<g transform="translate(0.000000,16.000000) scale(0.003125,-0.003125)"
fill="#000000" stroke="none">
<path d="M2505 3929 c-16 -5 -38 -7 -48 -5 -10 2 -30 -2 -45 -10 -15 -8 -33
-14 -40 -14 -7 0 -20 -17 -28 -37 -14 -32 -16 -162 -19 -1022 -1 -542 -3 -999
-4 -1016 -5 -86 0 -203 10 -228 9 -20 9 -30 0 -41 -7 -8 -9 -25 -6 -38 3 -12
2 -53 -4 -89 -5 -40 -5 -85 0 -114 6 -30 5 -62 -1 -84 -14 -50 13 -121 57
-149 34 -23 40 -23 378 -23 67 0 176 21 181 35 2 6 6 31 9 56 2 25 9 73 16
108 9 49 9 68 0 85 -9 16 -9 35 -2 66 5 24 7 75 4 113 -5 60 -9 71 -30 82
l-24 12 25 14 c15 7 26 16 26 19 0 12 -15 28 -30 33 -11 4 -9 8 10 17 24 11
25 16 25 94 0 45 -4 85 -9 88 -4 4 -3 15 2 26 6 11 7 25 2 33 -4 7 -6 28 -3
45 3 18 0 42 -7 55 -10 18 -9 24 1 31 9 5 6 11 -14 20 -29 13 -26 34 3 26 13
-3 17 0 13 9 -7 18 -33 17 -57 -1 -22 -17 -36 -19 -36 -7 0 5 11 14 25 20 14
6 25 18 25 27 0 10 10 15 30 15 23 0 30 5 30 19 0 13 7 19 23 20 213 6 254 12
242 31 -3 5 11 2 32 -7 29 -13 70 -17 180 -17 126 -1 142 1 146 16 4 14 12 16
40 11 31 -5 37 -2 50 23 8 16 19 50 26 77 9 38 9 51 -3 70 -8 12 -17 32 -21
45 -5 18 -2 22 14 22 19 0 20 2 9 20 -9 13 -9 23 -2 30 12 12 -2 159 -18 178
-6 6 -23 12 -38 12 -15 0 -33 6 -39 14 -18 22 -224 16 -268 -7 -18 -9 -39 -17
-47 -17 -8 0 -20 -8 -25 -17 -11 -20 -14 -12 -11 29 1 22 -2 27 -14 22 -9 -3
-16 -15 -16 -25 0 -21 -22 -17 -53 9 -16 14 -19 13 -38 -6 -16 -18 -24 -20
-39 -12 -14 8 -21 6 -28 -6 -6 -11 -12 -13 -16 -6 -4 6 -13 9 -20 6 -9 -3 -13
1 -13 12 1 9 -4 19 -11 21 -7 3 -11 -3 -10 -16 2 -11 -1 -21 -7 -23 -5 -2 -11
12 -13 30 -6 58 -29 35 -47 -45 -5 -26 -3 -33 9 -33 8 0 19 7 23 15 8 13 11
14 28 0 13 -10 16 -17 9 -22 -6 -5 -13 -16 -17 -25 -4 -11 -12 -15 -22 -12
-11 4 -15 0 -15 -16 0 -33 -24 -19 -28 16 -3 27 -7 30 -37 31 -28 1 -35 -3
-35 -18 0 -10 -7 -19 -15 -19 -17 0 -19 9 -6 30 15 23 2 31 -25 14 -23 -16
-24 -15 -24 6 0 30 47 110 64 110 8 0 19 7 26 16 11 13 9 19 -13 41 -25 25
-30 26 -133 25 -94 -2 -105 0 -94 13 10 12 10 15 -4 15 -9 0 -16 4 -16 9 0 5
-15 13 -32 16 -18 4 -42 19 -54 33 l-21 26 -13 -24 c-10 -19 -10 -24 4 -32 20
-11 21 -38 1 -38 -8 0 -21 14 -30 30 -18 34 -23 36 -40 13 -7 -9 -17 -13 -23
-9 -20 12 -13 23 21 32 17 6 33 16 33 24 1 8 2 21 3 27 1 8 11 11 30 7 16 -4
32 -1 35 5 4 7 -1 11 -13 11 -11 0 -22 4 -25 9 -8 12 22 23 43 16 14 -4 19 5
27 45 9 44 9 50 -7 50 -28 0 -41 24 -24 46 11 14 13 14 9 3 -3 -11 2 -18 17
-22 13 -4 24 -5 26 -4 1 1 -2 20 -7 42 -7 33 -6 43 9 60 10 11 28 37 40 57 19
32 25 36 42 28 10 -6 19 -7 19 -3 -1 15 -27 43 -33 36 -14 -13 -6 11 13 42 15
24 26 32 40 28 11 -3 26 0 33 6 8 6 17 8 20 4 10 -9 8 20 -2 36 -6 9 -11 10
-15 2 -4 -6 -14 -11 -22 -11 -10 0 -4 20 23 70 36 68 38 70 45 43 4 -15 6 -35
3 -43 -2 -8 0 -22 5 -30 8 -13 10 -13 10 2 0 19 41 35 60 23 6 -4 8 -16 4 -27
-5 -17 -2 -19 23 -16 20 2 27 8 25 21 -2 10 3 17 13 17 8 0 15 -8 15 -18 0
-31 12 -33 32 -6 26 32 17 54 -22 54 -26 0 -30 3 -30 28 0 17 10 38 25 52 l24
23 -20 28 c-20 29 -20 29 0 29 11 0 23 5 26 10 11 18 27 -2 21 -26 -5 -17 -2
-24 8 -24 7 0 16 -9 19 -20 6 -22 -9 -38 -16 -18 -3 10 -7 10 -17 1 -10 -10
-10 -18 0 -42 13 -32 30 -42 30 -18 0 8 9 22 20 32 15 13 17 22 9 36 -7 14 -4
28 16 59 24 38 24 40 5 40 -30 0 -25 34 6 49 15 6 27 10 28 9 1 -2 7 -19 14
-39 16 -47 -1 -93 -30 -83 -11 3 -18 0 -18 -8 0 -24 15 -36 45 -40 l30 -3 -43
-23 c-24 -13 -45 -29 -49 -37 -3 -8 -11 -15 -19 -15 -8 0 -11 -6 -8 -15 4 -8
-1 -27 -11 -41 -9 -14 -14 -31 -12 -37 2 -6 -12 -17 -32 -24 -36 -12 -56 -9
-46 8 4 5 -3 9 -14 9 -25 0 -27 -20 -6 -61 16 -30 35 -31 35 -3 0 9 6 14 13
11 12 -4 12 -11 0 -70 -4 -21 -2 -26 9 -22 9 4 20 17 26 31 7 13 18 24 27 24
19 0 19 14 0 30 -8 7 -15 20 -15 28 0 12 3 13 12 4 21 -21 31 -13 25 22 -4 25
0 39 14 55 11 12 23 21 27 21 4 0 17 -18 29 -41 16 -30 20 -46 13 -64 -14 -38
-29 -39 -23 -2 3 23 0 37 -11 46 -21 18 -34 5 -18 -19 6 -10 8 -20 3 -22 -4
-2 -11 -19 -15 -39 -5 -29 -3 -38 10 -43 11 -4 18 0 21 14 6 24 16 25 33 5 9
-11 17 -12 32 -4 14 7 23 7 33 -1 9 -8 29 -9 55 -5 24 4 40 3 40 -3 0 -7 12
-7 34 0 24 8 43 7 65 0 29 -10 31 -10 31 14 0 21 4 24 40 24 27 0 42 6 49 18
10 16 12 13 15 -20 1 -7 -14 -15 -32 -18 -40 -6 -47 -24 -11 -28 34 -4 82 34
74 58 -3 10 -2 20 2 23 13 7 106 -40 94 -48 -26 -16 -6 -22 71 -23 55 -1 85 3
90 11 6 9 10 9 17 -1 12 -20 78 -4 112 27 35 31 51 91 25 91 -9 0 -16 8 -16
20 0 23 10 26 29 8 11 -11 12 -7 5 22 -4 19 -7 93 -7 164 2 147 -5 171 -62
205 -43 25 -45 25 -45 6 0 -13 -3 -13 -26 1 -30 20 -168 32 -178 16 -4 -7 -17
-7 -38 -2 -18 6 -47 6 -71 0 -23 -5 -45 -6 -50 -3 -6 3 -27 8 -47 9 -27 3 -40
-1 -44 -12 -5 -14 -8 -14 -28 0 -14 10 -26 12 -33 6 -6 -5 -41 -6 -84 -1 -41
4 -116 4 -168 0 -52 -4 -103 -4 -114 -2 -10 3 -26 0 -34 -7 -13 -10 -19 -10
-35 5 -18 17 -19 16 -26 -9 -3 -14 -10 -23 -16 -20 -5 3 -4 11 3 20 10 12 3
14 -43 14 -30 0 -59 -5 -66 -12 -8 -8 -15 -8 -26 1 -7 6 -36 11 -62 11 -27 0
-69 1 -94 4 -25 3 -58 1 -75 -5z m634 -36 c-7 -7 -25 -23 -41 -34 l-28 -20 0
25 c0 19 5 26 19 26 10 0 21 7 25 15 3 8 12 12 21 9 12 -5 13 -9 4 -21z m-309
7 c0 -5 -4 -10 -10 -10 -5 0 -10 5 -10 10 0 6 5 10 10 10 6 0 10 -4 10 -10z
m187 -6 c-3 -3 -12 -4 -19 -1 -8 3 -5 6 6 6 11 1 17 -2 13 -5z m293 -3 c0 -5
-7 -14 -15 -21 -12 -10 -15 -10 -15 2 0 8 3 18 7 21 9 10 23 9 23 -2z m-362
-56 c-4 -32 -1 -48 9 -57 12 -10 9 -15 -20 -29 -33 -18 -35 -20 -33 -71 1 -38
-4 -58 -16 -70 -10 -10 -20 -13 -23 -8 -10 15 -25 12 -25 -6 0 -24 -23 -11
-38 22 -24 54 -29 59 -63 64 -31 5 -32 7 -14 16 26 14 43 8 82 -29 41 -39 67
-32 58 17 -4 20 -2 36 4 40 16 10 14 36 -3 30 -9 -3 -15 4 -18 21 -4 21 -2 25
13 20 11 -4 30 3 48 16 25 18 28 25 20 45 -7 19 -5 24 8 24 13 0 15 -8 11 -45z
m-328 9 c0 -8 -4 -12 -10 -9 -5 3 -10 10 -10 16 0 5 5 9 10 9 6 0 10 -7 10
-16z m575 6 c3 -5 22 -10 41 -10 33 0 35 -2 32 -27 -2 -19 -8 -27 -19 -25 -9
1 -24 -7 -34 -18 -14 -15 -15 -23 -6 -34 10 -11 7 -17 -11 -30 l-23 -16 -3 72
c-2 40 -8 78 -14 85 -8 10 -6 13 10 13 12 0 24 -4 27 -10z m-170 -26 c0 -10
-8 -20 -17 -22 -18 -3 -26 27 -11 42 12 11 28 0 28 -20z m555 6 c0 -6 10 -15
23 -19 20 -8 20 -10 4 -16 -10 -4 -23 -3 -30 4 -6 6 -20 11 -31 11 -21 1 -21
1 -2 15 23 18 36 19 36 5z m-184 -37 c-10 -10 -19 5 -10 18 6 11 8 11 12 0 2
-7 1 -15 -2 -18z m-789 -28 c-4 -8 -11 -15 -17 -15 -7 0 -7 6 0 21 13 23 26
19 17 -6z m103 15 c0 -5 -2 -10 -4 -10 -3 0 -8 5 -11 10 -3 6 -1 10 4 10 6 0
11 -4 11 -10z m110 -10 c0 -5 -9 -10 -20 -10 -11 0 -20 5 -20 10 0 6 9 10 20
10 11 0 20 -4 20 -10z m944 -6 c9 -8 14 -20 11 -25 -9 -14 -25 -11 -25 6 0 8
-4 15 -10 15 -5 0 -10 5 -10 10 0 15 16 12 34 -6z m41 6 c3 -5 1 -10 -4 -10
-6 0 -11 5 -11 10 0 6 2 10 4 10 3 0 8 -4 11 -10z m-500 -20 c3 -5 -1 -10 -9
-10 -9 0 -16 5 -16 10 0 6 4 10 9 10 6 0 13 -4 16 -10z m131 -6 c-11 -8 -17
-17 -13 -20 3 -4 0 -16 -8 -28 -8 -11 -15 -31 -15 -43 0 -16 -6 -23 -19 -23
-10 0 -24 -7 -31 -15 -7 -8 -17 -15 -23 -15 -6 0 -1 10 11 23 30 31 28 37 -12
37 -48 0 -52 14 -10 39 42 25 44 25 44 6 0 -20 10 -19 25 2 8 11 10 24 5 33
-7 13 -2 16 28 17 34 1 35 0 18 -13z m-737 -3 c11 -7 9 -11 -8 -20 -26 -14
-61 -6 -61 15 0 16 46 19 69 5z m947 -7 c-3 -9 -6 -21 -6 -28 0 -7 -14 -12
-35 -12 -41 0 -44 10 -12 37 28 23 62 26 53 3z m67 -8 c30 -10 35 -15 22 -20
-16 -6 -65 16 -65 29 0 7 -1 7 43 -9z m124 -23 c-16 -16 -17 -16 -17 3 0 11 3
24 7 28 4 3 11 2 17 -4 7 -7 5 -16 -7 -27z m102 24 c13 -16 5 -27 -21 -27 -10
0 -18 -5 -18 -12 0 -9 -3 -9 -11 -1 -8 8 -7 17 3 32 15 24 31 27 47 8z m-461
-30 c5 -24 -15 -21 -21 4 -3 13 -1 19 6 16 7 -2 13 -11 15 -20z m-838 -2 c11
-13 8 -15 -20 -15 -28 0 -31 2 -20 15 7 8 16 15 20 15 4 0 13 -7 20 -15z m605
-17 c-8 -38 -38 -69 -43 -44 -4 19 25 76 39 76 7 0 8 -12 4 -32z m305 2 c0
-11 -2 -20 -4 -20 -2 0 -11 -3 -20 -6 -11 -4 -16 0 -16 14 0 18 11 29 33 31 4
1 7 -8 7 -19z m55 -20 c3 -5 1 -10 -4 -10 -6 0 -11 5 -11 10 0 6 2 10 4 10 3
0 8 -4 11 -10z m130 0 c3 -5 1 -10 -4 -10 -6 0 -11 5 -11 10 0 6 2 10 4 10 3
0 8 -4 11 -10z m-565 -30 c0 -5 -5 -10 -11 -10 -5 0 -7 5 -4 10 3 6 8 10 11
10 2 0 4 -4 4 -10z m94 -13 c-6 -17 -34 -31 -34 -17 0 11 31 42 36 37 3 -2 2
-11 -2 -20z m526 13 c0 -5 -5 -10 -11 -10 -5 0 -7 5 -4 10 3 6 8 10 11 10 2 0
4 -4 4 -10z m-149 -23 c-13 -13 -26 -3 -16 12 3 6 11 8 17 5 6 -4 6 -10 -1
-17z m-106 -16 c3 -5 1 -12 -5 -16 -5 -3 -10 1 -10 9 0 18 6 21 15 7z m415
-17 c0 -14 -3 -14 -15 -4 -8 7 -15 14 -15 16 0 2 7 4 15 4 8 0 15 -7 15 -16z
m-749 -18 c8 -16 17 -22 30 -19 10 3 19 0 19 -6 0 -14 22 -14 55 1 15 7 25 19
25 32 0 16 3 17 12 8 15 -15 -10 -67 -48 -103 -13 -12 -24 -31 -24 -41 0 -10
-4 -18 -9 -18 -5 0 -17 -3 -26 -7 -15 -5 -16 -1 -10 25 7 34 -9 44 -33 20 -9
-9 -15 -9 -24 0 -9 9 -8 16 5 30 21 23 22 68 2 76 -20 7 -19 26 0 26 9 0 20
-11 26 -24z m194 13 c11 -17 2 -18 -19 -3 -17 12 -17 14 -4 14 9 0 20 -5 23
-11z m225 -5 c0 -8 -4 -12 -10 -9 -5 3 -10 10 -10 16 0 5 5 9 10 9 6 0 10 -7
10 -16z m-70 -30 c0 -12 6 -15 25 -10 22 6 25 3 25 -19 0 -30 -11 -32 -35 -5
-10 11 -29 20 -41 20 -17 0 -22 4 -18 15 8 20 44 19 44 -1z m-62 -16 c18 -18
14 -38 -7 -38 -24 0 -33 13 -25 34 7 19 16 20 32 4z m367 2 c-3 -5 -10 -10
-16 -10 -5 0 -9 5 -9 10 0 6 7 10 16 10 8 0 12 -4 9 -10z m-471 -15 c-4 -8
-11 -15 -16 -15 -6 0 -5 6 2 15 7 8 14 15 16 15 2 0 1 -7 -2 -15z m406 11 c0
-3 -4 -8 -10 -11 -5 -3 -10 -1 -10 4 0 6 5 11 10 11 6 0 10 -2 10 -4z m-110
-24 c0 -13 -12 -22 -22 -16 -10 6 -1 24 13 24 5 0 9 -4 9 -8z m180 -12 c0 -5
-2 -10 -4 -10 -3 0 -8 5 -11 10 -3 6 -1 10 4 10 6 0 11 -4 11 -10z m-430 -10
c0 -5 -4 -10 -10 -10 -5 0 -10 5 -10 10 0 6 5 10 10 10 6 0 10 -4 10 -10z
m201 -43 c-8 -8 -11 -7 -11 4 0 20 13 34 18 19 3 -7 -1 -17 -7 -23z m113 1
c-8 -26 -22 -38 -44 -37 -11 0 -12 2 -2 6 7 3 17 16 22 29 12 31 34 32 24 2z
m-1223 -332 c-13 -15 -51 -28 -51 -17 0 14 24 31 43 31 16 0 17 -3 8 -14z m79
-236 c0 -5 -15 -10 -32 -10 -25 0 -29 3 -18 10 20 13 50 13 50 0z m980 -130
c0 -5 -2 -10 -4 -10 -3 0 -8 5 -11 10 -3 6 -1 10 4 10 6 0 11 -4 11 -10z
m-350 -60 c0 -13 -20 -13 -40 0 -12 8 -9 10 13 10 15 0 27 -4 27 -10z m-170
-31 c0 -10 6 -19 13 -19 21 0 28 12 16 26 -17 20 9 28 36 10 14 -9 25 -20 25
-25 0 -4 -27 -16 -60 -26 -33 -10 -60 -22 -60 -27 0 -4 20 -8 45 -8 25 0 45
-5 45 -10 0 -19 -30 -23 -79 -9 l-48 14 19 52 c14 35 24 50 34 46 8 -3 14 -14
14 -24z m497 25 c-3 -3 -12 -4 -19 -1 -8 3 -5 6 6 6 11 1 17 -2 13 -5z m-375
-76 c-9 -9 -12 -7 -12 12 0 19 3 21 12 12 9 -9 9 -15 0 -24z m-380 5 c15 -13
22 -14 44 -4 22 10 30 9 45 -5 36 -32 16 -74 -24 -50 -23 15 -53 -5 -50 -33 2
-12 -3 -21 -11 -21 -15 0 -28 68 -14 76 19 12 -5 22 -37 17 -36 -6 -44 4 -23
25 17 17 48 15 70 -5z m353 7 c3 -5 -1 -10 -9 -10 -9 0 -16 5 -16 10 0 6 4 10
9 10 6 0 13 -4 16 -10z m105 -20 c0 -5 -4 -10 -10 -10 -5 0 -10 5 -10 10 0 6
5 10 10 10 6 0 10 -4 10 -10z m133 -8 c7 -11 -29 -52 -45 -52 -24 0 -28 11
-11 36 15 23 47 32 56 16z m121 -22 c-6 -6 -18 -8 -28 -4 -15 6 -15 7 1 20 21
15 44 1 27 -16z m-777 2 c15 -9 -17 -50 -35 -44 -15 5 -16 24 0 40 14 14 19
14 35 4z m493 -13 c16 -28 0 -59 -29 -59 -15 0 -32 -5 -39 -12 -9 -9 -12 -9
-12 3 0 8 5 20 10 25 7 7 7 19 2 35 -9 23 -7 24 25 24 21 0 38 -6 43 -16z
m-217 -8 c4 -4 5 -15 1 -24 -5 -15 -8 -15 -32 1 l-25 16 5 -42 c4 -23 2 -42
-3 -42 -5 0 -9 -13 -9 -30 0 -16 -4 -30 -10 -30 -5 0 -10 8 -10 18 0 35 -15
46 -48 34 -26 -9 -31 -8 -40 14 -11 22 -10 23 14 12 20 -9 27 -8 37 6 7 9 21
18 32 20 11 2 21 11 23 22 7 40 12 45 34 39 13 -4 27 -10 31 -14z m-148 -41
c3 -5 1 -10 -4 -10 -6 0 -11 5 -11 10 0 6 2 10 4 10 3 0 8 -4 11 -10z m650 0
c3 -5 1 -10 -4 -10 -6 0 -11 5 -11 10 0 6 2 10 4 10 3 0 8 -4 11 -10z m-705
-39 c-1 -34 -40 -36 -40 -1 0 13 5 17 20 13 11 -3 20 -8 20 -12z m-140 -5 c0
-33 -20 -66 -40 -66 -25 0 -25 5 1 46 22 36 39 44 39 20z m395 0 c19 -8 46
-26 59 -40 l23 -26 26 20 c27 21 47 26 47 11 0 -5 3 -16 6 -24 4 -11 -1 -13
-20 -10 -19 4 -26 1 -26 -11 0 -12 -10 -16 -40 -16 -23 0 -40 5 -40 11 0 8 -4
9 -13 0 -17 -14 -27 -5 -27 24 0 32 -23 47 -57 39 l-28 -7 19 22 c23 25 26 25
71 7z m418 -2 c-10 -26 -83 -47 -83 -24 0 11 55 39 77 40 7 0 10 -7 6 -16z
m-583 -68 c0 -11 -19 -15 -25 -6 -3 5 1 10 9 10 9 0 16 -2 16 -4z m-300 -26
c0 -5 -5 -10 -11 -10 -5 0 -7 5 -4 10 3 6 8 10 11 10 2 0 4 -4 4 -10z m110
-15 c10 -12 10 -15 -4 -15 -9 0 -16 7 -16 15 0 8 2 15 4 15 2 0 9 -7 16 -15z
m571 -6 l24 -21 -25 6 c-14 3 -38 6 -54 6 -28 0 -29 1 -10 15 26 20 38 19 65
-6z m-351 2 c0 -6 -10 -17 -22 -26 -21 -14 -24 -14 -35 2 -10 13 -10 18 0 25
17 11 57 10 57 -1z m740 -1 c0 -5 -4 -10 -10 -10 -5 0 -10 5 -10 10 0 6 5 10
10 10 6 0 10 -4 10 -10z m-900 -21 c0 -11 -4 -17 -10 -14 -5 3 -10 13 -10 21
0 8 5 14 10 14 6 0 10 -9 10 -21z m390 -4 c0 -8 -2 -15 -4 -15 -2 0 -11 -3
-20 -6 -10 -4 -16 -1 -16 9 0 14 13 24 33 26 4 1 7 -6 7 -14z m227 9 c-3 -3
-12 -4 -19 -1 -8 3 -5 6 6 6 11 1 17 -2 13 -5z m-315 -30 c-6 -30 -23 -47 -36
-34 -5 5 -18 10 -28 10 -29 0 -21 20 15 35 39 17 53 14 49 -11z m288 1 c10
-12 10 -15 -4 -15 -9 0 -16 7 -16 15 0 8 2 15 4 15 2 0 9 -7 16 -15z m-706
-22 c4 -9 2 -21 -4 -27 -13 -13 -46 17 -36 33 11 16 33 13 40 -6z m806 8 c0
-12 -20 -25 -27 -18 -7 7 6 27 18 27 5 0 9 -4 9 -9z m-530 -30 c0 -24 -3 -28
-20 -24 -11 3 -18 8 -16 12 1 3 6 14 9 24 10 27 27 20 27 -12z m-10 -165 c0
-3 -4 -8 -10 -11 -5 -3 -10 -1 -10 4 0 6 5 11 10 11 6 0 10 -2 10 -4z m-198
-28 c-7 -7 -12 -8 -12 -2 0 14 12 26 19 19 2 -3 -1 -11 -7 -17z m2 -133 c-7
-17 -20 -20 -28 -6 -7 10 3 21 20 21 8 0 11 -6 8 -15z m137 1 c-20 -24 -51
-27 -51 -5 0 15 7 19 31 19 26 0 29 -3 20 -14z m-151 -96 c0 -5 -4 -10 -10
-10 -5 0 -10 5 -10 10 0 6 5 10 10 10 6 0 10 -4 10 -10z m205 0 c3 -5 -1 -10
-9 -10 -9 0 -16 5 -16 10 0 6 4 10 9 10 6 0 13 -4 16 -10z m-107 -68 c2 -7 -2
-10 -12 -6 -9 3 -16 11 -16 16 0 13 23 5 28 -10z m-104 -11 c7 -10 -22 -37
-30 -28 -9 8 3 37 15 37 5 0 12 -4 15 -9z m60 -17 c9 -23 8 -24 -14 -24 -19 0
-27 20 -13 33 11 11 20 8 27 -9z m70 -20 c17 -6 22 -24 8 -24 -5 0 -17 7 -28
15 -19 15 -8 20 20 9z m-304 -64 c0 -5 -4 -10 -9 -10 -6 0 -13 5 -16 10 -3 6
1 10 9 10 9 0 16 -4 16 -10z m125 0 c3 -5 -3 -10 -14 -10 -12 0 -21 5 -21 10
0 6 6 10 14 10 8 0 18 -4 21 -10z m153 -88 c2 -7 -3 -12 -12 -12 -9 0 -16 7
-16 16 0 17 22 14 28 -4z m72 -42 c0 -5 -4 -10 -10 -10 -5 0 -10 5 -10 10 0 6
5 10 10 10 6 0 10 -4 10 -10z m-120 -72 c0 -17 -30 -7 -40 12 -17 32 0 47 21
19 10 -13 19 -27 19 -31z m-170 7 c0 -14 -2 -25 -4 -25 -2 0 -11 11 -20 25
-16 24 -16 25 4 25 15 0 20 -7 20 -25z m223 -81 c-8 -21 -23 -17 -23 6 0 13 5
18 14 14 8 -3 12 -12 9 -20z m-46 -4 c13 0 13 -3 3 -15 -17 -20 -27 -19 -41 7
-10 18 -9 20 6 15 9 -4 24 -7 32 -7z m-77 -65 c7 -8 18 -15 25 -15 11 0 10 -6
-1 -30 -9 -16 -17 -30 -20 -30 -5 0 -34 69 -34 81 0 14 16 11 30 -6z"/>
<path d="M3215 3820 c-3 -5 1 -10 9 -10 9 0 16 5 16 10 0 6 -4 10 -9 10 -6 0
-13 -4 -16 -10z"/>
<path d="M1585 3910 c-11 -5 -36 -6 -55 -3 -43 6 -81 -21 -110 -76 -15 -30
-18 -55 -16 -117 1 -44 6 -85 10 -92 4 -7 4 -16 1 -22 -11 -17 -14 -164 -3
-183 7 -13 6 -23 -1 -30 -14 -14 -14 -76 0 -133 8 -31 8 -48 1 -57 -15 -18
-10 -181 6 -200 9 -10 10 -17 2 -22 -5 -3 -10 -22 -10 -41 0 -26 4 -34 18 -34
10 0 27 -7 38 -16 19 -15 19 -15 -1 -10 -28 8 -49 -8 -43 -32 4 -15 2 -19 -8
-15 -19 7 -18 -27 1 -41 14 -10 14 -15 2 -41 -7 -17 -13 -59 -13 -95 1 -60 3
-65 24 -68 19 -3 22 1 22 32 0 34 1 34 31 26 28 -8 31 -7 26 11 -7 27 35 48
57 30 15 -13 11 -45 -5 -35 -5 3 -9 -4 -9 -15 0 -12 -7 -21 -16 -21 -13 0 -12
-5 6 -30 19 -26 27 -30 69 -30 47 0 48 0 47 -32 -2 -49 -14 -63 -36 -43 -22
20 -48 14 -79 -19 -19 -20 -21 -28 -12 -44 20 -38 -9 -36 -46 1 -52 54 -103
66 -63 15 17 -23 18 -27 5 -38 -9 -7 -15 -29 -15 -51 0 -37 1 -38 24 -28 16 8
30 8 42 1 16 -9 12 -12 -23 -21 -22 -6 -44 -18 -47 -26 -7 -19 46 -49 61 -34
6 6 14 5 23 -6 11 -13 15 -13 29 -2 9 7 29 18 44 25 23 10 29 9 33 -2 8 -20
-16 -63 -25 -47 -8 13 -41 5 -41 -10 0 -14 -68 -11 -72 3 -3 9 -11 10 -28 2
-22 -10 -24 -16 -21 -65 1 -30 7 -60 13 -67 7 -8 7 -16 1 -25 -6 -6 -13 -33
-15 -59 -5 -40 -2 -50 19 -70 24 -22 24 -22 3 -30 -20 -7 -20 -9 -6 -24 21
-21 20 -37 -1 -30 -17 5 -18 -5 -17 -122 1 -70 3 -130 4 -134 1 -5 3 -12 4
-17 0 -5 4 -13 8 -17 4 -4 2 -12 -5 -18 -16 -14 -6 -376 12 -422 11 -29 18
-33 75 -44 42 -8 125 -10 247 -6 180 5 239 13 271 38 18 15 31 95 16 100 -5 2
-6 25 -1 58 12 80 5 1189 -7 1170 -8 -12 -10 -11 -10 5 0 12 4 25 10 31 14 14
16 1361 1 1396 -13 33 -68 70 -94 64 -11 -3 -43 -1 -73 4 -30 5 -66 5 -83 0
-19 -5 -44 -4 -67 3 -31 9 -37 9 -45 -6 -9 -15 -13 -15 -37 -3 -16 8 -35 10
-47 6z m-105 -160 c0 -5 -2 -10 -4 -10 -3 0 -8 5 -11 10 -3 6 -1 10 4 10 6 0
11 -4 11 -10z m292 -282 c-7 -7 -12 -22 -12 -35 0 -16 -6 -23 -20 -23 -11 0
-20 7 -20 15 0 18 35 55 52 55 9 0 9 -3 0 -12z m-122 -2 c0 -3 -4 -8 -10 -11
-5 -3 -10 -1 -10 4 0 6 5 11 10 11 6 0 10 -2 10 -4z m285 -46 c3 -6 -1 -10 -9
-10 -9 0 -16 -4 -16 -10 0 -5 -4 -10 -10 -10 -5 0 -10 14 -10 30 0 27 2 30 19
20 11 -5 23 -15 26 -20z m-345 0 c9 -18 8 -20 -15 -20 -23 0 -24 2 -13 20 7
11 14 20 15 20 1 0 7 -9 13 -20z m100 -10 c9 -16 8 -22 -4 -26 -21 -8 -36 3
-36 27 0 25 26 25 40 -1z m57 -74 c-3 -20 0 -39 6 -45 15 -16 -29 -52 -58 -48
-26 3 -51 54 -38 76 9 16 70 51 87 51 5 0 6 -15 3 -34z m-185 12 c-9 -9 -15
-9 -24 0 -9 9 -7 12 12 12 19 0 21 -3 12 -12z m63 1 c11 -17 -1 -21 -15 -4 -8
9 -8 15 -2 15 6 0 14 -5 17 -11z m294 -33 c10 -11 10 -20 1 -36 -14 -26 -15
-25 -23 18 -7 34 3 41 22 18z m-39 -92 c0 -8 -10 -14 -25 -14 -28 0 -29 3 -14
31 8 16 13 18 25 8 8 -6 14 -18 14 -25z m-269 2 c-10 -12 -6 -15 19 -21 32 -7
33 -9 21 -40 -7 -19 -10 -18 -39 12 -37 37 -42 63 -11 63 17 0 19 -3 10 -14z
m139 0 c0 -2 3 -11 6 -20 5 -12 0 -16 -20 -16 -28 0 -29 1 -20 24 5 14 34 24
34 12z m-215 -26 c3 -5 1 -10 -4 -10 -6 0 -11 5 -11 10 0 6 2 10 4 10 3 0 8
-4 11 -10z m275 -30 c0 -5 -4 -10 -10 -10 -5 0 -10 5 -10 10 0 6 5 10 10 10 6
0 10 -4 10 -10z m-250 -10 c0 -5 -2 -10 -4 -10 -3 0 -8 5 -11 10 -3 6 -1 10 4
10 6 0 11 -4 11 -10z m148 -31 c-9 -6 -14 -3 -16 8 -2 8 2 19 10 24 9 6 14 3
16 -8 2 -8 -2 -19 -10 -24z m76 6 c3 -9 0 -15 -9 -15 -8 0 -15 7 -15 15 0 8 4
15 9 15 5 0 11 -7 15 -15z m-256 -7 c-6 -17 -44 -19 -58 -3 -11 13 -7 15 25
15 23 0 35 -4 33 -12z m210 -39 c-2 -6 -8 -10 -13 -10 -5 0 -11 4 -13 10 -2 6
4 11 13 11 9 0 15 -5 13 -11z m-38 -19 c0 -5 -4 -10 -10 -10 -5 0 -10 5 -10
10 0 6 5 10 10 10 6 0 10 -4 10 -10z m-140 -9 c0 -5 -5 -11 -10 -13 -14 -4 -1
-68 14 -68 19 0 56 30 56 46 0 17 -12 18 -28 2 -8 -8 -12 -8 -12 -1 0 22 28
35 49 23 12 -6 21 -7 21 -3 0 5 15 8 33 8 22 0 39 -8 55 -26 12 -15 22 -31 22
-36 0 -5 -22 -15 -50 -22 -27 -7 -52 -17 -56 -22 -3 -5 -14 -14 -26 -20 -15
-8 -19 -8 -13 0 10 16 -13 41 -32 34 -8 -3 -13 -13 -10 -24 7 -26 -15 -24 -31
2 -10 16 -17 18 -25 10 -6 -6 -17 -11 -25 -11 -10 0 -8 9 8 35 17 27 19 38 10
55 -9 17 -7 22 12 30 30 12 38 12 38 1z m225 -1 c3 -5 2 -10 -4 -10 -6 0 -8
-8 -5 -17 5 -16 4 -16 -10 1 -15 19 -13 36 4 36 5 0 12 -4 15 -10z m-325 -100
c-18 -11 -24 -6 -16 16 5 14 9 15 19 5 9 -9 9 -14 -3 -21z m234 -87 c-67 -124
-80 -144 -87 -136 -4 3 -7 -1 -7 -10 0 -20 -2 -20 -35 -5 -26 12 -32 23 -15
33 6 4 5 13 -2 24 -9 14 -7 23 5 42 10 13 17 31 17 40 0 18 73 45 78 29 2 -6
10 -10 18 -10 9 0 12 8 8 28 -5 24 -2 29 28 38 18 6 34 12 36 13 2 0 -18 -38
-44 -86z m96 -354 c0 -22 -5 -29 -20 -29 -16 0 -20 -7 -20 -30 0 -16 5 -30 10
-30 6 0 10 8 10 19 0 24 39 35 60 17 22 -19 72 -13 81 10 6 17 8 16 18 -9 15
-39 14 -42 -14 -61 -24 -16 -25 -16 -25 4 0 11 -7 20 -15 20 -18 0 -68 -50
-59 -59 3 -3 13 4 23 15 17 21 17 21 30 -19 9 -30 9 -42 1 -47 -8 -5 -3 -14
15 -28 34 -27 27 -67 -11 -59 -27 5 -33 -7 -8 -17 26 -10 13 -51 -18 -54 -25
-3 -27 0 -30 40 -3 38 -6 43 -28 44 -28 1 -70 14 -70 22 0 2 11 15 25 28 26
24 27 23 38 -16 3 -11 7 -10 16 7 8 15 8 28 2 40 -5 10 -12 30 -16 46 -5 26
-30 38 -37 18 -3 -11 -78 9 -78 21 0 3 12 16 26 27 25 20 28 51 4 51 -5 0 -10
13 -10 28 0 27 2 29 50 30 49 1 50 0 50 -29z m98 19 c-7 -19 -43 -21 -58 -3
-11 13 -8 15 25 15 25 0 35 -4 33 -12z m-250 -166 l3 -47 -25 24 c-16 15 -26
35 -26 51 0 23 4 27 23 23 18 -4 22 -12 25 -51z m-83 -13 c11 -17 -1 -21 -15
-4 -8 9 -8 15 -2 15 6 0 14 -5 17 -11z m389 -20 c-10 -16 -24 -9 -24 12 0 18
2 19 15 9 8 -7 12 -16 9 -21z m-259 -32 c1 -29 28 -63 56 -72 25 -8 24 -26 -1
-53 -24 -25 -45 -29 -37 -7 5 11 0 13 -25 8 -24 -5 -30 -3 -26 8 3 8 16 14 29
15 39 2 40 3 29 24 -12 22 -40 26 -57 9 -13 -13 -43 -5 -43 10 0 6 11 13 25
17 20 5 24 11 19 29 -3 13 -3 29 1 35 11 19 30 5 30 -23z m-127 -5 c6 -18 -15
-14 -22 4 -4 10 -1 14 6 12 6 -2 14 -10 16 -16z m392 -1 c0 -6 -4 -13 -10 -16
-5 -3 -10 1 -10 9 0 9 5 16 10 16 6 0 10 -4 10 -9z m-300 -148 c0 -3 -7 -15
-17 -25 -15 -17 -14 -18 15 -24 18 -4 32 -8 32 -10 0 -2 -8 -17 -18 -34 -19
-31 -32 -30 -32 2 0 12 -7 18 -21 18 -18 0 -21 -5 -17 -30 6 -38 -5 -38 -48 0
-36 31 -31 45 10 34 17 -4 27 -2 31 7 21 62 26 69 45 69 11 0 20 -3 20 -7z
m-128 -25 c-8 -8 -17 -8 -34 0 -22 10 -21 11 12 11 26 1 31 -2 22 -11z m-62
-8 c0 -5 -2 -10 -4 -10 -3 0 -8 5 -11 10 -3 6 -1 10 4 10 6 0 11 -4 11 -10z
m304 -25 c3 -9 0 -15 -9 -15 -8 0 -15 7 -15 15 0 8 4 15 9 15 5 0 11 -7 15
-15z m94 -65 c0 -22 -4 -40 -8 -40 -5 0 -15 -3 -24 -6 -11 -4 -16 0 -16 13 0
11 -10 25 -22 30 -22 10 -22 11 12 26 53 23 59 21 58 -23z m-128 -14 c0 -3 -4
-8 -10 -11 -5 -3 -10 -1 -10 4 0 6 5 11 10 11 6 0 10 -2 10 -4z m50 -6 c0 -5
-4 -10 -10 -10 -5 0 -10 5 -10 10 0 6 5 10 10 10 6 0 10 -4 10 -10z m-98 -22
c-9 -9 -15 -9 -24 0 -9 9 -7 12 12 12 19 0 21 -3 12 -12z m-122 -35 c0 -7 -9
-13 -20 -13 -11 0 -20 -7 -20 -15 0 -10 -10 -15 -32 -15 l-33 1 23 19 c13 11
21 23 19 27 -3 4 10 8 29 9 22 0 34 -4 34 -13z m-30 -105 c0 -34 14 -50 36
-41 17 6 17 5 5 -10 -21 -26 -44 -21 -81 18 -34 35 -36 62 -2 32 25 -23 35
-21 29 3 -3 11 -1 20 4 20 5 0 9 -10 9 -22z m130 1 c0 -5 -4 -9 -10 -9 -5 0
-10 7 -10 16 0 8 5 12 10 9 6 -3 10 -10 10 -16z m93 -13 l-15 -28 -14 27 c-8
15 -14 28 -14 29 0 0 13 1 29 1 29 0 29 0 14 -29z m27 -35 c0 -6 -4 -13 -10
-16 -5 -3 -10 1 -10 9 0 9 5 16 10 16 6 0 10 -4 10 -9z m-339 -34 c-10 -9 -11
-8 -5 6 3 10 9 15 12 12 3 -3 0 -11 -7 -18z m139 -48 c0 -14 -64 2 -77 19 -7
9 -13 12 -13 7 0 -5 -5 -4 -11 2 -6 6 -9 16 -5 21 6 10 106 -35 106 -49z m97
46 c-4 -8 5 -22 21 -34 30 -22 29 -26 -11 -36 -21 -6 -27 -4 -27 10 0 27 -25
11 -28 -18 -3 -25 -28 -37 -44 -21 -12 11 57 114 76 114 12 0 16 -5 13 -15z
m73 1 c0 -9 -7 -12 -21 -9 -16 4 -17 8 -7 14 19 13 28 11 28 -5z m-6 -51 c-4
-8 -8 -15 -10 -15 -2 0 -4 7 -4 15 0 8 4 15 10 15 5 0 7 -7 4 -15z m-184 -59
c0 -3 -4 -8 -10 -11 -5 -3 -10 -1 -10 4 0 6 5 11 10 11 6 0 10 -2 10 -4z
m-100 -52 c0 -8 -4 -12 -10 -9 -5 3 -10 13 -10 21 0 8 5 12 10 9 6 -3 10 -13
10 -21z m135 -34 c-3 -5 -17 -10 -31 -10 -14 0 -22 4 -19 10 3 6 17 10 31 10
14 0 22 -4 19 -10z m-5 -52 c0 -13 -23 -5 -28 10 -2 7 2 10 12 6 9 -3 16 -11
16 -16z m50 -57 c0 -12 -28 -22 -34 -12 -3 5 -3 11 1 15 9 9 33 7 33 -3z m-65
-10 c3 -5 1 -12 -4 -15 -5 -3 -11 1 -15 9 -6 16 9 21 19 6z"/>
<path d="M1686 3303 c-9 -23 12 -43 24 -23 5 8 10 21 10 28 0 18 -27 15 -34
-5z"/>
<path d="M1608 2847 c-3 -16 0 -31 8 -38 25 -20 32 -4 15 30 l-18 34 -5 -26z"/>
<path d="M2790 3485 c0 -10 10 -15 33 -15 30 1 31 1 13 15 -25 19 -46 19 -46
0z"/>
<path d="M2835 3420 c-6 -19 -8 -19 -36 -4 -53 27 -62 13 -21 -31 34 -36 37
-38 40 -17 2 12 10 22 18 22 8 0 14 10 14 25 0 30 -6 32 -15 5z"/>
<path d="M3564 3385 c-4 -9 -4 -18 -2 -21 9 -8 39 8 35 19 -6 18 -27 20 -33 2z"/>
<path d="M2700 3380 c0 -5 7 -10 15 -10 8 0 15 5 15 10 0 6 -7 10 -15 10 -8 0
-15 -4 -15 -10z"/>
<path d="M2890 3355 c-7 -8 -25 -15 -41 -15 -38 0 -43 -13 -14 -40 23 -22 26
-22 43 -7 10 10 22 17 25 17 4 0 7 -27 7 -61 0 -54 -2 -60 -17 -54 -81 33 -89
32 -73 -9 10 -27 15 -28 67 -9 6 3 19 -9 27 -26 19 -36 20 -52 3 -31 -7 8 -27
16 -45 17 -32 2 -33 1 -30 -29 3 -34 37 -63 45 -40 4 10 9 7 20 -8 12 -17 12
-24 2 -36 -10 -13 -14 -13 -29 1 -26 23 -35 18 -36 -20 0 -26 3 -34 13 -30 7
3 21 8 30 12 12 5 15 2 11 -8 -3 -8 0 -23 8 -33 18 -26 40 -7 55 47 9 35 8 42
-9 59 -18 19 -18 22 -4 50 12 25 13 35 3 50 -10 16 -9 24 4 45 21 32 12 87
-17 107 -16 12 -19 18 -10 28 8 11 6 17 -8 25 -14 10 -21 9 -30 -2z"/>
<path d="M2730 3255 c0 -21 -5 -25 -31 -25 -36 0 -35 -19 1 -37 13 -6 27 -19
32 -27 12 -22 23 -20 25 5 1 11 -5 23 -13 26 -18 7 -18 33 0 33 7 0 19 6 25
13 8 11 5 16 -14 25 -23 11 -25 10 -25 -13z"/>
<path d="M2624 3256 c-3 -9 -12 -16 -20 -16 -15 0 -19 -35 -5 -44 12 -8 38 15
45 41 8 25 -11 42 -20 19z"/>
<path d="M2840 3250 c0 -5 5 -10 11 -10 5 0 7 5 4 10 -3 6 -8 10 -11 10 -2 0
-4 -4 -4 -10z"/>
<path d="M2587 3114 c-12 -12 -8 -51 7 -63 11 -9 123 -10 146 -1 3 1 8 2 13 1
9 -1 9 11 -2 28 -5 7 -29 15 -54 17 -38 3 -46 0 -50 -16 -8 -30 -26 -24 -24 7
2 27 -20 43 -36 27z"/>
<path d="M2795 3070 c3 -5 8 -10 11 -10 2 0 4 5 4 10 0 6 -5 10 -11 10 -5 0
-7 -4 -4 -10z"/>
<path d="M2610 3000 c0 -13 11 -13 30 0 12 8 11 10 -7 10 -13 0 -23 -4 -23
-10z"/>
<path d="M2695 3000 c-4 -6 -3 -16 3 -22 13 -13 23 4 13 21 -7 10 -10 10 -16
1z"/>
<path d="M2780 3000 c0 -5 5 -10 10 -10 6 0 10 5 10 10 0 6 -4 10 -10 10 -5 0
-10 -4 -10 -10z"/>
<path d="M2552 2959 c4 -27 64 -55 72 -33 4 9 -3 18 -18 24 -13 5 -27 14 -31
19 -11 19 -27 12 -23 -10z"/>
<path d="M2662 2938 c3 -8 27 -14 58 -16 30 -2 60 -8 67 -14 9 -7 14 -6 19 6
5 13 9 14 20 5 8 -7 17 -9 21 -6 3 4 -10 14 -30 22 -45 19 -161 21 -155 3z"/>
<path d="M2940 2899 c0 -5 5 -7 10 -4 6 3 10 8 10 11 0 2 -4 4 -10 4 -5 0 -10
-5 -10 -11z"/>
<path d="M2880 2870 c0 -5 11 -10 25 -10 14 0 25 5 25 10 0 6 -11 10 -25 10
-14 0 -25 -4 -25 -10z"/>
<path d="M2910 2786 c0 -9 -8 -16 -18 -16 -19 0 -62 -39 -62 -57 0 -18 39 -46
56 -39 14 5 14 9 3 22 -11 14 -10 19 6 33 40 33 47 47 30 61 -12 10 -15 10
-15 -4z"/>
<path d="M3290 2750 c0 -5 7 -7 15 -4 8 4 15 8 15 10 0 2 -7 4 -15 4 -8 0 -15
-4 -15 -10z"/>
<path d="M1433 2534 c-13 -12 -23 -26 -23 -33 0 -14 32 -15 46 -1 8 8 19 7 38
-1 31 -14 44 -6 26 16 -10 12 -9 15 6 15 13 0 15 3 7 11 -20 20 -76 16 -100
-7z"/>
<path d="M1487 2449 c7 -7 15 -10 18 -7 3 3 -2 9 -12 12 -14 6 -15 5 -6 -5z"/>
</g>
</svg>
