<svg xmlns="http://www.w3.org/2000/svg" viewBox="0 0 1281 288" xmlns:xlink="http://www.w3.org/1999/xlink">
  <title>
    logo-ca
  </title>
  <defs>
    <path id="a" d="M86.265.403H0v103.93h86.265V.403z"/>
  </defs>
  <g fill="none" fill-rule="evenodd">
    <g transform="translate(283 84.027)">
      <mask id="b" fill="#fff">
        <use xlink:href="#a"/>
      </mask>
      <path fill="#82BE28" d="M72.78 65.842c-3.834-2.906-7.78-1.947-11.28.99-6.667 5.59-12.467 7.02-17.824 6.26-7.225-1.02-16-7.306-16-20.043 0-12.736 9.175-20.76 16.707-21.43 4.704-.415 8.002.61 11.302 2.425 3.502 1.925 5.584 4.182 7.803 6.263 2.916 2.734 7.546 2.465 11.517-.056 5.183-3.3 9.644-10.998 10.838-16.237 1.18-5.18 0-8.59-4.948-10.673-3.088-1.3-5.155-2.293-7.015-3.415C66.867 5.71 58.417-.036 42.968.43 18.854 1.162-.002 24.862-.002 53.62c0 28.763 18.852 51.204 42.97 50.704 8.77-.185 15.188-2.563 20.728-5.157 4.417-2.064 6.542-2.867 11.223-4.294 4.24-1.297 7.358-4.187 6.858-10.8-.435-5.812-4.88-15.103-8.998-18.23" mask="url(#b)"/>
    </g>
    <path fill="#2D8C3C" d="M388.313 151.14c-8.548 0-10.348-8.622-7.967-16.705 2.715-9.194 5.64-10.368 7.967-10.368 2.325 0 5.252 1.174 7.967 10.368 2.384 8.083.58 16.706-7.967 16.706m46.63 25.676c-.51-2.75-2.378-5.695-3.724-8.06-1.417-2.466-2.757-5.1-3.97-8.125-3.68-9.185-5.81-16.766-9.002-30.84-2.575-11.36-5.67-26.905-6.77-32.104-1.274-6.01-4.095-9.762-7.622-11.387-2.01-.923-4.884-1.143-8.372-1.183-2.58-.025-4.835-.017-7.17-.017-2.334 0-4.59-.008-7.17.017-3.496.04-6.36.26-8.375 1.182-3.53 1.624-6.35 5.375-7.625 11.386l-.052.264c3.928 2.112 4.826 5.364 3.748 10.093-1.19 5.24-5.65 12.937-10.835 16.236-3.97 2.52-8.6 2.79-11.517.053-2.22-2.08-4.302-4.338-7.802-6.262-3.3-1.813-6.598-2.84-11.303-2.423-7.53.67-16.71 8.695-16.71 21.428 0 12.737 8.776 19.024 16.004 20.044 5.354.756 11.157-.67 17.824-6.264 3.5-2.933 7.447-3.894 11.28-.986 4.117 3.127 8.563 12.417 9 18.228.497 6.616-2.618 9.506-6.86 10.802-4.68 1.425-6.807 2.23-11.225 4.292-.18.088-.37.165-.555.252 1.515 2.335 4.46 3.57 8.572 3.853 4.687.32 7.194.298 13.704.158 5.392-.118 9.16-2.538 10.695-6.162 1.103-2.6 1.547-4.63 3.003-6.444 1.606-1.99 3.267-2.745 6.2-2.745 2.934 0 4.59.755 6.198 2.744 1.462 1.812 1.9 3.842 3.01 6.443 1.535 3.624 5.298 6.044 10.692 6.162 6.513.14 13.06.06 17.538-.158 3.382-.166 5.15-.844 6.76-2.317 1.872-1.715 3.068-4.763 2.432-8.164"/>
    <path fill="#000" d="M990.07 171.386c-3.853 0-6.99-3.137-6.99-6.98 0-3.858 3.137-6.99 6.99-6.99 3.864 0 7 3.132 7 6.99 0 3.843-3.136 6.98-7 6.98zm0-15.494c-4.69 0-8.512 3.816-8.512 8.514 0 4.683 3.82 8.503 8.513 8.503 4.7 0 8.52-3.82 8.52-8.504 0-4.698-3.82-8.514-8.52-8.514zm-2.118 4.7h2.863c.554 0 1.02.135 1.383.404.36.256.532.61.532 1.078 0 .436-.132.713-.51 1.073-.343.33-.872.49-1.574.49h-2.694v-3.045zm5.88 3.034c.325-.48.485-1 .485-1.534 0-.686-.283-1.335-.862-1.914-.57-.582-1.467-.884-2.64-.884h-4.36v10.118h1.497v-4.442h1.62l2.976 4.442h1.784l-2.984-4.476c1.37-.137 2.225-.903 2.484-1.31zm-293.26-46.257c3.396-.16 5.742.698 7.79 1.9v13.873c-2.713-1.43-5.013-2.4-8.955-2.166-6.044.358-10.19 5.687-10.19 11.33v30.854h-15.315v-54.77h13.788v8.755c2.15-5.447 7.36-9.52 12.882-9.776zm35.17 28.644l8.984-28.783 8.963 28.784H735.74zm-.523-45.52l-22.666 72.667h14.734l4.756-15.233h25.366l4.756 15.234h14.74l-22.673-72.667H735.22zm113.307 42.592c.47-14.368 6.613-16.717 10.594-16.717 3.49 0 5.833 2.53 5.833 6.295 0 5.896-6.347 9.72-16.426 10.42zm29.264-10.644c0-14.106-11.1-16.2-17.68-16.2-18.344 0-26.682 16.017-26.682 30.91 0 18.46 8.53 27.83 25.366 27.83 7.702 0 13.884-2.472 17.276-4.312l-.048-11.873c-4.284 2.99-10.474 5.137-14.96 5.137-6.352 0-12.004-3.69-12.535-12.48 15.648-.826 29.264-5.51 29.264-19.012zM810.936 179.1c-.18 5.152-.498 14.16-8.033 14.16-3.944 0-6.494-2.785-6.494-7.087 0-7.058 4.908-14.714 14.527-19.22h.01c.036 1.45.168 6.998-.01 12.146zm-18.088-33.496c0-12.452 5.144-22.543 17.645-18.053v24.59c0 6.257-2.763 8.714-7.524 8.714-4.764 0-10.12-2.788-10.12-15.25zm32.99-25.346c-8.9-3.243-15.577-3.98-21.175-3.98-17.63 0-27.02 11.876-27.02 28.252 0 14.007 8.794 22.824 18.643 24.665-7.638 4.77-13.218 11.516-13.218 20.178 0 9.117 7.157 14.224 18.476 14.224 15.216 0 22.483-9.79 23.676-24.315.666-8.12.618-14.327.618-17.412v-41.612zm132.316-1.914H971.9v11.728h-13.747v20.23c0 3.76-.008 7.03.83 9.138 1.178 2.958 3.64 4.383 7.32 4.383 1.892 0 4.18-.88 5.596-1.508l-.007 10.45c-3.065 1.26-7.07 2.218-11.298 2.218-10.943 0-15.245-3.936-16.862-10.067-1.133-4.338-1-13.18-1-21.008v-43.415h15.42v17.85zm-369.593 46.62c-1.967 0-5.238-.477-7.048-1.66-.127-5.42-.21-24.832 0-29.73.167-4.06 3.067-7.095 7.154-7.095 10.234 0 10.234 13.852 10.234 19.07 0 9.593-1.237 19.415-10.34 19.415zm5.053-48.72c-4.4 0-8.43 1.293-12.1 3.942v-19.693h-15.364v70.296c5.01 2.38 14.18 4.193 21.527 4.193 17.322 0 26.46-11.05 26.46-31.945 0-17.534-7.1-26.795-20.524-26.795zM933.09 134.82v38.324h-15.306v-33.622c0-3.92-1.11-9.745-7.494-9.745-5.208 0-8.292 4.897-8.292 10.978v32.388h-15.43l.04-54.802h13.92v8.22c3.776-7.452 9.54-10.32 15.867-10.32 10.627 0 16.696 6.25 16.696 18.578zM541.363 179.1c-.175 5.152-.494 14.16-8.027 14.16-3.944 0-6.496-2.785-6.496-7.087 0-7.058 5.636-15.56 14.522-19.22h.02c.028 1.45.166 6.998-.02 12.146zm14.915-60.71h-15.352v33.75c0 6.257-2.755 8.714-7.524 8.714-4.75 0-7.443-2.808-7.443-8.713v-33.75H510.61v24.553c0 6.025.055 11.7 1.042 15.396 1.615 6.033 6.238 10.063 14.818 11.03-7.507 4.746-12.96 11.43-12.96 20.003 0 9.117 7.15 14.224 18.468 14.224 15.207 0 22.48-9.79 23.68-24.315.67-8.12.62-14.327.62-17.412v-43.48zm-61.32 35.804l11.258 8.35c-5.792 8.058-14.545 12.25-24.345 12.25-17.42 0-31.54-13.14-31.54-37.937 0-23.743 14.12-37.92 31.54-37.92 9.675 0 18.348 4.367 24.126 12.33l-11.184 8.297c-3.252-4.723-7.823-7.328-12.546-7.328-8.886 0-16.105 9.213-16.105 24.62 0 16.103 7.22 24.616 16.106 24.616 4.79 0 9.433-2.484 12.692-7.278zm140.866-11.108c.48-14.368 6.617-16.717 10.588-16.717 3.493 0 5.837 2.53 5.837 6.295 0 5.896-6.357 9.72-16.424 10.42zm29.255-10.644c0-14.106-11.07-16.2-17.673-16.2-18.34 0-26.687 16.017-26.687 30.91 0 18.46 8.544 27.83 25.36 27.83 7.72 0 13.884-2.472 17.28-4.312l-.053-11.873c-4.283 2.99-10.47 5.137-14.938 5.137-6.36 0-12-3.69-12.544-12.48 15.64-.826 29.255-5.51 29.255-19.012z"/>
  </g>
</svg>
