<svg xmlns="http://www.w3.org/2000/svg" viewBox="0 0 1281 288" xmlns:xlink="http://www.w3.org/1999/xlink">
  <title>
    logo-yahoo
  </title>
  <defs>
    <path id="a" d="M1.873 56.842H34.08V1.384H1.872v55.458z"/>
    <path id="c" d="M35.79 93.464V.526H1.59v92.938h34.2z"/>
  </defs>
  <g fill="none" fill-rule="evenodd">
    <g transform="translate(691.58 163.317)">
      <mask id="b" fill="#fff">
        <use xlink:href="#a"/>
      </mask>
      <path fill="#F03" d="M33.776 4.584c-1.484.353-6.945 2.225-8.545 2.677-.16 5.04-.974 27.55-.974 27.55-.442 10.48-4.996 17.422-17.042 22.033l-4.352-1.07c5.878-3.493 8.46-6.554 9.206-9.107 1.203-3.306 1.807-10.962 1.807-25.08 0 0-.137-10.65-.4-14.242C11.67 7.05 4.265 5.24 1.978 4.73l-.105-3.346c4.72.14 15.02.288 19.073.288 4.06 0 8.998-.202 13.133-.288l-.304 3.2z" mask="url(#b)"/>
    </g>
    <path fill="#F03" d="M917.63 174.74c-.88.208-3.406.787-5.63 1.26-.136 3.632.28 30.37.328 36.756 0 .918-1.028 1.388-1.86.556-5.787-5.657-24.22-26.54-30.36-34.113-.016 4.73.24 23.76.287 27.287 2.307.638 7.657 1.916 8.648 2.116l.22 3.806c-4.658-.05-20.053-.035-20.335 0l.06-3.694c1.99-.835 3.874-1.526 5.668-2.23.242-2.23.213-28.565.225-30.256-1.52-.14-4.555-.22-6.647-.318v-4.58c2.524-.047 10.332-.026 14.612 0 5.323 6.052 18.068 20.267 24.533 27.494.065-6.103-.354-20.392-.44-22.857-1.1-.203-3.606-.45-6.366-1.022l-.358-3.594c1.09.1 8.04.21 9.335.21 1.298 0 7.087-.35 8.285-.448l-.206 3.624zM808.336 185.447c0 5.07-4.72 7.17-9.868 7.998v3.576c10.847-1.095 17.767-5.41 17.767-11.76v-.304c0-7.387-4.906-13.798-16.48-14.027 0 0-4.162-.167-6.57-.167H777.59l.672 4.058c2.175.24 5.053.48 6.878.606.166 5.073.68 26.002.335 31.94-1.238.272-5.335 1.1-6.897 1.49l-.385 3.553c1.545-.1 23.91-.096 25.558 0l-.195-3.064c-1.594-.426-7.34-1.466-8.8-1.82-.198-1.4-.604-31.014-.514-32.3 2.323 0 6.572.105 8.418.595 4.427 1.18 5.678 5.955 5.678 8.945M506.762 90.528c-2.943.286-15.173 3.025-19.288 3.905-4.405 1.18-46.66 34.232-49.3 41.866-.587 2.647 0 31.068 0 31.068l23.885 1.6-.84 7.882c-3.44-.24-25.603-.196-39.496-.196-7.044 0-28.54.788-35.796.577l.904-7.513c4.53.38 11.442-.33 15.677-1.46 4.235-1.125 7.26-2.81 7.26-7.057v-24.66c-1.467-4.4-36.608-48.644-45.705-55.688-2.642-.888-19.956-2.775-24.065-3.65l.855-7.407h80.19l-1.16 6.817c-3.52.882-20.493 1.21-24.896 2.38 11.448 17.03 29.56 38.953 35.435 47.473 3.228-4.7 33.956-26.21 34.836-32.956-4.403-.877-18.995-2.982-21.336-2.982l-1.393-7.545h69.238l-5.006 7.545zM677.56 154.806c-12.635-.75-34.805-.438-47.877 0l.773-6.686c1.968-.198 12.3-1.834 14.917-2.21v-22.874c-6.288 0-41.427.76-46.972 2.18v20.552s15.14 1.74 18.672 2.118l-.81 6.94c-13.78-.77-41.21-.8-54.24-.047l.853-7.447c4.086-.11 15.025-1.365 17.576-1.762.4-5.1.587-13.157.587-21.593v-10.415c0-3.53-.188-13.74-.39-17.278-3.004-.008-15.556-1.185-19.095-1.377l.864-6.595c11.33.633 46.284.62 55.92.027l-.99 6.14c-2.737.147-15.14 1.983-18.945 1.99v18.24h46.973V88.064c-3.458-.36-11.924-2.246-15.663-2.43l.73-6.13c7.853.58 38.904.487 47.218 0l-.58 6.434c-2.553.2-11.667 1.755-14.658 1.955v58.22s13.263 1.618 16.02 2.005l-.88 6.686z"/>
    <g transform="translate(904.21 68.58)">
      <mask id="d" fill="#fff">
        <use xlink:href="#c"/>
      </mask>
      <path fill="#F03" d="M19.763 66.845H7.14V.525h28.65l-2.573 9.964-13.454 56.355zM10.255 93.11l-8.665.354 1.667-14.65 8.636.416 8.076-.305-1.7 14.343-8.015-.158z" mask="url(#d)"/>
    </g>
    <path fill="#F03" d="M781.662 121.766c0-21.026-20.15-33.786-50.82-34.423 0 0-1.09-.01-1.483-.01-.395 0-1.485.01-1.485.01-32.54.682-50.543 13.515-50.543 34.526 0 .106-.013.218-.013.32 0 .108.003.203.012.313.206 19.785 19.873 33.882 50.543 34.524 0 0 1.09.017 1.484.01.39.007 1.483-.01 1.483-.01 30.668-.642 50.45-13.895 50.815-34.44l.004-.82m-49.185 25.986c-1.053.03-2.093.093-3.118.14-1.028-.047-2.064-.11-3.12-.14-10.622-.297-31.123-6.354-31.123-24.646 0-.278-.004-.88-.004-.916 0-.033.004-.645.004-.92 0-18.302 20.5-24.36 31.122-24.65 1.056-.03 2.092-.092 3.12-.143 1.024.05 2.064.114 3.117.143 10.62.29 31.126 6.348 31.126 24.65 0 .275.005.88.005.92 0 .037-.005.64-.005.917 0 18.292-20.505 24.35-31.126 24.646M901.383 113.427c0-.124-.013-.386-.013-.386-.777-21.992-21.968-36.205-56.088-36.93 0 0-.927-.02-1.398-.02-.46 0-1.392.02-1.392.02-34.132.725-55.41 13.97-56.088 36.93v.732c.678 22.97 21.956 36.53 56.088 37.248 0 0 .93.028 1.392.02.47.008 1.398-.02 1.398-.02 34.12-.717 55.41-14.277 56.088-37.248 0 0 .013-.22.013-.345m-52.826 27.564c-1.57.11-3.128.16-4.673.174-1.548-.015-3.1-.064-4.672-.173-11.6-.793-32.636-7.913-33.076-27.578.44-19.67 21.476-26.476 33.076-27.272 1.57-.1 3.124-.15 4.672-.166 1.545.015 3.103.065 4.673.166 11.605.796 32.636 7.603 33.076 27.272-.44 19.665-21.47 26.785-33.076 27.58M557.797 164.26c-3.556-5.83-16.97-38.89-22.972-53.843l11.012-1.72 1.316-5.648h-16.75l.015.054c-6.364.092-32.294-.14-35.145-.308l-.476 5.882 13.314 3.183s-19.483 38.517-23.372 44.07c-3.46.753-11.922 2.786-15.092 3.157l-.914 7.113c2.623-.37 36.627-.18 39.775 0l.728-6.42-11.852-2.805s5.383-11.194 6.124-12.492c3.888-.746 25.99-1.076 25.99-1.076l7.87 21.372s-9.37 1.446-13.073 1.627l-.83 7.012c2.773 0 47.676-.182 48.973 0l.752-6.302c-3.327-.183-12.245-2.297-15.393-2.857zM506.4 136.48c1.115-2.964 11.098-24.174 11.098-24.174l9.394 24.174h-20.49zM832.394 193.535c.88-2.164 6.613-15.598 6.613-15.598l6.067 15.646-12.68-.048zm26.727 14.076c-4.44-9.26-11.877-27.448-13.873-32.357l5.305-.71.367-3.556-21.943.762-.077 2.976 5.69.99c-3.758 8.206-13.434 29.177-15.12 31.642-1.463.518-3.27 1.078-5.036 1.722l-.358 3.328c5.036-.282 15.906-.096 17.607 0l.078-2.985-5.448-1.55s3.398-8.212 4.623-10.688c4.234-.057 15.407.05 15.407.05l4.158 10.89s-3.87.82-6.746 1.372l-.494 2.91c1.503 0 21.36-.095 22.063 0l.38-3.44c-1.824-.388-6.582-1.356-6.582-1.356zM740.5 193.54c.883-2.17 6.616-15.603 6.616-15.603l6.063 15.646-12.68-.044zm26.73 14.075c-2.78-5.79-10.338-23.89-13.788-32.37l5.745-1.032.16-3.22-22.265.756-.034 2.95 5.69.986c-3.757 8.205-13.477 29.21-15.163 31.676-1.843.678-3.457 1.17-5.036 1.722l-.36 3.33c4.976-.17 15.908-.1 17.607 0l.082-2.99-5.453-1.55s3.402-8.213 4.627-10.685c4.23-.062 15.402.05 15.402.05l4.158 10.884s-3.87.825-6.745 1.373l-.494 2.916c1.5 0 21.362-.1 22.06 0l.382-3.442c-1.82-.39-6.58-1.355-6.58-1.355z"/>
  </g>
</svg>
