<svg xmlns="http://www.w3.org/2000/svg" viewBox="0 0 1281 288">
  <title>
    logo-nikkei
  </title>
  <path fill="#333" fill-rule="evenodd" d="M504.432 166.36c-.434.475-2.888 2.728 2.01 7.023 4.906 4.275 6.928 5.713 8.512 6.284 1.577.587 4.466 2.177 7.205-.14 2.738-2.3.95-3.992.29-4.805-.698-.816-2.03-2.545-2.856-3.65-.82-1.1-2.126-2.412-.057-5.18 2.063-2.8 1.63-2.56 1.63-2.56-3.023 2.354-2.442 3.087-7.425 4.144-2.38.032-3.19.063-4.57-.89-1.397-.976-4.34-.722-4.762-.253l.022.026zm-299.385-32.54c-.264 2.755.784 4.73 3.015 6.227 2.222 1.51 4.92 2.36 6.167 2.825 1.243.466 3.8 1.117 3.67 2.888-.132 1.777-.72 2.17-1.183 2.815-.454.66-.523 1.778.648 2.635 1.184.857 3.602 2.158 3.542 3.732-.064 1.578-1.308 3.74-2.682 4.475-1.38.715-3.872 2.16-3.872 2.952 0 .774 2.23 1.516 3.345 1.627 2.19.2 3.872 3.136 4 4.92.158 1.784.92 2.888 1.46 3.294.54.382 1.326 1.24 3.998.795 2.698-.444 7.015-.118 8.602.393 1.586.54 4.395 1.327 6.633.064 2.235-1.238 4.92-4 6.168-4.586 1.25-.588 2.952-1.578 6.03-1.778 3.09-.2 14.086-1.215 16.77-1.215 2.7 0 7.397-.086 8.463-.086 1.067 0 .763-.298 1.924.762 1.143 1.06 3.155 3.57 6.634 3.458 3.434-.09 9.972-.476 11.6 0 1.632.486 4.228 3.08 5.967 1.632 1.714-1.43 3.358-3.46 4.42-4.698 1.055-1.244.665-3.555.855-4.897.204-1.365.204-3.08 1.918-5.586 1.745-2.51 7.023-13.744 7.404-14.995.38-1.25 1.828-3.64 2.787-3.84.95-.2 2.3-1.048 1.916-1.917-.362-.864-1.143-1.917-2.285-2.4-1.155-.488-4.992-2.02-5.474-3.846-.476-1.81-1.822-3.46-3.936-4.514-2.114-1.038-4.507-1.628-5.672-2.698-1.155-1.03-2.596-2.294-4.62-3.434-2.026-1.165-4.908-1.644-7.49.375-2.604 2.032-3.953 3.365-8.847 3.746-4.906.38-18.262 1.638-21.53 1.927-3.264.285-26.798 2.402-29.207 2.402-2.393 0-14.695.38-19.875-1.438l-14.673-2.888c-1.244 1.25-.45 3.014.92 4.576 1.39 1.58 2.777 3.555 2.508 6.31l-.016-.016zm44.384 1.885c3.175-.095 10.76.762 15.648.762s5.088-1.175 7.973-4.158c2.873-2.978 5.18-4.517 9.396-4.994 7.693-.476 10.775 4.803 11.254 6.158.483 1.346-.095 4.516-.19 7.014-.095 2.49-1.45 8.354-2.996 12.293-1.524 3.946-4.602 2.984-6.43 2.984-1.816 0-2.968 1.632-4.317 2.308-1.35.676-4.612.485-6.633.485-2.016 0-4.996.38-7.777.867-2.783.482-8.55 1.822-14.136 2.114-5.554.285-9.984-2.603-9.984-5.967-.19-6.147 4.427-5.662 6.538-5.865 2.117-.197 4.126.867 5.957 1.546 1.83.667 6.244.667 9.03.572 2.794-.105 3.27-.485 7.872-.666 4.615-.203 5.19-2.127 5.19-2.793 0-.676-1.054-1.632-2.577-1.73-1.546-.095-2.133-.286-5.11-.87-2.965-.57-5.164-1.238-8.053-.57-2.888.665-3.27.96-6.347 1.633-3.08.7-7.49-.476-11.046-1.142-3.555-.667-4.317-2.03-4.508-3.84.38-4.14 8.068-6.063 11.236-6.158l.013.02zm239.377 22.947c-2.19-1.037-10.505-5.002-10.886-6.157-.4-1.158-.253-.65-1.285-.508-1.015.127-7.69-.143-16.402-3.713-8.716-3.587-20.885-7.7-24.598-10.525-3.707-2.813-4.222-2.94-3.333-5.63.762-1.144 3.206-1.54 6.92-.51 3.722 1.016 7.045 2.943 8.58 3.454 1.54.52 3.46.905 4.994.647 1.54-.262 4.23-1.66 5.13-2.814.888-1.15 1.532-2.317-.525-2.444-2.046-.117-7.426-1.65-9.35-2.294-1.916-.635-2.173-.518-6.15-1.276-3.967-.778-10.366-3.095-12.156-4.872-1.8-1.794-4.878-2.444-6.792-2.565-1.924-.127-4.61-.52-6.285-2.047-1.66-1.55-2.95-1.673-4.745-1.673-1.783 0-6.27.508-8.823 1.524-1.417 0-2.445 0-3.08-.636-.65-.628-1.155-.508-1.542 0-.38.52 0 2.19.752 2.558.78.394.78.794.527 1.682-.134 2.952-.77 8.713-1.803 9.49-1.016.768-.89 1.03-3.45.508-2.57-.508-8.973-2.304-11.394-2.18-2.444.133-7.948 1.917-10.268 2.56-2.298.65-3.967 1.683-9.34.264-2.184-.507-3.08.772-2.445 1.657.64.905 2.958 3.46 4.748 4.35 1.794.913 5.637 3.33 9.35 2.95 3.714-.38 7.945-2.174 9.732-2.698 1.777-.507 3.967-1.396 5.903-1.142 1.914.254 4.222.635 4.08 2.57-.128 1.92 1.16 2.318-4.47 4.863-5.65 2.57-37.42 20.504-45.872 22.16-3.333 1.15-4.996 1.66-6.285.762-1.276-.89-1.917-1.025-2.68-.254-.773.762-2.94 3.333-2.94 4.348 0 1.03 1.405 3.85 4.484 3.08 3.08-.763 2.304-1.534 5.757-2.435 3.46-.89 35.485-13.585 45.736-21.392 3.84-1.543 8.453-5.63 10.506-6.164 2.044-.507 7.427-.367 7.3 2.454-.127 2.82 1.41 4.73-3.84 4.73-5.253 0-5.253 0-6.158-.118-.888-.133-.888.89-.127 1.777.773.92 4.232 4.126 5.905 4.888 1.66.763 5.5 1.79 4.094 4.09-1.416 2.316-2.69 5.763-2.302 6.664.387.908 1.276 4.866 7.3 4.488 2.942-.38 5.885-2.43 7.548-2.307 1.672.127 1.93.635 3.713.89 1.8.253 3.98-.255 3.98-2.172 0-1.92-1.543-4.114-1.04-5.634.535-1.54 2.826-4.232 4.508-5.124 1.65-.898 2.682-2.825 3.714-3.478 1.025-.635 2.19-1.65-.645-3.07-2.812-1.415-6.912-3.205-6.782-5.757.127-2.564 2.177-5.382 7.808-3.712 5.64 1.666 32.024 11.775 36.246 13.838 4.233 2.044 12.314 5.12 13.964 5.75 1.67.648 4.494.648 5.256-.507.784-1.15 1.42-2.172-.762-3.19v.022l.02-.02zm37.078-25.803c-7.046 1.268-10.71 2.474-11.978 2.925-1.29 1.26-3.42 1.01 1.187 7.912 1.364 2.317 2.517 4.24 5.02 4.24 1.343-.063 3.016-1.142 3.26-2.687.254-1.524 1.543-3.016 2.635-4.03 1.087-1.036 5.06-2.19 7.038.062 1.165 1.34.508 3.968-1.08 5.57-1.595 1.594-1.097 2.432-4.296 2.57-3.206.128-2.866.255-3.58.763-.705.508-6.856 5.453-7.3 5.888-.445.453-1.09 3.523 0 4.427 1.08.89 2.43 1.397 4.608.57 2.177-.824 15.498-7.425 19.145-8.568 3.65-1.16 11.41-4.564 12.623-4.678 1.206-.127 3.967-.832 5.694.117.777.207 4.935-.942 4.54-3.046-.382-2.126-1.588-3.015-2.356-3.936-.77-.88-1.797-2.675-2.825-4.145-1.015-1.48-1.894-2.97 1.353-4.113 2.755-.946 8.328-2.488 9.226-2.81.888-.33 3.015-1.853 2.697-2.824-.327-.968-3.396-2.618-4.043-3.142-.635-.508-3.073-1.025-4.285-.254-.845.778-.715.835-2.255.895-1.523.057-4.675.387-6.465-.968-1.796-1.333-2.114-1.65-.644-3.77.524-.19 1.16-1.987.97-2.755-.202-.77-.904-2.75-3.85-2.698-2.95.063-12.495-.318-13.63 0-1.163.33-3.207 1.61-3.65 2.945-.458 1.354.063 3.798 1.34 4.424 1.14.9 1.592 1.29.887 2.126-.704.825-5.002 7.405-9.998 8.97l.01.02zm26.134 11.076c-1.226.507-8.4 3.84-10.824 4.792-2.438.952-4.298 1.41-4.685.508-1.15-1.927 2.382-5.256 4.17-6.475 0 0 .52-.316 3.972-1.922 3.447-1.587 7.157.908 7.878 1.54.69.634.69 1.027-.514 1.545l.003.013zm-11.345-16.156c1.222-.76 5.698-3.078 6.783-3.65 1.092-.57 3.786-.19 4.824.445 1.016.634 1.206 2.244 1.016 3.523-.19 1.282-2.37 3.196-6.338 5.57-3.974 2.36-9.363 2.05-11.67 1.987-2.302-.064-1.915-1.416-1.537-2.114.387-.697 3.974-3.58 6.92-5.76h.002zm24.79 32.787c3.944-.54 5.267-1.206 4.934-2.073-.328-.88-.763-.76-3.08-.88-2.304-.094-7.33-1.967-8.112-2.963-.768-.996-3.403-2.532-4.498-1.65-.774.667 1.42 3.523 2.524 4.517 1.09.984 4.284 3.618 8.23 3.06v-.01zm22.502-26.353c.19-.238.158-.49-.372-.114-.53.38-3.758 2.843-4.653 3.126-.92.286-2.174.666-3.513.095-1.344-.586-3.264-2.062-4.407-2.92-1.168-.888-4.053-1.776-3.377-.437.667 1.34 1.07 1.854 1.07 1.854.444 2.2.2 3.666.2 4.76 0 1.11 1.323 2.203 2.412 2.965 1.11.784 5.383 3.206 6.92 3.523 1.535.317 4.21 1.11 2.967-.993-1.397-2.34-1.904-5.364-.686-7.342 1.19-1.974 3.313-3.846 3.427-4.513l.01-.003zm-37.52 33.297c-3.078-1.427-8.24-4.6-10.108-6.147-1.864-1.53-4.057-1.745-4.508-1.206-.43.54-1.416.445-.54 1.77.873 1.303 5.936 5.375 8.227 6.914 2.307 1.53 6.15 2.423 8.79 2.423 2.63 0 6.254.762 7.787 1.746 1.53.982 4.833 1.3 6.696 1.3 1.873 0 15.038-.19 16.702-.19 1.64 0 4.062-.762 6.366-2.64 2.287-1.874 4.267-4.508 5.588-4.4 1.326.11 3.085 1.644 5.383 1.428 2.305-.222 3.952-1.317 5.38-2.19 1.397-.89 2.635-1.765 4.698-1.765 2.094 0 8.24.095 10.645 1.206 2.425 1.09 9.236 3.735 10.76 4.052 1.542.34 3.408 0 4.73-.212 1.316-.222 4.283-.095 4.283-2.19 0-2.095-2.202-2.974-3.957-3.618-1.747-.667-10.54-2.19-12.41-3.3-1.874-1.112-2.858-3.302-5.28-3.08-2.402.222-4.157 2.085-5.903 2.317-1.777.205-3.634.65-4.84.205-1.206-.435-3.08-1.11-2.968-2.856.1-1.753 1.542-4.064 3.732-4.064 2.19 0 8.014-.21 8.014-2.412-.095-1.092-1.854-1.746-3.498-2.74-1.66-.983-3.736-1.86-5.278-2.088-1.53-.222-3.504-1.767-3.3-4.284.23-2.54-.318-3.187 1.65-2.97 1.986.22 5.382.113 7.14.77 1.77.657 4.73 1.317 6.04.657 1.315-.655 3.397-2.857 5.377-2.426 2 .46 4.08 1.333 5.49 1.11 1.43-.22 2.858-.65 2.096-2.202-.762-1.53-3.07-4.824-7.79-7.135-4.712-2.307-5.82-3.954-7.902-3.84-2.094.102-3.738.327-3.738 1.308 0 .996 1.635 2.418 1.416 4.062-.222 1.65-1.854 3.84-3.618 4.402-1.756.54-6.158 2.167-6.158-2.317 0-4.485.667-7.8 2.984-9.11 2.304-1.333 3.945-3.42 7.14-3.196 3.175.222 5.162.334 6.36 1.54 1.208 1.206 3.188 2.412 3.636.65.422-1.76.54-2.196 0-3.29-.56-1.112-1.55-1.874-3.193-2.978-1.645-1.106-7.143-5.28-9.894-5.054-2.73.222-4.94.444-7.027 2.745-2.077 2.312-3.175 4.064-7.254 4.73-4.062.657-8.452 2.08-12.4 1.867-3.968-.222-10.652-.984-10.112 1.206.114 1.1 2.424.88 4.176.996 1.746.11 5.152-.445 6.475.983 1.317 1.435 1.974 2.425 2.527 3.847.54 1.428 1.745 2.844 3.285 4.063 1.54 1.206 3.523 2.3 3.523 5.935 0 3.618.104 10.43-.657 11.417-.762.983.444 1.85-3.09 2.19-3.5.326-11.17 1.853-12.17 2.958-.994 1.1-1.98 2.205-.118 2.31 1.857.108 1.428-.095 3.628-.88 2.19-.767 8.246-2.08 9.442-1.65 1.197.445 2.095 1.22 2.095 3.41 0 2.19-1.228 6.484-9.344 7.68-8.125 1.213-16.695 2.09-19.653 2.422-2.952.34-12.505 1.222-15.577-.213l.022.02zm145.43-46.328c-2.302-1.32-4.38-3.27-6.158-3.768-1.77-.514-5.32-1.136-6.168-1.948-.83-.826-3.732-3.81-6.77-3.492-2.62 0-3.037 2.444-1.672 4.19 1.364 1.745 3.332 3.586 4.71 4.697 1.364 1.122 2.602 3.27 6.062 3.08 3.428-.222 7.84 0 9.3-.222 1.47-.203 3.027-1.23.72-2.558l-.025.022zm-12.737 13.806c-.826-.498-3.12-1.015-5.736-.81-2.615.204-5.957.604-6.906.204-.92-.413-1.444-.825-3.13-1.555-1.675-.717-4.39-1.524-5.846-.613-1.04.92-.835 2.654 1.555 3.784 2.42 1.126 6.59 2.656 8.897 3.38 2.285.698 4.253.698 6.125.393 1.885-.316 3.342-.4 5.014.103 1.667.495 2.93.92 3.65.92.746 0 3.66 0 1.473-1.96-2.19-1.937-4.3-3.365-5.13-3.89h.007l.026.045zm103.26 9.205c-1.143-.515-3.936-1.936-6.03-2.75-2.096-.824-7.523-1.853-9.507-1.954-1.983-.08-5.935-1.118-7.617-1.937-1.666-.813-3.755-.514-3.856-1.644-.11-1.125.83-.715 3.437-1.325 2.615-.61 7.617-2.35 9.395-2.444 1.777-.11 2.825-2.354 1.993-3.173-.838-.825-3.237-.412-5.427.613-2.19 1.016-8.36 3.374-9.395 3.783-1.048.413-3.133 2.457-5.437 1.333-2.285-1.126-5.95-2.752-7.5-3.577-1.577-.826-5.024-2.54-1.26-4.286 3.767-1.745 4.5-.704 5.224-1.523.73-.808.937-2.135.625-2.76-.317-.603-4.484-1.832-2.085-2.746 2.403-.92 2.19-.317 4.583-1.03 2.413-.715 2.83-.614 5.015-.51 2.19.11 5.015 1.128 6.586 1.937 1.565.82 5.218 2.66 6.675 3.365 1.46.72 6.156 1.44 6.46.108.318-1.333.096-2.95-1.46-3.57-1.56-.62-4.92-3.08-6.38-3.08s-3.53-.094-4.68-1.015c-1.15-.92-5.123-3.577-7.522-3.577-2.4 0-5.126 1.544-5.948 2.35-.838.816-1.882 2.158-3.65 2.047-1.784-.105-3.555-1.333-5.434-2.666-1.873-1.322-5.523-3.373-8.766-3.884-3.238-.508-6.57-.095-7.408-.708-.84-.615-2.105-1.44-3.555-1.53-1.46-.12-2.825 1.308-3.028 2.235-.198.93.53 1.533 1.672 2.253 1.155.72 3.142 2.444 3.662 3.27.52.825 2.16 1.574-.634 2.444-2.92.933-4.177.412-5.333-.508-1.133-.914-5.944.206-7.204 1.015-1.46.508-2.286.508-3.438.21-1.15-.302-6.062-1.524-7.014-.413-.92 1.13-.094 1.644 1.366 2.46 1.47.82 4.91 1.13 7.004.61 2.076-.515 5.618-1.127 6.993-.413 1.355.724 3.123 2.35 3.123 4.086 0 1.745-.514 4.094-3.228 4.3-2.73.2-8.57.413-9.503.92-.946.515-3.555 1.65-5.227 1.334-1.673-.308-2.086.104-2.19.698-.105.616.73 2.35 1.872 2.666 1.143.308 2.517.933 1.99 1.84-.533.915-2.618 6.342-6.373 6.238-3.75-.105-2.095 0-1.977-.616.095-.603-.533-.308-1.263-.095-.737.204-6.063 5.93-7.513 7.152-1.48 1.237-4.697 6.547-5.85 7.268-1.142.717-8.887 8.887-9.712 8.982-.838.73-2.307 2.565-3.977.835-1.66-1.746-2.285-2.57-2.285-3.38 0-.807-.73.107-.844.815-.095.73-1.152 3.904-1.565 4.717-.41.824 2.19 3.468 3.24 3.585 1.046.095 2.515 1.73 4.182 2.55 1.666.818 6.163 1.122 7.4 1.65 1.252.494 2.715.298 3.864 1.12 1.143.81 2.285 1.428 2.92.403.622-1.03.102-2.044-.835-3.066-.938-1.038-2.92-1.952-1.14-5.11 1.776-3.174 2.306-3.796 3.445-6.443 1.143-2.68 1.143-4.096 1.143-5.638 0-1.524.63-5.3 2.507-7.354 1.886-2.054 3.863-4.094 4.698-4.094.835 0 3.767-.197 5.332-.826 1.568-.603 7.935-4.808 7.627-9.188.622-1.343.933-2.444 3.133-3.08 2.19-.602 5.852-1.725 7.093-.507 1.25 1.238 1.882 1.438.94 3.08-.933 1.637-1.565 4.9-4.168 5.204-2.612.33-5.122.625-5.66 1.03-.506.41-.61 1.744.636 2.246 1.254.517 2.825 1.745 5.11 1.238 2.31-.514 1.673-.812 3.038-1.95 1.364-1.128 1.256-1.43 2.19-1.43.936 0 3.03-.104 4.49.105 1.48.213 3.333.62 3.873 1.333.517.717 2.634 1.505.517 2.158-4.393 1.324-10.347 2.238-13.473 2.857-3.13.603-3.446.412-6.156.203-2.71-.21-4.063-.517-5.117-.62-1.047-.094-2.92.712-1.047 1.636 1.882.92 6.27 3.478 5.024 9.1-1.257 5.617-1.46 7.363-2.92 8.385-1.47 1.006-3.656 5.22-5.75 4.596-2.077-.62-3.016-.318-1.975.714 1.046 1.025 2.608 2.047 3.86 2.158 1.252.095 2.826.295 4.286-.943 1.46-1.218 5.22-3.567 6.475-4.697 1.248-1.11 1.048-3.987 1.144-5.116.108-1.112.108-2.445 1.466-3.255 1.365-.8 2.4-1.942 6.37-2.044 3.967-.094 15.768-1.12 18.06-1.313 2.285-.21 6.677-1.23 8.134-1.23 1.457 0 4.17-.426 4.082 2.754-.108 3.968 1.143 9.104.095 10.84-.837 1.65-1.554 1.84-4.903 1.228-3.332-.603-5.116-1.124-6.576-1.746-1.46-.603-2.614.11-1.046 1.13 1.568 1.025 4.494 2.46 5.86 3.574 1.354 1.13 3.125 1.222 5.004 1.428 1.89.203 4.285 1.333 5.85 2.457 1.577 1.12 5.427 4.813 6.782.813 1.365-3.976 1.263-13.393 0-16.355-1.238-2.95-1.142-7.458.222-8.988 1.352-1.53 3.765-3.57 4.688-4.494.952-.92.73-2.87-.838-3.38-1.555-.51-5.627-1.32-8.357-3.473-2.71-2.15-6.36-3.174-5.1-4.92.724-.603 2.714-.815 4.59.204 1.872 1.015 5.11 2.97 8.77 4.202 3.665 1.224 7.11 1.427 10.02 2.855 2.935 1.435 7.093 2.152 8.25 2.46 1.144.302 3.556.508 4.38-.517.852-1.016-1.14-1.727-2.284-2.254h-.018l-.022-.03zm-49.672-21.053s1.574.603 2.206 1.62c.625 1.037-.54 1.957-1.365 2.167-.845.206-1.27.507-2.508.825-1.25.295-3.133-.118-4.285-.318-1.15-.21-.832-.815-.832-1.428 0-.612 1.57-1.022 3.35-2.358.846-1.133 2.506-1.133 3.44-.508h-.007zm-10.642-1.84c1.787-1.226 2.612-1.937 3.862-1.848 1.257.108 3.873 1.127.73 2.866-1.053.825-1.148 1.428-1.56 2.158-.42.708.094 1.524-1.667.413-1.777-1.144-3.15-2.372-1.364-3.594v.003zm-.52 19.614c-3.755-.19-3.974-1.324-4.073-2.238-.11-.92.318-1.936 1.143-2.66.835-.71 2.088-3.373 2.837-4.398.71-1.03 3.74-1.746 5.412-1.84 1.872-.204 4.18 1.332 5.227 1.846 1.038.508 1.467 3.682 1.038 4.393-.428.723-1.46 1.428-2.507 3.072-1.048 1.637-1.048 1.53-2.603 1.735-1.577.19-2.73.286-6.475.095v-.006zm-6.475 12.588c-1.46.412-2.094 1.333-4.275 3.174-2.2 1.84-2.507-1.23-2.412-2.66-.21-2.254 3.65-3.98 4.91-4.294 1.238-.318 3.533-.515 5.002-1.134 1.473-.615 3.555-.406 5.218-.406 1.676 0 1.048.308 1.257 1.222.203.92-1.46 1.54-2.815 2.26-1.365.724-2.3.914-3.765.914-1.46 0-1.67.508-3.132.92l.013.004zm24.217-.086c-1.355.295-2.71.5-4.697 1.01-1.98.52-3.967 1.332-6.678 1.948-2.714.616-5.63.31-7.51.413-1.89.11-2.92 0-3.037-.826-.104-.817 4.81-2.442 6.697-3.16 1.873-.71 2.812-.92 5.005-2.037.413-.518 7.504-4.1 8.57-4.1 1.028 0 4.158 1.732 4.666 3.99.53 2.252-1.657 2.442-3.022 2.766l.007-.004zm6.57-15.362c-.825.118-1.555.94-2.07 1.36-.52.395-.735.703-.84 1.417-.095.73-.413 1.334-1.035 2.35-.634 1.048-2 1.46-4.494 1.46-2.507 0-3.967-1.434-4.18-2.355-.21-.91 2.307-3.682 3.44-5.002.413-.92 3.46-2.76 4.507-2.87 1.048-.11 3.65.928 5.32 1.946 1.682 1.015.21 1.628-.625 1.732l-.023-.038zm10.874-13.17c-1.46 1.32-5.84 4.093-6.467 4.385-.63.316-2.304.824-1.987 1.446.31.61 1.143.4 2.203.095 1.033-.31 3.322-1.63 5.426-2.347 2.082-.714 2.495-.714 3.444-1.127.936-.413 2.602-1.968.72-2.984-1.872-1.015-2.825.105-3.332.515l-.007.016zm181.81 14.376c-2.476 0-9.29-.838-13.636-1.542-4.354-.737-9.407-2.047-12.94.114-3.516 2.152-.114 2.396-4.93 2.273-4.823-.12-11.393 1.317-13.288 1.317-1.88 0-6.697-1.08-7.99-4.072-1.29-2.997-2.474-4.777 1.176-6.212 3.65-1.44 8.23-1.917 10.458-1.56 2.244.36 11.054 1.44 13.406 1.205 2.368-.24 3.885-1.08 5.523-2.285 1.65-1.187 3.877-2.984 5.998-3.222 2.11-.235 5.754-1.787 2.348-4.91-3.412-3.1-3.872-4.056-5.65-4.888-1.76-.84-3.745-1.676-4.808-2.628-1.047-.958-3.063-1.2-4.126-.72-1.047.482-5.167 2.507-6.21 2.87-1.08.348-2 .23-3.65-.477-1.652-.724-2.826-.24-3.645.476-.825.723-.717 2.024.35 2.865 1.056.84 4.57 4.545 0 6.338-4.597 1.787-15.394 5.26-15.997 6.935-2.57-.247-8.697-.968-8.57-4.19.108-3.227 5.285-3.348 6.348-3.11 1.047.238 3.396.238 4.094.724.71.476 2.466.717 2.825.12.356-.602.222-1.545-.698-2.158-.947-.593-1.886-2.745-3.524-2.745-1.65 0-7.76.837-11.522-.96-3.767-1.796-7.058-2.507-9.77-5.024-2.697-2.507-5.985-4.774-11.276-3.104-5.284 1.673-8.233 2.993-10.23 3.83-2 .826-3.046 1.9-1.158 2.984 1.886 1.07 3.3 1.422 4.222 3.104.952 1.683.127 4.55-3.857 4.777-4.018.24-8.95.84-11.18 1.194-2.23.38-7.282 1.683-10.57 1.81-3.29.127-6.237 0-7.65-.36-1.396-.348-4.583-.586-5.284.363-.698.968.477 2.507 2.952 2.875 2.444.36 4.92.832 7.5.832 2.603 0 10.125-2.15 13.648-1.914 3.523.232 9.395 2.143 9.395 4.888 0 2.755-1.752 5.278-4.094 5.745-2.234.96-1.777 1.68-1.428 2.506.365.844 1.895 1.194 3.193 1.32 1.286.127 2.698 1.32 2.825 2.39.108 1.08-1.19 2.984-3.894 3.11-3.396 1.08-10.804 2.16-12.337 2.857-1.53.73-4.94 2.403-8.818 1.683-3.873-.718-11.29-2.75-11.763.476-.477 3.23 3.28 3.23 5.63 3.46 2.348.244 7.63 1.443 11.753 0 4.113-1.435 6.094-2.508 8.576-2.635 2.468-.108 2.347-.59 3.998-.59 1.65 0 2.117-.223 1.3 1.08-.824 1.313-3.89 6.337-7.058 8.727-3.174 2.393-7.173 4.428-9.756 5.5-1.768.826-5.888 3.092-4.587 3.936 1.292.857 2.35.958 5.755 0 3.415-.952 7.65-4.793 9.87-6.462 2.238-1.666 5.422-6.088 8.24-10.036 2.825-3.945 6.94-7.65 8.452-7.998 1.524-.365 5.405-1.086 6.126-.603.698.477.815.128.815 1.67 0 1.546-.355 6.81 0 8.243.356 1.428 1.873 3.11 1.65 5.26-.24 2.157.223 4.436-3.522 2.88-3.764-1.554-6.24-2.633-7.522-3.237-1.3-.59-2.58-.59-1.523.842 1.048 1.428 3.403 4.913 3.63 6.69.25 1.81.725 3.606 5.07 3.958 4.348.356 3.418.114 5.3.603 1.873.47 5.755.834 7.745-2.753 2-3.586.825-5.5-.826-8.02-1.637-2.508.127-4.786 1.067-5.853.936-1.08 1.523-2.64 3.872-.84 2.35 1.786 2.945 3.236 4.126 3.947 1.175.72 2.93 2.858 3.645 1.43.698-1.43 1.634-3.342-1.524-5.377-3.173-2.03-9.997-5.986-4.95-8.01 5.053-2.032 7.53-2.388 7.046-3.334-.476-.962-2.476-1.797-3.758-2.165-1.3-.34-3.047-.46-4.348-1.3-1.295-.843-2-3.112-1.06-3.705.942-.603 1.765-1.917.597-3.11-1.175-1.197-.71-2.032.584-2.635 1.292-.594 5.758-2.393 7.507-2.393 1.76 0 7.06.127 7.88.127-.46 2.265-.11 4.188 1.765 5.616 1.876 1.43 2.463 2.394.46 3.11-2 .72-3.872 2.267-2.932 3.11.943.833 2.23.96 2.12 4.064-.127 3.11 0 5.73-.35 9.807-.355 4.063-1.76 6.453-2.703 7.402-.933.964-4.35 4.55-3.3 5.15 1.062.603 3.417.108 5.52-1.08 2.118-1.196 8.127-5.858 8.127-8.016 0-2.16-.826-7.294-.71-8.967.116-1.675 2.57-5.26 5.886-5.024 3.282.232 5.745 1.44 8.684 4.425 2.927 2.993 5.047 4.183 4.926 6.21-.127 2.032-2.936 11.608-3.517 14.125-.596 2.507-.952 4.424-.476 5.86.476 1.427.937 2.513 3.406 1.192 2.476-1.3 7.395-3.586 9.046-3.586 1.65 0 7.984-2.04 4.57-7.174-3.403-5.142-3.515-10.877-3.403-13.153.127-2.276 3.06-13.743 12.235-11.125 1.882.73 2.825.248 3.523 1.207.708.952 1.29 1.555 2.704.476 1.396-1.08 3.046-3.11 3.998-3.703.953-.603 1.302-3.12-1.164-3.12l.015.022v-.03zm-94.526-11.127c.825-.588 2.952-.826 4.012-.118 1.053.73-1.42 1.682-2.016 2.406-.584.73-1.872 1.556-2.92.604-1.066-.952 0-2.03.92-2.888l.004-.003zm8.72 7.896c-1.176.73-2.477 1.793-4.35 2.39-1.888.602-4 .126-5.522-.35-1.524-.476-.594-1.08-.356-2.253.245-1.206 4.35-2.873 5.885-4.063 2.826-2.507 6.1-1.19 7.412.127 1.292 1.31-1.892 3.46-3.06 4.168l-.01-.02zm213.946-21.552c-1.428.223-3.828.772-4.825-.866-.993-1.65-4.614-2.425-5.817-1.873-1.206.548-5.713 2.634-7.237 3.173-1.545.56-7.807.997-9.118 1.543-1.31.546-2.53 1.11-4.722.57-2.197-.548-8.792-.983-11.093-.76-2.298.212-3.504-.334-5.037.212-1.54.552-3.3 1.765-4.94 1.873-1.65-.222-5.172-1.64-8.016-2.516-2.857-.895-5.818-2.762-7.475-3.19-1.66-.444-4.396.114-5.485 1.09-1.098.992-3.3 3.404-4.517 3.734-1.206.334-8.23 3.406-10.2 3.523-1.99.097-5.72 0-7.142.325-1.42.327-5.713 1.098-8.24-.555-2.516-1.66-3.29-2.19-3.84-2.85-.54-.667-1.428-.556-1.428 0 0 .54-.105 2.95-.105 2.95-.343 2.858.648 5.81 2.62 7.35 1.976 1.538 3.96 2.52 5.382 3.198 1.44.657 4.634 1.968 2.967 6.595-1.637 4.603-4.164 20.09-4.037 23.265.095 3.19-.57 3.396-1.333 3.62-.768.22-1.314.76-1.86.34-.555-.443-.88.33-.444.985.435.654 1.092 1.524 1.65 2.412.54.88 1.64 2.635.99 4.285-.657 1.638.223 6.158 4.27 5.935 4.062-.222 11.203-2.094 9.664-7.046-1.524-4.933-3.504-5.38-2.857-13.82.667-8.455 2.21-12.632 2.533-13.508.324-.89.118-.994 1.866-1.222 1.756-.206 12.188-2.184 14.496-3.285 2.31-1.09 3.396-1.755 5.28-1.755 1.858 0 5.254.768 5.156-2.635.095-2.412 2.428-8.67 4.062-10.416 1.65-1.766 1.968-2.75 3.84-3.08 1.873-.33 2.756-.997 4.4-2.31 1.65-1.324 3.396-2.527 4.173-.435.763 2.063 2.604 7.458 1.64 8.452-1.524 1.533.316.945.2 2.46-.14 1.77.875 3.396.777 5.173-.086 1.546 3.904.254 6.982-.54 3.1-.784 9.584.37 11.68.588 2.08.222 6.036.457 7.14.457 1.105 0 1.32.1 1.32 1.3 0 1.213-.55 3.518-.443 6.92.11 3.42-.762 10.658-.318 11.54.43.883.974 4.612 1.738 6.93.77 2.284.56 8.22-4.164 5.918-4.713-2.307-7.576-3.634-8.45-3.86-.868-.205-2.417-.428-1.316.775 1.08 1.216 7.46 6.815 10.315 8.348 2.844 1.545 9.443 5.287 12.077 5.61 2.634.34 10.537 4.286 9.88-4.06-1.09-4.166-2.53-9.01-3.066-11.196-.552-2.19-1.428-10.125-1.32-12.21.105-2.1.444-6.697 0-8.57-.438-1.872-1.872-6.157-1.768-7.68.108-1.54.667-4.517 2.644-6.593 1.968-2.088 4.824-6.262 5.5-6.81.65-.54 2.73-3.72 1.08-5.492-1.635-1.745-4.276-2.517-5.713-2.304h.02l-.017-.012zm-82.982 7.497c.39-.454 5.38-1.987 6.02-2.19.642-.197 1.794-.584 2.11 1.546.312 2.105-1.982 3.32-3.585 3.84-1.603.522-3.08 1.217-4.615 1.598-1.543.397-1.295.444-3.13-1.143-2.57-2.126 1.984-3.142 3.2-3.65zm8.655 13.188c-.52 1.222-4.29 1.81-5.573 2.37-1.276.572-3.85.908-5.777 1.086-1.904.196-2.104-1.588-1.968-2.495.115-.883 1.61-3.777 2.235-5.25.654-1.476 1.42-1.597 2.825-2.24.5-.445 4.602-.966 5.49-1.03.908-.05 3.35 1.924 3.8 3.086.438 1.156-.52 3.264-1.022 4.482v-.01h-.01zm55.083-2.285c-1.022.17-2.253 0-4.297.054-2.05.063-3.97-.397-4.553-1.476-.57-1.086 1.73-2.108 3.84-2.57 1.407-.446 3.657.07 5.08.507 1.396.457 1.916.974 2.04 1.74.127.76-1.09 1.54-2.11 1.745zm2.55-8.538c-1.137 1.736-5.054 2.19-7.612 2.58-2.57.375-4.174-1.174-4.355-2.063 0-.82.57-2.047 2.05-3.206 1.46-1.14 4.094-1.528 5.364-2.093 1.27-.59 4.38.247 5.205 1.15.824.887.507 1.91-.652 3.636l-.003-.003zm-11.522 15.7c-1.857.065-4.095.636-5.066.445-.984-.19-2.698-.19-3.523-.644-.857-.443-2.507-1.554-3.545-1.427-1.016.117-4.285.444-5.96.762-1.65.317-4.286.965-5.7.965-1.417 0-4.222.968-5.248 1.41-1.03.453-5.062 1.916-5.062 1.916-2.555.774-8.208 2.634-9.68 2.634-1.473 0-3.143-.393-4.485-.77-1.333-.398-6.02.38-5.577 2.19.457 1.776.327 2.367 2.762 1.913 2.424-.467 4.93-1.038 6.912-1.356 1.98-.317 3.714-1.01 4.745.064 1.016 1.093 2.24 2.18 1.84 4.222-.38 2.054-.52 5.707-1.14 6.932-.646 1.222-1.99 3.142-4.35 3.333-2.37.177-6.087 1.777-6.087 3.84 0 2.044 1.79 4.358 4.475 4.158 2.698-.19 3.342-.838 5.072-.838 1.723 0 3.967.137 5.567-.835 1.606-.965 3.27-3.567 5.13-4.22 1.86-.642 4.474-1.217 6.21-1.15 1.727.064 4.8.064 4.926 2.127.134 1.903-.774 2.538-1.285 2.925-.495.38-1.09 2.247-.698 3.015.38.784 2.76 2.634 3.396 3.333.634.71 1.85 2.253 2.94 2.253 1.09 0 2.316-.324 2.823-1.603.524-1.282 1.727-3.98 2.23-4.865.52-.905.836-5.005.716-5.91-.127-.876-.635-12.61-.318-13.508.318-.89-.983-3.714 1.778-5.19 2.76-1.46 4.485-3.396 5.573-3.913 1.095-.508 2.444-2.304.58-2.23v.005l.05.02zm-22.418 20.555c-.64.2-1.412.968-3.01 1.664-1.595.697-2.57.957-4.353 1.087-1.793.12-2.704-.57-2.888-1.85-.184-1.276 1.8-2.368 2.555-2.752.774-.394 1.606-.705 3.27-.705.58 0 2.38-.127 3.458-.127 1.08 0 1.657.63 1.867 1.27.19.647-.254 1.222-.9 1.412zm.645-5.776c-.72.967-2.57 1.605-4.87 1.802-2.31.196-2.51-.12-3.524-.39-1.026-.248-1.403-1.277-1.473-2.305-.064-1.022 2.24-2.75 3.974-2.825 2.628-.628 5.503.267 6.268.984.78.692.337 1.79-.365 2.736l-.01-.003zm1.334-7.282c-.365.83-2.485.946-6.272.882-3.777-.057-4.793-1.326-5.015-2.24-.18-.902.397-1.15.97-1.86.573-.705 2.817-1.207 3.65-1.35.573-.063 2.483 0 4.232.14 1.713.096 2.95 1.524 3.132 2.16.19.633-.336 1.395-.72 2.252l.022.016z"/>
</svg>
