<svg xmlns="http://www.w3.org/2000/svg" viewBox="0 0 480 121">
  <title>
    bnr-nikkei copy
  </title>
  <g fill="none" fill-rule="evenodd">
    <path d="M-480-792H960v941H-480z"/>
    <path fill="#333" d="M181.783 69.61c-.185.204-1.23 1.17.856 3.01 2.09 1.834 2.953 2.45 3.628 2.696.673.252 1.904.933 3.07-.06 1.17-.987.407-1.712.126-2.06-.298-.35-.866-1.092-1.218-1.565-.35-.47-.906-1.033-.024-2.22.88-1.2.695-1.098.695-1.098-1.29 1.01-1.042 1.324-3.166 1.777-1.013.013-1.358.026-1.947-.382-.595-.42-1.85-.31-2.03-.11l.01.012zM54.158 55.66c-.112 1.18.335 2.027 1.286 2.67.947.647 2.097 1.012 2.63 1.21.53.2 1.62.48 1.564 1.24-.057.76-.307.93-.505 1.206-.193.283-.223.762.276 1.13.504.366 1.535.924 1.51 1.6-.028.676-.558 1.602-1.144 1.918-.588.306-1.65.925-1.65 1.266 0 .332.95.65 1.426.698.933.085 1.65 1.344 1.704 2.11.068.764.393 1.237.623 1.41.23.165.564.532 1.703.342 1.15-.19 2.99-.05 3.667.168.677.232 1.874.57 2.828.027.952-.53 2.097-1.714 2.63-1.966.532-.253 1.257-.677 2.57-.763 1.316-.086 6.004-.52 7.15-.52 1.15 0 3.15-.038 3.606-.038.454 0 .325-.13.82.326.487.454 1.345 1.53 2.827 1.483 1.465-.04 4.253-.205 4.947 0 .695.207 1.802 1.32 2.543.698.73-.612 1.432-1.483 1.884-2.014.45-.533.284-1.524.365-2.1.086-.584.086-1.32.816-2.394.744-1.075 2.994-5.892 3.157-6.43.162-.535.78-1.56 1.188-1.645.407-.086.982-.45.818-.822-.154-.37-.487-.822-.974-1.03-.493-.208-2.128-.866-2.334-1.648-.203-.776-.777-1.483-1.678-1.935-.9-.445-1.92-.698-2.418-1.157-.492-.442-1.106-.984-1.97-1.472-.863-.5-2.09-.704-3.193.16-1.108.872-1.683 1.444-3.77 1.607-2.09.163-7.785.702-9.178.826-1.39.123-11.424 1.03-12.45 1.03-1.02 0-6.265.164-8.473-.616L52.703 51c-.53.535-.192 1.29.392 1.96.593.678 1.184 1.525 1.07 2.706l-.008-.007zm18.92.808c1.354-.04 4.587.326 6.67.326 2.085 0 2.17-.503 3.4-1.783 1.224-1.275 2.208-1.935 4.005-2.14 3.28-.203 4.593 2.06 4.797 2.64.206.578-.04 1.937-.08 3.008-.04 1.067-.62 3.582-1.278 5.27-.65 1.692-1.962 1.28-2.74 1.28-.775 0-1.266.7-1.84.99-.576.29-1.967.207-2.83.207-.858 0-2.13.164-3.314.372-1.186.207-3.645.78-6.026.906-2.368.122-4.257-1.116-4.257-2.558-.08-2.636 1.888-2.428 2.788-2.515.902-.084 1.758.37 2.54.663.778.285 2.66.285 3.848.245 1.192-.045 1.395-.21 3.357-.286 1.967-.087 2.212-.912 2.212-1.198 0-.29-.45-.7-1.1-.74-.66-.042-.91-.124-2.178-.374-1.264-.245-2.2-.53-3.433-.245-1.232.286-1.394.412-2.707.7-1.312.3-3.193-.203-4.708-.49-1.515-.285-1.84-.87-1.92-1.646.16-1.775 3.438-2.6 4.788-2.64l.006.008zm102.044 9.838c-.933-.445-4.478-2.145-4.64-2.64-.17-.497-.11-.28-.55-.218-.432.055-3.277-.06-6.99-1.592-3.716-1.537-8.904-3.3-10.487-4.512-1.58-1.206-1.8-1.26-1.42-2.414.324-.49 1.366-.66 2.95-.218 1.586.436 3.003 1.262 3.658 1.48.656.224 1.474.388 2.128.278.657-.113 1.805-.71 2.187-1.207.38-.492.654-.993-.223-1.048-.873-.05-3.166-.707-3.986-.983-.817-.273-.927-.222-2.622-.547-1.69-.334-4.42-1.327-5.182-2.09-.767-.768-2.08-1.047-2.895-1.1-.82-.053-1.966-.222-2.68-.877-.708-.664-1.26-.717-2.023-.717-.76 0-2.674.22-3.76.655-.605 0-1.043 0-1.314-.273-.277-.27-.492-.217-.657 0-.163.224 0 .94.32 1.097.333.168.333.34.225.72-.056 1.266-.328 3.736-.768 4.07-.432.328-.378.44-1.47.217-1.096-.218-3.825-.988-4.858-.935-1.04.057-3.387.822-4.376 1.098-.98.278-1.692.72-3.982.113-.93-.218-1.313.33-1.042.71.273.388 1.26 1.484 2.024 1.865.764.392 2.403 1.43 3.986 1.265 1.583-.163 3.386-.932 4.148-1.156.758-.218 1.69-.6 2.517-.49.815.11 1.798.272 1.737 1.102-.054.822.496.992-1.905 2.084-2.408 1.102-15.952 8.79-19.555 9.5-1.42.493-2.13.712-2.68.327-.542-.38-.816-.438-1.14-.108-.33.327-1.255 1.43-1.255 1.865 0 .44.6 1.65 1.912 1.32 1.313-.327.982-.658 2.454-1.044 1.475-.38 15.127-5.824 19.497-9.172 1.637-.66 3.603-2.413 4.48-2.64.87-.22 3.165-.16 3.11 1.05-.054 1.21.6 2.028-1.637 2.028-2.24 0-2.24 0-2.624-.05-.38-.057-.38.38-.055.762.328.394 1.803 1.77 2.516 2.095.708.327 2.345.768 1.745 1.753-.602.993-1.145 2.47-.98 2.858.166.39.544 2.086 3.112 1.924 1.255-.163 2.51-1.042 3.218-.99.713.055.822.273 1.583.382.767.108 1.696-.11 1.696-.93 0-.824-.658-1.765-.443-2.417.227-.66 1.204-1.814 1.92-2.196.705-.386 1.145-1.212 1.584-1.492.438-.272.935-.708-.273-1.316-1.2-.607-2.947-1.375-2.892-2.47.054-1.098.928-2.307 3.33-1.59 2.403.714 13.65 5.048 15.45 5.932 1.805.877 5.25 2.195 5.953 2.466.712.278 1.916.278 2.24-.218.335-.492.605-.93-.324-1.367v.01l.008-.01zm15.806-11.063c-3.004.544-4.565 1.06-5.106 1.254-.55.54-1.458.433.506 3.393.58.993 1.073 1.818 2.14 1.818.572-.027 1.285-.49 1.39-1.153.108-.653.657-1.292 1.123-1.728.465-.443 2.16-.94 3.002.027.496.575.216 1.7-.46 2.39-.68.682-.47 1.04-1.832 1.1-1.367.055-1.222.11-1.527.327-.3.22-2.922 2.34-3.11 2.526-.19.194-.466 1.51 0 1.898.46.38 1.035.6 1.963.245.928-.355 6.607-3.185 8.16-3.675 1.557-.497 4.865-1.957 5.382-2.006.514-.055 1.69-.358 2.428.05.33.088 2.103-.405 1.934-1.307-.162-.912-.676-1.293-1.004-1.687-.327-.377-.765-1.148-1.204-1.778-.433-.634-.808-1.273.577-1.763 1.173-.406 3.55-1.067 3.932-1.205.38-.14 1.285-.794 1.15-1.21-.14-.416-1.448-1.123-1.724-1.348-.27-.218-1.31-.44-1.826-.11-.36.335-.305.36-.96.385-.65.025-1.994.166-2.757-.415-.766-.572-.9-.708-.275-1.617.223-.08.495-.85.414-1.18-.086-.33-.385-1.18-1.64-1.157-1.26.027-5.328-.137-5.812 0-.495.14-1.367.69-1.556 1.262-.195.58.027 1.63.57 1.897.488.387.68.554.38.912-.3.353-2.133 3.174-4.262 3.845l.004.008zm11.14 4.75c-.522.217-3.58 1.646-4.613 2.054-1.04.408-1.832.604-1.997.217-.49-.826 1.014-2.253 1.776-2.776 0 0 .222-.136 1.694-.824 1.47-.68 3.05.39 3.358.66.294.272.294.44-.22.663l.002.005zm-4.835-6.927c.52-.327 2.428-1.32 2.89-1.565.467-.244 1.615-.08 2.058.19.434.273.515.963.434 1.512-.08.55-1.01 1.37-2.702 2.388-1.694 1.012-3.992.88-4.975.852-.98-.028-.816-.607-.655-.907.165-.3 1.694-1.535 2.95-2.47zM207.8 67.123c1.682-.232 2.246-.518 2.104-.89-.14-.376-.325-.326-1.313-.376-.98-.04-3.124-.844-3.457-1.27-.327-.428-1.45-1.087-1.917-.71-.33.287.605 1.512 1.075 1.938.467.422 1.828 1.55 3.51 1.312v-.004zm9.593-11.3c.08-.1.067-.21-.16-.048-.225.163-1.6 1.22-1.982 1.34-.392.123-.926.286-1.497.04-.572-.25-1.39-.883-1.878-1.25-.498-.382-1.728-.763-1.44-.19.285.576.456.796.456.796.19.944.087 1.573.087 2.042 0 .477.564.945 1.028 1.27.473.337 2.295 1.376 2.95 1.512.654.136 1.795.476 1.264-.426-.596-1.003-.812-2.3-.293-3.148.508-.846 1.413-1.65 1.46-1.935h.006zM201.4 70.1c-1.314-.612-3.514-1.973-4.31-2.636-.795-.656-1.73-.748-1.922-.517-.183.23-.603.19-.23.76.372.557 2.53 2.303 3.507 2.963.984.656 2.622 1.038 3.748 1.038 1.12 0 2.665.327 3.32.75.65.42 2.06.557 2.854.557.798 0 6.41-.082 7.12-.082.7 0 1.73-.327 2.713-1.132.974-.802 1.82-1.93 2.382-1.885.565.047 1.315.705 2.294.612.983-.095 1.685-.565 2.294-.94.595-.38 1.123-.755 2.002-.755.893 0 3.512.04 4.538.517 1.034.467 3.937 1.6 4.587 1.736.657.146 1.453 0 2.016-.09.56-.096 1.826-.042 1.826-.94 0-.898-.94-1.275-1.688-1.55-.744-.287-4.492-.94-5.29-1.416-.8-.476-1.218-1.415-2.25-1.32-1.025.095-1.773.894-2.517.993-.758.09-1.55.28-2.063.09-.514-.188-1.313-.478-1.265-1.226.043-.75.657-1.742 1.59-1.742.934 0 3.417-.09 3.417-1.034-.04-.467-.79-.747-1.49-1.173-.708-.422-1.593-.798-2.25-.896-.653-.094-1.495-.757-1.408-1.836.1-1.088-.135-1.366.704-1.274.847.096 2.294.05 3.044.33.753.283 2.016.566 2.575.283.56-.28 1.446-1.225 2.29-1.04.853.197 1.74.572 2.34.476.61-.096 1.22-.28.894-.945-.324-.656-1.308-2.068-3.32-3.06-2.01-.988-2.48-1.695-3.37-1.646-.892.043-1.593.14-1.593.56 0 .427.698 1.037.605 1.742-.095.708-.79 1.646-1.543 1.887-.748.23-2.625.93-2.625-.994 0-1.923.285-3.344 1.272-3.906.98-.57 1.68-1.466 3.043-1.37 1.353.095 2.2.143 2.712.66.514.517 1.358 1.034 1.55.28.18-.756.23-.943 0-1.412-.24-.476-.66-.803-1.362-1.276-.7-.474-3.044-2.263-4.217-2.167-1.164.095-2.106.19-2.996 1.177-.885.99-1.353 1.742-3.092 2.028-1.73.282-3.603.89-5.286.8-1.69-.095-4.54-.422-4.31.517.048.472 1.033.377 1.78.427.744.048 2.196-.19 2.76.422.562.615.842 1.04 1.077 1.65.23.612.743 1.22 1.4 1.74.656.518 1.502.988 1.502 2.546 0 1.55.044 4.472-.28 4.895-.325.422.19.793-1.317.94-1.492.14-4.763.793-5.19 1.267-.422.472-.843.946-.05.99.793.047.61-.04 1.548-.376.933-.33 3.515-.893 4.025-.708.51.19.893.523.893 1.462 0 .938-.523 2.78-3.982 3.293-3.464.52-7.117.895-8.378 1.038-1.26.146-5.33.524-6.64-.09l.01.007zm61.993-19.864c-.98-.566-1.867-1.4-2.625-1.615-.753-.22-2.267-.486-2.63-.834-.353-.354-1.59-1.633-2.884-1.497-1.118 0-1.295 1.047-.713 1.795s1.42 1.538 2.008 2.014c.582.48 1.11 1.4 2.585 1.32 1.46-.096 3.342 0 3.964-.096.626-.087 1.29-.527.307-1.097l-.01.01zm-5.43 5.92c-.35-.214-1.33-.436-2.444-.347-1.116.086-2.54.257-2.945.086-.393-.177-.616-.354-1.334-.667-.714-.308-1.87-.654-2.492-.263-.443.394-.356 1.137.663 1.622 1.032.482 2.81 1.138 3.794 1.448.974.3 1.813.3 2.61.17.805-.137 1.426-.173 2.14.042.71.212 1.248.395 1.555.395.317 0 1.56 0 .627-.84-.934-.83-1.834-1.444-2.187-1.668h.003l.01.02zm44.02 3.946c-.488-.22-1.68-.83-2.572-1.178-.892-.354-3.205-.795-4.05-.84-.846-.033-2.53-.478-3.248-.83-.71-.347-1.6-.22-1.644-.703-.047-.48.355-.306 1.465-.567 1.115-.26 3.248-1.007 4.005-1.048.758-.047 1.204-1.01.85-1.36-.357-.354-1.38-.177-2.314.262-.933.436-3.563 1.447-4.005 1.622-.447.176-1.336 1.052-2.318.57-.974-.482-2.537-1.18-3.197-1.533-.673-.354-2.142-1.09-.538-1.837 1.606-.748 1.92-.302 2.227-.653.312-.347.4-.916.267-1.184-.134-.26-1.91-.785-.888-1.177 1.024-.395.934-.136 1.954-.442 1.028-.307 1.207-.263 2.138-.218.933.046 2.137.483 2.807.83.668.35 2.225 1.14 2.846 1.442.623.31 2.625.618 2.755.047.136-.572.042-1.266-.62-1.53-.667-.267-2.098-1.32-2.72-1.32-.623 0-1.507-.042-1.996-.437-.49-.394-2.184-1.533-3.207-1.533-1.023 0-2.185.66-2.536 1.007-.356.35-.8.925-1.555.877-.76-.045-1.515-.572-2.316-1.144-.8-.567-2.355-1.446-3.738-1.665-1.38-.217-2.8-.04-3.158-.303-.358-.264-.897-.617-1.515-.656-.624-.05-1.205.562-1.292.96-.084.398.226.657.713.966.494.308 1.34 1.047 1.563 1.4.22.355.92.676-.27 1.05-1.246.4-1.782.176-2.274-.22-.484-.39-2.535.09-3.072.437-.623.217-.975.217-1.466.09-.49-.13-2.584-.654-2.99-.177-.392.484-.04.705.582 1.054.626.35 2.093.485 2.986.262.885-.22 2.395-.484 2.98-.177.578.31 1.332 1.007 1.332 1.75 0 .75-.22 1.756-1.376 1.845-1.164.086-3.653.177-4.05.394-.404.22-1.516.708-2.23.572-.712-.132-.888.045-.933.3-.044.263.31 1.006.798 1.142.49.132 1.074.4.85.79-.228.392-1.116 2.72-2.717 2.674-1.6-.045-.893 0-.843-.264.04-.26-.227-.132-.538-.04-.314.086-2.585 2.54-3.203 3.065-.632.53-2.003 2.807-2.495 3.116-.487.306-3.788 3.81-4.14 3.85-.357.313-.983 1.1-1.695.358-.708-.75-.974-1.102-.974-1.45 0-.345-.31.047-.36.35-.04.313-.49 1.674-.667 2.022-.177.354.932 1.488 1.38 1.538.445.04 1.072.742 1.782 1.093.71.352 2.628.483 3.155.708.533.213 1.157.128 1.647.48.487.348.974.613 1.245.174.264-.44.042-.877-.357-1.315-.4-.445-1.245-.837-.487-2.19.757-1.362.983-1.628 1.47-2.763.486-1.15.486-1.756.486-2.417 0-.653.268-2.272 1.07-3.153.803-.88 1.646-1.755 2.002-1.755.355 0 1.606-.086 2.273-.355.668-.26 3.382-2.062 3.25-3.94.266-.575.4-1.047 1.336-1.32.934-.258 2.495-.74 3.024-.217.533.53.803.616.4 1.32-.397.702-.666 2.1-1.776 2.23-1.112.143-2.183.27-2.41.442-.218.177-.262.75.27.964.534.222 1.204.748 2.178.53.985-.22.713-.348 1.295-.836.58-.484.535-.613.933-.613.4 0 1.292-.045 1.915.045.63.09 1.42.265 1.65.572.222.307 1.124.645.222.925-1.873.567-4.41.96-5.744 1.225-1.334.258-1.47.177-2.625.087s-1.73-.223-2.18-.267c-.447-.04-1.245.305-.447.7.802.396 2.673 1.493 2.142 3.903-.536 2.408-.623 3.157-1.245 3.595-.626.432-1.56 2.24-2.452 1.97-.883-.264-1.284-.135-.84.307.446.44 1.112.878 1.646.926.533.04 1.205.126 1.827-.404.622-.524 2.226-1.53 2.76-2.015.532-.477.447-1.71.487-2.194.046-.475.046-1.047.625-1.394.582-.343 1.023-.833 2.716-.876 1.692-.04 6.722-.48 7.7-.564.973-.09 2.846-.527 3.467-.527.62 0 1.778-.184 1.74 1.18-.046 1.7.487 3.902.04 4.647-.357.707-.662.79-2.09.526-1.42-.258-2.18-.48-2.803-.748-.623-.26-1.115.048-.447.484.67.44 1.916 1.054 2.498 1.532.578.484 1.333.524 2.134.612.804.087 1.825.572 2.492 1.053.673.48 2.314 2.063 2.892.35.58-1.706.538-5.744 0-7.014-.528-1.265-.488-3.197.094-3.853.577-.656 1.605-1.53 2-1.927.405-.395.31-1.23-.36-1.45-.662-.217-2.397-.565-3.56-1.488-1.156-.92-2.712-1.36-2.175-2.11.308-.258 1.157-.35 1.956.088.797.435 2.177 1.273 3.737 1.8 1.563.527 3.03.614 4.272 1.226 1.25.614 3.023.922 3.517 1.054.487.13 1.515.217 1.867-.222.362-.435-.487-.74-.974-.966h-.008l-.01-.014zm-21.175-9.026s.67.26.94.694c.267.445-.23.84-.582.93-.36.088-.54.217-1.07.353-.532.127-1.334-.05-1.825-.136-.49-.09-.354-.35-.354-.612 0-.263.67-.438 1.428-1.01.36-.487 1.07-.487 1.466-.22h-.002zm-4.537-.79c.763-.524 1.115-.83 1.648-.79.535.045 1.65.482.31 1.228-.448.353-.49.612-.665.925-.178.302.04.652-.71.176-.758-.49-1.344-1.017-.582-1.54zm-.22 8.41c-1.6-.08-1.695-.567-1.737-.96-.047-.393.136-.83.487-1.14.356-.304.89-1.446 1.21-1.885.303-.44 1.594-.748 2.307-.79.798-.086 1.782.573 2.228.793.443.218.625 1.58.443 1.884-.183.31-.623.612-1.07 1.317-.446.702-.446.656-1.11.744-.67.082-1.162.123-2.76.04v-.002zm-2.76 5.397c-.623.177-.894.572-1.823 1.36-.938.79-1.07-.525-1.03-1.14-.088-.965 1.557-1.706 2.094-1.84.53-.136 1.507-.22 2.134-.486.627-.264 1.515-.174 2.224-.174.714 0 .447.132.536.524.086.394-.623.66-1.2.968-.582.31-.98.392-1.605.392-.623 0-.713.218-1.336.395h.005zm10.322-.036c-.577.126-1.155.215-2.002.432-.844.223-1.69.57-2.847.835-1.157.264-2.4.133-3.2.177-.807.047-1.246 0-1.296-.354-.044-.35 2.05-1.048 2.855-1.355.798-.305 1.2-.395 2.134-.874.176-.223 3.198-1.76 3.653-1.76.437 0 1.77.744 1.988 1.71.226.968-.706 1.05-1.288 1.188h.002zm2.8-6.587c-.35.05-.662.403-.88.583-.223.17-.315.302-.36.608-.04.314-.175.573-.44 1.008-.27.45-.853.626-1.916.626-1.07 0-1.692-.615-1.782-1.01-.09-.39.983-1.578 1.466-2.144.176-.395 1.475-1.184 1.922-1.23.446-.048 1.555.397 2.267.834.716.435.088.698-.267.743l-.01-.017zm4.637-5.647c-.624.566-2.49 1.756-2.76 1.88-.267.137-.98.355-.846.62.133.263.487.173.94.042.44-.133 1.416-.7 2.313-1.007.887-.306 1.063-.306 1.468-.483.4-.177 1.11-.844.307-1.28-.798-.435-1.204.046-1.42.22l-.003.008zm77.5 6.165c-1.054 0-3.96-.36-5.81-.662-1.858-.316-4.012-.878-5.518.05-1.5.922-.048 1.027-2.1.973-2.057-.052-4.858.564-5.666.564-.8 0-2.855-.462-3.405-1.746-.55-1.284-1.055-2.048.5-2.663 1.557-.618 3.51-.822 4.46-.67.956.156 4.712.62 5.714.518 1.01-.104 1.657-.463 2.355-.98.702-.51 1.652-1.28 2.556-1.38.9-.102 2.453-.767 1-2.106-1.453-1.33-1.65-1.74-2.407-2.096-.752-.36-1.598-.717-2.05-1.126-.448-.41-1.307-.514-1.76-.31-.446.208-2.203 1.077-2.648 1.232-.46.15-.852.1-1.556-.204-.703-.31-1.204-.104-1.553.204-.352.31-.306.868.15 1.228.45.36 1.947 1.95 0 2.718-1.96.766-6.563 2.255-6.82 2.973-1.096-.106-3.707-.415-3.653-1.796.046-1.385 2.252-1.437 2.706-1.335.446.103 1.447.103 1.745.31.304.205 1.052.308 1.205.052.152-.258.095-.662-.297-.925-.404-.254-.804-1.177-1.502-1.177-.704 0-3.308.36-4.912-.41-1.606-.77-3.01-1.076-4.164-2.155-1.15-1.075-2.552-2.047-4.807-1.33-2.253.716-3.51 1.282-4.36 1.642-.854.353-1.3.813-.495 1.28.804.457 1.407.608 1.8 1.33.405.72.054 1.95-1.644 2.048-1.713.103-3.816.36-4.767.51-.95.164-3.104.722-4.505.777-1.402.054-2.66 0-3.26-.154-.597-.15-1.955-.252-2.254.155-.298.415.203 1.075 1.258 1.233 1.042.155 2.097.358 3.197.358 1.11 0 4.317-.922 5.818-.82 1.503.098 4.006.918 4.006 2.095 0 1.18-.747 2.263-1.745 2.463-.952.412-.757.72-.608 1.075.156.363.808.512 1.36.567.55.054 1.15.566 1.205 1.024.046.464-.507 1.28-1.66 1.335-1.448.463-4.605.925-5.26 1.225-.65.313-2.104 1.03-3.758.72-1.65-.307-4.813-1.177-5.015.205-.203 1.385 1.4 1.385 2.4 1.483 1.002.105 3.253.62 5.01 0 1.754-.615 2.598-1.075 3.656-1.13 1.054-.045 1.003-.252 1.706-.252.704 0 .903-.095.555.462-.35.564-1.658 2.718-3.008 3.743-1.353 1.027-3.058 1.9-4.16 2.36-.753.353-2.51 1.324-1.954 1.686.55.368 1 .41 2.453 0 1.456-.408 3.26-2.055 4.208-2.77.954-.715 2.31-2.61 3.513-4.303 1.205-1.692 2.96-3.28 3.604-3.43.65-.156 2.304-.465 2.61-.258.3.204.35.055.35.716 0 .664-.153 2.92 0 3.535.15.612.797 1.333.702 2.255-.102.925.095 1.902-1.5 1.235-1.606-.666-2.66-1.13-3.208-1.388-.555-.253-1.1-.253-.65.36.447.613 1.45 2.107 1.548 2.87.106.775.31 1.545 2.16 1.696 1.855.153 1.458.05 2.26.26.8.2 2.454.357 3.302-1.18.852-1.54.352-2.36-.352-3.44-.698-1.075.054-2.052.455-2.51.4-.462.65-1.13 1.65-.36 1.003.767 1.257 1.388 1.76 1.693.5.308 1.25 1.225 1.554.613.297-.614.696-1.434-.65-2.307-1.353-.87-4.262-2.566-2.11-3.434 2.153-.872 3.21-1.024 3.003-1.43-.203-.412-1.055-.77-1.602-.928-.555-.146-1.3-.197-1.853-.558-.552-.36-.853-1.334-.452-1.588.402-.26.752-.822.254-1.334-.5-.513-.303-.87.25-1.13.55-.254 2.453-1.025 3.2-1.025.75 0 3.008.054 3.358.054-.196.973-.047 1.798.753 2.41.8.612 1.05 1.026.196 1.334-.852.308-1.65.97-1.25 1.333.402.357.952.41.904 1.742-.054 1.332 0 2.455-.148 4.204-.152 1.742-.75 2.766-1.153 3.173-.398.414-1.854 1.95-1.407 2.21.453.257 1.457.045 2.354-.464.902-.513 3.464-2.512 3.464-3.437 0-.926-.352-3.127-.303-3.845.05-.717 1.096-2.253 2.51-2.153 1.4.1 2.45.618 3.702 1.897 1.248 1.283 2.15 1.794 2.1 2.663-.054.87-1.25 4.977-1.5 6.056-.253 1.075-.405 1.897-.202 2.512.203.612.4 1.078 1.452.51 1.055-.556 3.152-1.536 3.856-1.536.703 0 3.404-.875 1.948-3.077-1.45-2.204-1.498-4.663-1.45-5.64.054-.974 1.304-5.89 5.215-4.768.804.313 1.206.106 1.503.517.302.408.55.667 1.153.204.595-.463 1.3-1.334 1.705-1.588.407-.26.556-1.338-.496-1.338l.007.01v-.012zm-40.294-4.77c.352-.253 1.258-.355 1.71-.052.45.313-.605.72-.86 1.032-.248.313-.797.667-1.244.258-.454-.408 0-.87.393-1.238zm3.717 3.384c-.5.313-1.056.77-1.854 1.025-.806.258-1.706.054-2.355-.15-.65-.204-.253-.462-.152-.966.105-.516 1.854-1.23 2.51-1.74 1.203-1.076 2.6-.51 3.158.054.552.56-.805 1.483-1.303 1.786l-.004-.008zm91.203-9.24c-.61.096-1.632.33-2.057-.37-.424-.71-1.968-1.04-2.48-.804-.515.236-2.436 1.13-3.086 1.36-.66.24-3.328.428-3.887.662-.56.234-1.078.477-2.013.245-.936-.235-3.748-.422-4.73-.326-.978.09-1.493-.144-2.146.09-.656.237-1.407.756-2.105.803-.704-.096-2.206-.704-3.418-1.08-1.218-.383-2.48-1.183-3.186-1.367-.71-.19-1.875.05-2.34.467-.467.426-1.406 1.46-1.925 1.6-.514.144-3.508 1.46-4.348 1.512-.85.04-2.438 0-3.044.14-.605.14-2.436.47-3.513-.24-1.073-.71-1.403-.938-1.637-1.222-.23-.285-.61-.238-.61 0 0 .232-.043 1.266-.043 1.266-.147 1.224.276 2.49 1.116 3.15.843.66 1.688 1.08 2.294 1.37.615.283 1.976.845 1.266 2.83-.7 1.972-1.776 8.612-1.722 9.973.04 1.368-.243 1.456-.568 1.552-.327.095-.56.326-.793.147-.236-.19-.374.14-.19.42.186.282.466.655.705 1.036.23.376.7 1.13.422 1.837-.28.702.094 2.64 1.82 2.544 1.73-.096 4.776-.9 4.12-3.022-.65-2.114-1.494-2.306-1.218-5.925.284-3.625.94-5.415 1.08-5.79.137-.382.05-.427.795-.525.748-.088 5.195-.936 6.18-1.408.984-.467 1.447-.753 2.25-.753.792 0 2.24.33 2.198-1.13.04-1.034 1.035-3.717 1.732-4.465.703-.757.838-1.18 1.637-1.32.798-.142 1.174-.428 1.875-.99.702-.57 1.447-1.084 1.778-.188.325.885 1.11 3.198.698 3.624-.65.658.136.406.086 1.055-.06.76.373 1.456.33 2.218-.036.664 1.665.11 2.978-.23 1.32-.336 4.086.157 4.98.25.886.097 2.572.197 3.043.197.47 0 .563.044.563.558 0 .52-.236 1.508-.19 2.967.048 1.467-.324 4.57-.135 4.948.185.378.416 1.977.742 2.97.328.98.24 3.525-1.775 2.538-2.01-.99-3.23-1.558-3.6-1.655-.372-.088-1.032-.183-.563.332.46.522 3.18 2.922 4.397 3.58 1.214.662 4.027 2.266 5.15 2.405 1.123.146 4.492 1.837 4.21-1.742-.464-1.785-1.077-3.862-1.306-4.8-.235-.938-.608-4.34-.562-5.234.044-.9.19-2.87 0-3.674-.187-.803-.8-2.64-.754-3.293.046-.66.284-1.937 1.127-2.827.84-.895 2.057-2.685 2.345-2.92.277-.23 1.163-1.595.46-2.354-.697-.75-1.823-1.08-2.436-.988h.01l-.008-.006zm-35.374 3.215c.166-.195 2.293-.852 2.566-.94.274-.084.765-.25.9.663.133.903-.846 1.424-1.53 1.647-.682.223-1.31.52-1.966.684-.658.172-.552.192-1.334-.488-1.096-.912.845-1.348 1.364-1.565zm3.69 5.654c-.223.525-1.83.776-2.377 1.017-.544.245-1.64.39-2.462.466-.812.084-.897-.68-.84-1.07.05-.378.687-1.62.954-2.25.278-.633.604-.685 1.204-.96.214-.192 1.963-.415 2.34-.442.388-.02 1.43.825 1.62 1.323.188.496-.22 1.4-.435 1.922v-.004h-.004zm23.48-.98c-.435.074-.96 0-1.83.024-.875.027-1.693-.17-1.942-.633-.243-.464.738-.902 1.637-1.1.6-.19 1.56.03 2.165.217.596.196.817.418.87.746.054.326-.464.66-.9.748zm1.087-3.66c-.485.745-2.155.94-3.246 1.107-1.095.16-1.78-.504-1.856-.885 0-.35.244-.877.874-1.374.623-.49 1.746-.656 2.287-.898.54-.253 1.866.106 2.218.492.35.38.216.82-.278 1.56v-.002zm-4.912 6.732c-.792.027-1.746.272-2.16.19-.42-.08-1.15-.08-1.502-.275-.365-.19-1.07-.667-1.51-.613-.434.05-1.827.19-2.542.327-.703.137-1.826.414-2.43.414-.603 0-1.8.416-2.236.605-.44.193-2.158.82-2.158.82-1.09.333-3.5 1.13-4.127 1.13-.628 0-1.34-.17-1.912-.33-.567-.17-2.565.163-2.376.938.195.762.14 1.015 1.177.82 1.035-.2 2.102-.444 2.948-.58.844-.136 1.583-.433 2.023.027.434.468.956.935.785 1.81-.162.88-.222 2.447-.487 2.972-.274.524-.848 1.347-1.853 1.43-1.01.075-2.595.76-2.595 1.645 0 .877.763 1.87 1.907 1.783 1.15-.082 1.425-.36 2.162-.36.734 0 1.69.06 2.373-.357.684-.414 1.393-1.53 2.186-1.81.792-.275 1.907-.52 2.647-.493.736.027 2.046.027 2.1.912.057.816-.33 1.09-.548 1.255-.212.163-.465.963-.3 1.292.163.336 1.178 1.13 1.45 1.43.27.304.788.965 1.252.965.465 0 .987-.14 1.204-.688.223-.55.736-1.706.95-2.086.222-.388.357-2.146.305-2.534-.053-.375-.27-5.406-.134-5.79.135-.382-.42-1.593.758-2.226 1.177-.626 1.912-1.456 2.376-1.678.466-.218 1.04-.988.247-.957v.004l.02.008zm-9.557 8.813c-.272.085-.6.415-1.28.713-.682.3-1.097.41-1.858.467-.764.05-1.152-.245-1.23-.794-.08-.546.766-1.014 1.088-1.18.33-.167.685-.3 1.394-.3.248 0 1.015-.055 1.475-.055.46 0 .705.27.794.544.08.277-.108.523-.383.605zm.276-2.477c-.307.415-1.096.69-2.077.773-.984.085-1.07-.05-1.503-.166-.437-.106-.598-.547-.627-.988-.028-.438.955-1.18 1.693-1.21 1.12-.27 2.347.113 2.673.42.332.297.143.768-.156 1.173l-.004-.002zm.568-3.122c-.155.357-1.06.406-2.673.38-1.61-.026-2.042-.57-2.137-.962-.077-.386.17-.493.414-.797.244-.302 1.2-.517 1.556-.58.243-.026 1.058 0 1.804.06.73.042 1.258.654 1.335.926.08.273-.144.6-.307.967l.01.006z"/>
  </g>
</svg>
