<svg xmlns="http://www.w3.org/2000/svg" viewBox="0 0 236 36"><title>date</title><path fill="#F6FCF9" fill-rule="evenodd" d="M25.16 26.608l-.288.288.192.336 1.056.288 1.44-.096.432-.144.864.144.528-.144 1.2.144.96-.144.96.24.816-.144.72.048.576.24.192.24.24.72-.048.432-.24.24-.576 1.776-.24.288.048.432-.24.768-.816 1.344h-.384l-.864.192-.768-.048-.288-.24-.768.288-2.304-.192-.528.192h-1.248l-.528-.192-.48.192-1.296-.192-1.488.192-.72-.192-.672.24h-.336l-.72-.24-2.4.24-1.056-.336-.624.24-1.152-.096-.336-.144-.384.144-.72.048-1.2-.192-.816-1.728-.048-.912-.624-1.104-.096-.432.288-.72.528-.576.432-.096 1.296-.96.72-.336.384-.048.192-.192.144-.336.72-.288 1.392-.816 1.056-.768h.432l.576-.336.528-.528 1.056-.624.24-.288 1.296-.816.384-.144.672-.432.528-.528h.432l.432-.624.72-.384 1.536-1.2.768-.288.192-.528.576-.432 1.008-.96.336-.192 1.92-2.4.384-.672.384-1.2.432-.624.144-2.4-.864-1.92-.528-.432-.096-.384-.48-.048-.336-.192-.576-.528-.816-.096-.288.144-.336-.192-.672-.048-1.2.192-.576.576-.48.096-.288.24-.48.624-.288.24V7.6l-.144.336-.048.432.48.624.576 1.536-.24.432.192.384v.432l-.288 1.056v.336l-1.104 1.008-1.008.528-.48.048-.432.288-.672-.048-.288.144-.384-.192-.768-.144-.336-.144-.576-.576-.432-.192-.672-.816-.288-.144-.096-.432-.192-.336v-.384l-.288-.624V9.616l-.144-.72.672-1.872.144-.864.48-.576.336-.72.432-.624.528-.528.336-.192.432-.72.528-.528 1.152-.528.384-.528 1.152-.528.768-.096L23.96.4l.72-.192.288-.24.72-.048.72-.24.336.144L27.8-.32l.288.192.72-.096.24-.144 3.168.528 2.4.864 1.104 1.008 1.488 1.104.768 1.2.288.24.288.864.576 1.008-.048.432.528.72-.144.336.24 1.2v.384l-.096.288.24.624-.144.384-.096 1.488-.096.384-.72 1.392-.096.576-.336.48-.192.528-.624.528-.432.96-.432.528-.096.288-.816.432v.432l-2.304 2.112-1.248.96-.672.384-.576.528-1.344.912-.672.24-1.152 1.008-2.064 1.152-.576.48zm-2.928 2.4l-.432.048-.336-.288h-.384l.384.768-.048.384.528-.432.48.24.432-.528-.624-.192zm13.632-18.672l-.192.096.192.384.288.288.144.384.384-.144.432.048-.144-.336-.912-.432-.192-.288zM17.96 28.096l-.24.048.48.48-.144.336.624.24.624-.24-.72.096-.048-.672-.192-.336-.384.048zm16.272-14.928l.24.288.768-.384-.336-.192-.768-.144-.288-.24.384.672zm-2.208 2.496l.048.24.384-.096.576-.48.192-.288-.384.096-.816.528zm-11.472 13.92l.144.336-.144.288.144.144.384-.768-.192-.288-.336-.192v.48zm4.512 1.776l-.096.432.384.096.432.432v-.432l-.432-.432-.288-.096zm-4.224-4.512l.24.144.432-.048.288-.144-.336-.096-.24-.192-.432-.048.048.384zm-3.12.192l.336-.144-.192-.336-.336-.192-.192.288.096.288.288.096zm2.928.48l.048.384h.384l-.096-.624-.288-.192-.048.432zm1.392 2.592l-.192.528.624.144-.048-.384-.384-.288zm-4.512-.864l-.288.048.096.288.288.144h.336l-.096-.336-.336-.144zm1.392-.912l-.144.336.384-.144.24-.336.432.048-.288-.336-.24.24-.384.192zM36.056 11.92l-.528.096.144.384.384.048v-.528zM22.424 27.328l-.288.384h.384l.192-.432-.144-.384-.144.432zM34.712 7.84l-.192.48h.384l.192-.48h-.384zM24.92 22.624l-.144.384.384.096.096-.624-.336.144zm10.176-7.632l.048.384h.288v-.336l-.192-.384-.144.336zm-15.36 14.64l-.336.192v.336l.144.192.192-.336v-.384zm14.64-22.32l.24-.144-.24-.192-.384-.096.096.336.288.096zm-.384 6.768l.192.24.192-.096-.048-.336-.24-.192-.096.384zm-2.016-8.688l.336.048v-.432h-.336v.384zM21.848 25.648v.384l.384-.048.096-.24-.48-.096zm-.96 0l-.192.288h.384l.192-.432-.384.144zm15.744-16.08l.384.048-.096-.336-.336-.096.048.384zm-8.496 9.888H27.8l.192.336.336.048-.192-.384zm-2.88 10.992l-.384.096.288.24h.336l-.24-.336zm-1.824-1.776h-.336l.192.336.336-.048-.192-.288zm-3.456-1.68l-.336.096.096.24h.384l-.144-.336zm3.648 3.552l-.432.096v.24h.336l.096-.336zm12.192-22.56l.336-.048-.144-.24-.336-.096.144.384zm-19.44 21.744l-.096.288.336-.048.096-.336-.336.096zm.336-.816l.288-.144-.384-.096-.336.096.432.144zM34.28 9.472l-.096.048v.192l.288.096.048-.288-.24-.048zM21.56 31.12l.24.144.048-.288-.24-.192-.048.336zm-1.488-6.624l.048.384.336-.384h-.384zm11.52-8.352l-.048.288.24-.048.096-.288-.288.048zm-8.832-9.6l-.288.336.48-.096-.192-.24zm-2.496 18.672l.192.384.192-.288-.384-.096zm-1.92 4.512l-.384.096.096.288.288-.384zM35 4.672l.336.24v-.336L35 4.672zm-15.456 20.64l.384.288-.048-.288h-.336zM34.616 8.704l-.144.288h.336l-.192-.288zM21.608 28.24l.096.192h.144l.096-.192h-.336zm.768.096l-.24.144.432.096-.192-.24zm1.344.768l.192.192.192-.24-.384.048zm8.88-15.216l.24.336v-.336h-.24zm-13.92 13.44l-.192.288.336-.096-.144-.192zM34.328 5.296l-.24.144.384.096-.144-.24zM17.72 27.28l-.288-.192.096.336.192-.144zm.96 4.416v.192h.192v-.192h-.192zm-1.248-2.928v.192h.192v-.192h-.192zm3.024-18.432v.288h.24l-.24-.288zm4.272 21.552l-.096.24h.144l.096-.24h-.144zm8.544-26.976l.192-.144-.336-.096.144.24zM29.24 30.208l-.096.336.24-.144-.144-.192zm-9.84-1.536v.192h.144v-.192H19.4zM34.184 6.256l-.096.192.384-.192h-.288zm-.816 2.736v.192h.288l-.288-.192zM19.4 26.176v.192h.144v-.192H19.4zm-3.552 4.032v.144h.192v-.144h-.192zm20.928-18.144l.24.144v-.192l-.24.048zM24.632 29.92v.192h.24l-.24-.192zm7.152-25.68v.24l.192-.096-.192-.144zm2.592 6.816v.24h.144l-.144-.24zm.096 4.224l.144-.048-.336-.096.192.144zM30.2 19.648l-.096.096.24-.048-.144-.048zM18.872 8.896l-.096.096v.192l.096-.288zm1.056 21.984l.096.096h.144l-.24-.096zM68.05 13.312l-.24.288.384.624-.24.864-.24 2.016-.336.576-.144 1.776-.432 1.488-.48.912.096.432-.672 1.008-.24.864-.384.768-.336.288-.624 1.536-.864 1.296-.528.192.096.432-.528.192v.624l-2.208 2.064-.48.576-.384.096-.816.72-.48-.096-.24.336-1.728.816-2.016.624h-1.584l-.336.192-.48-.288-.528.192-.432-.192-.816.048-.816-.144-2.016-.816-.24-.336-.816-.192-.672-.384-.528-.528-.672-.912-.576-.48-.48-.576-1.584-3.216.192-.336-.336-.528-.096-1.104-.192-.432-.096-.72v-1.728l-.096-.624.288-.48-.288-.432.336-2.448.288-.72-.048-.912.096-.384.576-1.008-.096-.624.288-.72.432-1.536.528-.48-.096-.576.528-.24-.144-.528.096-.384.624-.912.24-.816.288-.24.432-.672.336-.192v-.528l1.344-1.824.528-.528.336-.192.192-.432 1.488-.912.528-.624.384-.192.144-.432.72-.144.864-.528.384-.048.624-.576.48.048.768-.144.624-.288.672-.144.384.048 1.152-.144 1.152.336.384-.144.72.048L61.234.4h.288l1.824 1.248.24.288h.528l1.92 2.208.768 1.296.816 2.16.48 2.256.144 3.12-.192.336zm-8.064 3.504l-.144-.288.288-.672.384-2.208.144-.384-.192-.528.24-.72-.144-1.056.144-.72-.144-.336v-.72l-.576-1.392-1.008-1.536-.72-.24-1.344-.24-1.248-.048-.624.384-1.488 1.152-.336.144-.192.816-.912.864-.144.768-.384.624-.528.384.048.384-.528.816.048.384-.192.336-.24 1.2-.72 1.488V16l-.24.432v1.104l-.192.336-.24 1.2-.288.768.096.288v.384l-.288 1.104.048.336.24.24-.192.432-.048.768.192.72.048 1.488.288.672.672.96.192.672.432.144.624.432 1.584.192.384-.048.432-.192.432.24 1.056-1.008.72-.336.048-.288.72-.768.288-.672.576-.912.288-.192.096-.432.432-.768.288-.288-.096-.432.144-.336.576-.48-.048-.384.24-.384v-.432l.528-1.392.144-.672-.048-.432.528-.912-.144-.336zm-14.352.672l-.432.048.288.768.336.288.288-.288-.432-.432.432.24.192-.432-.672-.192zm-.72 1.68l-.048.288.192-.192.096.384.624-.288.048-.24-.912.048zm-.672 2.112l.096.288.432.096.288-.144-.72-.528-.096.288zM54.274 3.856l-.288.192.336.096.384-.096.144-.432-.144-.096-.096.192-.336.144zm-8.88 18l-.192.528.384.096.096-.528-.288-.096zm16.608 2.784l-.192.144.144.288.288.144.096-.432-.336-.144zm-16.176-8.016v.432h.528l-.144-.336-.384-.096zm18.912-3.936v.384l.288-.096.048-.384-.288-.24-.048.336zm-2.352-2.784L62.05 10l.288.192.192.288.336.144-.48-.72zm-18.72 13.104l.24.192.192-.24.048-.384-.336.144-.144.288zm15.552 2.976l-.192.288.912-.096-.288-.192h-.432zM46.834 14.656v.384l.336-.096v-.336l-.24-.192-.096.24zM52.21 3.904l.288.24.096-.624-.384.096v.288zm-6.96 22.464l.24-.192-.72-.24.144.288.336.144zm17.328-4.848l-.144.336.24.192.192-.528h-.288zm-19.68-1.392l.192.24.192-.384-.432-.144.048.288zM48.13 9.616l.384.192-.144-.384-.384-.144.144.336zm-.864 2.928l-.096.288.432.096-.048-.336-.288-.048zM61.57 23.536l-.144.288h.48l-.096-.336-.24.048zm2.16-8.544l-.24.384h.336l.048-.288.24-.144-.384.048zm-.576 4.608l-.192.288h.432l.096-.24-.336-.048zm.336-8.832h-.48l.144.432.336-.432zm2.352-1.776l-.336-.096.096.336.288.144-.048-.384zM47.506 11.68l-.048.432.432-.288-.384-.144zm.48-4.704h.336l-.192-.24-.336-.048.192.288zm-1.008 4.176l.192.24.096-.288-.192-.24-.096.288zm13.92 11.088l.192.144.096-.288-.288-.144v.288zm4.224-7.536l.048.24.288-.24-.144-.192-.192.192zm-2.016-5.088l-.144.288h.336v-.192l-.192-.096zm-14.544.528l-.144.096h.336l.192.192v-.288h-.384zm15.888 6.72l.288-.144-.48-.192.192.336zm-1.872 1.344l-.096.384.384-.288-.288-.096zm3.36-.768v.24h.192l.096-.24h-.288zm-4.32-11.376v.384l.288-.384h-.288zM45.682 23.008l.24.432.096-.288-.336-.144zm17.52-17.184h-.432l.096.24.336-.24zm-16.464 9.312l-.192.432.288-.144-.096-.288zm15.408 1.536l.192.24.096-.384-.288.144zm-17.088-1.728l-.096.288h.192l.048-.288h-.144zm1.488-1.248l.192-.24h-.384l.192.24zm18.336-4.848l-.096.24h.192l.096-.24h-.192zm-.912 9.312l.288-.048-.432-.24.144.288zM65.026 10l.24.144-.096-.432-.144.288zm-4.32 14.352l-.048.144.24.096v-.24h-.192zm3.408-11.376l-.288.384.288-.096v-.288zm-19.2 14.256l.24-.144-.384-.096.144.24zm13.584.096v.192h.192v-.192h-.192zm-1.056 1.44l.192.336.192-.048-.384-.288zm-10.896-2.4v.192l.384-.192h-.384zm-.72-10.8l-.048.336.24-.144-.192-.192zm20.112 3.696l-.24.192.24.096v-.288zm-2.448-5.376l-.096.336.24-.144-.144-.192zm-.48 1.824l.192.096-.192-.432v.336zm.384-6.864v.24h.24l-.24-.24zM43.378 22.192v.192h.144v-.192h-.144zm19.104-8.736v.144h.192v-.144h-.192zm-3.504-8.88v.288l.192-.144-.192-.144zm.048-1.872v.192h.288l-.288-.192zM46.114 9.472l.192.336.048-.192-.24-.144zm12.912 19.536l.096-.24-.24.096.144.144zm4.176-21.312v.24l.192-.096-.192-.144zm-17.52 8.592v.144h.144v-.144h-.144zM59.938 3.952l-.096.192.288-.192h-.192zM86.412.304l.24.336.672-.24.48.048.192.24.24 1.008-.144.24-.288.096.192.432-.096.384-.384.768.048.384-.384.336.144.384-.048.336-.672 1.296-.048.384.096.384-.24.288-.288.816-.24.288.048.72-.336.528.048.384-.192.72-.192.336-.096.768-.24.672-.192.24v.48l-.624 1.44.048.384-.192.288-.24.768-.144.864-.48.48.096.384-.336 1.344-.192.384-.24.24-.576 2.688-.528.24.288.384-.624 2.16-.624 1.392-.624-.096.528.432-.192.576-.048.768-.384.528-.048.72-.192.96-.384.576-.24.72-.096 1.104-.336.24-.48.624-.72.048-.336-.144-2.352.288-1.536-.096-1.344-.336.144-.72-.144-.288.384-.96v-.336l.336-.576v-.336l.192-.768.528-1.104.096-.816 1.056-3.072v-.816l.24-.24.144-.336.192-1.296.144-.336.24-.24.192-1.2.24-.672.384-.528-.096-.432 1.056-3.552h.528l-.096-.384v-.816l.144-.768.48-1.488-.336-.432-.432.144h-.384l-.144.528h-.384l-1.2 1.104-.72.96-.72.192-.816.048-1.056-1.008-.384-.576-.048-.336-.432-.096.096-.816.384-.624.816-.624.72-.912.72-.384.144-.528.624-.432.384-.096 2.4-2.496.432-.096.528-.816.624-.144.192-.24.048-.384 1.92-1.488 1.008-1.2L83.1.448l.48-.096 1.68.096 1.152-.144zm-5.136 9.6l-.48.048.144.336.912.432.816-.192.432.048-.192-.336-.336-.192-.624.336-.672-.48zm-1.584-1.536l-.144.432.336.24.384.048.384-.192-.672-1.104-.336-.24.096.432-.048.384zm.48 7.296l.192.144-.096-.816h-.432l-.288.144-.144.288-.432-.24-.096.336.096.336h.768l.144-.336.288-.192v.336zm-.528-5.616v.336l.528.336.096.288.432-.096-.096-.384-.96-.48zm2.304-.432l.192.336.288-.672.24-.24-.24-.144-.288.24-.192.48zm-4.56 10.8l-.048.336.288-.192.192-.336v-.72l-.624.432.192.048.336-.096v.336l-.336.192zM82.476 7.6v.384l.288.288.192-.384-.192-.432-.288.144zm-2.88 5.568l-.192.384.288.144.24-.096.096-.384-.432-.048zm1.632.096l.384.048-.096-.432-.336-.192-.096.288.144.288zm1.536-6.768l.336.096.096-.48h-.528l.096.384zm-1.056 1.776l.096.432.336-.096.288-.24-.72-.096zM80.94 12.4l.144.288.336-.72h-.336l-.144.432zm1.2 3.168l.336-.144-.096-.288-.24-.144-.144.336.144.24zm-2.592 1.104l.288.192-.192.144h.48l.048-.24-.336-.144-.288.048zm2.688-5.232h-.384l.192.336.384.096-.192-.432zm.816-7.008l.144.288.192-.432L83.196 4l-.144.432zm-2.64 2.256l.24.144.144-.336-.432-.096.048.288zm-2.16 21.168v.336l.336-.048.096-.192-.432-.096zm-1.056-4.608l-.288.336h.528l-.24-.336zm4.032-12.384l.048.384.336-.336-.384-.048zm-3.504 15.984l.096.48.24-.288-.336-.192zM79.116 9.76v.336h.192V9.76h-.192zm-4.08 21.168v.288h.192l.096-.192-.288-.096zm4.896-16.224l.192-.24h-.384l.192.24zm.864-7.488l.384.24-.048-.24h-.336zM79.356 20.8l-.048.288.336-.336-.288.048zM82.62 4.24l-.144.288.384-.24-.24-.048zm-2.88 4.368v-.192h.192v.192h-.192zm.192 9.024l.336.288-.048-.24-.288-.048zm4.416-8.88l.096-.24-.288.096.192.144zm-4.8 7.584v.144h.192v-.144h-.192zm-.816-5.616l.144-.24-.288.096.144.144zm4.896-4.992l.096-.24-.24.096.144.144zm-4.128 13.2l.24.144v-.192l-.24.048zm1.152-9.408v.144h.144V9.52h-.144zm23.88-9.696l.337.24 1.007-.288.624.288.48-.048.77.144.767.336.528.336 1.488.432.576.528 1.055.576.384.624 1.007.96v.384l.336.528.048.336.625.624-.048.384.384 1.104-.19 2.928-.337.624v.864l-.384.72-2.353 3.024-.528.192-.48.528-1.2.864-.53.48-.19.336.287.72.048.432.384.144.575.48.432.624.672 1.392.43.624.145 1.584.048 1.872-.24.24-.192.672-.19.24.047.768-.144.72-1.056 1.152v.384l-.336.24-1.007 1.248-.624.288-.433.432-.432.192-.816.672-1.44.288-.77.624-1.583.24-1.152.384-.336-.144-.24-.24-.433.48-.384-.096-1.2.144-.432-.144-1.44.24-.383-.144-1.632-.096-.432-.192-.576.096-.72-.288-.96-.624-.624.096-1.632-1.056-.19-.336h-.48l-1.153-1.536-.528-.096-.145-.336-.528-.72-.096-.864-.575-1.248-.192-1.584.048-1.152.337-.624v-.48l.192-.336.047-.912.288-.672.816-1.152.337-.624.48-.192-.096-.432 1.01-.864.383-.096 1.344-1.344.432-.096.67-.384.77-.816-.145-.432.048-.384-.336-.24-.48-.576-1.056-1.776-.335-2.784.144-1.536.19-.624.29-.432.143-1.008.192-.384.96-1.248.096-.384.385-.096.144-.384 1.2-.912.24-.288.527-.096 1.68-1.248h.528l1.248-.576 1.488-.384h1.01l.527-.192 1.248.192.864-.336.383.096.24.192zm-5.807 29.52l.384.096 2.495-.432.528-.528.288-.096.53-.432.43-.096 1.057-1.248.288-2.016-.336-.624-.29-1.056-1.103-1.008-.672-.864-.384-.096-2.063-1.2-.384-.096-.24-.288-.576-.432-1.2-.192h-.48l-1.104.912-.48.528-.72.336-.864 1.728v.384l-.48.576-.337.576.528 2.4.673 1.296.24.24.048.432 1.44.672.337.048.384.432.817-.048 1.248.096zm8.784-20.448l-.145-.336-.144-.912-.287-.672-.48-.576-1.488-1.104-.816-.096-.24-.192-1.633.144-1.92.384-.528.528-.433.096-.864 1.152-.288.192-.096 1.248-.337.576.24.288.096.384v.864l.095.336.672.48.24.336.144.432.72.288.48.528.145.336.432-.048.672.432.287.336.384.192.673.048 1.104-.144.24-.336.336-.24.48-.048.144-.336.384-.096.337-.672.864-1.2.337-.624.048-.816.24-.384.096-.48-.19-.288zm-.865 13.44l-.528.048.096.48.288.288-.48.72.385.192.528-.816-.288-.192-.144-.336.433-.24.096.432.623-.096-.192-.528-.335.096-.192-.288-.288.24zM96.373 13.6l-.24.288-.384-.144-.29.144-.095.384.048.48.24-.288.096-.432.43.288.24-.24.577-.336.096-.384h-.528l-.192.24zM88.74 25.12l-.143.432.432.192.095.336.24.288.096-.432-.047-.384-.24-.288-.432-.144zm20.257-16.848l.24.192.144-1.008.193-.336-.384.048-.24.336-.05.384.097.384zM102.23 19.36v.288l.623-.096.336.096.527-.528-1.008.192-.29-.192-.19.24zm-7.057-6.288l-.048.432.624-.144.19-.192-.91-.72.143.624zm.816 1.632l-.145.336.384-.144.623.192h.336l-.29-.288-.767-.384-.144.288zm9.12 6.624l-.05.432.337.096v-.288l.384-.528h-.383l-.24-.24-.096.24.05.288zm-3.313-3.648l-.096.432.53-.096.24-.384-.05-.288-.383.144-.24.192zm-.96-.864l.336.24.144-.384-.192-.336-.384-.144-.143.336.24.288zm6.816 6.576l-.288.144.096.24h.817l.048-.432h-.336l-.145.096-.192-.048zm-8.016-7.872v.288l.72-.432-.432-.432-.192.24-.096.336zm4.32 3.456l-.144.288.528-.096.05-.672-.193-.192-.24.672zm1.488-.096l.24.24.288-.096.576.096-.29-.288-.383-.048-.384-.24-.048.336zm-14.112 2.208l-.336.048.048.336.192.192.288-.192.144-.336-.337-.048zm14.16 1.92l-.24.24.336.048.24-.192.143-.384-.288-.096-.192.384zM94.165 9.136l.432.144v-.72l-.384.192-.048.384zm11.088 16.608l-.096.192.48.096.336-.096-.24-.24-.336-.144-.144.192zm2.496.672l-.097.384.432.096.096-.624-.43.144zm-17.617-.48h.384l-.144-.384-.384-.144-.097.288.24.24zm16.176-8.304l.19.336.53.144-.24-.432-.337-.192-.144.144zm-.385-1.056l.288-.384-.288-.096-.288.144-.144.288.432.048zm1.488 7.92l.24.288.144-.384v-.432l-.336.192-.047.336zm-3.456-6.96l-.144.336.288-.192.24-.624h-.43l.047.48zm2.496 8.928l-.336.096.192.288.335.144.096-.384-.287-.144zM97.67 16.192l.047.336.24-.144.144-.336-.047-.336-.384.48zm8.447 5.616l-.336.048.097.432.528-.48-.096-.24-.193.24zm-.912-3.984l.288.144.288-.288-.623-.192.048.336zm-6.864-2.88l.337.144-.096-.576h-.24v.432zM95.126 9.04l.096.384.29-.24V8.8l-.385.24zm14.64-4.56l-.192.432.384.096.048-.336-.24-.192zm-6.72 13.008l.336.192-.047-.384-.24-.24-.048.432zm-3.696-3.84l.047.384.24-.24.096-.384-.384.24zm9.263 7.824l.24.192.096-.432-.145-.192-.192.432zm-2.304 6.816l.095.48.24-.144-.096-.336h-.24zm-7.73 3.888l.193.192.096-.288-.29-.336v.432zm-2.447-15.264v.24l.336-.288v-.144l-.193-.096-.144.288zm-5.28 12.192l.288.096-.19-.384-.337-.048.24.336zm4.032-22.368l.144.144.19-.432h-.335v.288zm9.408 14.016l-.096.384.288-.192.144-.336-.337.144zm-10.512-9.6l-.143.24h.336l.192-.288-.384.048zm12 9.024l.097.24.24-.24-.144-.288-.192.288zm.913 5.568l-.144.336.335-.144.144-.288-.337.096zm-7.728-8.256l-.096.096v.192l.24.096.095-.288-.24-.096zm3.552-1.68l-.384.192.384.24v-.432zm-5.232 1.248l-.096.288.335.048-.096-.336h-.145zM93.3 10.144l-.48.192.385.144.096-.336zm1.73.192v.336h.19v-.336h-.19zm1.583 5.184l.192.288.096-.528-.287.24zm9.072 12.288l.192.24.24-.336-.432.096zm-9.264-11.76l-.047.288.432-.24-.384-.048zm5.09 2.688v.384h.287l-.288-.384zm2.83 11.52v.192l.24-.096.145-.192-.384.096zM94.358 15.04l-.384.144.192.192.192-.336zm4.752 1.056l-.145.432.288-.192-.144-.24zm10.463 9.744l-.336.096.096.24.24-.336zm-11.28-12.192l-.144.288.43-.24-.287-.048zm-7.056 16.176l.288.336.048-.24-.336-.096zm5.952-14.448l.335.288-.048-.288h-.288zm11.327 10.272v.288h.288l-.288-.288zM94.98 17.68v.336h.24l-.24-.336zm6.96 2.304v.192h.193v-.192h-.192zm6.865-14.592l.24-.048-.336-.24.095.288zm-1.536 20.352l.383.24-.096-.24h-.288zm-7.2-7.2l.19-.144-.335-.096.144.24zm-3.89 11.52l-.047.384.192-.144-.144-.24zm-.96-10.8l-.095.096.384.288-.29-.384zm-4.223 4.56l.144-.048-.143-.336v.384zm20.64-15.984v.192h.144V7.84h-.143zm-4.512 21.024v.144h.144v-.144h-.145zm-11.472-13.2l-.048.048.336.288-.287-.336zm8.016-.288l-.097.192.24-.192h-.144zm4.223 8.064l-.192.096.145-.096h.048zm14.234 6.384l-.144.288.384.432-.336.72-.24.816-.335.672-.336.24-.385.096-.672.912h-.384l-.96.528-.385.048-1.584-.192-1.055-.288v-.288l-.768-.24-.576-.48-.96-1.152v-.768l-.24-1.968.433-.432v-.432l.24-.672.48-.864.72-.24 1.2-.768.384-.144 1.488-.048.768.096.72.24.192.288.624.24.383.528.336.096.143.432.48.672v.384l.432.48-.048.768zm-3.36-.432l-.24.192-.336-.192h-.43l.143.288.336.192h.335l.384-.144.24-.288.047-.384h-.432l-.048.336zm-.144 1.44l.336.144v-.336l-.193-.288-.336-.144-.047.336.24.288zm-1.344 1.2l.095.288.336-.192.05-.432-.337.096-.144.24zm-.433-1.824l-.192.048.048.48.24.144.048-.432-.143-.24zm1.68 1.104l.192-.24h-.433l.24.24zm0-2.832v.192h.192v-.192h-.193zm35.354-15.168l-.24.288.385.624-.24.864-.24 2.016-.336.576-.145 1.776-.432 1.488-.48.912.096.432-.673 1.008-.24.864-.384.768-.336.288-.624 1.536-.864 1.296-.53.192.097.432-.528.192v.624l-2.21 2.064-.48.576-.383.096-.816.72-.48-.096-.24.336-1.727.816-2.016.624h-1.584l-.336.192-.48-.288-.528.192-.433-.192-.816.048-.815-.144-2.016-.816-.24-.336-.817-.192-.672-.384-.527-.528-.672-.912-.575-.48-.48-.576-1.584-3.216.193-.336-.336-.528-.096-1.104-.19-.432-.097-.72v-1.728l-.096-.624.288-.48-.288-.432.336-2.448.288-.72-.047-.912.096-.384.575-1.008-.096-.624.287-.72.432-1.536.527-.48-.096-.576.53-.24-.145-.528.096-.384.625-.912.24-.816.288-.24.432-.672.336-.192v-.528l1.345-1.824.528-.528.336-.192.19-.432 1.49-.912.527-.624.384-.192.145-.432.72-.144.864-.528.383-.048.624-.576.48.048.768-.144.624-.288.67-.144.385.048 1.152-.144 1.152.336.383-.144.72.048 1.872.528h.288l1.824 1.248.24.288h.528l1.92 2.208.768 1.296.816 2.16.48 2.256.143 3.12-.192.336zm-8.063 3.504l-.144-.288.288-.672.385-2.208.144-.384-.193-.528.24-.72-.144-1.056.144-.72-.144-.336v-.72l-.576-1.392-1.008-1.536-.72-.24-1.345-.24-1.248-.048-.624.384-1.488 1.152-.336.144-.193.816-.912.864-.144.768-.383.624-.528.384.047.384-.528.816.047.384-.192.336-.24 1.2-.72 1.488V16l-.24.432v1.104l-.192.336-.24 1.2-.288.768.096.288v.384l-.287 1.104.048.336.24.24-.19.432-.05.768.193.72.048 1.488.29.672.67.96.193.672.432.144.624.432 1.583.192.384-.048.432-.192.43.24 1.057-1.008.72-.336.048-.288.72-.768.288-.672.576-.912.287-.192.096-.432.432-.768.288-.288-.096-.432.144-.336.577-.48-.048-.384.24-.384v-.432l.527-1.392.144-.672-.047-.432.528-.912-.143-.336zm-14.352.672l-.432.048.288.768.337.288.288-.288-.432-.432.432.24.192-.432-.672-.192zm-.72 1.68l-.048.288.192-.192.095.384.624-.288.047-.24-.912.048zm-.672 2.112l.096.288.43.096.29-.144-.72-.528-.097.288zm10.032-17.424l-.288.192.336.096.384-.096.144-.432-.143-.096-.096.192-.335.144zm-8.88 18l-.192.528.384.096.096-.528-.288-.096zm16.608 2.784l-.192.144.145.288.288.144.096-.432-.337-.144zm-16.176-8.016v.432h.528l-.144-.336-.383-.096zm18.912-3.936v.384l.287-.096.048-.384-.288-.24-.048.336zm-2.353-2.784l-.336.096.29.192.19.288.337.144-.48-.72zm-18.72 13.104l.24.192.192-.24.047-.384-.336.144-.143.288zm15.552 2.976l-.193.288.912-.096-.29-.192h-.43zm-12.385-11.328v.384l.336-.096v-.336l-.24-.192-.095.24zm5.376-10.752l.29.24.095-.624-.384.096v.288zm-6.96 22.464l.24-.192-.72-.24.145.288.336.144zm17.33-4.848l-.145.336.24.192.192-.528h-.288zm-19.68-1.392l.19.24.193-.384-.432-.144.05.288zm5.23-10.512l.385.192-.144-.384-.383-.144.144.336zm-.863 2.928l-.096.288.433.096-.048-.336-.288-.048zM147.4 23.536l-.143.288h.48l-.096-.336-.24.048zm2.16-8.544l-.24.384h.337l.048-.288.24-.144-.384.048zm-.575 4.608l-.192.288h.432l.096-.24-.335-.048zm.336-8.832h-.48l.145.432.336-.432zm2.353-1.776l-.336-.096.096.336.288.144-.047-.384zm-18.336 2.688l-.048.432.43-.288-.383-.144zm.48-4.704h.336l-.192-.24-.335-.048.192.288zm-1.008 4.176l.19.24.097-.288-.192-.24-.096.288zm13.92 11.088l.19.144.097-.288-.288-.144v.288zm4.223-7.536l.048.24.29-.24-.145-.192-.192.192zm-2.016-5.088l-.144.288h.336v-.192l-.193-.096zm-14.544.528l-.144.096h.335l.192.192v-.288h-.384zm15.888 6.72l.29-.144-.48-.192.19.336zm-1.87 1.344l-.097.384.384-.288-.288-.096zm3.36-.768v.24h.19l.097-.24h-.288zm-4.32-11.376v.384l.287-.384h-.288zm-15.937 16.944l.24.432.096-.288-.337-.144zm17.52-17.184h-.432l.097.24.336-.24zm-16.464 9.312l-.193.432.288-.144-.096-.288zm15.407 1.536l.192.24.095-.384-.288.144zm-17.088-1.728l-.097.288h.192l.048-.288h-.144zm1.487-1.248l.192-.24h-.385l.192.24zm18.336-4.848l-.096.24h.192l.095-.24h-.192zm-.912 9.312l.29-.048-.433-.24.144.288zm1.057-8.16l.24.144-.096-.432-.143.288zm-4.32 14.352l-.048.144.24.096v-.24h-.193zm3.408-11.376l-.288.384.288-.096v-.288zm-19.2 14.256l.24-.144-.384-.096.145.24zm13.584.096v.192h.19v-.192h-.19zm-1.057 1.44l.192.336.192-.048-.384-.288zm-10.896-2.4v.192l.384-.192h-.383zm-.72-10.8l-.048.336.24-.144-.193-.192zm20.112 3.696l-.24.192.24.096v-.288zm-2.45-5.376l-.095.336.24-.144-.144-.192zm-.48 1.824l.193.096-.192-.432v.336zm.385-6.864v.24h.24l-.24-.24zM129.21 22.192v.192h.143v-.192h-.144zm19.103-8.736v.144h.192v-.144h-.192zm-3.504-8.88v.288l.19-.144-.19-.144zm.047-1.872v.192h.288l-.288-.192zm-12.912 6.768l.192.336.048-.192-.24-.144zm12.912 19.536l.096-.24-.24.096.144.144zm4.176-21.312v.24l.192-.096-.192-.144zm-17.52 8.592v.144h.144v-.144h-.144zM145.77 3.952l-.097.192.288-.192h-.19zm21.817 22.656l-.288.288.19.336 1.057.288 1.44-.096.432-.144.863.144.528-.144 1.2.144.96-.144.96.24.817-.144.72.048.576.24.192.24.24.72-.048.432-.24.24-.576 1.776-.24.288.05.432-.24.768-.817 1.344h-.384l-.865.192-.768-.048-.288-.24-.77.288-2.303-.192-.528.192h-1.25l-.527-.192-.48.192-1.296-.192-1.488.192-.72-.192-.673.24h-.336l-.72-.24-2.4.24-1.055-.336-.624.24-1.15-.096-.337-.144-.384.144-.72.048-1.2-.192-.817-1.728-.048-.912-.624-1.104-.095-.432.288-.72.528-.576.433-.096 1.296-.96.72-.336.383-.048.192-.192.144-.336.72-.288 1.39-.816 1.057-.768h.432l.575-.336.528-.528 1.056-.624.24-.288 1.295-.816.384-.144.67-.432.53-.528h.43l.433-.624.72-.384 1.536-1.2.767-.288.192-.528.575-.432 1.008-.96.336-.192 1.92-2.4.383-.672.384-1.2.432-.624.143-2.4-.864-1.92-.53-.432-.095-.384-.48-.048-.336-.192-.577-.528-.816-.096-.288.144-.337-.192-.672-.048-1.2.192-.575.576-.48.096-.288.24-.48.624-.288.24V7.6l-.145.336-.048.432.48.624.576 1.536-.24.432.192.384v.432l-.288 1.056v.336l-1.104 1.008-1.008.528-.48.048-.432.288-.672-.048-.287.144-.384-.192-.77-.144-.335-.144-.576-.576-.433-.192-.672-.816-.288-.144-.096-.432-.19-.336v-.384l-.29-.624V9.616l-.143-.72.672-1.872.143-.864.48-.576.336-.72.43-.624.53-.528.335-.192.432-.72.528-.528 1.152-.528.384-.528 1.153-.528.768-.096.337-.192.72-.192.288-.24.72-.048.72-.24.336.144 1.057-.144.288.192.72-.096.24-.144 3.168.528 2.4.864 1.104 1.008 1.488 1.104.768 1.2.288.24.29.864.575 1.008-.048.432.528.72-.144.336.24 1.2v.384l-.095.288.24.624-.144.384-.095 1.488-.096.384-.72 1.392-.097.576-.336.48-.192.528-.624.528-.43.96-.433.528-.096.288-.815.432v.432l-2.304 2.112-1.247.96-.672.384-.575.528-1.344.912-.67.24-1.153 1.008-2.064 1.152-.576.48zm-2.928 2.4l-.433.048-.336-.288h-.383l.384.768-.047.384.528-.432.48.24.433-.528-.624-.192zm13.63-18.672l-.19.096.19.384.29.288.143.384.384-.144.432.048-.145-.336-.912-.432-.192-.288zm-17.903 17.76l-.24.048.48.48-.144.336.624.24.624-.24-.72.096-.047-.672-.192-.336-.383.048zm16.272-14.928l.24.288.767-.384-.336-.192-.767-.144-.288-.24.384.672zm-2.21 2.496l.05.24.383-.096.576-.48.19-.288-.383.096-.816.528zm-11.47 13.92l.143.336-.144.288.143.144.384-.768-.192-.288-.336-.192v.48zm4.51 1.776l-.095.432.384.096.43.432v-.432l-.43-.432-.29-.096zm-4.223-4.512l.24.144.432-.048.287-.144-.336-.096-.24-.192-.43-.048.047.384zm-3.12.192l.336-.144-.192-.336-.335-.192-.192.288.096.288.287.096zm2.928.48l.048.384h.384l-.096-.624-.287-.192-.048.432zm1.392 2.592l-.192.528.624.144-.05-.384-.383-.288zm-4.512-.864l-.288.048.096.288.288.144h.337l-.096-.336-.335-.144zm1.392-.912l-.144.336.384-.144.24-.336.432.048-.29-.336-.24.24-.383.192zm17.136-16.416l-.528.096.144.384.383.048v-.528zM164.85 27.328l-.287.384h.384l.192-.432-.145-.384-.144.432zM177.14 7.84l-.193.48h.384l.193-.48h-.384zm-9.793 14.784l-.144.384.384.096.096-.624-.336.144zm10.176-7.632l.048.384h.29v-.336l-.193-.384-.144.336zm-15.36 14.64l-.336.192v.336l.144.192.193-.336v-.384zm14.64-22.32l.24-.144-.24-.192-.384-.096.095.336.288.096zm-.384 6.768l.19.24.193-.096-.048-.336-.24-.192-.096.384zm-2.017-8.688l.336.048v-.432h-.337v.384zm-10.128 20.256v.384l.384-.048.095-.24-.48-.096zm-.96 0l-.192.288h.384l.192-.432-.385.144zm15.744-16.08l.383.048-.096-.336-.336-.096.05.384zm-8.497 9.888h-.336l.192.336.335.048-.192-.384zm-2.88 10.992l-.384.096.287.24h.336l-.24-.336zm-1.824-1.776h-.337l.192.336.336-.048-.19-.288zm-3.457-1.68l-.336.096.096.24h.384l-.144-.336zm3.648 3.552l-.43.096v.24h.335l.096-.336zm12.193-22.56l.336-.048-.145-.24-.336-.096.143.384zm-19.44 21.744l-.096.288.336-.048.096-.336-.337.096zm.336-.816l.287-.144-.384-.096-.336.096.432.144zm17.567-19.44l-.096.048v.192l.29.096.047-.288-.24-.048zm-12.72 21.648l.24.144.048-.288-.24-.192-.048.336zm-1.488-6.624l.047.384.336-.384h-.384zm11.52-8.352l-.05.288.24-.048.097-.288-.288.048zm-8.833-9.6l-.288.336.48-.096-.193-.24zm-2.496 18.672l.193.384.192-.288-.384-.096zm-1.92 4.512l-.383.096.096.288.288-.384zm16.657-25.056l.336.24v-.336l-.336.096zm-15.456 20.64l.385.288-.048-.288h-.336zm15.073-16.608l-.144.288h.335l-.192-.288zM164.035 28.24l.096.192h.145l.096-.192h-.335zm.768.096l-.24.144.432.096-.192-.24zm1.344.768l.192.192.19-.24-.383.048zm8.88-15.216l.24.336v-.336h-.24zm-13.92 13.44l-.192.288.336-.096-.143-.192zm15.648-22.032l-.24.144.384.096-.145-.24zM160.147 27.28l-.288-.192.095.336.192-.144zm.96 4.416v.192h.192v-.192h-.193zm-1.248-2.928v.192h.19v-.192h-.19zm3.023-18.432v.288h.24l-.24-.288zm4.272 21.552l-.096.24h.143l.096-.24h-.145zM175.7 4.912l.19-.144-.335-.096.144.24zm-4.033 25.296l-.096.336.24-.144-.143-.192zm-9.84-1.536v.192h.144v-.192h-.143zM176.61 6.256l-.095.192.384-.192h-.29zm-.815 2.736v.192h.288l-.288-.192zm-13.968 17.184v.192h.144v-.192h-.143zm-3.552 4.032v.144h.192v-.144h-.192zm20.928-18.144l.24.144v-.192l-.24.048zM167.06 29.92v.192h.24l-.24-.192zm7.15-25.68v.24l.193-.096-.192-.144zm2.593 6.816v.24h.144l-.144-.24zm.096 4.224l.143-.048-.336-.096.192.144zm-4.273 4.368l-.096.096.24-.048-.143-.048zM161.3 8.896l-.097.096v.192l.096-.288zm1.055 21.984l.096.096h.145l-.24-.096zm26.474-1.056l-.145.288.384.432-.337.72-.24.816-.336.672-.336.24-.383.096-.672.912h-.384l-.96.528-.383.048-1.584-.192-1.056-.288v-.288l-.768-.24-.577-.48-.96-1.152v-.768l-.24-1.968.432-.432v-.432l.24-.672.48-.864.72-.24 1.2-.768.384-.144 1.487-.048.768.096.72.24.192.288.624.24.385.528.336.096.145.432.48.672v.384l.432.48-.048.768zm-3.36-.432l-.24.192-.337-.192h-.432l.145.288.336.192h.337l.384-.144.24-.288.05-.384h-.433l-.048.336zm-.145 1.44l.336.144v-.336l-.19-.288-.337-.144-.048.336.24.288zm-1.344 1.2l.097.288.336-.192.048-.432-.335.096-.144.24zm-.43-1.824l-.193.048.048.48.24.144.048-.432-.144-.24zm1.68 1.104l.19-.24h-.43l.24.24zm0-2.832v.192h.19v-.192h-.19zM209.35.304l.24.336.672-.24.48.048.192.24.24 1.008-.144.24-.288.096.192.432-.096.384-.384.768.048.384-.384.336.144.384-.048.336-.672 1.296-.048.384.096.384-.24.288-.288.816-.24.288.048.72-.336.528.048.384-.192.72-.192.336-.096.768-.24.672-.192.24v.48l-.624 1.44.048.384-.192.288-.24.768-.144.864-.48.48.096.384-.336 1.344-.192.384-.24.24-.576 2.688-.528.24.288.384-.624 2.16-.624 1.392-.624-.096.528.432-.192.576-.048.768-.384.528-.048.72-.192.96-.384.576-.24.72-.096 1.104-.336.24-.48.624-.72.048-.336-.144-2.352.288-1.536-.096-1.344-.336.144-.72-.144-.288.384-.96v-.336l.336-.576v-.336l.192-.768.528-1.104.096-.816 1.056-3.072v-.816l.24-.24.144-.336.192-1.296.144-.336.24-.24.192-1.2.24-.672.384-.528-.096-.432 1.056-3.552h.528l-.096-.384v-.816l.144-.768.48-1.488-.336-.432-.432.144h-.384l-.144.528h-.384l-1.2 1.104-.72.96-.72.192-.816.048-1.056-1.008-.384-.576-.048-.336-.432-.096.096-.816.384-.624.816-.624.72-.912.72-.384.144-.528.624-.432.384-.096 2.4-2.496.432-.096.528-.816.624-.144.192-.24.048-.384 1.92-1.488 1.008-1.2 1.152-.432.48-.096 1.68.096 1.152-.144zm-5.136 9.6l-.48.048.144.336.912.432.816-.192.432.048-.192-.336-.336-.192-.624.336-.672-.48zm-1.584-1.536l-.144.432.336.24.384.048.384-.192-.672-1.104-.336-.24.096.432-.048.384zm.48 7.296l.192.144-.096-.816h-.432l-.288.144-.144.288-.432-.24-.096.336.096.336h.768l.144-.336.288-.192v.336zm-.528-5.616v.336l.528.336.096.288.432-.096-.096-.384-.96-.48zm2.304-.432l.192.336.288-.672.24-.24-.24-.144-.288.24-.192.48zm-4.56 10.8l-.048.336.288-.192.192-.336v-.72l-.624.432.192.048.336-.096v.336l-.336.192zM205.414 7.6v.384l.288.288.192-.384-.192-.432-.288.144zm-2.88 5.568l-.192.384.288.144.24-.096.096-.384-.432-.048zm1.632.096l.384.048-.096-.432-.336-.192-.096.288.144.288zm1.536-6.768l.336.096.096-.48h-.528l.096.384zm-1.056 1.776l.096.432.336-.096.288-.24-.72-.096zm-.768 4.128l.144.288.336-.72h-.336l-.144.432zm1.2 3.168l.336-.144-.096-.288-.24-.144-.144.336.144.24zm-2.592 1.104l.288.192-.192.144h.48l.048-.24-.336-.144-.288.048zm2.688-5.232h-.384l.192.336.384.096-.192-.432zm.816-7.008l.144.288.192-.432-.192-.288-.144.432zm-2.64 2.256l.24.144.144-.336-.432-.096.048.288zm-2.16 21.168v.336l.336-.048.096-.192-.432-.096zm-1.056-4.608l-.288.336h.528l-.24-.336zm4.032-12.384l.048.384.336-.336-.384-.048zm-3.504 15.984l.096.48.24-.288-.336-.192zm1.392-17.088v.336h.192V9.76h-.192zm-4.08 21.168v.288h.192l.096-.192-.288-.096zm4.896-16.224l.192-.24h-.384l.192.24zm.864-7.488l.384.24-.048-.24h-.336zm-1.44 13.584l-.048.288.336-.336-.288.048zm3.264-16.56l-.144.288.384-.24-.24-.048zm-2.88 4.368v-.192h.192v.192h-.192zm.192 9.024l.336.288-.048-.24-.288-.048zm4.416-8.88l.096-.24-.288.096.192.144zm-4.8 7.584v.144h.192v-.144h-.192zm-.816-5.616l.144-.24-.288.096.144.144zm4.896-4.992l.096-.24-.24.096.144.144zm-4.128 13.2l.24.144v-.192l-.24.048zm1.152-9.408v.144h.144V9.52h-.144zM226.8.304l.24.336.672-.24.48.048.192.24.24 1.008-.144.24-.288.096.192.432-.096.384-.384.768.048.384-.384.336.144.384-.048.336-.672 1.296-.048.384.096.384-.24.288-.288.816-.24.288.048.72-.336.528.048.384-.192.72-.192.336-.096.768-.24.672-.192.24v.48l-.624 1.44.048.384-.192.288-.24.768-.144.864-.48.48.096.384-.336 1.344-.192.384-.24.24-.576 2.688-.528.24.288.384-.624 2.16-.624 1.392-.624-.096.528.432-.192.576-.048.768-.384.528-.048.72-.192.96-.384.576-.24.72-.096 1.104-.336.24-.48.624-.72.048-.336-.144-2.352.288-1.536-.096-1.344-.336.144-.72-.144-.288.384-.96v-.336l.336-.576v-.336l.192-.768.528-1.104.096-.816 1.056-3.072v-.816l.24-.24.144-.336.192-1.296.144-.336.24-.24.192-1.2.24-.672.384-.528-.096-.432 1.056-3.552h.528l-.096-.384v-.816l.144-.768.48-1.488-.336-.432-.432.144h-.384l-.144.528h-.384l-1.2 1.104-.72.96-.72.192-.816.048-1.056-1.008-.384-.576-.048-.336-.432-.096.096-.816.384-.624.816-.624.72-.912.72-.384.144-.528.624-.432.384-.096 2.4-2.496.432-.096.528-.816.624-.144.192-.24.048-.384 1.92-1.488 1.008-1.2 1.152-.432.48-.096 1.68.096L226.8.304zm-5.136 9.6l-.48.048.144.336.912.432.816-.192.432.048-.192-.336-.336-.192-.624.336-.672-.48zm-1.584-1.536l-.144.432.336.24.384.048.384-.192-.672-1.104-.336-.24.096.432-.048.384zm.48 7.296l.192.144-.096-.816h-.432l-.288.144-.144.288-.432-.24-.096.336.096.336h.768l.144-.336.288-.192v.336zm-.528-5.616v.336l.528.336.096.288.432-.096-.096-.384-.96-.48zm2.304-.432l.192.336.288-.672.24-.24-.24-.144-.288.24-.192.48zm-4.56 10.8l-.048.336.288-.192.192-.336v-.72l-.624.432.192.048.336-.096v.336l-.336.192zM222.864 7.6v.384l.288.288.192-.384-.192-.432-.288.144zm-2.88 5.568l-.192.384.288.144.24-.096.096-.384-.432-.048zm1.632.096l.384.048-.096-.432-.336-.192-.096.288.144.288zm1.536-6.768l.336.096.096-.48h-.528l.096.384zm-1.056 1.776l.096.432.336-.096.288-.24-.72-.096zm-.768 4.128l.144.288.336-.72h-.336l-.144.432zm1.2 3.168l.336-.144-.096-.288-.24-.144-.144.336.144.24zm-2.592 1.104l.288.192-.192.144h.48l.048-.24-.336-.144-.288.048zm2.688-5.232h-.384l.192.336.384.096-.192-.432zm.816-7.008l.144.288.192-.432-.192-.288-.144.432zm-2.64 2.256l.24.144.144-.336-.432-.096.048.288zm-2.16 21.168v.336l.336-.048.096-.192-.432-.096zm-1.056-4.608l-.288.336h.528l-.24-.336zm4.032-12.384l.048.384.336-.336-.384-.048zm-3.504 15.984l.096.48.24-.288-.336-.192zm1.392-17.088v.336h.192V9.76h-.192zm-4.08 21.168v.288h.192l.096-.192-.288-.096zm4.896-16.224l.192-.24h-.384l.192.24zm.864-7.488l.384.24-.048-.24h-.336zm-1.44 13.584l-.048.288.336-.336-.288.048zm3.264-16.56l-.144.288.384-.24-.24-.048zm-2.88 4.368v-.192h.192v.192h-.192zm.192 9.024l.336.288-.048-.24-.288-.048zm4.416-8.88l.096-.24-.288.096.192.144zm-4.8 7.584v.144h.192v-.144h-.192zm-.816-5.616l.144-.24-.288.096.144.144zm4.896-4.992l.096-.24-.24.096.144.144zm-4.128 13.2l.24.144v-.192l-.24.048zm1.152-9.408v.144h.144V9.52h-.144z"/></svg>