<svg xmlns="http://www.w3.org/2000/svg" viewBox="0 0 256 56">
  <title>
    hd-organizers
  </title>
  <path fill="#2f2f30" fill-rule="evenodd" d="M33.88 28.792l.24-.384.288-.24v-.384l.144-.336.048-.432.48-.48.24-.672v-.336l.912-2.016.144-.768v-.864l.432-.624V20.2l.336-1.44-.048-1.296.144-.72v-.816l-.336-2.4v-.768l-.72-2.352-.336-.672-.048-.384-.144-.288V8.68l-.432-.528-.528-1.104-.72-.912-.336-.768-.912-.672-1.584-1.536h-.384l-.288-.192-.48-.048-.192-.384-.24-.24-.672-.24-.768-.144-.624-.432-.624.096-.528-.336L25.096 1l-.672.096-.288.24-.288-.192-.72-.096-1.536.096-.384-.096-.432.432h-.768l-2.16.72h-.432l-1.152 1.008-.192.336h-.48l-.288.24-.384.096-.288.624h-.336l-.144.336-1.104.912-.24.528-1.728.768-.48.48-.432.144-1.056.624-1.2 1.008-.096.528-.432-.096-1.536 1.728-.432.672-.432.144-.144.384-.72.96-.336.672-.048.384-.336.24-.192.336-.24.816-.432.672v.624l-.288.144-.144.384-.192.24.144.624-.288.144-.192.288-.336 1.92-.144.336.144.192.048.336-.288.528.096 3.696-.096.72.432.72.288 1.776.24.72.768 1.44.24.768.624.432-.096.336.576.624.144.432.336.144.576.48.864 1.104.528.528h.528l.72.72.768.24.24.288.336.192 1.2.336.288.24.864.24.72.048.336-.096.288.336 1.632.192 3.072.144 1.392-.336 1.2-.048 1.392-.192 1.152-.576.672-.192.528-.336.48.096.24-.24H25l.576-.72h.528l1.584-1.056 2.4-1.776.24.144.384.048.864-.384.432.048.816-.096.384-.144.816-.096.384.048.96-.72.48.096 2.016-1.056 1.152-.912.384-.144.576-.48.384-.144.192-.576 1.104-.96.912-1.2.336-.672.336-.192.48-.576.72-1.44.336-.336.096-.624.336-.336.144-.384.048-.768.192-.336.528-.48v-.336l.336-.672.528-.336.528.048.72.336.432.048.336.288.672.96.096.384v1.104l.144.288-.336.528.144.48-.768 2.064-.384.576-.048 1.344-.48.528-.384 1.92.144.816-.384.528-.048 1.248.192 1.632.192.72.672 1.344.432.288.528.816 1.68.624 1.584.24.384-.288.384.096 1.008-.144.384.048.336-.336.432-.048.672-.384h.48l.24-.288 1.584-1.008.576-.48.432-.624.384-.192.528-.528.336-.144.144-.384.72-.912.576-.48.48-1.056 1.632-2.4.624-1.344.192-.816.672-1.056-.144-.24.096-.72-.912-.624-.816-.192h-.528l-.96 1.152-.048.384-.768 1.536-.048.384-.528.192-.144.432-.672 1.008-.096.432-.528.528-.096.432-.432.192-1.536 1.776-1.488.864-.768.192-.336-.192-1.008-1.056.144-.336.288-1.392.192-.336-.192-.432.528-.432.096-1.056.528-.72.144-1.2.672-2.208.096-.768-.096-.864.192-.336.048-.336-.144-.624-.576-1.584-1.104-1.392-.48-.096-.96-.96-.528-.192-1.44-.768-.528.096-.768-.72-.72.096-.72-1.344.528-.864-.096-.432.528-.864.096-.336-.048-.336-.384-.72-.528-.624-.672-.384-1.44-.576-1.104.096-.96.384-.432.048-1.584 1.344v.432l-.432.816-.096 1.248.096 1.584.432.768.096.384.288.192.384.576.192.768v.48L43 20.008v.624l-.24.24-.672 1.392-.24.24v.384l-.144.576-.384.192-.336.72-1.824 2.304-.384.672-.816.384-.864.768-2.16 1.152h-.864l-.24-.192-.144-.336.192-.336zM29.992 17.08l-.24.24-.288.768.048.816.192.288-.432.96-.048.672.144.432-.24.288-.288.672-.384 1.392-.432.576.192.432-.768 1.248-.192.816-.48.48-.432 1.008-.72.72h-.384l-.672.192-.432-.048-1.968-1.248-.528-.576h-.432l-.144-.336-.24-.24-.576-.336-.384-.672-.864-.672-.096-.48-.336-.288-.144-.48-.384-.72-.528-.576v-.624l-.576-.336.096-.72-.48-1.104-.48-1.584.144-.288v-.768l-.24-.624.144-.432-.144-.432.24-1.152.192-1.584.24-.72.384-.624-.144-.336.864-.816.192-.72.528-.096.336-.72.576-.336 1.104-.384.288-.24 2.592-.144.768.048 1.104.384.72.384 1.296 1.008.96 1.392.528.576.048.768.384.48.192 1.584.24.624-.096.336.048 1.68.432.192zM9.544 18.52l.288-.192.384-.096.288.72.528 2.208.624.768.096.816.528 1.008.432.528.048.384 1.056 1.44.144.384.528.24v.384l.816.768.432.624h.528v.48l1.68 1.152.528.576.384.096 1.104.864.432.048.192.384.384.24-.24.24-.336.624-.672.048-1.536.336-.432.24-1.488-.192-.72.192-.816-.336-.432.096-1.008-.528-.384-.096-.384.048-.096-.432-.384-.144-.816-.768-.384-.144-.048-.336-.768-.72-.24-.624-.288-.192-.144-.768-.72-1.536-.144-1.536-.192-.384.144-.528-.24-.624v-.672l.336-1.488v-.768l-.096-.384.336-.672.384-1.632.384-.144zm21.312 9.216l.192.096v.336l.816-.192.144.384-.144.336-.384.144-.528.048-.336-1.008.24-.144zm-18.672-15.12l.336-.144-.336.816.384.576-.144.288-.576-.432h-.816l.096-.432.672.144.144-.192-.048-.384.288-.24zm.768 3.36l-.336-.672-.096-.432.48.096.336.24-.192.72.384.432.048.384-.624-.288v-.48zm-2.688-2.208l.144-.336.24.096v.768l.192.24-.144.288-.576.384-.096.384h-.336l.816-1.152-.384-.384.144-.288zm18.432 17.376l.288-.048.192-.288.816.288-.96.48-.288.24-.288-.336-.144-.384.384.048zM6.568 14.584l-.24-.864.48.528.336.192-.048.384.192.24.624.432-.48.048-.48-.48-.288-.096-.096-.384zm23.856 14.4l.528.336-.48.576.048.384-.288.096-.24-.192-.096-.432.528-.24v-.528zM13.384 8.2l.096-.336.432.048.72.24-.096.336-.24.192-.24-.144-.096-.288-.48.24-.096-.288zm-6.96 10.608l.336-.048.192.624.72-.24.048.432-.768.096-.144-.336-.576-.384.192-.144zM5.368 25.72l.24-.048.288-.24.24.144-.144.72-.768-.288-.24-.24.384-.048zm24.288 2.064l-.288-.624v-.336l.528.288-.144.336.192.24.144.384-.48.192.048-.48zm-2.304 4.656l.144-.912.384.192.24.336-.384.192-.144.432-.24-.24zM12.904 12.424l-.288-.24-.096-.48.432.048.192.336-.048.432-.192.336v-.432zM5.368 19.48l.24-.192.384 1.008-.336-.144-.144-.288-.336-.096.192-.288zm4.176-6.192l-.192-.336.096-.288.576.336-.144.528-.336-.24zM7.816 32.152l.288-.336.192.144v.384l-.72.096-.192-.288h.432zm20.448-1.872l.24-.192.288.096.144.384-.624.096-.048-.384zm5.712-13.92l.432.576.096.432-.336-.24-.288-.384.096-.384zm-23.424-3.936l.288-.144.144.24-.144.384-.336-.096-.192-.24.24-.144zM7.384 28.36l-.336-.192-.192-.336.384.048.336.192.144.288h-.336zm24.24-5.472l.288.24-.336.336-.24-.192-.096-.336.384-.048zm-25.248-.432l.24-.24.336-.096v.48h-.336l-.192.144-.048-.288zm-.624 7.632l.144-.336.24.192-.096.624-.336-.288-.096.096.144-.288zm20.4-.432h.384l-.096.624-.336-.096.048-.528zM5.08 21.976l.096.336-.192.336-.24-.096v-.432l.336-.144zm47.28 8.544l.288-.048-.144.528-.336-.144-.144-.288.336-.048zM5.416 27.112l.816.144-.096.288h-.432v-.288l-.288-.144zm20.64 4.848l.384-.24-.096.624h-.336l.048-.384zm8.88-13.44l.384.144-.192.384-.24-.096-.096-.288.144-.144zm-28.704-.432v-.384h.288v.384l-.096.24-.192-.24zm19.296 12.768l-.048-.384.336.096.096.432-.384-.144zm1.008-.384l.288.144-.048.384-.336-.096.096-.432zM23.752 5.224l.384.144-.24.24-.384-.048.24-.336zM11.416 17.128l-.144-.384.384.096.096.432-.336-.144zm17.232-11.76h.288v.384h-.384l.096-.384zm-13.44 4.464h.24v.432h-.336l.096-.432zm-6.144 6.096l.384.096-.096.288-.288.048v-.432zm3.984-4.848h.432l-.096.288-.24.144-.096-.432zM5.272 23.752l.336.048-.048.336-.288.048v-.432zm6.96-7.488l-.048-.336.336.096.192.288-.48-.048zM11.32 14.2l.336-.192v.336l-.384.192.048-.336zm18.096 14.784l.384-.096-.144.336-.384.096.144-.336zm-15.12-19.68l.192.336-.192.096-.336-.336.336-.096zm17.952 6.336l.384.048-.096.24-.336.096.048-.384zm-.528 9.456l.384-.048-.24.288-.384.192.24-.432zM12.472 9.352l.336.048-.192.288-.336-.048.192-.288zM3.496 20.728l.432.192-.24.144-.384-.144.192-.192zM32.008 7.336l.192-.192.144.336-.336.192v-.336zM11.752 35.512v-.336l.336.096-.096.336-.24-.096zM33.976 20.68l-.288-.336.384.048.24.144-.336.144zM12.52 22.408l.096-.336.192.24.096.336-.384-.24zm-8.4.624l-.096.528-.288-.432.384-.096zm29.472-8.208l.096.384-.288-.096-.144-.24.336-.048zm18.48 17.856l.144.336-.336-.048-.096-.288h.288zM34.12 23.944l-.048-.384.288.24-.048.384-.192-.24zm-7.008 6.432l.288-.096v.336l-.24.096-.048-.336zm5.52-13.92l.288.192-.432.192v-.288l.144-.096zm-.72 2.736l.24.192-.048.288-.24-.096.048-.384zm-2.208-10.32l-.096-.288.336.048.048.288-.288-.048zm-.336-3.216l.336.096-.096.192h-.336l.096-.288zM7.144 21.736l.336.048-.192.192-.336.096.192-.336zm7.536-10.56l.336-.096-.192.288-.432.048.288-.24zm2.976-5.616l.096.24-.336.144v-.288l.24-.096zm14.208 6.048l.336.144-.432.288.096-.432zm2.064 4.416l.048-.288.24.192-.048.288-.24-.192zm-20.16 2.064l-.192-.384.288.144.192.288-.288-.048zm11.04-13.632l.144-.288.144.24-.096.288-.192-.24zm-19.2 12.096l-.096-.24.336.048.048.288-.288-.096zm-1.584 9.84l.24.336-.24.288v-.624zm48.912-4.08l.144.288-.432.144.288-.432zM22.168 5.368l-.048-.384.432.48-.384-.096zM10.12 34.744h.384v.336l-.384-.336zm22.368-22.752v-.288l.24.192v.24l-.24-.144zm-23.856 5.28l.24.288-.24.24v-.528zm22.176 6.288l.144.336-.432-.144.288-.192zM5.176 28.168l.144.288-.336.144.192-.432zm25.44-16.416l-.192.336-.192-.24.384-.096zm18.672 7.44h.384l-.384.288v-.288zm-16.8 7.008h.144v.288h-.24l.096-.288zm22.848-5.232h.144v.288h-.24l.096-.288zM11.32 10.312l-.192-.336.432.192-.24.144zM28.312 33.4l-.192-.288.432.096-.24.192zm4.752-8.784l-.144.336-.192-.24.336-.096zm-17.52-17.52l.192.336h-.288l.096-.336zm15.072-.288l.24.096-.096.192h-.144v-.288zm-7.344-2.304h.144v.336h-.144v-.336zm27.984 26.592l.192.336h-.288l.096-.336zM12.52 17.128l.096.336-.336-.192.24-.144zm-1.392 2.064l.144.384h-.24l.096-.384zM23.08 31.096l.24.096-.336.24.096-.336zm7.344-.384l.048.288-.288.096.24-.384zm-20.4-18.96l.192.24-.24.144.048-.384zm17.52 19.344h.336l-.192.24-.144-.24zM10.648 10.984l.192.336h-.24l.048-.336zm2.304-2.112l.288-.048-.096.288-.192-.24zm19.872 16.704l.336-.048-.096.24-.24-.192zM29.368 7.672l.288.144-.048.24-.24-.384zm3.792 19.776h.192v.192h-.192v-.192zm-.864-12.672h.192v.192h-.192v-.192zm-3.12-8.16h.192v.192h-.192v-.192zm-2.64 27.024h.192v.192h-.192v-.192zm25.68.912h.288l-.096.24-.192-.24zm-2.208-5.424l.096.288-.192.144.096-.432zM13.576 14.584l.288-.048v.24l-.288-.192zm38.544 18.72v.192h-.336l.336-.192zM33.16 21.88l-.096-.288.288.192-.192.096zM8.968 14.536v.432l-.144-.384.144-.048zm21.216 17.28l.192-.144.144.192-.336-.048zM8.536 34.984l.192.144-.192.144v-.288zm2.064-1.152h.144v.192H10.6v-.192zM23.704 3.688h.144v.192h-.144v-.192zM35.992 16.84h.192v.144h-.192v-.144zm-25.056-.624h.192v.144h-.192v-.144zM32.488 26.92h.144v.192h-.144v-.192zM9.256 35.272h.192v.144h-.192v-.144zM4.984 18.04l.192.144-.192.144v-.288zm10.8-9.36h.192v.144h-.192V8.68zm-9.12 21.264l.288.192h-.288v-.192zM19.624 3.88l.24.192h-.24V3.88zm9.456 22.608l.192.24-.192-.048v-.192zm.912.528l.192.24-.192-.048v-.192zM22.696 5.848h.192l-.24.144.048-.144zM4.216 18.76l.24.096h-.192l-.048-.096zm20.976 13.104l.288.096h-.192l-.096-.096zm5.52-6.528l.24.096h-.192l-.048-.096zM13.336 18.52l-.096.24v-.144l.096-.096zm67.754-3.36l-.288 1.152-.192.288-.288.192-.624.096-.384-.192-.336-.72-.528-.528-2.016-1.104-.576-.48-.768-.048-.624-.24-.432.096-.384-.192-3.024.432-.432.48-.336-.048-.336.192h-.48l-1.488 1.248-.384-.096-1.008 1.104-.576.432-.336.144-1.968 2.304-.096.432-.624 1.248-.624.624-.432 1.632-.72 1.392-.096.384-.048 1.2-.288.816-.048.432.144.384-.192.72v.72l.096.384-.144 1.2.096.768.336.624-.096.72.432.624.096.384.336.672-.096.336.672.912 1.056 1.008 1.152.912.48.048.384.144.576.384.384.144.48-.336.576.528 2.64-.288.672.096.288-.288 1.536-.624.288-.24.336.192.528-.432.384-.048-.048.384.288.624.288.144-.528.48.192.624-.336.144-.912.672-.336.144h-.816l-.72.288-3.024.72-1.392.672-.48-.192-.432.432h-.432l-.48.432-.384.048-2.064 1.488-.096.384-.192.288-.576.288-.672 2.592-.24 1.584.288.432.384 1.2 1.392 1.824.624.384.672.24 1.44.336.768.384h.768l1.008-.192.72.096.96-.288.384.096.384-.096 1.104-.528.72-.144 1.44-1.104 1.296-.864.144-.336 1.008-1.008.192-.432.432-.24.192-.528.336-.192v-.432l.48-.432-.048-.384.384-.096.096-.384.96-1.968.192-.72v-.384l.288-.288.336-1.2.336-.72 1.056-.72.432-.624h.384l1.488-1.008.384-.048.192-.336.336-.288 1.104-.528 1.728-1.488.672-.432 1.248-1.536.624-.432.144-.384.912-1.056.096-.432.192-.288.528-.48v-.528l.576-.528.96-1.728.48-.624.72-1.824.096-.912-1.2-.864-.72-.192-.48.096-.432.576-.192.816-.528.288-.096.384-.432.48-.24.768-1.584 2.448-.288.72-2.304 2.496-1.104 1.008-1.152.816-1.296.72.144.288-.048.24-.336-.24-.144-.384.048-.864-.096-.384.384-.48.096-.288.048-.816.624-1.248.24-1.584.528-.72.048-.72.72-1.824.048-.72.288-.384v-.384l.144-.24-.096-.336.384-.336.144-.816.576-1.488v-.528l.24-.384.096-.816.24-.768.384-.72.144-.816-.048-.432.24-.288.288-.72.096-.912.24-.288.096-.384-.048-.384-.384-.72-.288-.192H82.05l-.96.816v.336zm-6.624 5.088l.864.048.384-.096.144.384.24.24h.48l.144.336.768.96.144.384.288 2.304-.24.24-.144.336.048.384.144.288-.336.672.048.384-.576 1.152-.288.288-.144.768-.192.336-1.488 1.728-.144.336-1.44.672-.912.672-.864.096-.288.192-1.056-.528-1.44-.576-.048-.48-.576-.576.048-.384-.24-.768.096-.528-.192-.528.096-1.296.24-.72.192-.288-.144-.624.432-.528.336-.624.48-1.488.528-.192.144-.384.48-.72.144-.384.48-.096.24-.24 1.296-.72 1.44-.528.384.096zm-2.88 24.72l.192 1.104-.432.144-.24.336v.384l-.144.336-.528.672-.336.72-1.92 1.584-.768.096-.24.192-1.536-.144-.336-.144-.912-.768-.192-.816.144-.768.672-.912 2.64-1.68.768-.096.624-.432.432.144.24-.192 1.2-.24.384.048.24.144.048.288zm-6.96-14.352l-.384-.576h.528l.576.72-.48.288.336.144.384-.048-.096.336h-.336l-.432-.24-.288-.288.192-.336zm14.544 5.952l.24.336.096.432-.336-.096.144.432-.192.336-.432.096.24-1.104-.144-.384.384-.048zm-3.168 1.344l.384-.096.384.144.096.336-.336.144-.48.48.048-.384-.24-.336.144-.288zm1.248 1.584l-.336-.24.432.048.288.336.432-.192.096.288-.192.336-.384.192h-.384l.24-.48-.192-.288zm-.768-1.92l-.192-.336.192-.288.384.096.336-.048.192.336-.528.336-.384-.096zM68.898 19.24l.24-.24.24.24.096.432-.384.096-.432-.048-.288-.192-.192-.384.432.288.288-.192zm6.72 14.448l.192.192.336.144-.288.048-.432-.096-.336.24-.384-.048-.144-.288.432-.096.336-.288.288.192zm2.064-.336l.336-.096v.624l.336.096-.192.24-.336.096-.432-.912.288-.048zm-1.2 2.4l.336-.096.72.24.288.192-.336.192-.72-.288-.48.096.192-.336zM72.69 18.04v-.384l.24.096.048.384.336.24-.24.24h-.336l-.24-.24.192-.336zm-7.392 15.984l.096-.336h.48l.144.336-.288.24-.384.144-.048-.384zm9.456 4.752l.048-.384.432.048.192.288-.192.288-.432.096-.048-.336zm4.56-5.712l-.288-.288-.144-.432h.336l.192.384.288.144v.384l-.384-.192zm-3.168.192l.192-.288.336-.048.24.24-.24.336-.432.096-.096-.336zm1.968 2.688l.24-.096.192-.288h.24v.432l-.384.192-.48.096.192-.336zm-6.384-.096l.336.24-.192.288-.528.48.24-.72-.144-.336.288.048zm4.08 4.8l.144.288.336.096-.096.288-.24.144-.432-.768.288-.048zm3.84-5.712l.384-.192-.048.432-.144.288-.432-.192.24-.336zm.48-2.4l.384-.528.336-.096-.192.384-.336.336-.384.192.192-.288zm3.072-7.824h-.288l-.144-.336.72.048.096.336-.384-.048zm-14.304-7.584l.432-.096-.048.384-.192.192-.288-.048.096-.432zm6.96 22.656l.24.24.384.048-.144.24h-.336l-.288-.144.144-.384zm-8.112-19.536l.336-.288.096.24-.144.336-.336.144.048-.432zm11.088 19.92l.384-.192.096.288-.624.192-.24-.144.384-.144zm-3.168-3.648l.192-.192.384.192-.384.24-.336.048.144-.288zm-10.8-4.08l-.144-.336.384.048.192.192-.144.288-.288-.192zm-1.152-1.392l.192-.192.288.336-.336.144-.288-.048.144-.24zm-.96.144l.432.096-.144.336-.288.096v-.528zm11.376 4.176l.048-.432.24.144v.384l-.144.24-.144-.336zm-6.336-.096l.192.912-.24-.144-.096-.672.144-.096zm-2.88-6.816l-.048-.24.288-.096.096.24-.192.384-.144-.288zm15.408-4.032l.336-.144-.192.528-.336-.144.192-.24zm-3.12 10.416l-.288-.432.336.096.288.528-.336-.192zm-9.648-11.952l.24-.192.144.336-.288.192-.096-.336zm-2.976.672l.144-.24.144.384-.336.24.048-.384zm11.088 18.816l.096-.336.24.24-.144.336-.192-.24zm5.184-20.448l.24.048-.096.288-.336.096.192-.432zm-3.312 9.936l-.144-.384.336.24.192.384-.384-.24zm-11.136-6.096l.336-.048-.096.288-.336.048.096-.288zm13.632-1.872l.096-.288.192.24-.192.384-.096-.336zm-14.256 6.192l-.192-.384.624.336-.432.048zm-1.056 4.128l.144.288-.288.048-.144-.24.288-.096zm11.712 4.896l.336-.096-.096.288-.384.048.144-.24zm7.056-11.904h.288v.288h-.288v-.288zM64.386 23.08l.144.336-.288-.048-.144-.24.288-.048zm18.048-3.696l.096-.336.192.192-.048.288-.24-.144zm-16.272 5.184l.336.24h-.384l-.24-.144.288-.096zm15.504-6.048l.336-.048-.096.24-.288.096.048-.288zm-14.736.912l.336.096-.336.336v-.432zm.624-1.152h.432l-.144.192h-.288v-.192zm1.296 2.496h.288v.24h-.288v-.24zm-6 6.336v-.336l.24.192v.24l-.24-.096zm4.944-6l.144.288-.384.144.24-.432zm5.856-4.128l-.192-.288.48.048-.288.24zm8.256 4.944v.336h-.384l.384-.336zm-13.92 11.76l.144.288-.336.144.192-.432zM82.77 21.304h.288l-.096.24h-.192v-.24zM65.922 19.96h.288l-.096.24h-.192v-.24zm12.24 12.576v.336l-.336-.048.336-.288zM68.61 18.184l.336.288-.336.048v-.336zm-5.04 6.624v.384l-.192-.096v-.192l.192-.096zm6.288-6.192l.096.384h-.288l.192-.384zm11.328 5.856l.288-.192v.384l-.288-.192zm.624-4.08l.24.192-.432.096.192-.288zm-1.584 6.192l-.384.288-.096-.192.48-.096zm-15.408 6.864l-.096-.384.336.336-.24.048zM81.81 19.624l.24.048-.048.192h-.192v-.24zm-6.192 25.872l-.24.144-.24-.24.48.096zm-1.968 1.056l-.144.288-.288-.048.432-.24zM79.938 27.4l-.144.24-.288-.144.432-.096zm-14.256 1.92l-.096-.336.336.288-.24.048zm12.048 1.536h.288v.288l-.288-.288zm2.304 0h.288v.288l-.288-.288zm.96-2.112l.24.096-.24.24v-.336zm-14.976-5.328l.24.192-.24.144v-.336zm15.504 6.672l.192.24h-.336l.144-.24zm-.432-4.368h.336l.096.24-.432-.24zm-15.504-3.696l.288.048-.48.192.192-.24zm15.072-3.552l.192.048-.096.192-.192-.096.096-.144zm-1.2 11.808l.288.144h-.528l.24-.144zm3.216-7.776h.192v.192h-.192v-.192zM79.938 36.76l-.192-.24.384.096-.192.144zm-6.192-2.208h.192v.192h-.192v-.192zm.336-16.896h.192v.192h-.192v-.192zm8.352 2.112h.192v.192h-.192v-.192zm-6.576 14.88h.192v.192h-.192v-.192zm2.832-.144l.288.24h-.288v-.24zm-4.128 10.992h.432l-.432.144v-.144zM65.058 26.68l-.192-.144.288-.096-.096.24zm18-8.832l.192-.144.144.192-.336-.048zM69.762 16.6h.192v.144h-.192V16.6zm-5.52 12.816l.192.144-.192.144v-.288zm15.36 4.704h.144v.192h-.144v-.192zm3.024 3.024l.144-.192v.384l-.144-.192zm-14.112-1.248l.288.192h-.288v-.192zM80.61 21.784l-.144-.144.288-.096-.144.24zm-15.984 6.24h.144v.192h-.144v-.192zm6.624-8.352l.288.192h-.288v-.192zm-5.04 1.68l.288-.048.048.432-.144-.384h-.192zm6.096 28.368l.096.288h-.144l.048-.288zm-8.064-21.984l-.048.192-.192-.096.24-.096zm14.304-1.2h.144v.144h-.144v-.144zm-6.672-8.016l.192.288-.192-.096v-.192zm10.8 8.016l.288.336-.336-.288.048-.048zM79.17 39.16l-.096.288v-.192l.096-.096zm-4.08-1.488l-.096.288v-.192l.096-.096zM108.332 16.6l-1.92-1.728-.624-.432-.672-.288-.768-.192h-.432l-.72-.384h-1.92l-.72.384-.336-.192h-.384l-1.056.528-.336-.048-1.536.48-.528.624-.336.096-1.056.864-.384.096-.672 1.008-.576.528-.672.432-.336.72-1.344 1.968-.336.72-.144.768-.432.336v.624l-.432.528-.72 2.88v.768l-.144.336-.096 1.056.144.72-.144.72.528 3.456.672 1.344 1.104 1.392 1.104.96 1.296.672.768.288 1.68.336 1.44.048.336-.192h.912l.192-.192.336-.144.624.096.624-.384.432-.048.192-.336.48-.48.384.096.24-.288.816-.24 1.104-1.008.384-.144.912.768v.384l.576.576 1.968 1.344.624-.336.192.288.288.144.336-.096.72.192.768-.192h.432l1.728-.672.336.096.336-.096 1.632-1.248.768-.384.384-.576.384-.192.576-.528.48-.624.672-.432.096-.384.672-.816.048-.432.576-.432v-.432l.576-.336.048-.576.48-.528 1.152-1.968.96-2.112v-.336l-.192-.288-.096-.432-.624-.384-.72-.24-.864.096-.768.816-.096.384-.672 1.44-.816 1.296-1.104 2.016-2.256 2.4-.624.48-1.056.384-1.44.096-.384-1.056.24-.336-.144-.48.432-1.056-.24-.528.192-.288.048-.432.72-.864v-.48l-.192-.768v-.432l.192.192.288.048v-.432l.288-.624-.048-.336.432-.624.288-1.584.576-1.536-.048-.432.288-.096-.192-.528.432-.24.336-1.392 1.008-2.784-.048-.72.336-1.104-.048-.48-.288-.288-.72-.24-2.016.048-.768-.144-1.872.288-.768-.048-.384.576-.24.672v.432l-.24.192-.288.624-.288.192-.288-.192zm-3.888 3.984l1.248.72v.384l.624 1.392.048.384-.144 2.304.096.384-.384.624-.288.72.048.432-.288.288-.768 1.488-.336.192-.048.384-.672.672-.096.384-2.16 1.296-.72.288-.768.144h-.864l-.72-.24-.624-.384-.528-.528-.864-1.296.144-.624-.192-1.248.288-2.592.672-1.344.288-.24-.048-.336 1.248-1.584.576-.528-.096-.624.432-.048 1.728-1.056.864-.048.288-.24.336-.048 1.44.288.24.24zm3.36 8.64h.288l.336-.144-.24-.864.48.048.768-.336.144.48-.336.096-.816.576.096.24-.288.288-.144.384-.288-.24-.336-.672.336.144zm3.408-6.576l-.384.528.24.24.144.384-.48.048v-.288h-.336l-.192-.288.384-.192.144-.384.48-.048zm-1.392 2.064l.288.144-.096.384.048.576.24.096-.096.384-.336.048.048-.432-.24-.192.144-.432-.24-.336.24-.24zm-1.488 5.52l.336.048.24-.288.24.288v.432l-1.056-.144-.192-.336h.432zm1.92-6.432l.288.048.144.192-.192.384-.72-.096-.096-.288.192-.24h.384zm-1.68 9.024l.144-.288.288.24.144.336-.096.432-.528-.288.048-.432zm2.688-11.136l-.432-.384v-.336l.384.048.384 1.008-.336.144v-.48zm-3.6 5.568l.144-.384.288.096.192.192.24-.192.384-.096-.528.432-.624.288-.096-.336zm1.728 1.776l.192-.288.384-.096.144.72-.336.096v-.384l-.288.192-.096-.24zm-16.08-3.408l.048-.336.24-.192.336.096-.096.432-.288.192-.24-.192zm5.904-8.4l.336.096.384.528h-.384l-.192-.192-.288-.096.144-.336zm-4.656 7.344l.288-.24.384-.096-.096.336-.528.384-.048-.384zm1.728 9.6l.432.144.096.336-.336.192-.192-.672zm12.96-10.992v.528h-.336l-.096-.432.432-.096zm-.72 8.208l-.096-.432.48.096v.432l-.384-.096zm-17.04-3.12l.192.288-.432.144-.192-.384.432-.048zm2.496-1.392h.288l.096.432-.384.096v-.528zm17.088 9.264l.144-.192.336.144-.144.288-.288.096-.048-.336zM92.78 28.648l-.24.384h-.336v-.288l.576-.096zm17.472 3.936l-.384-.192.336-.096.336.144.096.288-.384-.144zM98.06 20.824l-.096-.336h.384v.48l-.288-.144zm2.4-4.08l.096-.336.336.096-.144.288-.288.144v-.192zm9.456 1.392l.384-.192v.336l-.432.192.048-.336zm2.496.528l.288.048-.096.384-.336-.096.144-.336zm-.624.144l.384-.096-.192.384h-.336l.144-.288zM99.74 20.056l-.096.288-.336.048v-.24l.432-.096zm11.04 4.848l-.288-.24h.384l.24.432-.336-.192zm1.2-5.088l.384.144-.384.288v-.432zm-1.92-.192l-.384.336-.096-.336h.48zm-6.96 13.728h-.192l.048-.336h.24l-.096.336zm6.384-11.616v-.24l.24.096.048.336-.288-.192zm-.24 5.76l-.096-.24.336.048.096.192h-.336zm-7.008-8.832l-.096-.288.288.096.096.24-.288-.048zm2.928-.624h.288v.24h-.288v-.24zm1.2 15.696l.144.24-.192.096-.192-.192.24-.144zm-6.528-15.264l.288.336h-.384l.096-.336zM92.588 31.48l.192.192-.48.192.288-.384zm16.464-11.808l-.096.288-.336-.336.432.048zm-2.112 4.176l-.096-.336.24.144.096.288-.24-.096zm-10.032-4.512l-.192.336-.24-.24.432-.096zm-2.544 14.208l.24.24h-.528l.288-.24zm17.088-6.576l.288.096-.096.192h-.192v-.288zm.288-2.4l-.24.192-.24-.288.48.096zm-3.6 9.744l-.144-.336.432.24-.288.096zm-13.008 1.68h.384l-.096.288-.288-.288zm14.832-2.448l-.192-.288.432.096-.24.192zm-8.256-14.736l-.288.384-.048-.288.336-.096zM92.3 25.48l.288-.096v.336l-.288-.24zm16.56-4.176l.192.24-.432-.048.24-.192zm2.256 9.744l.24-.192v.384l-.24-.192zm-3.792-.096l.24-.192v.384l-.24-.192zm-.144-8.16h.288v.288l-.288-.288zm1.44-2.304h.288l-.384.288.096-.288zm1.344 13.92l.144.288-.336-.096.192-.192zm-13.536-.864h.336l-.192.24-.144-.24zm11.328-11.52l.048-.288.192.432-.24-.144zm-.912 11.952h.192v.192h-.192v-.192zm4.8-12.768l.24.096-.144.24-.096-.336zM95.756 35.32l.288.24h-.288v-.24zm16.416-14.64h.24v.288l-.24-.288zM93.98 21.736l.144.24-.192.144.048-.384zm7.392-4.224l.048.336-.24-.288.192-.048zM95.228 33.64l.288.048-.192.192-.096-.24zm-3.264-1.872h.192v.144h-.192v-.144zm-1.152-.384l.192.144-.192.144v-.288zm9.12-15.744h.192v.144h-.192v-.144zm-7.968 12.768h.192v.144h-.192v-.144zm4.08-8.592h.192v.144h-.192v-.144zm-1.248 1.392l.192.144-.192.144v-.288zm-3.552 4.272h.192v.144h-.192v-.144zm18.144 10.608l-.144-.144.24-.096-.096.24zm-18.144-4.56l-.096-.144.288-.048-.192.192zm2.304-9.072l.192.144-.192.096v-.24zm13.584-.96h.144v.144h-.144v-.144zm-13.92 9.84h.144v.144h-.144v-.144zm18.96-9.216l.24.144h-.24v-.144zm-1.152-2.928l-.096.24v-.192l.096-.048zm27.05 13.584l-.097-1.152.624-1.44.72-2.256v-.336l-.096-.24.433-.576v-.432l.144-.672.528-1.248.24-1.2.432-.624.144-3.456-.335-.624.048-.384-.384-1.056v-.432l-.385-.288-.24-.768-.816-.816-.96-.432-.625-.528-1.152-.24-.768-.048-1.248.192-.384-.096-.624.384-.433-.096-.672.384-1.44.576-.624.384-.287.384-.336.192-.528-.48-.05-.336.145-.384-.528-.336-.624-.24-1.536-.144-3.696.192-.527.528-.048.384-.528 1.248.096.384-.432.624-.575 1.488-.048.816-.528 1.056.19.432-.287.24-.624 1.968-.24.288.43.336-.623.576.192.528-.385.24-.24.384.048.432-.384 1.152.047.432-.288.192-.193.336-.096.48.05.864-.29.144-.24.288v.48l-.143.768-.624 1.248.24.528-.432.528.097.336-.384.528-.144 1.056-.673 1.68-.048.816.43.48.72.24.77.096.863-.096 1.536-.432.383.432h.768l.72-.192.29-.192.43-.528.097-.864.24-.288.528-1.488.144-1.104.623-1.392.192-.72-.048-.864.624-.528.193-1.2.48-1.392.384-1.488.288-.576-.048-.384.24-.24.144-.384-.287-.72.528-.576.097-.768 1.776-1.872.672-.384.384-.096.287-.528.96-.192.432.096.383-.24.432-.048.816.288 1.105.912.096.24.05 2.016-.145.672-.672 1.44-.336 1.488-.192.24.096.576-.24.336.05.48-.433.432.144.48-.335.528-.432 1.392-.096.768v3.216l.432.432v.432l.19.768.673.912 1.2.912.288.048.673.384h1.296l.383-.144.384.192.384.048.77-.288.24-.24.335.144h.384l.72-.336.575-.432.768-.144.336-.192 1.487-1.344 1.008-.528.24-.288.24-.768 1.2-.96.432-.624.24-.912.528-.432.96-1.056.432-1.488.336-.624.48-.48.048-.384.865-1.44-.672-1.056-.624-.48-.385-.096-.48.192-.432.048-.576.384-.336.72-.143.912-.576.528-.24.336.193.432h-.432l-.48 1.008-.48.528-.383.72-.912 1.248-1.104 1.008-.143.432-.336.288-.43.096-.673.432-.816.288-1.343-1.008.192-.336zm-2.113-12.528l.432-.048.095.432h.336v.336l-.19.096.96.672.047.48-.384.096-.096-.336-.528-.384-.05-.432-.24-.288-.575-.432.192-.192zm-.192 3.648l.72.624-.096.48-.29.24-.335-.192.24-.192.096-.336-.623-.336.288-.288zm1.2 4.944l-.336-.336-.24.576-.29-.144-.143-.336.336-.288.336-.144.143.288.24.192.336.048-.385.144zm.384-7.968l.623-.24.288.288-.383.24-.24.384-.384-.288.096-.384zm-1.73.72h.385l.288.144.192.336h-.336l-.29-.192-.287.336-.24-.432.288-.192zm-.19 5.136l.383-.048.288.144-.19.24-.337.144-.336-.096-.192-.288.384-.096zm-.29-6.624l.337.192-.048.864-.48-.624.19-.432zm-1.15 9.072v-.384l.287.096.192.24.047.384h-.432l-.096-.336zm1.583 2.976l.288-.24.337-.048.192.192-.673.336-.336.048.193-.288zm-.384-7.104h.287l-.048.432.143.384-.432-.096.097-.288-.288-.24.24-.192zm-1.537 10.608l-.288-.144-.096-.336h.383l.336.144v.288l-.337.048zm-9.168-17.088l-.24-.336.192-.096h.336l.144.24.048.336-.48-.144zm10.176-.288l.48.144-.335.336-.48-.24.336-.24zm1.97 7.488h.48l-.097.432-.48-.048.096-.384zm-1.825 8.592l.288.192.144.336h-.384l-.24-.096.192-.432zm3.408-12.576l.384-.096-.048.384-.29.144-.19-.144.143-.288zm-3.024-2.736l.287.24-.432.192-.24-.432h.384zm-12.96 7.2l.335.048v.288h-.528l.192-.336zm15.07-7.824l.337-.288.192.384-.193.048-.624-.144h.288zm.337 1.68l.24-.24.096.432-.288.24-.048-.432zm-12.48-2.064l-.336-.24.145-.24.432.336-.24.144zm-2.112 1.44l.048-.336h.24l.048.24-.095.288-.24-.192zm.816 2.208l.193.24-.192.24-.335-.096.336-.384zm10.513 9.84l-.144-.432.335.192.144.432-.337-.192zm-.624-13.632l.575-.288-.48.528h-.288l.192-.24zm2.735 15.792l.432.144-.192.192h-.336l.095-.336zm-.528-16.416l.528.096-.624.24.097-.336zm.384 9.36l-.047-.336.336.192v.288l-.29-.144zm1.777.24l.192-.192.047.336-.288.288.047-.432zm-2.16.48h.24v.288h-.336l.097-.288zm-1.152 1.776v-.336l.24.144v.288l-.24-.096zm-14.832 2.832v.384l-.336-.192.336-.192zm-.768-.336l.24.192-.336.24.095-.432zm1.872-8.928l.144.336-.43-.192.287-.144zm13.536 7.824l.096.288-.48-.336.383.048zm.24 2.256l.288.192-.335.144.048-.336zm1.68-10.176h.288l-.095.336-.192-.336zm-15.264 4.416l.143.288-.384-.096.24-.192zm11.76 4.944l.047.384h-.24l.192-.384zm-9.41-12.912h.193v.192h-.192v-.192zm14.977 1.488l.24.192-.24.096v-.288zm-13.728 1.536l.143.144-.336.096.192-.24zm12.767 2.304l.048.24h-.24l.192-.24zm-12.24-4.08h.192v.144h-.193v-.144zm-4.368 8.592l.287.192h-.288v-.192zm13.2-8.496h.383l-.384.144v-.144zm1.727 5.568h.144v.192h-.143v-.192zm0-2.592l.192.144-.193.144v-.288zm-6.912-7.152h.144v.192h-.145v-.192zm4.848 16.224h.192v.144h-.192v-.144zm4.512-12.144l.288.144h-.288v-.144zm-16.752-1.872h.192l-.288.192.096-.192zm13.68-2.016l.24.144h-.24v-.144zm-16.128 14.688l-.096.288v-.192l.095-.096zm35.978-16.752l-.768-.336-.816.048-.337.192-.624-.384-.433.144-.768-.096-.385.144-.72-.144-.24.24-.72-.192-.288.192-.432.576-.336.144v.432l-.577 1.824-.048.72.096.384-.287.288-.864 1.92.047.336-.096.432-.43.576v.432l-.577 1.776.048.768-.24.288-.335.72-.384 1.584-.335.72.096.432-.575.912.096.432-.19.24-.05 1.584-.24.336-.047.288.192.528v1.248l.624 2.304.623.192v.72l.24.144h.384l.48.576 1.008.528 1.68.432.336-.144.29.048.335.192.768-.288.768.096 3.073-.96.72-.768.624-.384.384-.096.433-.624.576-.528.383-.192 1.44-1.824 1.056-1.104.287-.72 1.296-1.968.288-.768.433-.432.096-.288-.097-1.056.624-.096.144-.384.05-.816-.193-.816-1.152-.384-.864-.048-.383.144-.288.768-.913 1.2-.24.72v.432l-.672.528-.144.48-.24.24-.095.432-.528.576-.864 1.392-.672.48-.143.384-.432.192-.528.624-.816.432h-.383l-1.2.288h-.432l-.912-.624-.624-1.776.287-.192.24-.672-.048-.384.19-.336-.047-.48.288-.24.193-.384v-.768l.624-1.248.144-.72-.095-.432.576-.96.29-.768.19-1.536.433-.624.144-1.152.288-.624-.048-.384.528-.96.24-.72-.048-.432.336-.576.048-.768-.143-.336.384-.144.24-.288-.19-.384.19-.432-.287-.24zm-3.072-3.984l.097.288.576.288 2.016.288.623-.192.336.096 1.823-1.392.48-.624v-.384l.336-1.056-.097-.432.192-.432-.192-.288.096-.432-.24-.336-.29-.768-.767-1.008-.72-.096-.144-.288-1.633-.624h-.48l-.768.144-1.873.864-1.008 1.536-.29.768.097.432v1.392l.144.816.77.816.383.672.528-.048zm-3.79 18.96l.96-.192-.193.096-.24.624h-.72l-.192-.624.384.096zm-1.057 2.736l.528.24-.19.384-.53-.384.193-.24zm4.224-14.16l-.144-.48.48.144.048.384-.383-.048zm-.192 1.632l.288-.144.288.096-.19.288-.433.048.048-.288zm-1.104-.768l.145.24-.144.288-.383-.336.384-.192zm-1.343 14.064l.096-.432.24.336-.144.384-.193-.288zM147.6 31l.143.096.048.336h-.383L147.6 31zm-.96-1.056l.24-.288.095.432-.192.096-.144-.24zm-.48 3.84v-.336l.24.192.047.336-.288-.192zm1.63 3.024l.097.288h-.384l.288-.288zm2.113-2.736l.288.192-.383.096.096-.288zm-.336-13.2l.24.192-.24.192v-.384zm-1.296 1.488h.24v.336l-.24-.336zm5.425-3.792l.288.192h-.288v-.192zm-4.512 1.392l-.144-.144.24-.096-.097.24zm.384-2.256h.144l-.24.144.097-.144zM170.52 30.52l.24-.288.05-.432.335-.144.432-.576.672-.288 1.007-.864.288-.528.72-.48.24-.528 1.344-.816.863-1.104.96-.576.528-.48.913-1.104.384-.192 1.296-1.008.192-.528 2.64-2.16.048-.432.336-.624-.817-2.544-1.248-.912-.336-.048-1.153.144-.912-.096-.672.192-.48-.192-.528.096-1.488-.144-.288.144-.72-.144-1.585.24-.72-.192-1.056.288-.337-.192-.816.096-.672-.288-1.344.288-.623-.192-.528.096-.625-.192-1.488.288-.768-.144-.337.144-.336-.192-.336.048-1.007.672v.624l-.528.336-.192 1.248-.24.336.192.48-.672.96-.288.768-.048.48-.336.336-.095.72-1.152 2.64-.144.816-.577.528.048.48.24.768 1.537.576.864-.144 1.105-2.016.288-.768.192-.864.288-.24.288-.624.193-.72.192-.336 1.248-.528.336.192 2.015-.144.336.192.625-.192.672-.048 2.352.192 1.2-.192 1.68.768.19.288-.72-.192-.767.864-1.152 1.056-.383.672-.72.144-.144.528-3.936 3.216-.144.528-.912.672L163.514 31h-.336l-.288.72-.337.144-.528.432-.432.576-.384.192-1.153 1.152-.336.144-.48.48-.24.72 1.057 1.488.336.192.768.672.433.096.96-.624h.432l.576-.336.72-.24.77-.048.767.288h1.536l.288.24.913.096.624.528.48-.048.672.192.383-.144 1.344.72.576.144 1.056-.048 1.247.288.912-.288.527.192.528-.288h.48l1.008-.384.816-.144.48-.528 1.247-.672.24-.288.48-.096.288-.24.384-.72.527-.096.144-.336.48-.528v-.288l.385-.192.576-.528 1.057-1.68v-.432l.528-.192.528-1.152.384-.192.336-.96.528-.816v-.432l.625-.816.192-1.152-.24-.384-.912-.816-.432-.192h-.384l-.337.144-1.2 1.632-.048.432-.432.288-.048.432-.288.576-.048.384-.72.432-.145.72-.336.192-1.153 1.344-.384.144-.336.624-1.584 1.008-1.44.528-.912.144-.335-.192-.72.096-.624-.432h-.767l-.624-.336h-.48l-.48-.432-.77-.144-.335.048-.192-.288-.288-.192-.384-.096-.67-.336-.24-.24.19-.336zm.865-14.4l.192-.624.288.144.144.24-.337.432.192.816-.24-.192-.096-.288-.29-.144.145-.384zm5.568 2.88l-.336-1.008.384.192.29.72.047.336-.336.192-.047-.432zm-9.792 13.488v-.384l.433.24.432.096-.192.384-.48.144-.192-.48zm1.873-.72h.336l.143.288-.24.384-.528-.336.288-.336zm1.92-13.968l.192.24.096.384-.527.192v-.72l.24-.096zm-4.992 16.032l.577-.24-.048.384-.193.192-.384.048.048-.384zm2.93 1.248l.287-.336.24.192-.048.336h-.817l.336-.192zm-3.073-18.528l.432-.048-.05.432-.623-.192.24-.192zm4.032-.24l-.05-.432.385.144.144.384-.48-.096zm5.183 1.056l.192-.096h.336l-.095.336-.336.048-.097-.288zm-5.76.816l.336.144-.05.384h-.287v-.528zm4.848 16.56l-.047-.336h.336v.432l-.29-.096zm2.833-16.944l.144-.24.24.336-.432.192.048-.288zm-1.632 1.056l.337.096-.192.24-.336.048.19-.384zm2.593-1.056l-.144-.336.383.144.096.384-.337-.192zm-10.32 16.32l.192-.192.192.288-.048.24-.337-.336zm-.096-16.608l.096-.336.24.192-.048.288-.288-.144zm-2.448 16.416h.24l-.05.336-.19.144v-.48zm5.04-.336l.24.24-.337.192.096-.432zm-3.265-15.84l-.192-.384.528.432-.335-.048zm2.208 13.008h.336v.336l-.337-.336zm6.192 4.944l-.192.288-.24-.192.432-.096zm-3.264-.864h.24l-.19.432-.05-.432zm1.68 0l.145.336-.336-.096.19-.24zm-6.767-18.816l-.144.288-.193-.192.336-.096zm3.408 18.72l.05-.288.19.48-.24-.192zm-3.503.816l.288.24h-.288v-.24zm1.152-.576l.287.192h-.288v-.192zm-4.225-1.68l.192.144-.192.144v-.288zm15.312-15.648h.192v.144h-.193v-.144zm-12.384 17.28h.144v.144h-.144v-.144zm.624-1.248h.144v.144h-.143v-.144zm8.592-14.976h.24v.144l-.24-.144zm-4.513 15.312h.144l-.24.192.097-.192zm4.944-16.032l.29.096h-.193l-.096-.096zm27.723 7.2l.144-.336.288-.192.48-1.056.528-1.488.144-.816-.288-.624.287-.624-.144-.672-.048-.864-.672-1.008-.288-.816-.336-.192-.77-.816-.623-.384-.48-.048-.192-.288-.864-.672-.48.096-.24-.24-1.487-.288-.624-.288h-1.345l-.624.288-.72-.096-1.63.144-.77.192-.623.336h-.576l-.96.576-.287.048-.144.336-.24.192-1.01.48-1.727 1.296-1.008 1.296-.576.576v.528l-.29.24-.863 1.104v.336l-.336.576-.047.48-.288.192-.144.288-.095.768-.576 1.488-.05.72.097.384-.144.336-.096.672.144 3.552.24.768.05.768.43.576.673 1.44.816 1.248.67.384.05.336.19.288.385.048.288.192.384.48.624.192.193.24.48.048.912.48 1.536.288.625.24.528-.192.24.192.72.24.768-.048.29-.192.095.288.288.144.672-.24 1.68-.096.816-.144 1.585-.48h.624l1.68-.768.383-.048.624-.768h.624l.53-.528 2.4-1.92 1.055-1.152.432-.672.336-.192.768-.912.913-1.296v-.528l.528-.48 1.153-1.92.288-1.152-.335-.96-.72-.288-.288-.24-.384.096-.768-.096-1.2 1.968-.48.528v.624l-.528.432-.144.336-.432.528-.383.096-.144.384-.528.624-.624.432-.96 1.008-.335.144-.192.384-.576.48-1.44.72-.336-.096-.863.48-1.44.432-1.536.048-.72.24h-.815l-.48-.144-.384-.336h-.43l-.433-.384-.624-.096-.432-.432-.623-.24-.336-.576-.287-.144.096-.432-.337-.336-.192-.384.193-.624.624-.384 2.064-.432.29-.144.143.24.24.096 2.208-.24 1.537-.672.768-.24 1.344-.624.527-.432h.336l.24-.096.144-.384.24-.288.72-.432.48-.528.048-.384.528-.096zm-5.904-5.328h.383l.144.432.672 1.056-.145.432.048.816-.144.336-.817.72-.288.72-.384.144-.19.336-.29.24-.863.144-.624.336-.192.336-.527-.096-.288.192-1.056.24-.29.192-.335-.096H190.9l.287-1.104-.048-.768.575-1.008.912-1.296 2.064-2.208 1.97-.192.767.048.384.144.29-.096zm-10.033 7.728l.432-.096.19.384.96.768-.19.336-.29.24-.383.096-.672-.192-.24-.288.192-.384.336-.24-.24-.288-.384-.096.287-.24zm-.336-1.632l.24-.336.097.336-.48.624-.432-.336-.432.336.24.192.384.096-.192.96-.432-.096-.048-.864-.336-.72.383-.096.432.096.192-.24.384.048zm-.72 2.928l.48-.624.193.288v.72l-.432.096-.43-.192.19-.288zm.097 1.488l.24-.288.336-.096.096.288v.384l-.385.144-.336-.048.047-.384zm-.768-.24l-.097-.336.096-.288h.287l.096.72-.288.192-.096-.288zm2.735 1.824l.048-.384h.24l.096.624-.53.048.145-.288zm.624-1.056l-.145-.768h.24l.144.384-.145.624-.096-.24zm1.87-10.464v-.288l.145.288.24.144-.192.24-.336.096-.096-.336.24-.144zm-2.063 9.264l.144-.288.433.192-.24.288-.384.144.047-.336zm-.912.192l.24-.192.336.096-.143.288-.384.144-.048-.336zm-.384 3.888l-.095-.432h.384v.672l-.29-.24zm1.73.096l.047-.48.336.096-.048.528-.336-.144zm-1.97-9.504l.433.192-.144.288-.385.048.096-.528zm1.73-2.016v-.336l.383-.096-.096.576-.288-.144zm-.625 5.28l.096-.336.385.288-.288.336-.192-.288zm-.96-.672v-.384l.336.144.05.384-.385-.144zm0-3.744l.288-.048.24.144-.336.336-.192-.432zm3.504 13.008l.047-.336h.288v.432l-.336-.096zm-3.553-13.968l.096-.288.336-.144-.193.144v.48l-.24-.192zm10.896-6.384l.24.336-.432.096.193-.432zm-10.56 10.32l.096-.288.24.144-.097.288-.24-.144zm3.024-7.392l.24.192-.336.336.097-.528zm-4.176 5.76l.337-.288-.096.48-.24-.192zm1.153-.816l.336.288-.337.096v-.384zm2.496 5.424h.24v.24h-.24v-.24zm-3.313-5.424l.192.24-.29.24.097-.48zm2.592 10.752h.24l-.097.24h-.144v-.24zM200.26 20.2h.287l-.288.288V20.2zm-10.61 5.616l.24.336h-.24v-.336zm11.04-9.504h.193v.192h-.192v-.192zm-10.8 10.272l.097.288h-.24l.144-.288zm11.52-5.76l-.19.144-.24-.144h.43zm-13.727 11.088l.192.144-.192.144v-.288zm-2.064-4.464l-.145-.144.24-.096-.096.24zm.287 1.296l.192.24h-.193v-.24zm2.928-3.456l.192.24h-.192v-.24zm-.336 6.432h.143l-.048.288-.096-.288zm27.72-16.128l-.095-.384.048-.672.48-2.16v-.768l-.096-.384-.624-.24-.144-.288-.48-.528-.337-.192-1.056-.24-.768.048-2.16.48-.913 1.056-.816 1.296-.24.768-.095.768.24.768-.048.384.288.288.144.768.91 1.392.145.384-.768 1.632v.432l-.384.432-.288 1.632-.192.24-.384.144.095.72-.336.24-.385.672-.096.336.047.72.24.624.432.528 1.007.288.864-.288.337-.576.432-1.392.623-.96v-.528l.24-.288.288-.768.193-.288.048-.48.145-.384.864-1.248.767.192 1.296.72 1.152.864-.096.336.335.624-.432 1.2-.048.384.144.384-.29.288-.143.384.048.288-.192.624-.624 1.392.047.816-.432.624-.144.864-.383 1.392.048.912-.336.576.287.864-.096.336.05 1.104.623 2.208.864.624.144.336 1.2.624.72.24.48-.048.625.144h1.152l1.776-.48.672-.384.768-.144 2.448-1.44.337-.72.336-.192 1.344-1.44.624-.48.097-.624.576-.48.432-.528.048-.432.528-.432.385-1.056.336-.24.24-.384-.047-.432.528-.288.145-.816.288-.624.576-.816.19-.672-.047-.432-.864-.576-.625-.288-.816-.096-.24.144-1.01 1.44-.287.768-.384.672-.05.432-.575.528-.432.624-.672 1.488-.863.72-.96 1.152-.384.672-1.296.72-.768.288-.385-.24-.816-.288-.05-.384-.24-.624.385-1.488.528-1.536.336-.672v-.864l.863-2.736v-.768l.192-.336.144-1.056-.433-2.352-.288-.624-1.01-1.248-.48-.432-.67-.336-.433-.528-.432-.048-.576-.336-.337.048-.624-.624-.72-.144-.913-.48h-.432l-.144-.336zm4.225 18.48l.384-.048.19.72.337.048v.72l-.624-.192v-.384l-.096-.288-.432-.48.24-.096zm-1.872-4.848l.288.192-.575.528-.144.336v.384l-.335.048-.192-.336.144-.336.384-.096v-.624l.433-.096zm.816-1.872l-.097-.336v-.624l.384.432.24-.432.24.288-.096.288-.24.288-.143.384-.288-.288zm.047 4.56l.24-.624.288.336.144.432-.24.24-.48.144-.097-.192.144-.336zm-2.016 3.216l-.24-.336-.095-.432.48.096.432.72-.288.144-.29-.192zm.673-1.488l.384-.192.336-.048.24.24h-.384l-.673.48-.192-.384.288-.096zm1.392.384l.384.096.143.336-.384.096-.337-.096.192-.432zm-.24 1.872l.24-.192.336.096-.047.432h-.48l-.048-.336zm-.912-4.512l.528-.048-.095.336-.288.096-.336-.048.193-.336zm1.536-6.048l.335-.048.192.288-.72.096.192-.336zm-1.633 2.736l.288.096-.096.432h-.337l.144-.528zm2.448-2.784l-.048-.336h.336l-.048.576-.24-.24zm-3.12 5.76l-.384.048-.19-.288.383.096.432-.096-.24.24zm2.256-2.16l-.383-.048-.288-.24.96.192-.29.096zm-6.67-13.392h.335l-.24.288-.336-.048.24-.24zm7.775 8.256l.048.432-.432-.096.385-.336zm-5.856-9.6l-.29.384-.095-.288.384-.096zm7.343 22.8h.192l-.096.24h-.193l.096-.24zm-5.76-5.52l.096.288h-.29l.193-.288zm-2.832-16.896l.05.24-.24.096.19-.336zm5.28 18.576l-.143-.144.288-.096-.144.24zm2.977.912h.144v.144h-.143v-.144zm-1.872-11.952l-.096.24v-.192l.095-.048zm26.137 8.448l.144-.288.048-2.352-.288-.384v-.48l-.288-1.152-.672-1.296.096-.528-.72-1.344v-.432l-.288-.336-.96-2.064-.528-.624-.48-1.104-.336-.288-.048-.432-.816-2.16-.432-.24-.096-.72-.144-.336-.432-.528-.336-.192-.816-.048-.336-.288-.432.048-.624-.24-.432.096-.72-.336-.768-.144-.72.144-.288.24-.048.432-.576.912.096.432-.528.816-.24.672-.096.816-.672.816-.24.768-.24 1.488-.48.096v.432l-.432.48.048.432-.576.624.096.528-.288.24-.528 1.008-.432.624h-1.248l-1.92 1.392-.144.432-.24.336-.336.24v.48l-.432 1.104.048 1.248-.144.432.144.24v.72l.72 2.064.288.096.24.24v.624l.336.24.816 1.344 2.928 2.064 1.344.624.816.24.864.096.288.24.432.096.432-.048.816.24.864-.288.672.288.72.048 3.12-.384h.72l.672-.432.384-.096.432.048.336-.192 1.536-.48.528-.48.432-.096.96-.624.48-.048.768-.816 1.248-.864.912-1.2.624-.432.096-.384.384-.576.96-1.056.24-.72.288-.192.432-.528v-.528l.528-.336.192-.816.72-1.392.144-1.152-.384-.144-1.008-.768-.384-.048-.384.096-.336.288-.432.192-1.008 2.208-.48.576v.624l-.624.336-.288.816-.336.24-1.44 1.872-.624.24h-.432l-.096.288-.24.096.144-.816-.432-.72.192-.24zm-10.464-10.8l.912 1.68.24.864.72.816-.192.288.336.576.096.72.528.528v.528l.576 1.824.144 2.592-.096.816-.24.72-.288.528.096.528-1.44 1.104-.336.144-.096.432h-.336l-.288-.192-.336.192h-1.104l-.768-.192-.72-.048-.192-.336-1.104-.96-.336-.576-.048-.384.096-.336.912-1.248.096-.528.576-.96-.096-.768.048-.672-.336-.624-.24-.768v-.768l.192-.72.432-.576-.048-.432.144-.432.528-.48.528-1.008.192-.816.72-1.056h.528zm7.056 13.632l.24-.144.432.048.336.288-.048.672-.144.288h-.336l-.192-.624.192-.336-.288.144-.192-.336zm-.096-2.64l.144.432-.192.336-.336.192-.048-.336.288-.624-.336-.24-.432-.144.096-.384.336-.048.24.192v.336l.24.288zm-1.68 4.848l.672.24.432-.048.192.432-.384-.096h-.768l-.288-.096-.24-.336.384-.096zm.384-3.12l.672.048.24.24-.384.336-.336-.192-.288-.048-.24-.288.336-.096zm.288 1.632l.192-.288.24-.144.336.048-.096.288-.336.096.096.384-.192.288-.336-.336.096-.336zm1.248-2.448l.432-.24v.912l-.384-.048-.432-.384.384-.24zm-1.92.144l.432-.144.384.048.096.336-.816.096-.336-.096.24-.24zm3.264.96l.336.24.144.384h-.384l-.336-.24-.144-.384h.384zm-1.2-4.08l-.192-.336-.048-.288.384.144.192.384-.048.384-.384.144.096-.432zm-3.408 2.688l.336-.096-.192.624-.336-.288.192-.24zm-.144 3.36l.096.528-.336-.144-.192-.336.432-.048zm2.256-7.632l.144-.288.24.24-.192.288h-.288l.096-.24zm2.112.528l.336-.192v.432l-.24.192-.096-.432zm-15.648 4.32l-.144-.432.336.096.192.288-.384.048zm1.248-2.496l.288.048-.096.336-.336-.096.144-.288zm-.672-.816l.336.048-.144.24-.384.048.192-.336zm15.456 3.168l-.048-.384.384.528-.096.096-.24-.24zm-2.832-3.6l-.144-.384.288.192.096.432-.24-.24zm1.152-.864l-.144-.336.48.288-.336.048zm-15.12 1.728h.192v.24h-.288l.096-.24zm18.432 5.136h.192v.24h-.288l.096-.24zm.48.576h.24l-.096.288h-.144v-.288zm-5.856-10.416l.288-.144.144.288-.432-.144zm3.984 10.416h.144l-.048.288h-.192l.096-.288zM228.87 30.52l.096.336-.288-.096.192-.24zm-.096-1.056l.192.192-.288.144.096-.336zm8.736-9.696l.24.048-.384.24.144-.288zm2.448 14.64h.192v.192h-.192v-.192zm-9.648-1.632l-.096-.24.336.096-.24.144zm11.232-2.256l.192.24h-.288l.096-.24zm-13.632.24l.288.048.048.24-.336-.288zm10.992 5.52l.24.24h-.24v-.24zm1.392-3.024l.192.144-.192.144v-.288zm-.768-13.104l.144.24h-.144v-.24zm2.928 15.072h.24v.144l-.24-.144z"/>
</svg>
