<?xml version="1.0" encoding="UTF-8"?>
<svg width="100px" height="100px" viewBox="0 0 100 100" version="1.1" xmlns="http://www.w3.org/2000/svg" xmlns:xlink="http://www.w3.org/1999/xlink">
    <!-- Generator: Sketch 48.2 (47327) - http://www.bohemiancoding.com/sketch -->
    <title>Group 6 Copy</title>
    <desc>Created with Sketch.</desc>
    <defs></defs>
    <g id="a" stroke="none" stroke-width="1" fill="none" fill-rule="evenodd">
        <g id="Group-6-Copy">
            <g id="Page-1-Copy-3" fill="#D9BB47">
                <path d="M98.1705316,37.4469531 C94.3350601,34.8851663 92.0366903,29.3343044 92.9358413,24.8099053 C93.1494625,23.7378004 92.9300153,22.6423889 92.3153689,21.7227482 C91.7016934,20.8040787 90.7734122,20.1806264 89.7004512,19.9679534 C85.177508,19.0648216 80.9293592,14.8181597 80.0302082,10.2937606 C79.6476321,8.37290605 77.9464306,6.98033503 75.9849996,6.98033503 C75.7189441,6.98033503 75.4509466,7.00655499 75.1868331,7.05705268 C74.5352885,7.18912357 73.8478167,7.2532168 73.1448087,7.2532168 C69.0423108,7.2532168 64.6863805,5.02160719 62.5521105,1.82374363 C61.7879293,0.681718864 60.5023181,0 59.1118383,0 C58.2981358,0 57.5116214,0.237921826 56.8387146,0.687545521 C54.9840942,1.92765234 52.5546387,2.61034232 50.0008944,2.61034232 C47.4461791,2.61034232 45.0186656,1.92765234 43.1621032,0.687545521 C42.4891964,0.237921826 41.702682,0 40.8899505,0 C39.4984997,0 38.2119175,0.681718864 37.4496783,1.82374363 C35.3134663,5.02160719 30.956565,7.2532168 26.8550381,7.2532168 C26.1520301,7.2532168 25.4655293,7.18912357 24.8130136,7.05705268 C24.5498712,7.00655499 24.2809027,6.98033503 24.0158182,6.98033503 C22.0543872,6.98033503 20.3522147,8.37290605 19.9706096,10.2937606 C19.0714586,14.8181597 14.8233098,19.0648216 10.3003665,19.9660112 C9.22352153,20.1806264 8.29232733,20.8040787 7.68156491,21.7198349 C7.06788948,22.6355912 6.84941326,23.733916 7.06497647,24.8099053 C7.96412749,29.3343044 5.66575765,34.8851663 1.83125722,37.4469531 C0.922396141,38.0548677 0.301923674,38.9861617 0.0873314747,40.070891 C-0.12823173,41.152707 0.0863604693,42.2510318 0.694209866,43.1599903 C3.25475117,46.9949017 3.25475117,53.002185 0.694209866,56.8380675 C0.083447453,57.7518815 -0.134057762,58.8492353 0.0805344367,59.929109 C0.295126636,61.0099539 0.916570109,61.9412479 1.82931521,62.5501335 C5.66381564,65.1148337 7.96315649,70.6666667 7.06400546,75.1881525 C6.62025598,77.4149065 8.07190909,79.5882496 10.3003665,80.0320466 C14.8242808,80.9322651 19.0724296,85.179898 19.9706096,89.7052683 C20.3531857,91.6251517 22.0543872,93.0206361 24.0158182,93.0206361 C24.2818737,93.0206361 24.5508422,92.993445 24.8139847,92.940034 C25.4665003,92.8118475 26.1539721,92.744841 26.8569801,92.744841 C30.957536,92.744841 35.3124953,94.9783928 37.4496783,98.1772275 C38.2119175,99.3192522 39.4984997,100 40.8889795,100 C41.702682,100 42.4891964,99.7630493 43.1611322,99.3114834 C45.0186656,98.0723477 47.4461791,97.3886866 49.9999234,97.3886866 C52.5536677,97.3886866 54.9821522,98.0723477 56.8387146,99.3114834 C57.5116214,99.7630493 58.2981358,100 59.1098963,100 C60.5023181,100 61.7879293,99.31731 62.5511395,98.173343 C64.6873515,94.9783928 69.0423108,92.744841 73.1448087,92.744841 C73.8449036,92.744841 74.5314045,92.8118475 75.1868331,92.940034 C75.4490046,92.993445 75.7160311,93.0206361 75.9840286,93.0206361 C77.9464306,93.0206361 79.6486031,91.6251517 80.0302082,89.7052683 C80.9293592,85.179898 85.176537,80.9322651 89.7004512,80.0349599 C91.9289087,79.5911629 93.3805618,77.4168487 92.9377833,75.1881525 C92.0386323,70.6666667 94.3360311,65.1148337 98.1705316,62.5501335 C99.0832767,61.9412479 99.7047201,61.0099539 99.9193123,59.929109 C100.133905,58.8492353 99.9173703,57.7518815 99.3066079,56.8380675 C96.7441246,53.002185 96.7441246,46.9949017 99.3066079,43.1599903 C99.9173703,42.2490896 100.133905,41.1507647 99.9193123,40.0689488 C99.7047201,38.9881039 99.0832767,38.0568099 98.1705316,37.4469531" id="Fill-1"></path>
            </g>
            <path d="M36.039884,39.9484536 L36.0908553,40.4639175 L36.6005691,40.4123711 L37.0083402,40.6701031 L37.3651398,40.5154639 L37.7729108,40.5154639 L38.1297105,40.6701031 L38.4865101,40.5154639 L39.2001094,40.4639175 L39.7607946,40.6701031 L40.5253653,40.257732 L41.4428501,39.3298969 L41.7486784,37.6804124 L42.0035353,37.0103093 L42.4113063,36.3917526 L42.4113063,35.4639175 L43.1249056,33.1443299 L43.3797625,32.8865979 L43.9404477,31.8556701 L44.2462759,31.7010309 L45.0108466,31.8041237 L48.5788431,31.8041237 L49.2414711,32.1134021 L49.7511849,32.6804124 L49.3943852,34.2783505 L48.8846714,35.7216495 L48.425929,37.6804124 L47.9162152,38.0927835 L48.1201007,38.4536082 L47.7633011,39.1237113 L47.9671866,40.0515464 L48.2220435,40.3608247 L49.1395283,40.5154639 L50.6686697,40.5670103 L51.8919828,40.7216495 L52.197811,41.0824742 L52.2487824,41.4948454 L51.79004,42.7319588 L51.79004,43.2989691 L51.3312976,44.5360825 L51.2293548,45.3092784 L50.6176983,45.8762887 L49.904099,46.3402062 L48.9356428,46.185567 L48.0691294,46.3402062 L46.1831883,46.3402062 L45.7754173,46.4948454 L45.469589,46.7525773 L45.5715318,47.3195876 L44.6030756,49.6391753 L44.3482187,50 L44.4501615,50.4123711 L44.0933618,52.0103093 L44.1953046,52.7319588 L45.2147321,53.4020619 L45.9793028,53.2989691 L46.3361025,53.5051546 L46.7438735,53.3505155 L48.018158,53.5051546 L48.1201007,53.9175258 L48.5278718,54.6391753 L48.018158,55 L48.0691294,55.3608247 L47.9671866,56.185567 L47.7123297,57.0618557 L46.7948449,58.9175258 L44.1443332,59.0721649 L42.5642204,59.2783505 L41.8506211,59.6391753 L41.5447929,59.8969072 L41.5447929,60.3092784 L40.627308,63.1443299 L40.5253653,63.9690722 L40.1175943,64.1752577 L40.219537,64.5360825 L40.1685656,64.9484536 L39.6588519,65.5670103 L39.7607946,66.4948454 L39.4549663,67.3195876 L39.2001094,67.5773196 L38.5374815,67.7319588 L37.7729108,67.7835052 L36.7534833,68.0412371 L36.2947409,67.6804124 L35.5301702,67.8865979 L34.6636567,67.8865979 L33.5422864,67.5257732 L32.9816012,67.0103093 L33.6442292,64.4329897 L34.1029716,63.7628866 L34.2049143,62.9381443 L34.3578285,62.5773196 L34.6636567,62.371134 L34.561714,61.5463918 L35.0714278,60.4639175 L34.7655995,59.5876289 L34.2558857,59.2268041 L32.4209161,59.0206186 L31.4524599,59.1237113 L30.8917747,59.2783505 L30.127204,59.3298969 L29.8213757,59.4329897 L29.5665188,59.7938144 L29.5665188,60.257732 L29.0058337,61.6494845 L28.9548623,62.5257732 L28.3941771,63.5051546 L28.4451485,63.8659794 L27.9864061,65.5154639 L27.7315492,65.7731959 L27.7315492,66.3402062 L27.3237782,66.9587629 L27.3237782,67.371134 L26.9160072,67.628866 L26.0494937,67.6804124 L25.7436654,67.9381443 L24.9790948,67.7319588 L23.398982,67.9381443 L22.6344113,67.9381443 L21.9717834,67.7319588 L21.6149838,67.7835052 L21.2581841,67.0618557 L21.2072127,66.6494845 L21.3601269,65.9278351 L21.7678979,65.3092784 L21.6659551,64.8969072 L21.7678979,64.4845361 L22.1756689,63.7628866 L22.0737262,63.5051546 L22.7363541,61.5463918 L22.991211,61.2886598 L22.7873255,60.9793814 L22.7873255,60.6185567 L23.0931537,59.8969072 L22.8892682,59.5360825 L22.2266403,59.1237113 L21.7678979,59.2268041 L20.1877852,58.9175258 L19.5251572,59.0206186 L18.556701,58.6597938 L18.6586438,57.7319588 L19.1173862,56.185567 L19.5251572,55.5154639 L19.4741858,55.0515464 L19.7290427,54.2268041 L20.1877852,53.5051546 L22.0227548,53.4536082 L22.7363541,53.0927835 L23.398982,53.7628866 L23.7557817,53.2989691 L24.2145241,53.4020619 L24.6222951,53.2989691 L25.5397799,52.628866 L25.6417227,51.8556701 L26.1514365,50.2061856 L26.3043506,49.3298969 L26.8650358,48.9175258 L26.8140644,47.9381443 L26.9160072,47.5257732 L27.2218354,47.2164948 L26.2024078,46.3402062 L25.7946368,46.3917526 L24.6222951,46.185567 L24.2654955,46.3402062 L22.991211,46.185567 L22.6344113,45.4639175 L22.58344,44.5360825 L22.8382968,43.6597938 L23.2970393,43.0412371 L23.3480106,42.2164948 L23.6028675,41.4948454 L24.0616099,40.9793814 L24.7752092,40.6185567 L25.1829803,40.5670103 L26.8650358,40.6701031 L28.5470913,40.257732 L29.311662,39.8969072 L29.3626333,39.4329897 L29.6684616,38.814433 L29.5665188,38.3505155 L30.1781754,37.3195876 L30.0762326,36.6494845 L30.4330323,35.9278351 L31.197603,33.4536082 L31.9621737,32.0103093 L32.4718874,31.9587629 L32.7777157,31.5979381 L33.5932578,31.7010309 L36.9063974,31.8041237 L37.3141684,31.9072165 L37.6709681,32.4226804 L37.6709681,33.1443299 L37.1102829,35.3092784 L37.1102829,35.7731959 L36.6515405,36.5463918 L36.3457122,36.8556701 L36.4986264,37.2680412 L36.3457122,38.0412371 L35.7850271,39.1237113 L36.039884,39.9484536 Z M36.2437695,46.3402062 L35.8869698,46.443299 L34.561714,46.2886598 L34.4597712,45.8247423 L34.1029716,45.1030928 L33.7461719,45.2061856 L34.4087998,46.2886598 L34.1029716,46.4948454 L33.4403436,47.4742268 L33.083544,47.6804124 L33.2364581,48.3505155 L32.7777157,48.556701 L32.8286871,49.0721649 L32.6248016,49.4845361 L32.5738302,50.3092784 L31.9621737,52.1649485 L32.1150878,52.5257732 L32.1660592,52.9896907 L32.4209161,53.2989691 L32.7267443,53.2474227 L33.491315,53.3505155 L33.8481147,53.1958763 L34.0010288,53.4536082 L34.3068571,53.6082474 L34.8675422,53.2989691 L35.5301702,53.8659794 L35.7340557,53.556701 L36.039884,53.3505155 L37.1102829,52.9381443 L37.3651398,52.628866 L37.925825,50.9793814 L38.2826246,50.2061856 L38.5374815,49.8969072 L38.3845674,49.4845361 L38.3845674,49.0721649 L38.8942812,47.628866 L38.9452525,47.2680412 L38.7923384,46.8556701 L38.0277677,46.443299 L37.7729108,46.0824742 L36.2437695,46.3402062 Z M40.3214798,42.0618557 L40.1175943,42.5773196 L40.3724512,42.7835052 L40.4234225,43.2989691 L40.3214798,43.7113402 L40.6782794,43.814433 L41.289936,44.742268 L41.7486784,44.8453608 L41.7996498,44.4329897 L41.0860505,43.556701 L40.5763367,42.0618557 L40.3214798,42.0618557 Z M43.7875335,41.9072165 L43.4307339,42.0618557 L43.4307339,42.5773196 L43.6855908,42.8350515 L43.7875335,42.1649485 L44.2972473,42.3195876 L44.654047,42.5773196 L44.5521042,42.8865979 L44.654047,43.1958763 L45.0108466,42.9896907 L45.2147321,42.628866 L44.8579325,42.4742268 L44.3991901,41.9072165 L44.0933618,41.7010309 L43.7875335,41.9072165 Z M26.9669785,54.3298969 L27.0689213,54.6391753 L27.6296065,54.4329897 L27.833492,54.7938144 L28.1902916,55 L28.5470913,54.742268 L27.9354347,54.0206186 L27.5276637,53.814433 L27.1198927,53.7628866 L27.2218354,54.0721649 L26.9669785,54.3298969 Z M30.2291468,55.5670103 L30.4330323,55.6701031 L30.2291468,55.8762887 L29.4136047,55.6701031 L29.2097192,55.4123711 L29.311662,55 L29.0058337,55.1030928 L28.9548623,55.4123711 L29.2097192,55.6701031 L29.5155475,56.443299 L30.0252613,56.4948454 L30.4330323,56.2371134 L30.4840037,55.6701031 L30.2291468,55.5670103 Z M29.2097192,52.4742268 L28.8529195,52.628866 L28.9548623,53.2989691 L28.5470913,53.4020619 L28.8019482,53.7113402 L29.6174902,53.8659794 L29.8723471,54.1752577 L29.8213757,53.814433 L29.2606906,53.2474227 L29.1077764,52.8350515 L29.5665188,52.628866 L29.2097192,52.4742268 Z M28.4451485,45 L27.9864061,44.9484536 L27.9354347,45.257732 L28.2922344,45.8762887 L28.4451485,45.3092784 L28.7509768,45.3092784 L29.1587478,45.0515464 L29.4136047,44.742268 L29.0568051,44.6907216 L28.4451485,45 Z M42.9719915,44.2268041 L42.9719915,44.5360825 L43.8894763,44.6391753 L43.991419,43.9690722 L43.583648,43.8659794 L42.9719915,44.2268041 Z M40.5763367,45.8247423 L40.3214798,46.185567 L40.4234225,46.443299 L41.0860505,46.185567 L41.0860505,45.7216495 L41.2389646,45.4123711 L41.1879932,45.1030928 L40.8311936,45.4123711 L40.5763367,45.8247423 Z M30.1781754,51.8556701 L30.2291468,52.371134 L31.2995457,52.7835052 L31.6563454,52.628866 L31.197603,52.5257732 L30.534975,51.9072165 L30.1781754,51.8556701 Z M42.3603349,54.8969072 L42.0035353,54.9484536 L41.7486784,55.3092784 L41.9015925,55.6185567 L42.2074208,55.7731959 L42.6661632,55 L42.3603349,54.8969072 Z M30.6369178,42.3195876 L30.8917747,42.0618557 L30.2801182,41.6494845 L29.5665188,41.3402062 L30.0252613,41.9587629 L30.3310895,42.2164948 L30.6369178,42.3195876 Z M42.8700487,45.257732 L42.9719915,45.6185567 L43.6855908,45.1546392 L43.8894763,44.742268 L43.4817053,44.8969072 L43.2268484,44.742268 L42.8700487,45.257732 Z M38.9962239,57.9896907 L38.741367,58.3505155 L38.9962239,58.4536082 L39.3020522,58.3505155 L39.6078805,58.0412371 L39.7607946,57.6804124 L39.3020522,57.6804124 L38.9962239,57.9896907 Z M31.8092595,45.8247423 L32.2170305,45.9793814 L32.4209161,45.1030928 L32.0641164,45.0515464 L31.7582881,45.4123711 L31.8092595,45.8247423 Z M28.241263,44.2783505 L28.5470913,44.4329897 L29.311662,43.8659794 L28.9548623,43.7113402 L28.649034,44.1752577 L28.0883489,43.6082474 L28.0883489,44.0206186 L28.241263,44.2783505 Z M36.6515405,58.0412371 L36.3457122,58.1443299 L36.5495977,58.3505155 L36.855426,58.4536082 L37.1102829,58.2474227 L37.3141684,57.8865979 L37.0083402,57.4742268 L36.9063974,57.8350515 L36.6515405,58.0412371 Z M45.061818,43.9690722 L44.9089039,44.2783505 L45.5715318,43.9690722 L45.6734745,43.6082474 L45.469589,43.4020619 L45.1127894,43.2989691 L45.061818,43.9690722 Z M43.6346194,40.257732 L43.6855908,40.6701031 L44.1443332,40.5154639 L44.3482187,40.1546392 L43.5326766,39.8969072 L43.6346194,40.257732 Z M33.2364581,41.9587629 L33.7461719,42.371134 L33.5932578,42.0103093 L33.083544,41.5979381 L32.9816012,41.1340206 L32.7267443,41.4948454 L32.7777157,41.9072165 L33.2364581,41.9587629 Z M30.0762326,43.2474227 L29.6684616,43.4020619 L29.7704044,43.9175258 L29.9742899,44.2783505 L30.1781754,43.4020619 L30.4330323,43.0412371 L30.0762326,43.2474227 Z M30.0762326,48.1443299 L29.8723471,48.3505155 L30.0762326,48.6597938 L30.4330323,48.556701 L30.7898319,47.9896907 L30.0762326,48.1443299 Z M47.2535873,43.2474227 L47.5594156,43.4020619 L47.6613583,43.0412371 L47.5084442,42.7319588 L47.2026159,42.5773196 L47.0497018,42.8865979 L47.2535873,43.2474227 Z M31.5544026,55.3608247 L31.197603,55.3092784 L31.605374,55.9793814 L31.9621737,56.185567 L31.9112023,55.7216495 L31.5544026,55.3608247 Z M44.9089039,40.4639175 L44.5521042,40.9278351 L44.654047,41.2371134 L44.9089039,41.3917526 L44.9598752,40.9793814 L45.1127894,40.6701031 L44.9089039,40.4639175 Z M32.0641164,44.1752577 L31.7582881,44.2783505 L31.9621737,44.6391753 L32.3699447,44.5876289 L32.5228588,44.1752577 L32.0641164,44.1752577 Z M39.4549663,42.8350515 L38.9962239,42.8350515 L39.1491381,43.2989691 L38.9962239,43.7113402 L39.3020522,43.5051546 L39.4549663,43.1958763 L39.4549663,42.8350515 Z M38.8942812,44.742268 L39.2001094,44.9484536 L39.3530236,44.5876289 L39.2001094,44.1752577 L38.8942812,44.3814433 L38.8942812,44.742268 Z M42.8700487,40.5670103 L43.1249056,40.8247423 L43.2778197,40.5154639 L42.9719915,39.8969072 L42.8190773,40.2061856 L42.8700487,40.5670103 Z M39.3530236,51.8041237 L39.3020522,52.0618557 L39.6078805,52.2164948 L39.811766,52.4742268 L40.1175943,52.628866 L39.7607946,51.9587629 L39.3530236,51.8041237 Z M42.3603349,44.3814433 L42.105478,44.6391753 L42.4622777,44.9484536 L42.6661632,44.742268 L42.768106,44.4329897 L42.3603349,44.3814433 Z M41.3918787,40.8762887 L41.0860505,40.9278351 L41.3409074,41.3402062 L41.7486784,41.3917526 L41.697707,41.0309278 L41.3918787,40.8762887 Z M25.1320089,57.8865979 L24.877152,58.1443299 L24.9790948,58.3505155 L25.284923,58.0412371 L25.3868658,57.5257732 L25.0810375,57.4742268 L25.1320089,57.8865979 Z M40.3214798,53.9690722 L40.219537,54.2783505 L40.7802222,54.1752577 L40.6782794,53.8659794 L40.4234225,53.7113402 L40.3214798,53.9690722 Z M27.4257209,58.814433 L27.1198927,59.1237113 L27.4766923,59.1237113 L27.7825206,58.9175258 L27.7315492,58.556701 L27.4257209,58.814433 Z M28.2922344,46.0824742 L28.1902916,46.5463918 L28.3432058,46.6494845 L28.7509768,46.2886598 L28.2922344,46.0824742 Z M43.175877,43.3505155 L43.6855908,43.5051546 L43.583648,43.1958763 L42.8700487,43.0412371 L43.175877,43.3505155 Z M27.7825206,48.814433 L27.7825206,49.4845361 L28.0373775,49.2783505 L28.0883489,48.814433 L27.7825206,48.814433 Z M29.2097192,49.6907216 L29.1077764,50.0515464 L29.5155475,50.257732 L29.5665188,49.8969072 L29.2097192,49.6907216 Z M31.4014885,46.443299 L30.8917747,46.443299 L30.9937175,46.8556701 L31.2995457,46.7525773 L31.4014885,46.443299 Z M40.5763367,55.1030928 L40.5253653,55.5670103 L40.9841077,55.5154639 L40.8821649,55.2061856 L40.5763367,55.1030928 Z M31.0446888,50.3608247 L31.4524599,50.5670103 L31.3505171,50.1030928 L30.9937175,50 L31.0446888,50.3608247 Z M37.4670826,44.0721649 L37.2122257,44.2783505 L37.6709681,44.5360825 L37.7729108,44.1752577 L37.4670826,44.0721649 Z M46.0812456,42.628866 L46.132217,43.0412371 L46.4380452,42.9381443 L46.539988,42.628866 L46.0812456,42.628866 Z M38.9452525,42.1134021 L38.5374815,42.1649485 L38.741367,42.4226804 L39.2001094,42.4742268 L38.9452525,42.1134021 Z M45.7754173,41.4948454 L45.2147321,41.3917526 L45.2147321,41.7010309 L45.5205604,41.7525773 L45.7754173,41.4948454 Z M30.7388606,40.6185567 L30.6369178,41.0309278 L31.0446888,40.7731959 L30.9937175,40.3608247 L30.7388606,40.6185567 Z M32.9306298,45.4639175 L32.8796585,45.7731959 L33.3384009,45.6701031 L33.1854867,45.3092784 L32.9306298,45.4639175 Z M40.0666229,46.7010309 L40.0156515,47.1134021 L40.3214798,46.9587629 L40.5253653,46.6494845 L40.0666229,46.7010309 Z M37.1612543,54.6907216 L37.4161112,55.1030928 L37.5690253,54.4329897 L37.1612543,54.6907216 Z M46.0812456,40.4123711 L46.3361025,40.6701031 L46.3870739,40.3092784 L46.132217,40 L46.0812456,40.4123711 Z M33.7461719,38.0927835 L33.4403436,38.1958763 L33.5422864,38.4536082 L33.8481147,38.556701 L33.7461719,38.0927835 Z M32.6248016,43.0927835 L32.8796585,43.2989691 L32.9816012,42.9381443 L32.7777157,42.7319588 L32.6248016,43.0927835 Z M34.969485,42.2680412 L34.4597712,42.371134 L34.6636567,42.7319588 L34.969485,42.2680412 Z M28.1902916,56.0824742 L28.2922344,56.5463918 L28.649034,56.185567 L28.1902916,56.0824742 Z M33.8481147,40.8247423 L33.7461719,41.1340206 L34.1029716,41.0309278 L34.2049143,40.7216495 L33.8481147,40.8247423 Z M30.2291468,56.9072165 L30.2291468,57.2164948 L30.534975,57.2164948 L30.534975,56.9072165 L30.2291468,56.9072165 Z M27.6805778,57.4226804 L27.9864061,57.5773196 L28.0373775,57.3195876 L27.7825206,57.1134021 L27.6805778,57.4226804 Z M45.8773601,44.9484536 L46.0812456,45.4123711 L46.2341597,45.3092784 L46.1831883,45 L45.8773601,44.9484536 Z M29.311662,54.4329897 L29.311662,54.9484536 L29.6684616,54.8453608 L29.311662,54.4329897 Z M27.7315492,47.7835052 L27.6296065,47.8865979 L27.6296065,48.0927835 L27.8844633,48.1443299 L27.9864061,47.8865979 L27.7315492,47.7835052 Z M32.4718874,56.3402062 L32.3189733,56.6494845 L32.7777157,56.443299 L32.675773,56.185567 L32.4718874,56.3402062 Z M26.1514365,54.8969072 L26.5082361,54.8453608 L26.3043506,54.6391753 L25.9985223,54.5360825 L26.1514365,54.8969072 Z M35.377256,58.814433 L35.6830843,58.9175258 L35.5811415,58.6082474 L35.3262847,58.4536082 L35.377256,58.814433 Z M23.7557817,57.2164948 L23.9596672,57.4226804 L24.0616099,57.1134021 L23.8577244,56.9072165 L23.7557817,57.2164948 Z M29.5665188,42.8350515 L29.4136047,43.0412371 L29.5665188,43.1958763 L29.8723471,42.7319588 L29.5665188,42.8350515 Z M45.6734745,37.7835052 L45.5715318,38.0927835 L45.8773601,38.0927835 L45.8773601,37.7835052 L45.6734745,37.7835052 Z M31.0446888,55.7216495 L30.7388606,55.9793814 L31.197603,56.0824742 L31.0446888,55.7216495 Z M26.3043506,60.4639175 L26.2024078,60.7216495 L26.5082361,60.7216495 L26.5082361,60.4639175 L26.3043506,60.4639175 Z M38.4355388,46.185567 L38.6394243,45.8762887 L38.2316532,45.8762887 L38.4355388,46.185567 Z M34.6636567,43.9690722 L34.561714,44.3814433 L34.8675422,44.3814433 L34.6636567,43.9690722 Z M32.5228588,40.4639175 L32.8796585,40.5670103 L32.6248016,40.1546392 L32.5228588,40.4639175 Z M38.1297105,41.0309278 L38.0787391,41.3917526 L38.4355388,41.1340206 L38.1297105,41.0309278 Z M42.5642204,47.5257732 L42.768106,47.8865979 L43.0229629,47.7835052 L42.5642204,47.5257732 Z M29.8723471,49.3814433 L29.8723471,49.6907216 L30.2291468,49.4845361 L29.8723471,49.3814433 Z M29.4136047,45.5154639 L29.311662,45.7731959 L29.719433,45.7731959 L29.4136047,45.5154639 Z M37.8748536,57.2164948 L37.6709681,57.4742268 L38.0787391,57.4742268 L37.8748536,57.2164948 Z M43.0229629,41.9072165 L42.768106,42.0618557 L43.2268484,42.1649485 L43.0229629,41.9072165 Z M36.6515405,42.7319588 L36.447655,43.0412371 L36.7534833,43.0412371 L36.6515405,42.7319588 Z M39.3530236,46.0824742 L39.3020522,46.443299 L39.5569091,46.443299 L39.3530236,46.0824742 Z M25.7436654,56.6494845 L25.9985223,57.0103093 L25.9985223,56.6494845 L25.7436654,56.6494845 Z M24.4184096,55.5154639 L24.4184096,55.8762887 L24.6732665,55.8762887 L24.4184096,55.5154639 Z M26.6611503,58.9175258 L26.9669785,58.7113402 L26.4062934,58.814433 L26.6611503,58.9175258 Z M45.7754173,44.0206186 L45.9793028,43.9690722 L45.7754173,43.6082474 L45.7754173,44.0206186 Z M25.9985223,45.4123711 L25.9985223,45.6185567 L26.2024078,45.6185567 L26.2024078,45.4123711 L25.9985223,45.4123711 Z M44.2462759,38.556701 L44.2462759,38.7628866 L44.4501615,38.7628866 L44.4501615,38.556701 L44.2462759,38.556701 Z M27.1198927,55.7731959 L27.1198927,55.9793814 L27.3237782,55.9793814 L27.3237782,55.7731959 L27.1198927,55.7731959 Z M39.6588519,49.6907216 L39.6588519,49.8969072 L39.8627374,49.8969072 L39.8627374,49.6907216 L39.6588519,49.6907216 Z M45.1127894,45.2061856 L45.1127894,45.4123711 L45.3166749,45.4123711 L45.3166749,45.2061856 L45.1127894,45.2061856 Z M26.5592075,58.3505155 L26.1004651,58.556701 L26.4572647,58.556701 L26.5592075,58.3505155 Z M31.4014885,54.3298969 L31.4014885,54.5360825 L31.7582881,54.3298969 L31.4014885,54.3298969 Z M40.3214798,49.3298969 L40.3214798,49.4845361 L40.5253653,49.4845361 L40.5253653,49.3298969 L40.3214798,49.3298969 Z M25.8965796,53.7113402 L25.8965796,53.8659794 L26.1004651,53.8659794 L26.1004651,53.7113402 L25.8965796,53.7113402 Z M42.0035353,43.7113402 L42.0035353,43.8659794 L42.4113063,43.7113402 L42.0035353,43.7113402 Z M35.3262847,61.185567 L35.2243419,61.4948454 L35.4282274,61.4948454 L35.3262847,61.185567 Z M35.7850271,41.9072165 L35.7850271,42.0618557 L35.9889126,42.0618557 L35.9889126,41.9072165 L35.7850271,41.9072165 Z M41.1370218,58.2989691 L41.2389646,58.0412371 L40.9841077,58.1443299 L41.1370218,58.2989691 Z M42.4113063,49.4845361 L42.4113063,49.6907216 L42.6661632,49.6907216 L42.4113063,49.4845361 Z M28.7000054,41.8041237 L28.9548623,41.9587629 L28.9548623,41.8041237 L28.7000054,41.8041237 Z M30.4840037,43.7113402 L30.7388606,43.8659794 L30.7388606,43.7113402 L30.4840037,43.7113402 Z M48.3239862,41.9072165 L48.3239862,42.0618557 L48.5278718,41.9072165 L48.3239862,41.9072165 Z M42.3093635,45.9793814 L42.2074208,46.0824742 L42.2074208,46.2886598 L42.3093635,45.9793814 Z M44.2462759,44.9484536 L44.3482187,45.0515464 L44.5521042,45.0515464 L44.2462759,44.9484536 Z M64.8151292,59.8969072 L64.509301,60.2061856 L64.7131865,60.5670103 L65.8345568,60.8762887 L67.3636982,60.7731959 L67.8224406,60.6185567 L68.7399254,60.7731959 L69.3006106,60.6185567 L70.574895,60.7731959 L71.5943226,60.6185567 L72.6137502,60.8762887 L73.4802636,60.7216495 L74.2448343,60.7731959 L74.8564908,61.0309278 L75.0603764,61.2886598 L75.3152333,62.0618557 L75.2642619,62.5257732 L75.009405,62.7835052 L74.3977484,64.6907216 L74.1428915,65 L74.1938629,65.4639175 L73.939006,66.2886598 L73.0724926,67.7319588 L72.6647216,67.7319588 L71.7472367,67.9381443 L70.9316947,67.8865979 L70.6258664,67.628866 L69.8103243,67.9381443 L67.3636982,67.7319588 L66.803013,67.9381443 L65.4777571,67.9381443 L64.917072,67.7319588 L64.4073582,67.9381443 L63.031131,67.7319588 L61.4510182,67.9381443 L60.6864475,67.7319588 L59.9728482,67.9896907 L59.6160486,67.9896907 L58.8514779,67.7319588 L56.302909,67.9896907 L55.1815386,67.628866 L54.5189107,67.8865979 L53.2955976,67.7835052 L52.938798,67.628866 L52.5310269,67.7835052 L51.7664563,67.8350515 L50.4921718,67.628866 L49.6256583,65.7731959 L49.574687,64.7938144 L48.912059,63.6082474 L48.8101163,63.1443299 L49.1159446,62.371134 L49.6766297,61.7525773 L50.1353721,61.6494845 L51.5115994,60.6185567 L52.27617,60.257732 L52.6839411,60.2061856 L52.8878266,60 L53.0407407,59.6391753 L53.8053114,59.3298969 L55.2834814,58.4536082 L56.4048517,57.628866 L56.8635941,57.628866 L57.4752507,57.2680412 L58.0359358,56.7010309 L59.1573062,56.0309278 L59.4121631,55.7216495 L60.7883903,54.8453608 L61.1961613,54.6907216 L61.9097606,54.2268041 L62.4704458,53.6597938 L62.9291882,53.6597938 L63.3879306,52.9896907 L64.1525013,52.5773196 L65.7835854,51.2886598 L66.5991275,50.9793814 L66.803013,50.4123711 L67.4146695,49.9484536 L68.4850685,48.9175258 L68.8418681,48.7113402 L70.8807233,46.1340206 L71.2884943,45.4123711 L71.6962654,44.1237113 L72.1550078,43.4536082 L72.3079219,40.8762887 L71.3904371,38.814433 L70.8297519,38.3505155 L70.7278092,37.9381443 L70.2180954,37.8865979 L69.8612957,37.6804124 L69.2496392,37.1134021 L68.3831257,37.0103093 L68.0772975,37.1649485 L67.7204978,36.9587629 L67.0068985,36.9072165 L65.732614,37.1134021 L65.1209575,37.7319588 L64.6112437,37.8350515 L64.3054154,38.0927835 L63.7957016,38.7628866 L63.4898734,39.0206186 L63.4898734,39.4845361 L63.3369592,39.8453608 L63.2859879,40.3092784 L63.7957016,40.9793814 L64.4073582,42.628866 L64.1525013,43.0927835 L64.3563868,43.5051546 L64.3563868,43.9690722 L64.0505585,45.1030928 L64.0505585,45.4639175 L62.8782168,46.5463918 L61.8078179,47.1134021 L61.2981041,47.1649485 L60.8393617,47.4742268 L60.1257624,47.4226804 L59.8199341,47.5773196 L59.4121631,47.371134 L58.596621,47.2164948 L58.2398214,47.0618557 L57.6281648,46.443299 L57.1694224,46.2371134 L56.4558231,45.3608247 L56.1499948,45.2061856 L56.0480521,44.742268 L55.8441666,44.3814433 L55.8441666,43.9690722 L55.5383383,43.2989691 L55.5383383,41.6494845 L55.3854241,40.8762887 L56.0990235,38.8659794 L56.2519376,37.9381443 L56.7616514,37.3195876 L57.118451,36.5463918 L57.5771934,35.8762887 L58.1378786,35.3092784 L58.4946783,35.1030928 L58.9534207,34.3298969 L59.5141058,33.7628866 L60.7374189,33.1958763 L61.14519,32.628866 L62.368503,32.0618557 L63.1840451,31.9587629 L63.5408448,31.7525773 L64.3054154,31.5463918 L64.6112437,31.2886598 L65.3758144,31.2371134 L66.1403851,30.9793814 L66.4971847,31.1340206 L67.6185551,30.9793814 L67.9243833,31.185567 L68.688954,31.0824742 L68.9438109,30.9278351 L72.3079219,31.4948454 L74.8564908,32.4226804 L76.0288326,33.5051546 L77.6089453,34.6907216 L78.4244874,35.9793814 L78.7303156,36.2371134 L79.0361439,37.1649485 L79.6478005,38.2474227 L79.5968291,38.7113402 L80.1575142,39.4845361 L80.0046001,39.8453608 L80.259457,41.1340206 L80.259457,41.5463918 L80.1575142,41.8556701 L80.4123711,42.5257732 L80.259457,42.9381443 L80.1575142,44.5360825 L80.0555715,44.9484536 L79.2910008,46.443299 L79.189058,47.0618557 L78.8322584,47.5773196 L78.6283729,48.1443299 L77.965745,48.7113402 L77.5070025,49.742268 L77.0482601,50.3092784 L76.9463174,50.6185567 L76.0798039,51.0824742 L76.0798039,51.5463918 L73.6331778,53.814433 L72.3079219,54.8453608 L71.5943226,55.257732 L70.9826661,55.8247423 L69.5554675,56.8041237 L68.8418681,57.0618557 L67.6185551,58.1443299 L65.4267858,59.3814433 L64.8151292,59.8969072 Z M61.7058751,62.4742268 L61.2471327,62.5257732 L60.8903331,62.2164948 L60.482562,62.2164948 L60.8903331,63.0412371 L60.8393617,63.4536082 L61.4000468,62.9896907 L61.9097606,63.2474227 L62.368503,62.6804124 L61.7058751,62.4742268 Z M76.1817467,42.4226804 L75.9778612,42.5257732 L76.1817467,42.9381443 L76.487575,43.2474227 L76.6404891,43.6597938 L77.0482601,43.5051546 L77.5070025,43.556701 L77.3540884,43.1958763 L76.3856322,42.7319588 L76.1817467,42.4226804 Z M57.1694224,61.4948454 L56.9145655,61.5463918 L57.4242793,62.0618557 L57.2713652,62.4226804 L57.9339931,62.6804124 L58.596621,62.4226804 L57.8320503,62.5257732 L57.781079,61.8041237 L57.5771934,61.443299 L57.1694224,61.4948454 Z M74.4487198,45.4639175 L74.7035767,45.7731959 L75.5191188,45.3608247 L75.1623191,45.1546392 L74.3467771,45 L74.0409488,44.742268 L74.4487198,45.4639175 Z M72.1040364,48.1443299 L72.1550078,48.4020619 L72.5627788,48.2989691 L73.1744353,47.7835052 L73.3783209,47.4742268 L72.9705498,47.5773196 L72.1040364,48.1443299 Z M59.9218769,63.0927835 L60.074791,63.4536082 L59.9218769,63.7628866 L60.074791,63.9175258 L60.482562,63.0927835 L60.2786765,62.7835052 L59.9218769,62.5773196 L59.9218769,63.0927835 Z M64.7131865,65 L64.6112437,65.4639175 L65.0190147,65.5670103 L65.4777571,66.0309278 L65.4777571,65.5670103 L65.0190147,65.1030928 L64.7131865,65 Z M60.2277051,60.1546392 L60.482562,60.3092784 L60.9413044,60.257732 L61.2471327,60.1030928 L60.8903331,60 L60.6354762,59.7938144 L60.1767338,59.742268 L60.2277051,60.1546392 Z M56.9145655,60.3608247 L57.2713652,60.2061856 L57.0674796,59.8453608 L56.71068,59.6391753 L56.5067945,59.9484536 L56.6087372,60.257732 L56.9145655,60.3608247 Z M60.0238196,60.8762887 L60.074791,61.2886598 L60.482562,61.2886598 L60.3806193,60.6185567 L60.074791,60.4123711 L60.0238196,60.8762887 Z M61.5019896,63.6597938 L61.2981041,64.2268041 L61.960732,64.3814433 L61.9097606,63.9690722 L61.5019896,63.6597938 Z M56.71068,62.7319588 L56.4048517,62.7835052 L56.5067945,63.0927835 L56.8126228,63.2474227 L57.1694224,63.2474227 L57.0674796,62.8865979 L56.71068,62.7319588 Z M58.18885,61.7525773 L58.0359358,62.1134021 L58.4437069,61.9587629 L58.6985638,61.5979381 L59.1573062,61.6494845 L58.8514779,61.2886598 L58.596621,61.5463918 L58.18885,61.7525773 Z M76.3856322,44.1237113 L75.824947,44.2268041 L75.9778612,44.6391753 L76.3856322,44.6907216 L76.3856322,44.1237113 Z M61.9097606,60.6701031 L61.6039324,61.0824742 L62.0117034,61.0824742 L62.2155889,60.6185567 L62.0626748,60.2061856 L61.9097606,60.6701031 Z M74.9584336,39.742268 L74.7545481,40.257732 L75.1623191,40.257732 L75.3662046,39.742268 L74.9584336,39.742268 Z M64.5602723,55.6185567 L64.4073582,56.0309278 L64.8151292,56.1340206 L64.917072,55.4639175 L64.5602723,55.6185567 Z M75.3662046,47.4226804 L75.417176,47.8350515 L75.7230043,47.8350515 L75.7230043,47.4742268 L75.5191188,47.0618557 L75.3662046,47.4226804 Z M59.0553634,63.1443299 L58.6985638,63.3505155 L58.6985638,63.7113402 L58.8514779,63.9175258 L59.0553634,63.556701 L59.0553634,63.1443299 Z M74.601634,39.1752577 L74.8564908,39.0206186 L74.601634,38.814433 L74.1938629,38.7113402 L74.2958057,39.0721649 L74.601634,39.1752577 Z M74.1938629,46.443299 L74.3977484,46.7010309 L74.601634,46.5979381 L74.5506626,46.2371134 L74.2958057,46.0309278 L74.1938629,46.443299 Z M72.053065,37.1134021 L72.4098647,37.1649485 L72.4098647,36.7010309 L72.053065,36.7010309 L72.053065,37.1134021 Z M61.2981041,58.8659794 L61.2981041,59.2783505 L61.7058751,59.2268041 L61.8078179,58.9690722 L61.2981041,58.8659794 Z M60.2786765,58.8659794 L60.074791,59.1752577 L60.482562,59.1752577 L60.6864475,58.7113402 L60.2786765,58.8659794 Z M76.9972888,41.5979381 L77.4050598,41.6494845 L77.303117,41.2886598 L76.9463174,41.185567 L76.9972888,41.5979381 Z M67.9753547,52.2164948 L67.6185551,52.2164948 L67.8224406,52.5773196 L68.1792402,52.628866 L67.9753547,52.2164948 Z M64.917072,64.0206186 L64.509301,64.1237113 L64.8151292,64.3814433 L65.1719289,64.3814433 L64.917072,64.0206186 Z M62.9801596,62.1134021 L62.6233599,62.1134021 L62.8272455,62.4742268 L63.1840451,62.4226804 L62.9801596,62.1134021 Z M59.3102203,60.3092784 L58.9534207,60.4123711 L59.0553634,60.6701031 L59.4631345,60.6701031 L59.3102203,60.3092784 Z M63.1840451,64.1237113 L62.7253027,64.2268041 L62.7253027,64.4845361 L63.0821023,64.4845361 L63.1840451,64.1237113 Z M76.1307753,39.8969072 L76.487575,39.8453608 L76.3346608,39.5876289 L75.9778612,39.4845361 L76.1307753,39.8969072 Z M55.4873669,63.2474227 L55.3854241,63.556701 L55.7422238,63.5051546 L55.8441666,63.1443299 L55.4873669,63.2474227 Z M55.8441666,62.371134 L56.1499948,62.2164948 L55.7422238,62.1134021 L55.3854241,62.2164948 L55.8441666,62.371134 Z M74.4996912,41.4948454 L74.3977484,41.5463918 L74.3977484,41.7525773 L74.7035767,41.8556701 L74.7545481,41.5463918 L74.4996912,41.4948454 Z M60.9922758,64.742268 L61.2471327,64.8969072 L61.2981041,64.5876289 L61.0432472,64.3814433 L60.9922758,64.742268 Z M59.4121631,57.628866 L59.4631345,58.0412371 L59.8199341,57.628866 L59.4121631,57.628866 Z M71.645294,48.6597938 L71.5943226,48.9690722 L71.8491795,48.9175258 L71.9511223,48.6082474 L71.645294,48.6597938 Z M62.2665603,38.3505155 L61.960732,38.7113402 L62.4704458,38.6082474 L62.2665603,38.3505155 Z M59.6160486,58.4020619 L59.8199341,58.814433 L60.0238196,58.5051546 L59.6160486,58.4020619 Z M57.5771934,63.2474227 L57.1694224,63.3505155 L57.2713652,63.6597938 L57.5771934,63.2474227 Z M75.2642619,36.3402062 L75.6210615,36.5979381 L75.6210615,36.2371134 L75.2642619,36.3402062 Z M58.8514779,58.5051546 L59.2592489,58.814433 L59.2082776,58.5051546 L58.8514779,58.5051546 Z M74.8564908,40.6701031 L74.7035767,40.9793814 L75.0603764,40.9793814 L74.8564908,40.6701031 Z M61.0432472,61.6494845 L61.14519,61.8556701 L61.2981041,61.8556701 L61.4000468,61.6494845 L61.0432472,61.6494845 Z M61.8587893,61.7525773 L61.6039324,61.9072165 L62.0626748,62.0103093 L61.8587893,61.7525773 Z M63.2859879,62.5773196 L63.4898734,62.7835052 L63.6937589,62.5257732 L63.2859879,62.5773196 Z M72.7156929,46.2371134 L72.9705498,46.5979381 L72.9705498,46.2371134 L72.7156929,46.2371134 Z M57.9339931,60.6701031 L57.7301076,60.9793814 L58.0869072,60.8762887 L57.9339931,60.6701031 Z M74.5506626,37.0103093 L74.2958057,37.1649485 L74.7035767,37.2680412 L74.5506626,37.0103093 Z M56.9145655,60.6185567 L56.6087372,60.4123711 L56.71068,60.7731959 L56.9145655,60.6185567 Z M57.9339931,65.3608247 L57.9339931,65.5670103 L58.1378786,65.5670103 L58.1378786,65.3608247 L57.9339931,65.3608247 Z M56.6087372,62.2164948 L56.6087372,62.4226804 L56.8126228,62.4226804 L56.8126228,62.2164948 L56.6087372,62.2164948 Z M59.8199341,42.4226804 L59.8199341,42.7319588 L60.074791,42.7319588 L59.8199341,42.4226804 Z M64.3563868,65.5670103 L64.2544441,65.8247423 L64.4073582,65.8247423 L64.509301,65.5670103 L64.3563868,65.5670103 Z M73.4292922,36.5979381 L73.6331778,36.443299 L73.2763781,36.3402062 L73.4292922,36.5979381 Z M69.1476964,63.7628866 L69.0457537,64.1237113 L69.3006106,63.9690722 L69.1476964,63.7628866 Z M58.6985638,62.1134021 L58.6985638,62.3195876 L58.8514779,62.3195876 L58.8514779,62.1134021 L58.6985638,62.1134021 Z M74.3977484,38.0412371 L74.2958057,38.2474227 L74.7035767,38.0412371 L74.3977484,38.0412371 Z M73.531235,40.9793814 L73.531235,41.185567 L73.8370633,41.185567 L73.531235,40.9793814 Z M58.6985638,59.4329897 L58.6985638,59.6391753 L58.8514779,59.6391753 L58.8514779,59.4329897 L58.6985638,59.4329897 Z M54.9266817,63.7628866 L54.9266817,63.9175258 L55.1305673,63.9175258 L55.1305673,63.7628866 L54.9266817,63.7628866 Z M77.1502029,44.2783505 L77.4050598,44.4329897 L77.4050598,44.2268041 L77.1502029,44.2783505 Z M64.2544441,63.4536082 L64.2544441,63.6597938 L64.509301,63.6597938 L64.2544441,63.4536082 Z M71.8491795,35.8762887 L71.8491795,36.1340206 L72.053065,36.0309278 L71.8491795,35.8762887 Z M74.601634,43.1958763 L74.601634,43.4536082 L74.7545481,43.4536082 L74.601634,43.1958763 Z M74.7035767,47.7319588 L74.8564908,47.6804124 L74.4996912,47.5773196 L74.7035767,47.7319588 Z M70.167124,52.4226804 L70.0651812,52.5257732 L70.3200381,52.4742268 L70.167124,52.4226804 Z M58.1378786,40.8762887 L58.0359358,40.9793814 L58.0359358,41.185567 L58.1378786,40.8762887 Z M59.2592489,64.4845361 L59.3611917,64.5876289 L59.5141058,64.5876289 L59.2592489,64.4845361 Z" id="#2" fill="#FFFFFF" transform="translate(49.484536, 49.484536) rotate(-7.000000) translate(-49.484536, -49.484536) "></path>
        </g>
    </g>
</svg>