<svg xmlns="http://www.w3.org/2000/svg" width="24" height="24" viewBox="0 0 24 24"><path fill="#BAB9C9" d="M12 1C5.662 1 0 5.226 0 11.007c0 2.05.738 4.063 2.047 5.625.055 1.83-1.023 4.456-1.993 6.368 2.602-.47 6.301-1.508 7.978-2.536C17.268 22.711 24 17.059 24 11.007 24 5.195 18.299 1 12 1zm0 15a1.025 1.025 0 1 1 .002-2.05A1.025 1.025 0 0 1 12 16zm1.606-4.858c-.74.799-.775 1.241-.766 1.785h-1.643c-.006-1.208.016-1.742 1.173-2.842.469-.446.84-.799.788-1.493-.047-.66-.599-1.004-1.117-1.004-.581 0-1.261.432-1.261 1.649H9.134C9.134 7.271 10.289 6 12.075 6c.849 0 1.592.278 2.09.783.468.473.709 1.125.7 1.883-.013 1.134-.704 1.878-1.259 2.476z"/></svg>
