<svg width="300" height="120" viewBox="0 0 300 120" xmlns="http://www.w3.org/2000/svg"><title>bnr-yahoo</title><g fill="#FFF" fill-rule="evenodd"><path d="M182.887 69.212c-.553.133-2.588.842-3.185 1.013-.059 1.908-.362 10.433-.362 10.433-.165 3.968-1.862 6.598-6.35 8.342l-1.621-.404c2.19-1.322 3.151-2.482 3.43-3.448.448-1.252.673-4.151.673-9.497 0 0-.052-4.033-.148-5.393-.673-.114-3.433-.797-4.285-.991L171 68c1.758.052 5.596.11 7.106.11 1.512 0 3.354-.078 4.894-.11l-.113 1.212zM254.543 71.903c-.33.081-1.277.304-2.113.485-.051 1.401.105 11.703.122 14.165 0 .354-.385.534-.698.214-2.172-2.178-9.094-10.225-11.4-13.144-.006 1.824.09 9.156.108 10.516a88.63 88.63 0 0 0 3.247.815l.083 1.466c-1.749-.02-7.531-.013-7.636 0l.023-1.422c.749-.322 1.455-.588 2.128-.858.092-.86.082-11.008.086-11.66-.571-.054-1.71-.085-2.496-.123v-1.764c.947-.018 3.88-.01 5.487 0 1.998 2.331 6.783 7.809 9.211 10.594.025-2.352-.131-7.858-.165-8.808-.412-.078-1.355-.173-2.39-.393l-.136-1.384c.41.035 3.019.08 3.506.08.487 0 2.66-.134 3.111-.172l-.078 1.396v-.003zm-41.039 4.126c0 1.954-1.772 2.764-3.705 3.083v1.378c4.073-.423 6.672-2.086 6.672-4.533v-.116c0-2.847-1.841-5.317-6.19-5.406 0 0-1.56-.065-2.465-.065h-5.855l.251 1.564a73.17 73.17 0 0 0 2.582.234c.063 1.955.255 10.02.127 12.308-.466.104-2.004.422-2.59.573l-.145 1.369c.581-.038 8.978-.036 9.597 0l-.074-1.18c-.597-.164-2.755-.565-3.303-.701-.074-.54-.228-11.951-.194-12.446.872 0 2.468.04 3.162.229 1.662.454 2.132 2.293 2.132 3.445v.264h-.002zM100.266 39.453c-1.105.111-5.697 1.167-7.243 1.506-1.654.453-17.52 13.19-18.512 16.133-.221 1.02 0 11.971 0 11.971l8.97.617-.316 3.036c-1.292-.093-9.613-.076-14.83-.076-2.645 0-10.717.304-13.442.222l.34-2.894c1.701.147 4.296-.127 5.887-.563 1.59-.433 2.727-1.082 2.727-2.72v-9.5C63.295 55.488 50.1 38.44 46.685 35.727c-.993-.342-7.494-1.07-9.036-1.407l.32-2.855h30.11l-.435 2.627c-1.32.34-7.694.467-9.348.916 4.298 6.56 11.098 15.01 13.306 18.293 1.213-1.81 12.751-10.098 13.08-12.7-1.652-.336-7.132-1.148-8.011-1.148l-.523-2.906h25.999l-1.88 2.906-.002.001h.001zm64.132 24.77c-4.743-.29-13.067-.17-17.975 0l.29-2.577c.738-.076 4.618-.706 5.602-.851V51.98c-2.362 0-15.556.294-17.64.84v7.92s5.686.672 7.013.816l-.305 2.673c-5.174-.296-15.474-.306-20.366-.017l.32-2.869c1.534-.043 5.64-.526 6.6-.68.149-1.964.22-5.068.22-8.32V48.33c0-1.36-.07-5.294-.146-6.658-1.13-.003-5.843-.457-7.17-.53l.323-2.543c4.255.246 17.38.24 20.997.012l-.371 2.366c-1.028.057-5.685.764-7.113.766v7.029h17.637V38.504c-1.298-.138-4.476-.865-5.88-.934l.272-2.365c2.951.225 14.61.19 17.732 0l-.22 2.481c-.957.077-4.378.675-5.503.753v22.433s4.98.624 6.016.773l-.33 2.576-.003.001zm92.528-7.468h-4.739V31.197h10.757l-.966 3.84-5.052 21.718zm-3.57 10.12l-3.254.137.626-5.645 3.243.16 3.033-.119-.64 5.527-3.008-.061z"/><path d="M203.49 51.49c0-8.1-7.566-13.018-19.084-13.264l-.557-.003-.557.002c-12.22.263-18.979 5.209-18.979 13.304 0 .042-.004.085-.004.124 0 .042 0 .079.003.121.078 7.624 7.463 13.056 18.98 13.303 0 0 .408.006.556.004.147.002.557-.005.557-.005 11.517-.248 18.944-5.354 19.08-13.272l.003-.316.001.002zm-18.471 10.016c-.397.011-.786.035-1.172.053-.386-.018-.776-.042-1.172-.053-3.987-.115-11.685-2.448-11.685-9.498l-.002-.353.002-.355c0-7.052 7.699-9.387 11.685-9.498.397-.01.787-.036 1.172-.054.386.018.776.043 1.172.054 3.986.112 11.688 2.446 11.688 9.498l.001.355v.353c0 7.049-7.701 9.383-11.689 9.498zm63.424-13.229c0-.047-.004-.148-.004-.148-.293-8.475-8.25-13.95-21.061-14.23 0 0-.35-.008-.526-.008-.173 0-.523.009-.523.009-12.816.278-20.806 5.383-21.06 14.23v.282c.254 8.851 8.244 14.077 21.06 14.353.35.012.699.012 1.048 0 12.811-.276 20.805-5.502 21.06-14.353 0 0 .004-.085.004-.133l.002-.002zm-19.839 10.625c-.583.04-1.167.062-1.752.066a28.856 28.856 0 0 1-1.755-.066c-4.355-.306-12.255-3.05-12.42-10.627.165-7.58 8.065-10.203 12.42-10.51a30.75 30.75 0 0 1 1.753-.062c.585.004 1.17.025 1.755.062 4.358.306 12.255 2.931 12.42 10.51-.164 7.577-8.062 10.321-12.42 10.627zM119.43 67.865c-1.336-2.246-6.372-14.985-8.627-20.747l4.136-.663.494-2.178h-6.29l.006.023c-2.39.035-12.127-.054-13.197-.119l-.179 2.267 5 1.227s-7.317 14.84-8.777 16.981c-1.3.287-4.476 1.072-5.667 1.215l-.344 2.741c.987-.144 13.754-.069 14.935 0l.274-2.473-4.45-1.081s2.022-4.315 2.3-4.814c1.46-.288 9.76-.414 9.76-.414l2.953 8.236s-3.517.557-4.908.627l-.312 2.703c1.042 0 17.903-.07 18.39 0l.281-2.427c-1.25-.071-4.598-.886-5.78-1.102v-.002h.002zm-19.3-10.704c.418-1.143 4.166-9.317 4.166-9.317l3.528 9.316h-7.693zm122.41 21.986c.33-.834 2.483-6.011 2.483-6.011l2.278 6.028-4.761-.017zm10.034 5.423c-1.666-3.568-4.458-10.577-5.21-12.469l1.994-.273.137-1.371-8.238.293-.03 1.149 2.136.381c-1.41 3.162-5.043 11.244-5.677 12.193-.549.199-1.229.415-1.891.663l-.135 1.283c1.89-.109 5.972-.036 6.611 0l.029-1.15-2.045-.598s1.276-3.164 1.735-4.119c1.59-.022 5.786.018 5.786.018l1.562 4.197s-1.455.317-2.533.529l-.185 1.122c.564 0 8.02-.036 8.283 0l.144-1.326a568.87 568.87 0 0 0-2.473-.523zm-44.543-5.422c.333-.836 2.486-6.013 2.486-6.013l2.278 6.03-4.762-.017h-.002zm10.039 5.424c-1.043-2.232-3.88-9.206-5.177-12.472l2.156-.399.06-1.24-8.358.291-.014 1.138 2.136.38c-1.41 3.161-5.06 11.255-5.694 12.205-.692.261-1.298.451-1.891.664l-.134 1.282c1.868-.065 5.972-.038 6.61 0l.032-1.15-2.048-.599s1.278-3.164 1.736-4.118c1.589-.023 5.785.02 5.785.02l1.56 4.194s-1.454.317-2.533.529l-.185 1.123c.564 0 8.02-.039 8.284 0l.143-1.327c-.683-.15-2.47-.522-2.47-.522h.002z"/></g></svg>