<svg width="240" height="96" viewBox="0 0 240 96" xmlns="http://www.w3.org/2000/svg"><title>bnr-yahoo</title><g fill="#FFF" fill-rule="evenodd"><path d="M148.13 55.883c-.47.115-2.195.729-2.7.876-.05 1.65-.308 9.025-.308 9.025-.14 3.432-1.578 5.707-5.383 7.216l-1.374-.35c1.856-1.143 2.671-2.146 2.908-2.982.38-1.083.57-3.59.57-8.215 0 0-.044-3.489-.125-4.665-.57-.099-2.91-.69-3.633-.857l-.033-1.096c1.49.045 4.744.095 6.024.095 1.282 0 2.844-.067 4.15-.095l-.097 1.048zm60.748 2.328c-.28.07-1.083.263-1.792.42-.043 1.211.09 10.123.104 12.252 0 .307-.326.462-.592.185-1.841-1.884-7.71-8.844-9.665-11.37-.005 1.579.077 7.92.092 9.097.913.253 1.83.488 2.753.705l.07 1.268a476.62 476.62 0 0 0-6.473 0l.019-1.23c.635-.278 1.234-.508 1.804-.742.078-.744.07-9.522.073-10.086-.484-.047-1.45-.073-2.116-.106v-1.526c.803-.016 3.29-.009 4.652 0 1.694 2.016 5.75 6.755 7.809 9.164.02-2.035-.111-6.798-.14-7.62-.35-.067-1.149-.149-2.026-.34l-.116-1.196c.348.03 2.56.069 2.973.069.412 0 2.255-.116 2.637-.149l-.066 1.208v-.003zm-34.792 3.569c0 1.69-1.502 2.39-3.141 2.667v1.192c3.453-.366 5.656-1.805 5.656-3.921v-.1c0-2.463-1.56-4.6-5.247-4.677 0 0-1.323-.056-2.09-.056H164.3l.213 1.353c.728.08 1.458.148 2.189.202.053 1.691.216 8.668.107 10.647-.395.09-1.699.365-2.195.495l-.123 1.185c.492-.033 7.611-.032 8.136 0l-.063-1.021c-.506-.142-2.336-.489-2.8-.607-.063-.467-.193-10.337-.165-10.765.74 0 2.093.034 2.681.198 1.41.392 1.808 1.983 1.808 2.98v.228h-.002zm-96-31.639c-.938.097-4.83 1.01-6.141 1.303-1.402.392-14.853 11.41-15.694 13.955-.188.883 0 10.355 0 10.355l7.604.534-.268 2.626c-1.095-.08-8.15-.066-12.572-.066-2.242 0-9.086.263-11.396.193l.288-2.504c1.442.127 3.642-.11 4.991-.487 1.348-.374 2.312-.936 2.312-2.353V45.48c-.468-1.468-11.654-16.215-14.55-18.562-.841-.295-6.353-.925-7.66-1.217l.271-2.47h25.527l-.369 2.273c-1.119.294-6.523.404-7.925.793 3.644 5.674 9.409 12.983 11.28 15.823 1.029-1.566 10.81-8.735 11.09-10.985-1.401-.291-6.047-.994-6.792-.994l-.443-2.513h22.04l-1.593 2.513-.002.001h.001zm54.369 21.427c-4.021-.251-11.078-.147-15.239 0l.246-2.23c.626-.065 3.915-.61 4.75-.736v-7.625c-2.003 0-13.189.255-14.956.727v6.85s4.82.582 5.946.707l-.259 2.312c-4.386-.256-13.118-.265-17.265-.015l.27-2.481c1.301-.038 4.782-.455 5.596-.589.126-1.699.187-4.384.187-7.197v-3.47c0-1.177-.06-4.58-.124-5.76-.958-.003-4.954-.395-6.079-.459l.274-2.2c3.607.214 14.734.208 17.8.011l-.314 2.047c-.871.05-4.82.66-6.03.662v6.08h14.952v-8.881c-1.1-.12-3.794-.749-4.985-.808l.231-2.046c2.502.195 12.386.164 15.033 0l-.187 2.146c-.811.067-3.711.584-4.665.651V48.67s4.222.54 5.1.669l-.28 2.228h-.002v.002zm78.443-6.46h-4.018V23H216l-.819 3.322-4.283 18.786zm-3.026 8.754l-2.76.118.532-4.883 2.749.139 2.571-.103-.542 4.78-2.55-.052z"/><path d="M165.815 41.076c0-6.939-6.427-11.152-16.211-11.362l-.473-.003-.474.002c-10.38.225-16.121 4.462-16.121 11.397 0 .036-.004.072-.004.106 0 .036 0 .068.003.104.066 6.53 6.34 11.184 16.122 11.396a27.195 27.195 0 0 0 .946-.001c9.783-.213 16.092-4.587 16.207-11.37l.003-.27v.001h.002zm-15.69 8.58c-.338.01-.668.03-.996.046-.328-.016-.66-.036-.996-.046-3.386-.098-9.925-2.097-9.925-8.136l-.002-.302.002-.305c0-6.04 6.54-8.04 9.925-8.136.338-.009.669-.03.996-.046.328.015.66.037.995.046 3.386.096 9.929 2.095 9.929 8.136v.607c0 6.039-6.54 8.038-9.929 8.136zM204 38.324l-.003-.127c-.25-7.26-7.008-11.95-17.89-12.19 0 0-.298-.007-.447-.007-.147 0-.445.008-.445.008-10.886.238-17.673 4.611-17.89 12.19v.241c.217 7.583 7.004 12.06 17.89 12.296.298.01.594.01.89 0 10.883-.236 17.673-4.713 17.89-12.296 0 0 .003-.072.003-.113l.002-.002zm-16.852 9.102c-.495.034-.992.053-1.488.056a24.307 24.307 0 0 1-1.491-.056c-3.7-.262-10.41-2.613-10.55-9.104.14-6.493 6.85-8.74 10.55-9.003.495-.032.992-.05 1.489-.053.497.003.994.021 1.49.053 3.703.262 10.41 2.51 10.55 9.003-.139 6.491-6.847 8.842-10.55 9.104zM94.41 55.104c-1.135-1.924-5.413-12.837-7.328-17.773l3.513-.568.42-1.866h-5.343l.005.02c-2.03.03-10.302-.046-11.21-.102l-.153 1.942 4.248 1.051s-6.216 12.713-7.456 14.547c-1.104.246-3.802.918-4.814 1.04L66 55.745c.838-.123 11.683-.06 12.687 0l.232-2.119-3.78-.926s1.718-3.696 1.954-4.124c1.24-.246 8.29-.354 8.29-.354l2.509 7.055s-2.987.477-4.17.537l-.264 2.316c.885 0 15.208-.06 15.621 0l.239-2.08c-1.062-.06-3.906-.758-4.91-.943v-.002h.002zm-16.395-9.17c.356-.979 3.54-7.981 3.54-7.981l2.996 7.98h-6.535v.001zM181.997 64.77c.28-.715 2.109-5.15 2.109-5.15l1.935 5.164-4.044-.014zm8.523 4.645c-1.415-3.056-3.787-9.06-4.426-10.681l1.694-.234.117-1.175-6.998.251-.026.985 1.815.326c-1.198 2.709-4.284 9.632-4.823 10.445-.466.17-1.044.356-1.606.568l-.115 1.1c1.606-.094 5.073-.032 5.616 0l.025-.986-1.737-.512s1.084-2.71 1.473-3.529c1.351-.019 4.915.016 4.915.016l1.327 3.595s-1.236.272-2.151.453l-.158.961c.48 0 6.813-.03 7.036 0l.123-1.135c-.7-.151-1.4-.3-2.1-.449v.001zm-37.837-4.644c.283-.717 2.112-5.151 2.112-5.151l1.935 5.165-4.045-.014h-.002zm8.528 4.646c-.886-1.912-3.296-7.886-4.398-10.684l1.831-.342.051-1.062-7.1.25-.011.974 1.814.325c-1.197 2.708-4.298 9.642-4.837 10.456-.587.224-1.102.386-1.606.569L146.841 71c1.587-.056 5.073-.033 5.615 0l.027-.985-1.74-.513s1.086-2.71 1.475-3.528c1.35-.02 4.914.017 4.914.017l1.326 3.593s-1.236.272-2.152.453l-.157.962c.479 0 6.812-.033 7.037 0l.121-1.137c-.58-.128-2.098-.447-2.098-.447h.002v.001z"/></g></svg>