<?xml version="1.0" encoding="UTF-8"?>
<svg width="300px" height="120px" viewBox="0 0 300 120" version="1.1" xmlns="http://www.w3.org/2000/svg" xmlns:xlink="http://www.w3.org/1999/xlink">
    <!-- Generator: Sketch 53.2 (72643) - https://sketchapp.com -->
    <title>bnr-nikkei</title>
    <desc>Created with Sketch.</desc>
    <g id="bnr-nikkei" stroke="none" stroke-width="1" fill="none" fill-rule="evenodd">
        <g id="Nikkei" transform="translate(37.000000, 35.000000)" fill="#FFFFFF" fill-rule="nonzero">
            <polygon id="Path" points="46.1359061 0 37.6979275 31.7571798 27.315365 0 13.0187647 0 0 49 11.8108014 49 11.8640939 49 11.8759367 49 20.9107912 14.9659174 31.9944461 49 44.967024 49 44.9812353 49 58 0"></polygon>
            <polygon id="Path" points="214.080053 0 201 49 212.919947 49 226 0"></polygon>
            <polygon id="Path" points="65.0806206 0 52 49 63.9193794 49 77 0"></polygon>
            <polygon id="Path" points="197.894715 28.8829782 200.315908 19.7705885 180.09823 19.7705885 182.706581 9.95816471 205.353744 9.95816471 208 0 173.486144 0 160.75474 47.9081379 151.389791 22.6734604 147.711803 22.6734604 147.703511 22.6734604 169.925426 0 155.918276 0 135.177032 20.8039154 140.706451 0 128.838574 0 116.036098 48.1757277 106.572832 22.6734604 102.894844 22.6734604 102.886552 22.6734604 125.108467 0 111.101317 0 90.3600733 20.8039154 95.8894922 0 84.0216156 0 71 49 71.2416456 49 82.7837744 49 82.866692 49 89.8637523 22.6734604 94.060567 22.6734604 102.602264 49 127.600733 49 127.683651 49 134.680711 22.6734604 138.877526 22.6734604 147.419222 49 195.312424 49 197.955126 39.0561705 174.973923 39.0561705 177.677036 28.8829782"></polygon>
        </g>
    </g>
</svg>