<svg width="480" height="192" viewBox="0 0 480 192" xmlns="http://www.w3.org/2000/svg"><title>bnr-fastly</title><g fill="#FFF" fill-rule="nonzero"><path d="M317.003 30.92V142H350v-16.972h-10.904V14L317 14.003zM27 125.026h11.266v-53.59H27V56.698l11.266-1.865v-14.92C38.266 21.844 42.173 14 65.065 14c4.944 0 10.804.735 15.935 1.666L77.959 33.83c-3.475-.554-5.198-.652-7.395-.652-8.064 0-10.104.81-10.104 8.743v12.91h16.746v16.604H60.46v53.59h11.15v16.97L27 142v-16.974zM304.742 119.665c-3.428.737-6.425.649-8.594.703-9.015.226-8.236-2.795-8.236-11.463V71.437h17.16V54.834h-17.16V14H266v99.538C266 133.08 270.73 142 291.344 142c4.883 0 11.591-1.28 16.656-2.387l-3.258-19.948zM444.489 125a8.478 8.478 0 0 1 8.511 8.501 8.478 8.478 0 0 1-8.511 8.499 8.458 8.458 0 0 1-8.489-8.499 8.46 8.46 0 0 1 8.489-8.501zm0 15.664c3.906 0 7.088-3.23 7.088-7.163 0-3.936-3.182-7.067-7.088-7.067a7.045 7.045 0 0 0-7.067 7.067c0 3.933 3.161 7.163 7.067 7.163zm1.567-2.987l-1.712-2.526h-1.182v2.526h-1.904v-8.355h3.47c2.051 0 3.33 1.045 3.33 2.892 0 1.358-.676 2.282-1.736 2.597l2.073 2.866h-2.339zm-2.893-4.202h1.519c.869 0 1.447-.34 1.447-1.26 0-.875-.579-1.217-1.4-1.217h-1.567v2.477zM238.069 71.413v-2.972c-6.76-1.233-13.472-1.25-17.113-1.25-10.398 0-11.666 5.513-11.666 8.502 0 4.228 1.443 6.514 12.707 8.977C238.463 88.366 255 92.222 255 112.637c0 19.36-9.965 29.363-30.94 29.363-14.037 0-27.656-3.013-38.048-5.65v-16.683h16.92l-.01 2.964c7.281 1.406 14.915 1.265 18.901 1.265 11.091 0 12.885-5.962 12.885-9.132 0-4.4-3.18-6.512-13.577-8.62C201.545 102.798 186 96.111 186 76.217 186 57.387 198.596 50 219.571 50c14.211 0 25.016 2.204 35.413 4.842v16.571H238.07zM135 85.706L133.293 84l-8.667 7.548a4.125 4.125 0 0 0-1.394-.246c-2.339 0-4.232 1.948-4.232 4.348 0 2.403 1.893 4.35 4.232 4.35 2.338 0 4.235-1.947 4.235-4.35 0-.456-.069-.895-.196-1.308L135 85.706z"/><path d="M169.672 119.554l-.015-69.874h-22.293v6.552a45.373 45.373 0 0 0-15.157-5.775h.126v-7.754h2.72V37h-22.447v5.703h2.72v7.754h.154C94.158 54.41 78 73.217 78 95.835c0 25.492 20.516 46.156 45.825 46.156a45.36 45.36 0 0 0 23.611-6.594l4.016 6.603H175v-22.447h-5.328zm-44.512-.051v-2.64h-2.67v2.632c-11.966-.702-21.536-10.384-22.16-22.455h2.655v-2.69h-2.641c.71-11.988 10.24-21.578 22.145-22.277v2.646h2.671v-2.654c11.735.632 21.188 9.904 22.21 21.614v.772h-2.676v2.69h2.676v.737c-1.015 11.716-10.47 20.993-22.21 21.625zM406.752 55H453v16.45h-11.054l-28.364 68.95c-8.129 19.37-21.481 37.6-41.816 37.6-5 0-11.655-.547-16.27-1.643l2.027-20.11c2.962.547 6.841.907 8.877.907 9.43 0 20.067-5.773 23.394-15.826l-28.74-69.878H350V55h46.272v16.45h-11.053l16.281 39.58 16.282-39.58h-11.03V55z"/></g></svg>