<svg height="112" viewBox="0 0 362 112" width="362" xmlns="http://www.w3.org/2000/svg"><g fill="#fff" fill-rule="evenodd"><path d="m217.925 66.052c-.636.153-2.977.964-3.664 1.16-.068 2.185-.417 11.944-.417 11.944-.19 4.543-2.142 7.553-7.305 9.55l-1.866-.462c2.52-1.514 3.626-2.842 3.947-3.948.515-1.433.774-4.752.774-10.872 0 0-.06-4.617-.17-6.174-.775-.13-3.95-.913-4.93-1.135l-.045-1.45c2.023.06 6.438.125 8.175.125 1.74 0 3.859-.088 5.631-.125z"/><g fill-rule="nonzero"><path d="m300.346 69.016c-.377.091-1.458.342-2.413.546-.058 1.576.12 13.165.14 15.935 0 .398-.44.601-.797.241-2.48-2.45-10.382-11.503-13.014-14.787-.007 2.052.103 10.3.123 11.83.99.276 3.282.829 3.707.917l.095 1.65c-1.997-.022-8.598-.015-8.718 0l.026-1.6c.855-.363 1.661-.662 2.43-.966.105-.968.093-12.384.098-13.118-.652-.06-1.953-.095-2.85-.137v-1.985c1.082-.02 4.43-.012 6.265 0 2.28 2.623 7.743 8.785 10.515 11.918.028-2.646-.15-8.84-.189-9.909-.47-.087-1.546-.194-2.728-.442l-.155-1.557c.468.04 3.446.09 4.002.09s3.037-.15 3.552-.193l-.089 1.57zm-46.85 4.642c0 2.198-2.023 3.109-4.23 3.468v1.55c4.65-.476 7.617-2.346 7.617-5.099v-.131c0-3.203-2.102-5.982-7.066-6.082 0 0-1.782-.073-2.815-.073h-6.684l.287 1.76c.933.104 2.165.207 2.947.263.072 2.199.291 11.272.145 13.846-.531.117-2.287.475-2.957.645l-.165 1.54c.664-.043 10.249-.04 10.956 0l-.085-1.328c-.681-.184-3.145-.635-3.77-.788-.085-.607-.26-13.445-.222-14.002.996 0 2.818.045 3.61.258 1.897.511 2.434 2.58 2.434 3.876l-.001.297zm-129.272-41.148c-1.261.125-6.504 1.312-8.268 1.694-1.889.51-20.001 14.839-21.134 18.15-.252 1.146 0 13.467 0 13.467l10.24.694-.36 3.415c-1.475-.104-10.975-.085-16.93-.085-3.02 0-12.235.342-15.345.25l.387-3.256c1.943.165 4.905-.143 6.721-.633 1.816-.487 3.113-1.218 3.113-3.06v-10.688c-.63-1.909-15.693-21.087-19.592-24.14-1.133-.385-8.555-1.204-10.315-1.583l.366-3.212h34.373l-.497 2.955c-1.508.382-8.784.526-10.672 1.031 4.907 7.381 12.67 16.886 15.19 20.58 1.385-2.037 14.557-11.361 14.933-14.287-1.887-.379-8.142-1.292-9.146-1.292l-.597-3.27h29.68l-2.145 3.27-.003.001zm73.213 27.865c-5.415-.325-14.918-.19-20.521 0l.331-2.898c.843-.086 5.272-.795 6.396-.958v-9.916c-2.697 0-17.759.33-20.137.944v8.91s6.49.756 8.005.918l-.348 3.008c-5.907-.333-17.665-.345-23.25-.02l.365-3.227c1.752-.048 6.44-.592 7.535-.765.17-2.21.251-5.702.251-9.36v-4.516c0-1.53-.08-5.956-.167-7.49-1.289-.003-6.67-.514-8.185-.597l.369-2.86c4.857.276 19.84.269 23.97.013l-.424 2.662c-1.173.064-6.49.86-8.12.862v7.907h20.135v-11.55c-1.482-.155-5.11-.973-6.713-1.051l.311-2.66c3.369.253 16.678.213 20.242 0l-.25 2.791c-1.093.086-4.999.759-6.283.847v25.237s5.686.702 6.868.87l-.378 2.898zm105.629-8.401h-5.41v-28.752h12.28l-1.103 4.32zm-4.075 11.385-3.715.154.714-6.35 3.703.18 3.462-.134-.73 6.218-3.434-.069z"/><path d="m242.063 46.051c0-9.113-8.637-14.645-21.785-14.922l-.636-.003-.636.002c-13.95.296-21.666 5.86-21.666 14.967 0 .047-.005.096-.005.14 0 .047 0 .088.004.136.088 8.577 8.519 14.688 21.666 14.966 0 0 .467.006.636.004.168.002.636-.005.636-.005 13.147-.28 21.626-6.024 21.782-14.931l.002-.356zm-21.086 11.268c-.453.013-.897.04-1.338.06-.44-.02-.885-.047-1.337-.06-4.552-.129-13.34-2.754-13.34-10.685l-.002-.397.002-.4c0-7.933 8.789-10.56 13.34-10.685.453-.012.898-.04 1.338-.06.44.02.885.048 1.338.06 4.55.126 13.342 2.752 13.342 10.686l.002.399v.397c0 7.93-8.792 10.556-13.344 10.685zm72.405-14.882c0-.053-.005-.167-.005-.167-.334-9.534-9.418-15.694-24.043-16.008 0 0-.399-.01-.6-.01-.198 0-.597.01-.597.01-14.631.313-23.752 6.056-24.043 16.01v.317c.291 9.957 9.412 15.836 24.043 16.147a17.693 17.693 0 0 0 1.196 0c14.625-.311 23.751-6.19 24.043-16.147 0 0 .004-.096.004-.15zm-22.648 11.953a33.39 33.39 0 0 1 -2 .074 33.425 33.425 0 0 1 -2.004-.074c-4.972-.344-13.99-3.431-14.178-11.956.188-8.527 9.206-11.478 14.178-11.823a35.62 35.62 0 0 1 2.001-.07 35.21 35.21 0 0 1 2.004.07c4.975.344 13.99 3.297 14.179 11.823-.188 8.524-9.204 11.612-14.179 11.956zm-124.634 10.083c-1.525-2.527-7.274-16.858-9.848-23.34l4.721-.746.564-2.45h-7.18l.007.025c-2.728.04-13.844-.06-15.066-.133l-.204 2.55 5.707 1.38s-8.352 16.696-10.019 19.104c-1.484.323-5.11 1.206-6.47 1.367l-.392 3.084c1.127-.162 15.701-.078 17.05 0l.312-2.783-5.08-1.216s2.308-4.854 2.625-5.416c1.667-.323 11.142-.465 11.142-.465l3.372 9.265s-4.015.627-5.603.706l-.356 3.04c1.189 0 20.438-.078 20.994 0l.321-2.73c-1.428-.08-5.249-.997-6.598-1.24v-.002zm-22.032-12.042c.477-1.286 4.756-10.481 4.756-10.481l4.027 10.48h-8.782zm139.741 24.734c.377-.938 2.836-6.762 2.836-6.762l2.6 6.782-5.435-.02zm11.456 6.101c-1.902-4.014-5.09-11.899-5.947-14.027l2.275-.308.157-1.542-9.405.33-.034 1.292 2.438.429c-1.609 3.557-5.757 12.649-6.48 13.717-.627.224-1.403.467-2.159.746l-.154 1.443c2.158-.122 6.818-.04 7.547 0l.033-1.294-2.334-.672s1.456-3.56 1.98-4.634c1.816-.025 6.605.02 6.605.02l1.783 4.722s-1.66.356-2.891.595l-.211 1.262c.643 0 9.155-.04 9.456 0l.164-1.492c-.782-.167-2.823-.588-2.823-.588zm-50.85-6.1c.38-.94 2.838-6.764 2.838-6.764l2.6 6.784-5.436-.02h-.001zm11.46 6.102c-1.19-2.51-4.43-10.356-5.91-14.031l2.462-.448.068-1.395-9.542.327-.016 1.28 2.439.428c-1.61 3.556-5.777 12.662-6.5 13.73-.79.294-1.482.508-2.159.747l-.153 1.443c2.132-.073 6.818-.043 7.547 0l.035-1.294-2.337-.674s1.458-3.56 1.981-4.633c1.814-.026 6.604.023 6.604.023l1.782 4.718s-1.66.357-2.892.595l-.211 1.264c.643 0 9.156-.044 9.456 0l.164-1.493c-.78-.17-2.82-.588-2.82-.588z"/></g></g></svg>