<svg width="300" height="120" viewBox="0 0 300 120" xmlns="http://www.w3.org/2000/svg"><title>bnr-nikkei</title><g fill="#FFF" fill-rule="nonzero"><path d="M70.886 31.5L60.848 69.09 48.496 31.5H31.488L16 89.5h14.128l10.749-40.285L54.062 89.5h15.45L85 31.5zM269.696 31.5L254 89.5h14.304L284 31.5zM92.697 31.5L77 89.5h14.303L107 31.5zM250.05 65.688l2.864-10.786h-23.907l3.084-11.615h26.78L262 31.5h-40.812l-15.055 56.708-11.074-29.87H190.7L216.979 31.5h-16.564l-24.526 24.625 6.539-24.625h-14.034l-15.139 57.024-11.19-30.186h-4.359L163.982 31.5H147.42l-24.526 24.625L129.43 31.5h-14.033L100 89.5h14.032l8.274-31.162h4.963l10.1 31.162H167.027l8.274-31.162h4.963l10.1 31.162h56.633l3.125-11.77h-27.175l3.197-12.042z"/></g></svg>