<?xml version="1.0" encoding="UTF-8"?>
<svg width="645px" height="331px" viewBox="0 0 645 331" version="1.1" xmlns="http://www.w3.org/2000/svg" xmlns:xlink="http://www.w3.org/1999/xlink">
    <!-- Generator: Sketch 53.2 (72643) - https://sketchapp.com -->
    <title>logo</title>
    <desc>Created with Sketch.</desc>
    <g id="logo" stroke="none" stroke-width="1" fill="none" fill-rule="evenodd">
        <g id="Group" fill-rule="nonzero">
            <path d="M31.2058057,168 L6.00111649,168 C2.64049125,168 0,165.36 0,162 L0,6 C0,2.64 2.64049125,0 6.00111649,0 L31.2058057,0 C34.566431,0 37.2069222,2.64 37.2069222,6 L37.2069222,162 C37.2069222,165.36 34.566431,168 31.2058057,168 Z M179.553405,168 L153.868627,168 C150.267957,168 146.907332,165.84 145.467064,162.48 L106.099739,71.04 C105.859695,70.56 105.61965,70.8 105.61965,71.04 L105.61965,162 C105.61965,165.36 102.979159,168 99.6185337,168 L74.4138444,168 C71.0532192,168 68.4127279,165.36 68.4127279,162 L68.4127279,6 C68.4127279,2.64 71.0532192,0 74.4138444,0 L100.098623,0 C103.699293,0 107.059918,2.16 108.500186,5.52 L147.86751,97.2 C148.107555,97.68 148.3476,97.44 148.3476,97.2 L148.3476,6 C148.3476,2.64 150.988091,0 154.348716,0 L179.553405,0 C182.914031,0 185.554522,2.64 185.554522,6 L185.554522,162 C185.554522,165.36 182.914031,168 179.553405,168 Z M277.251582,104.88 L221.561221,91.44 C218.200595,90.72 215.800149,87.36 215.800149,84 L215.800149,18 C215.800149,8.16 223.961667,0 233.803498,0 L296.695199,0 C306.53703,0 314.698549,8.16 314.698549,18 L314.698549,36.48 C314.698549,40.08 312.538147,43.44 309.177521,44.88 L283.012654,55.68 C280.372162,56.88 277.491626,54.96 277.491626,52.08 L277.491626,34.56 C277.491626,33.84 277.011537,33.36 276.291403,33.36 L254.207294,33.36 C253.48716,33.36 253.007071,33.84 253.007071,34.56 L253.007071,62.16 C253.007071,62.88 253.48716,63.36 254.207294,63.6 L309.897655,76.8 C313.258281,77.52 315.658727,80.88 315.658727,84.24 L315.658727,150 C315.658727,159.84 307.497209,168 297.655378,168 L233.323409,168 C223.481578,168 215.32006,159.84 215.32006,150 L215.32006,131.52 C215.32006,127.92 217.480461,124.56 220.841087,123.12 L247.005955,112.32 C249.646446,111.12 252.526982,113.04 252.526982,115.92 L252.526982,133.44 C252.526982,134.16 253.007071,134.64 253.727205,134.64 L277.251582,134.64 C277.971716,134.64 278.451805,134.16 278.451805,133.44 L278.451805,106.32 C278.451805,105.6 277.971716,105.12 277.251582,104.88 Z M376.630071,168 L351.425381,168 C348.064756,168 345.424265,165.36 345.424265,162 L345.424265,6 C345.424265,2.64 348.064756,0 351.425381,0 L376.630071,0 C379.990696,0 382.631187,2.64 382.631187,6 L382.631187,162 C382.631187,165.36 379.990696,168 376.630071,168 Z M502.173428,168 L419.838109,168 C416.477484,168 413.836993,165.36 413.836993,162 L413.836993,6 C413.836993,2.64 416.477484,0 419.838109,0 L502.173428,0 C512.015259,0 520.176777,8.16 520.176777,18 L520.176777,150 C520.176777,159.84 512.015259,168 502.173428,168 Z M481.769632,33.36 L452.244138,33.36 C451.524004,33.36 451.043915,33.84 451.043915,34.56 L451.043915,133.44 C451.043915,134.16 451.524004,134.64 452.244138,134.64 L481.769632,134.64 C482.489766,134.64 482.969855,134.16 482.969855,133.44 L482.969855,34.56 C482.969855,33.84 482.489766,33.36 481.769632,33.36 Z M638.998884,168 L557.143655,168 C553.783029,168 551.142538,165.36 551.142538,162 L551.142538,6 C551.142538,2.64 553.783029,0 557.143655,0 L638.998884,0 C642.359509,0 645,2.64 645,6 L645,27.36 C645,30.72 642.359509,33.36 638.998884,33.36 L589.549684,33.36 C588.82955,33.36 588.34946,33.84 588.34946,34.56 L588.34946,67.2 C588.34946,67.92 588.82955,68.4 589.549684,68.4 L624.116115,68.4 C627.47674,68.4 630.117231,71.04 630.117231,74.4 L630.117231,93.36 C630.117231,96.72 627.47674,99.36 624.116115,99.36 L589.549684,99.36 C588.82955,99.36 588.34946,99.84 588.34946,100.56 L588.34946,133.44 C588.34946,134.16 588.82955,134.64 589.549684,134.64 L638.998884,134.64 C642.359509,134.64 645,137.28 645,140.64 L645,162 C645,165.36 642.359509,168 638.998884,168 Z" id="Inside" fill="#FFFFFF"></path>
            <path d="M19.127182,331 L3.67830424,331 C1.61845387,331 0,329.365714 0,327.285714 L0,230.714286 C0,228.634286 1.61845387,227 3.67830424,227 L55.3216958,227 C57.3815461,227 59,228.634286 59,230.714286 L59,243.937143 C59,246.017143 57.3815461,247.651429 55.3216958,247.651429 L23.5411471,247.651429 C23.0997506,247.651429 22.8054863,247.948571 22.8054863,248.394286 L22.8054863,268.897143 C22.8054863,269.342857 23.0997506,269.64 23.5411471,269.64 L46.0523691,269.64 C48.1122195,269.64 49.7306733,271.274286 49.7306733,273.354286 L49.7306733,285.091429 C49.7306733,287.171429 48.1122195,288.805714 46.0523691,288.805714 L23.5411471,288.805714 C23.0997506,288.805714 22.8054863,289.102857 22.8054863,289.548571 L22.8054863,327.285714 C22.8054863,329.365714 21.1870324,331 19.127182,331 Z M93.2270294,331 L77.6975057,331 C75.6269025,331 74,329.365714 74,327.285714 L74,230.714286 C74,228.634286 75.6269025,227 77.6975057,227 L129.314685,227 C135.378594,227 140.407202,232.051429 140.407202,238.142857 L140.407202,281.674286 C140.407202,287.765714 135.378594,292.817143 129.314685,292.817143 L126.652481,292.817143 C126.35668,292.817143 126.06088,293.114286 126.20878,293.411429 L144.696308,327.731429 C145.58371,329.217143 144.400508,331 142.773605,331 L126.20878,331 C123.990276,331 121.771773,329.662857 120.736471,327.731429 L102.248943,293.411429 C102.101043,293.114286 101.657342,292.817143 101.213642,292.817143 L97.6640362,292.817143 C97.2203355,292.817143 96.9245351,293.114286 96.9245351,293.56 L96.9245351,327.285714 C96.9245351,329.365714 95.2976326,331 93.2270294,331 Z M117.270833,247 L97.7291667,247 C97.2916667,247 97,247.30303 97,247.757576 L97,271.242424 C97,271.69697 97.2916667,272 97.7291667,272 L117.270833,272 C117.708333,272 118,271.69697 118,271.242424 L118,247.757576 C118,247.30303 117.708333,247 117.270833,247 Z M215.833333,331 L171.166667,331 C165.062222,331 160,325.948571 160,319.857143 L160,238.142857 C160,232.051429 165.062222,227 171.166667,227 L215.833333,227 C221.937778,227 227,232.051429 227,238.142857 L227,319.857143 C227,325.948571 221.937778,331 215.833333,331 Z M203.25,247 L183.75,247 C183.3,247 183,247.298578 183,247.746445 L183,309.253555 C183,309.701422 183.3,310 183.75,310 L203.25,310 C203.7,310 204,309.701422 204,309.253555 L204,247.746445 C204,247.298578 203.7,247 203.25,247 Z M314.311475,331 L298.52459,331 C296.311475,331 294.245902,329.662857 293.360656,327.582857 L269.163934,270.977143 C269.016393,270.68 268.868852,270.828571 268.868852,270.977143 L268.868852,327.285714 C268.868852,329.365714 267.245902,331 265.180328,331 L249.688525,331 C247.622951,331 246,329.365714 246,327.285714 L246,230.714286 C246,228.634286 247.622951,227 249.688525,227 L265.47541,227 C267.688525,227 269.754098,228.337143 270.639344,230.417143 L294.836066,287.171429 C294.983607,287.468571 295.131148,287.32 295.131148,287.171429 L295.131148,230.714286 C295.131148,228.634286 296.754098,227 298.819672,227 L314.311475,227 C316.377049,227 318,228.634286 318,230.714286 L318,327.285714 C318,329.365714 316.377049,331 314.311475,331 Z M353.398678,247.651429 L335.689427,247.651429 C333.623348,247.651429 332,246.017143 332,243.937143 L332,230.714286 C332,228.634286 333.623348,227 335.689427,227 L395.310573,227 C397.376652,227 399,228.634286 399,230.714286 L399,243.937143 C399,246.017143 397.376652,247.651429 395.310573,247.651429 L377.748899,247.651429 C377.306167,247.651429 377.011013,247.948571 377.011013,248.394286 L377.011013,327.285714 C377.011013,329.365714 375.387665,331 373.321586,331 L357.825991,331 C355.759912,331 354.136564,329.365714 354.136564,327.285714 L354.136564,248.394286 C354.136564,247.948571 353.84141,247.651429 353.398678,247.651429 Z M467.29156,331 L416.70844,331 C414.631714,331 413,329.365714 413,327.285714 L413,230.714286 C413,228.634286 414.631714,227 416.70844,227 L467.29156,227 C469.368286,227 471,228.634286 471,230.714286 L471,243.937143 C471,246.017143 469.368286,247.651429 467.29156,247.651429 L436.734015,247.651429 C436.289003,247.651429 435.992327,247.948571 435.992327,248.394286 L435.992327,268.6 C435.992327,269.045714 436.289003,269.342857 436.734015,269.342857 L458.094629,269.342857 C460.171355,269.342857 461.803069,270.977143 461.803069,273.057143 L461.803069,284.794286 C461.803069,286.874286 460.171355,288.508571 458.094629,288.508571 L436.734015,288.508571 C436.289003,288.508571 435.992327,288.805714 435.992327,289.251429 L435.992327,309.605714 C435.992327,310.051429 436.289003,310.348571 436.734015,310.348571 L467.29156,310.348571 C469.368286,310.348571 471,311.982857 471,314.062857 L471,327.285714 C471,329.365714 469.368286,331 467.29156,331 Z M555.311475,331 L539.52459,331 C537.311475,331 535.245902,329.662857 534.360656,327.582857 L510.163934,270.977143 C510.016393,270.68 509.868852,270.828571 509.868852,270.977143 L509.868852,327.285714 C509.868852,329.365714 508.245902,331 506.180328,331 L490.688525,331 C488.622951,331 487,329.365714 487,327.285714 L487,230.714286 C487,228.634286 488.622951,227 490.688525,227 L506.47541,227 C508.688525,227 510.754098,228.337143 511.639344,230.417143 L535.836066,287.171429 C535.983607,287.468571 536.131148,287.32 536.131148,287.171429 L536.131148,230.714286 C536.131148,228.634286 537.754098,227 539.819672,227 L555.311475,227 C557.377049,227 559,228.634286 559,230.714286 L559,327.285714 C559,329.365714 557.377049,331 555.311475,331 Z M632.826185,331 L581.724605,331 C579.638826,331 578,329.365714 578,327.285714 L578,230.714286 C578,228.634286 579.638826,227 581.724605,227 L632.826185,227 C638.934537,227 644,232.051429 644,238.142857 L644,319.857143 C644,325.948571 638.934537,331 632.826185,331 Z M620.24812,247 L601.75188,247 C601.300752,247 601,247.298578 601,247.746445 L601,309.253555 C601,309.701422 601.300752,310 601.75188,310 L620.24812,310 C620.699248,310 621,309.701422 621,309.253555 L621,247.746445 C621,247.298578 620.699248,247 620.24812,247 Z" id="FRONTEND" fill="#FFFFFF"></path>
            <rect id="Rectangle" fill="#FAD64D" x="0" y="185" width="645" height="25" rx="5"></rect>
        </g>
    </g>
</svg>
