<svg width="240" height="32" viewBox="0 0 240 32" xmlns="http://www.w3.org/2000/svg"><title>Group Copy 6</title><g fill-rule="nonzero" fill="none"><path d="M4.31 24.152H.828A.82.82 0 0 1 0 23.326v-21.5A.82.82 0 0 1 .829 1h3.48a.82.82 0 0 1 .829.827v21.499a.82.82 0 0 1-.829.826zm20.484 0h-3.546c-.498 0-.962-.297-1.16-.76L14.65 10.79c-.033-.066-.066-.033-.066 0v12.536a.82.82 0 0 1-.829.826h-3.48a.82.82 0 0 1-.829-.826v-21.5A.82.82 0 0 1 10.276 1h3.547c.497 0 .96.298 1.16.76l5.436 12.635c.033.066.066.033.066 0V1.827A.82.82 0 0 1 21.314 1h3.48a.82.82 0 0 1 .83.827v21.499a.82.82 0 0 1-.83.826zm13.492-8.698l-7.69-1.852c-.465-.1-.796-.563-.796-1.026V3.481C29.8 2.125 30.927 1 32.286 1h8.685c1.359 0 2.486 1.125 2.486 2.48v2.547c0 .497-.299.96-.763 1.158l-3.613 1.488a.537.537 0 0 1-.762-.496V5.763c0-.1-.067-.166-.166-.166h-3.05c-.099 0-.165.067-.165.166v3.803c0 .1.066.166.165.199l7.69 1.819c.465.1.796.562.796 1.025v9.063c0 1.356-1.127 2.48-2.486 2.48H32.22c-1.36 0-2.487-1.124-2.487-2.48v-2.547c0-.496.299-.96.763-1.158l3.613-1.488c.365-.165.762.1.762.496v2.415c0 .099.067.165.166.165h3.249c.099 0 .165-.066.165-.165v-3.738c0-.099-.066-.165-.165-.198zm13.723 8.698h-3.48a.82.82 0 0 1-.83-.826v-21.5A.82.82 0 0 1 48.53 1h3.48a.82.82 0 0 1 .828.827v21.499a.82.82 0 0 1-.828.826zm17.336 0h-11.37a.82.82 0 0 1-.828-.826v-21.5A.82.82 0 0 1 57.975 1h11.37c1.36 0 2.486 1.125 2.486 2.48v18.192c0 1.356-1.127 2.48-2.486 2.48zM66.527 5.597H62.45c-.1 0-.165.067-.165.166V19.39c0 .099.066.165.165.165h4.077c.1 0 .166-.066.166-.165V5.763c0-.1-.066-.166-.166-.166zM88.24 24.152H76.936a.82.82 0 0 1-.829-.826v-21.5A.82.82 0 0 1 76.936 1h11.303a.82.82 0 0 1 .829.827V4.77a.82.82 0 0 1-.829.826h-6.828c-.1 0-.166.067-.166.166v4.498c0 .1.066.165.166.165h4.773a.82.82 0 0 1 .829.827v2.613a.82.82 0 0 1-.829.827h-4.773c-.1 0-.166.066-.166.165v4.532c0 .099.066.165.166.165h6.828a.82.82 0 0 1 .829.827v2.944a.82.82 0 0 1-.829.826z" fill="#FFF"/><g transform="translate(0 1)"><rect fill="#FAD64D" y="27.139" width="239.862" height="3.445" rx="1"/><path d="M100.515 23.152H97.07a.816.816 0 0 1-.82-.826V.826c0-.462.36-.826.82-.826h11.52c.46 0 .82.364.82.827V3.77a.816.816 0 0 1-.82.826h-7.09c-.098 0-.163.067-.163.166v4.564c0 .1.065.165.164.165h5.021c.46 0 .82.364.82.827v2.613a.816.816 0 0 1-.82.827H101.5c-.099 0-.164.066-.164.166v8.4a.816.816 0 0 1-.82.827zm16.53 0h-3.465a.818.818 0 0 1-.824-.826V.826c0-.462.363-.826.824-.826h11.515c1.352 0 2.474 1.125 2.474 2.48v9.692c0 1.356-1.122 2.48-2.474 2.48h-.594c-.066 0-.132.066-.1.132l4.125 7.64c.198.332-.066.728-.43.728h-3.694c-.495 0-.99-.297-1.221-.727l-4.124-7.64a.278.278 0 0 0-.23-.133h-.793c-.099 0-.165.066-.165.166v7.508a.818.818 0 0 1-.824.826zm5.363-18.7h-4.36c-.097 0-.162.068-.162.169v5.228c0 .101.065.169.163.169h4.359c.098 0 .163-.068.163-.169V4.621c0-.101-.065-.169-.163-.169zm21.986 18.7h-9.964c-1.361 0-2.49-1.124-2.49-2.48V2.48c0-1.356 1.129-2.481 2.49-2.481h9.964c1.362 0 2.491 1.125 2.491 2.48v18.192c0 1.356-1.13 2.48-2.49 2.48zm-2.807-18.7h-4.35c-.1 0-.167.067-.167.167V18.31c0 .1.067.166.167.166h4.35c.1 0 .167-.066.167-.166V4.62c0-.1-.066-.167-.167-.167zm24.774 18.7h-3.521c-.494 0-.955-.297-1.152-.76L156.29 9.79c-.032-.066-.065-.033-.065 0v12.536a.817.817 0 0 1-.823.826h-3.456a.817.817 0 0 1-.823-.826V.826c0-.462.362-.826.823-.826h3.522c.493 0 .954.298 1.152.76l5.397 12.635c.033.066.066.033.066 0V.827c0-.463.362-.827.823-.827h3.455c.461 0 .823.364.823.827v21.499a.817.817 0 0 1-.823.826zm8.72-18.555h-3.95a.817.817 0 0 1-.824-.826V.827c0-.463.362-.827.823-.827h13.3c.46 0 .823.364.823.827V3.77a.817.817 0 0 1-.823.826h-3.918c-.098 0-.164.067-.164.166v17.563a.817.817 0 0 1-.823.826h-3.457a.817.817 0 0 1-.823-.826V4.763c0-.1-.066-.166-.164-.166zm25.405 18.555h-11.283a.819.819 0 0 1-.827-.826V.826c0-.462.364-.826.827-.826h11.283c.464 0 .828.364.828.827V3.77a.819.819 0 0 1-.828.826h-6.816c-.1 0-.165.067-.165.166V9.26c0 .1.066.165.165.165h4.765c.463 0 .827.364.827.827v2.613a.819.819 0 0 1-.827.827h-4.765c-.1 0-.165.066-.165.165v4.532c0 .099.066.165.165.165h6.816c.464 0 .828.364.828.827v2.944a.819.819 0 0 1-.828.826zm19.635 0h-3.522c-.493 0-.954-.297-1.152-.76L210.05 9.79c-.033-.066-.066-.033-.066 0v12.536a.817.817 0 0 1-.823.826h-3.455a.817.817 0 0 1-.823-.826V.826c0-.462.362-.826.823-.826h3.521c.494 0 .954.298 1.152.76l5.397 12.635c.033.066.066.033.066 0V.827c0-.463.362-.827.823-.827h3.456c.46 0 .823.364.823.827v21.499a.817.817 0 0 1-.823.826zm17.29 0h-11.398a.82.82 0 0 1-.831-.826V.826a.82.82 0 0 1 .83-.826h11.4c1.362 0 2.492 1.125 2.492 2.48v18.192c0 1.356-1.13 2.48-2.492 2.48zm-2.805-18.7h-4.126c-.1 0-.168.067-.168.167V18.31c0 .1.068.166.168.166h4.126c.1 0 .168-.066.168-.166V4.62c0-.1-.067-.167-.168-.167z" fill="#FFF"/></g></g></svg>