<svg xmlns="http://www.w3.org/2000/svg" viewBox="0 0 236 36">
  <title>
    date
  </title>
  <path fill="#F6FCF9" fill-rule="evenodd" d="M17.072 27.976l.576-.48 2.064-1.152 1.152-1.008.672-.24 1.344-.912.576-.528.672-.384 1.248-.96L27.68 20.2v-.432l.816-.432.096-.288.432-.528.432-.96.624-.528.192-.528.336-.48.096-.576.72-1.392.096-.384.096-1.488.144-.384-.24-.624.096-.288v-.384l-.24-1.2.144-.336-.528-.72.048-.432-.576-1.008-.288-.864-.288-.24-.768-1.2L27.632 3.4l-1.104-1.008-2.4-.864L20.96 1l-.24.144-.72.096-.288-.192-1.056.144-.336-.144-.72.24-.72.048-.288.24-.72.192-.336.192-.768.096-1.152.528-.384.528-1.152.528-.528.528-.432.72-.336.192-.528.528-.432.624-.336.72-.48.576-.144.864-.672 1.872.144.72v1.536l.288.624v.384l.192.336.096.432.288.144.672.816.432.192.576.576.336.144.768.144.384.192.288-.144.672.048.432-.288.48-.048 1.008-.528 1.104-1.008V14.2l.288-1.056v-.432l-.192-.384.24-.432-.576-1.536-.48-.624.048-.432.144-.336v-.432l.288-.24.48-.624.288-.24.48-.096.576-.576 1.2-.192.672.048.336.192.288-.144.816.096.576.528.336.192.48.048.096.384.528.432.864 1.92-.144 2.4-.432.624-.384 1.2-.384.672-1.92 2.4-.336.192-1.008.96-.576.432-.192.528-.768.288-1.536 1.2-.72.384-.432.624h-.432l-.528.528-.672.432-.384.144-1.296.816-.24.288-1.056.624-.528.528-.576.336h-.432l-1.056.768-1.392.816-.72.288-.144.336-.192.192-.384.048-.72.336-1.296.96-.432.096-.528.576L2 31l.096.432.624 1.104.048.912.816 1.728 1.2.192.72-.048.384-.144.336.144 1.152.096.624-.24 1.056.336 2.4-.24.72.24h.336l.672-.24.72.192 1.488-.192 1.296.192.48-.192.528.192h1.248l.528-.192 2.304.192.768-.288.288.24.768.048.864-.192h.384l.816-1.344.24-.768-.048-.432.24-.288.576-1.776.24-.24.048-.432-.24-.72-.192-.24-.576-.24-.72-.048-.816.144-.96-.24-.96.144-1.2-.144-.528.144-.864-.144-.432.144-1.44.096-1.056-.288-.192-.336.288-.288zm-2.928 2.4l.624.192-.432.528-.48-.24-.528.432.048-.384-.384-.768h.384l.336.288.432-.048zm13.632-18.672l.192.288.912.432.144.336-.432-.048-.384.144-.144-.384-.288-.288-.192-.384.192-.096zM9.872 29.464l.384-.048.192.336.048.672.72-.096-.624.24-.624-.24.144-.336-.48-.48.24-.048zm16.272-14.928l-.384-.672.288.24.768.144.336.192-.768.384-.24-.288zm-2.208 2.496l.816-.528.384-.096-.192.288-.576.48-.384.096-.048-.24zm-11.472 13.92v-.48l.336.192.192.288-.384.768-.144-.144.144-.288-.144-.336zm4.512 1.776l.288.096.432.432v.432l-.432-.432-.384-.096.096-.432zm-4.224-4.512l-.048-.384.432.048.24.192.336.096-.288.144-.432.048-.24-.144zm-3.12.192l-.288-.096-.096-.288.192-.288.336.192.192.336-.336.144zm2.928.48l.048-.432.288.192.096.624h-.384l-.048-.384zm1.392 2.592l.384.288.048.384-.624-.144.192-.528zm-4.512-.864l.336.144.096.336h-.336l-.288-.144-.096-.288.288-.048zm1.392-.912l.384-.192.24-.24.288.336-.432-.048-.24.336-.384.144.144-.336zm17.136-16.416v.528l-.384-.048-.144-.384.528-.096zM14.336 28.696l.144-.432.144.384-.192.432h-.384l.288-.384zM26.624 9.208h.384l-.192.48h-.384l.192-.48zm-9.792 14.784l.336-.144-.096.624-.384-.096.144-.384zm10.176-7.632l.144-.336.192.384v.336h-.288l-.048-.384zM11.648 31v.384l-.192.336-.144-.192v-.336l.336-.192zm14.64-22.32L26 8.584l-.096-.336.384.096.24.192-.24.144zm-.384 6.768l.096-.384.24.192.048.336-.192.096-.192-.24zM23.888 6.76v-.384h.336v.432l-.336-.048zM13.76 27.016l.48.096-.096.24-.384.048v-.384zm-.96 0l.384-.144-.192.432h-.384l.192-.288zm15.744-16.08l-.048-.384.336.096.096.336-.384-.048zm-8.496 9.888l.192.384-.336-.048-.192-.336h.336zm-2.88 10.992l.24.336h-.336l-.288-.24.384-.096zm-1.824-1.776l.192.288-.336.048-.192-.336h.336zm-3.456-1.68l.144.336h-.384l-.096-.24.336-.096zm3.648 3.552l-.096.336h-.336v-.24l.432-.096zm12.192-22.56l-.144-.384.336.096.144.24-.336.048zM8.288 31.096L8.624 31l-.096.336-.336.048.096-.288zm.336-.816l-.432-.144.336-.096.384.096-.288.144zm17.568-19.44l.24.048-.048.288-.288-.096v-.192l.096-.048zm-12.72 21.648l.048-.336.24.192-.048.288-.24-.144zm-1.488-6.624h.384l-.336.384-.048-.384zm11.52-8.352l.288-.048-.096.288-.24.048.048-.288zm-8.832-9.6l.192.24-.48.096.288-.336zm-2.496 18.672l.384.096-.192.288-.192-.384zm-1.92 4.512l-.288.384-.096-.288.384-.096zM26.912 6.04l.336-.096v.336l-.336-.24zM11.456 26.68h.336l.048.288-.384-.288zm15.072-16.608l.192.288h-.336l.144-.288zM13.52 29.608h.336l-.096.192h-.144l-.096-.192zm.768.096l.192.24-.432-.096.24-.144zm1.344.768l.384-.048-.192.24-.192-.192zm8.88-15.216h.24v.336l-.24-.336zm-13.92 13.44l.144.192-.336.096.192-.288zM26.24 6.664l.144.24L26 6.808l.24-.144zM9.632 28.648l-.192.144-.096-.336.288.192zm.96 4.416h.192v.192h-.192v-.192zm-1.248-2.928h.192v.192h-.192v-.192zm3.024-18.432l.24.288h-.24v-.288zm4.272 21.552h.144l-.096.24h-.144l.096-.24zM25.184 6.28l-.144-.24.336.096-.192.144zm-4.032 25.296l.144.192-.24.144.096-.336zm-9.84-1.536h.144v.192h-.144v-.192zM26.096 7.624h.288L26 7.816l.096-.192zm-.816 2.736l.288.192h-.288v-.192zM11.312 27.544h.144v.192h-.144v-.192zM7.76 31.576h.192v.144H7.76v-.144zm20.928-18.144l.24-.048v.192l-.24-.144zM16.544 31.288l.24.192h-.24v-.192zm7.152-25.68l.192.144-.192.096v-.24zm2.592 6.816l.144.24h-.144v-.24zm.096 4.224l-.192-.144.336.096-.144.048zm-4.272 4.368l.144.048-.24.048.096-.096zM10.784 10.264l-.096.288v-.192l.096-.096zm1.056 21.984l.24.096h-.144l-.096-.096zM59.962 14.68l.192-.336-.144-3.12-.48-2.256-.816-2.16-.768-1.296-1.92-2.208h-.528l-.24-.288-1.824-1.248h-.288l-1.872-.528-.72-.048-.384.144L49.018 1l-1.152.144-.384-.048-.672.144-.624.288-.768.144-.48-.048-.624.576-.384.048-.864.528-.72.144-.144.432-.384.192-.528.624-1.488.912-.192.432-.336.192-.528.528-1.344 1.824v.528l-.336.192-.432.672-.288.24-.24.816-.624.912-.096.384.144.528-.528.24.096.576-.528.48-.432 1.536-.288.72.096.624-.576 1.008-.096.384.048.912-.288.72-.336 2.448.288.432-.288.48.096.624v1.728l.096.72.192.432.096 1.104.336.528-.192.336 1.584 3.216.48.576.576.48.672.912.528.528.672.384.816.192.24.336 2.016.816.816.144.816-.048.432.192.528-.192.48.288.336-.192h1.584l2.016-.624 1.728-.816.24-.336.48.096.816-.72.384-.096.48-.576 2.208-2.064v-.624l.528-.192-.096-.432.528-.192.864-1.296.624-1.536.336-.288.384-.768.24-.864.672-1.008-.096-.432.48-.912.432-1.488.144-1.776.336-.576.24-2.016.24-.864-.384-.624.24-.288zm-8.064 3.504l.144.336-.528.912.048.432-.144.672-.528 1.392v.432l-.24.384.048.384-.576.48-.144.336.096.432-.288.288-.432.768-.096.432-.288.192-.576.912-.288.672-.72.768-.048.288-.72.336-1.056 1.008-.432-.24-.432.192-.384.048-1.584-.192-.624-.432-.432-.144-.192-.672-.672-.96-.288-.672-.048-1.488-.192-.72.048-.768.192-.432-.24-.24-.048-.336.288-1.104v-.384l-.096-.288.288-.768.24-1.2.192-.336V17.8l.24-.432v-.528l.72-1.488.24-1.2.192-.336-.048-.384.528-.816-.048-.384.528-.384.384-.624.144-.768.912-.864.192-.816.336-.144 1.488-1.152.624-.384 1.248.048 1.344.24.72.24 1.008 1.536.576 1.392v.72l.144.336-.144.72.144 1.056-.24.72.192.528-.144.384-.384 2.208-.288.672.144.288zm-14.352.672l.672.192-.192.432-.432-.24.432.432-.288.288-.336-.288-.288-.768.432-.048zm-.72 1.68l.912-.048-.048.24-.624.288-.096-.384-.192.192.048-.288zm-.672 2.112l.096-.288.72.528-.288.144-.432-.096-.096-.288zM46.186 5.224l.336-.144.096-.192.144.096-.144.432-.384.096-.336-.096.288-.192zm-8.88 18l.288.096-.096.528-.384-.096.192-.528zm16.608 2.784l.336.144-.096.432-.288-.144-.144-.288.192-.144zm-16.176-8.016l.384.096.144.336h-.528v-.432zm18.912-3.936l.048-.336.288.24-.048.384-.288.096v-.384zm-2.352-2.784l.48.72-.336-.144-.192-.288-.288-.192.336-.096zm-18.72 13.104l.144-.288.336-.144-.048.384-.192.24-.24-.192zm15.552 2.976h.432l.288.192-.912.096.192-.288zM38.746 16.024l.096-.24.24.192v.336l-.336.096v-.384zm5.376-10.752v-.288l.384-.096-.096.624-.288-.24zm-6.96 22.464l-.336-.144-.144-.288.72.24-.24.192zm17.328-4.848h.288l-.192.528-.24-.192.144-.336zm-19.68-1.392l-.048-.288.432.144-.192.384-.192-.24zm5.232-10.512l-.144-.336.384.144.144.384-.384-.192zm-.864 2.928l.288.048.048.336-.432-.096.096-.288zm14.304 10.992l.24-.048.096.336h-.48l.144-.288zm2.16-8.544l.384-.048-.24.144-.048.288h-.336l.24-.384zm-.576 4.608l.336.048-.096.24h-.432l.192-.288zm.336-8.832l-.336.432-.144-.432h.48zm2.352-1.776l.048.384-.288-.144-.096-.336.336.096zm-18.336 2.688l.384.144-.432.288.048-.432zm.48-4.704l-.192-.288.336.048.192.24h-.336zM38.89 12.52l.096-.288.192.24-.096.288-.192-.24zm13.92 11.088v-.288l.288.144-.096.288-.192-.144zm4.224-7.536l.192-.192.144.192-.288.24-.048-.24zm-2.016-5.088l.192.096v.192h-.336l.144-.288zm-14.544.528h.384v.288l-.192-.192h-.336l.144-.096zm15.888 6.72l-.192-.336.48.192-.288.144zm-1.872 1.344l.288.096-.384.288.096-.384zm3.36-.768h.288l-.096.24h-.192v-.24zM53.53 7.432h.288l-.288.384v-.384zM37.594 24.376l.336.144-.096.288-.24-.432zm17.52-17.184l-.336.24-.096-.24h.432zM38.65 16.504l.096.288-.288.144.192-.432zm15.408 1.536l.288-.144-.096.384-.192-.24zM36.97 16.312h.144l-.048.288h-.192l.096-.288zm1.488-1.248l-.192-.24h.384l-.192.24zm18.336-4.848h.192l-.096.24h-.192l.096-.24zm-.912 9.312l-.144-.288.432.24-.288.048zm1.056-8.16l.144-.288.096.432-.24-.144zm-4.32 14.352h.192v.24l-.24-.096.048-.144zm3.408-11.376v.288l-.288.096.288-.384zM36.826 28.6l-.144-.24.384.096-.24.144zm13.584.096h.192v.192h-.192v-.192zm-1.056 1.44l.384.288-.192.048-.192-.336zm-10.896-2.4h.384l-.384.192v-.192zm-.72-10.8l.192.192-.24.144.048-.336zm20.112 3.696v.288l-.24-.096.24-.192zm-2.448-5.376l.144.192-.24.144.096-.336zm-.48 1.824v-.336l.192.432-.192-.096zm.384-6.864l.24.24h-.24v-.24zM35.29 23.56h.144v.192h-.144v-.192zm19.104-8.736h.192v.144h-.192v-.144zm-3.504-8.88l.192.144-.192.144v-.288zm.048-1.872l.288.192h-.288v-.192zM38.026 10.84l.24.144-.048.192-.192-.336zm12.912 19.536l-.144-.144.24-.096-.096.24zm4.176-21.312l.192.144-.192.096v-.24zm-17.52 8.592h.144v.144h-.144v-.144zM51.85 5.32h.192l-.288.192.096-.192zm26.474-3.648l-1.152.144-1.68-.096-.48.096-1.152.432-1.008 1.2-1.92 1.488-.048.384-.192.24-.624.144-.528.816-.432.096-2.4 2.496-.384.096-.624.432-.144.528-.72.384-.72.912-.816.624-.384.624-.096.816.432.096.048.336.384.576 1.056 1.008.816-.048.72-.192.72-.96 1.2-1.104h.384l.144-.528h.384l.432-.144.336.432-.48 1.488-.144.768v.816l.096.384h-.528l-1.056 3.552.096.432-.384.528-.24.672-.192 1.2-.24.24-.144.336-.192 1.296-.144.336-.24.24v.816l-1.056 3.072-.096.816-.528 1.104-.192.768v.336l-.336.576v.336l-.384.96.144.288-.144.72 1.344.336 1.536.096 2.352-.288.336.144.72-.048.48-.624.336-.24.096-1.104.24-.72.384-.576.192-.96.048-.72.384-.528.048-.768.192-.576-.528-.432.624.096.624-1.392.624-2.16-.288-.384.528-.24.576-2.688.24-.24.192-.384.336-1.344-.096-.384.48-.48.144-.864.24-.768.192-.288-.048-.384.624-1.44v-.48l.192-.24.24-.672.096-.768.192-.336.192-.72-.048-.384.336-.528-.048-.72.24-.288.288-.816.24-.288-.096-.384.048-.384.672-1.296.048-.336-.144-.384.384-.336-.048-.384.384-.768.096-.384-.192-.432.288-.096.144-.24-.24-1.008-.192-.24-.48-.048-.672.24-.24-.336zm-5.136 9.6l.672.48.624-.336.336.192.192.336-.432-.048-.816.192-.912-.432-.144-.336.48-.048zm-1.584-1.536l.048-.384-.096-.432.336.24.672 1.104-.384.192-.384-.048-.336-.24.144-.432zm.48 7.296v-.336l-.288.192-.144.336h-.768l-.096-.336.096-.336.432.24.144-.288.288-.144h.432l.096.816-.192-.144zm-.528-5.616l.96.48.096.384-.432.096-.096-.288-.528-.336v-.336zm2.304-.432l.192-.48.288-.24.24.144-.24.24-.288.672-.192-.336zm-4.56 10.8l.336-.192v-.336l-.336.096-.192-.048.624-.432v.72l-.192.336-.288.192.048-.336zm5.088-12.816l.288-.144.192.432-.192.384-.288-.288v-.384zm-2.88 5.568l.432.048-.096.384-.24.096-.288-.144.192-.384zm1.632.096l-.144-.288.096-.288.336.192.096.432-.384-.048zm1.536-6.768l-.096-.384h.528l-.096.48-.336-.096zM73.62 9.64l.72.096-.288.24-.336.096-.096-.432zm-.768 4.128l.144-.432h.336l-.336.72-.144-.288zm1.2 3.168l-.144-.24.144-.336.24.144.096.288-.336.144zM71.46 18.04l.288-.048.336.144-.048.24h-.48l.192-.144-.288-.192zm2.688-5.232l.192.432-.384-.096-.192-.336h.384zm.816-7.008l.144-.432.192.288-.192.432-.144-.288zm-2.64 2.256l-.048-.288.432.096-.144.336-.24-.144zm-2.16 21.168l.432.096-.096.192-.336.048v-.336zm-1.056-4.608l.24.336h-.528l.288-.336zm4.032-12.384l.384.048-.336.336-.048-.384zm-3.504 15.984l.336.192-.24.288-.096-.48zm1.392-17.088h.192v.336h-.192v-.336zm-4.08 21.168l.288.096-.096.192h-.192v-.288zm4.896-16.224l-.192-.24h.384l-.192.24zm.864-7.488h.336l.048.24-.384-.24zm-1.44 13.584l.288-.048-.336.336.048-.288zm3.264-16.56l.24.048-.384.24.144-.288zm-2.88 4.368h.192v-.192h-.192v.192zM71.844 19l.288.048.048.24-.336-.288zm4.416-8.88l-.192-.144.288-.096-.096.24zm-4.8 7.584h.192v.144h-.192v-.144zm-.816-5.616l-.144-.144.288-.096-.144.24zm4.896-4.992l-.144-.144.24-.096-.096.24zm-4.128 13.2l.24-.048v.192l-.24-.144zm1.152-9.408h.144v.144h-.144v-.144zm14.953 24.096l.576-1.44.144-.912.432-.144.047-.336.432-.48.335-1.104.432-.576.096-.624.48-.624 1.2-1.92.336-.24.43-.672.097-.432.384-.672 1.393-1.728v-.432l.576-.288v-.432l.335-.192.768-.912.912-1.344.624-.48.767-1.296.96-1.104.576-.432.144-.384.864-1.2 1.01-1.104.815-1.296.432-.192 1.824-2.112.385-.72 1.392-1.2.48-.624.24-.72.048-.816-1.008-2.208v-.768l-.144-.288-.624-.528-.385-.192h-1.2l-.48-.192-2.208.288-1.008-.192h-1.537l-.816.192-.864-.288-.624.288-1.153-.192h-4.272l-.528.288-.336-.192-.815-.048-.432.096-.816-.048-.336-.192-.48.192-.72-.144-.815.048-.768.192-.864.624.048.432-.095.336.048.384-.432.48-.287.672-.096.864-.432 1.056-.288 1.584-.24.72-.432.624-.144.816-.287.672-.144.72.047.384-.24.336-.048.432.095.384.432.528.624.048.817-.144.768.096.72-.192 1.584.192.575-.96-.048-.48.528-.96.096-.336-.047-.384.336-.24v-.48l.335-1.008.48-.48.336-.192 2.353-.144.672.144.432-.144.672.192h.767L95.15 8.2l2.255.336.336.144.24.24-.383.672-1.104 1.104-.336.672-.048.384-.24-.192-.625.432-.432.528-.096.288h-.384l-.672.96-1.055 1.104-.384.672-.43.096-1.2 1.44-.577.96-.336.192-.528.528-1.297 1.92-.576.528-.144.432-.48.624-.096.384-.288.144-.433.48-.336.144.097.48-.528.528-1.873 2.448v.528l-.336.192-.527.96-.288.288v.624l-.288.24-.384.768-.288.24v.384l-.624 1.008v.48l-.815 1.296.096 1.344.72.288 1.68-.048.337.096.624-.24.673.192 1.104-.096.336.144 2.16-.24.144-.336zM99.613 5.56l.432.144-.096.384-.29.24.433.624-.384.624-.05.432-.24-.624-.095-1.104.096-.384-.335-.192-.384.096.193-.288.336.096.383-.048zM87.517 24.664l.192-.768-.097-.384.72.288-.288.192-.192.288v.336l.192.336-.432.096-.096-.384zm12.768-16.56l-.096-.432.815.24.24-.048.048.288-.72.24-.288-.288zM97.31 4.312l.335.144h.432v.336l.192.288-.385-.048-.48-.432-.288-.144.192-.144zM88.332 26.68l.24-.336.384-.096.192.384-.817.336v-.288zm4.8-21.456l.384.144.24.432-.336.048-.575-.48.288-.144zm5.616 4.992l-.24-.336v-.432h.287l.24.72-.288.048zm-12.625 17.76l-.096-.384.623.096-.048.336-.24.192-.24-.24zm9.84-22.608l.768.192.096.336-.77-.192-.095-.336zm2.352 1.152l.288.096-.144.336-.383.096-.096-.432.337-.096zM90.35 21.016l.383-.048-.288.528-.288-.096-.144-.288.336-.096zm-3.12 7.056l-.145-.336v-.384h.336v.672l-.19.048zM89.676 5.8l.24.336.096.48-.336-.24-.192-.288.192-.288zm10.8 4.512l.336.096.096.288-.337.096-.288-.096.192-.384zM87.66 26.296l-.143-.288.096-.288.288.24.097.384-.336-.048zm16.513-21.12l.288.192v.336l-.43-.096.143-.432zm-6.528 2.736l.432-.048-.144.336-.384.096.095-.384zm-5.328 14.112l.192-.288.143.192v.336h-.336v-.24zm6.432-10.08l.143-.288h.432v.24l-.384-.048-.047.24-.144-.144zm2.783-4.8l.192-.24.336-.144-.335.624-.192-.24zm-10.416-3.12l.336.384h-.336l-.288-.192.287-.192zm9.552 1.152h.335l-.048.24-.384.144.096-.384zM89.484 21.832l.24.096.096.288-.335.048v-.432zm.864 2.064l.19.336-.335-.048-.192-.24.336-.048zm7.92-11.76l.143.336-.336-.048-.096-.24.29-.048zm-1.585-4.752l.336.192-.287.096-.336-.096.288-.192zm-3.84-3.552l.192.096v.192l-.528-.096.335-.192zm-4.176.72l.19.096v.192l-.527-.096.336-.192zm3.31 2.064l-.19-.384.335.192.192.288-.336-.096zm-6.91 21.168l.335.096-.288.336-.048-.432zm3.6-23.856h.287l-.096.288h-.19v-.288zm13.823.816h.288v.24h-.287v-.24zm-7.536.624l.288.192-.336.24.047-.432zm.624-1.152h.385l-.384.336v-.336zM90.974 19.72h.288v.432l-.287-.432zM95.15 4.648l.143.288-.336.144.192-.432zm-5.185.624l-.144-.288.48.192-.335.096zm-.24 18.096l-.048.336-.288-.192.335-.144zm4.992-8.784h.24l-.048.24h-.193v-.24zM86.99 5.368l.19.096v.144l-.335-.048.144-.192zm12.143 3.648h.192v.24l-.288-.096.096-.144zm2.304.144l.192.096-.097.192-.192-.096.097-.192zm-.864-2.64l.24-.192v.384l-.24-.192zm-6.288 10.896h.24l-.096.24h-.145v-.24zm-5.328 7.872l.24.192-.24.192v-.384zM99.133 4.024l.144.24-.24.192.096-.432zM89.82 22.456l.29-.096v.288l-.29-.192zm1.25-16.464v.24l-.337-.144.336-.096zm2.687 13.44l.24.096-.096.288-.143-.384zm.24-13.536l.24.144-.048.288-.193-.432zm4.512 5.664l-.145-.24.336.048-.19.192zm2.207-6.912h.192v.192h-.193v-.192zM93.9 17.032l-.095-.24.384.288-.29-.048zM91.454 3.688l.096.24-.193.192.096-.432zm7.824 5.088l-.144-.144.288-.096-.143.24zM86.365 29.704l.288.192h-.288v-.192zm14.88-24.096l.192.144-.192.144v-.288zm-6 9.504l.24.192h-.24v-.192zM90.83 22.36l.047.288h-.144l.096-.288zm14.495-14.496l.192.24-.24-.096.048-.144zm-8.064 4.944l.097.24h-.144l.048-.24zM84.54 30.616h.145l-.24.192.096-.192zm23.02.576l.047-.768-.432-.48v-.384l-.48-.672-.144-.432-.335-.096-.384-.528-.623-.24-.192-.288-.72-.24-.768-.096-1.488.048-.385.144-1.2.768-.72.24-.48.864-.24.672v.432l-.432.432.24 1.968v.768l.96 1.152.576.48.767.24v.288l1.056.288 1.584.192.384-.048.96-.528h.385l.672-.912.384-.096.337-.24.336-.672.24-.816.336-.72-.385-.432.144-.288zm-3.36-.432l.047-.336h.432l-.05.384-.24.288-.383.144h-.336l-.335-.192-.144-.288h.433l.336.192.24-.192zm-.145 1.44l-.24-.288.048-.336.336.144.19.288v.336l-.335-.144zm-1.344 1.2l.145-.24.336-.096-.047.432-.336.192-.096-.288zm-.43-1.824l.143.24-.048.432-.24-.144-.048-.48.192-.048zm1.68 1.104l-.24-.24h.43l-.19.24zm0-2.832h.19v.192h-.19v-.192zm35.353-15.168l.192-.336-.144-3.12-.48-2.256-.815-2.16-.768-1.296-1.92-2.208h-.528l-.24-.288-1.825-1.248h-.288l-1.872-.528-.72-.048-.384.144L128.37 1l-1.153.144-.384-.048-.672.144-.623.288-.768.144-.48-.048-.625.576-.384.048-.863.528-.72.144-.144.432-.384.192-.53.624-1.487.912-.192.432-.335.192-.528.528-1.344 1.824v.528l-.336.192-.432.672-.288.24-.24.816-.624.912-.096.384.144.528-.527.24.096.576-.53.48-.43 1.536-.29.72.097.624-.576 1.008-.095.384.048.912-.288.72-.336 2.448.287.432-.288.48.095.624v1.728l.096.72.193.432.096 1.104.335.528-.192.336 1.584 3.216.48.576.576.48.672.912.528.528.672.384.816.192.24.336 2.017.816.816.144.816-.048.43.192.53-.192.48.288.335-.192h1.584l2.015-.624 1.728-.816.24-.336.48.096.816-.72.383-.096.48-.576 2.208-2.064v-.624l.53-.192-.097-.432.528-.192.865-1.296.624-1.536.335-.288.384-.768.24-.864.67-1.008-.095-.432.48-.912.432-1.488.144-1.776.337-.576.24-2.016.24-.864-.384-.624.24-.288zm-8.064 3.504l.143.336-.528.912.048.432-.144.672-.53 1.392v.432l-.24.384.05.384-.577.48-.144.336.095.432-.288.288-.432.768-.096.432-.29.192-.575.912-.288.672-.72.768-.048.288-.72.336-1.057 1.008-.432-.24-.43.192-.385.048-1.584-.192-.623-.432-.432-.144-.192-.672-.672-.96-.287-.672-.048-1.488-.192-.72.048-.768.193-.432-.24-.24-.048-.336.288-1.104v-.384l-.096-.288.288-.768.24-1.2.192-.336V17.8l.24-.432v-.528l.72-1.488.24-1.2.192-.336-.05-.384.53-.816-.05-.384.53-.384.383-.624.144-.768.912-.864.19-.816.337-.144 1.488-1.152.624-.384 1.247.048 1.344.24.72.24 1.01 1.536.575 1.392v.72l.144.336-.145.72.144 1.056-.24.72.19.528-.143.384-.384 2.208-.288.672.144.288zm-14.353.672l.672.192-.193.432-.432-.24.432.432-.288.288-.337-.288-.288-.768.432-.048zm-.72 1.68l.912-.048-.05.24-.623.288-.096-.384-.19.192.047-.288zm-.672 2.112l.096-.288.72.528-.287.144-.432-.096-.095-.288zm10.032-17.424l.336-.144.096-.192.143.096-.144.432-.385.096-.336-.096.287-.192zm-8.88 18l.288.096-.096.528-.385-.096.192-.528zm16.608 2.784l.336.144-.095.432-.288-.144-.144-.288.192-.144zm-16.176-8.016l.383.096.144.336h-.528v-.432zM136 14.056l.05-.336.287.24-.048.384-.29.096v-.384zm-2.35-2.784l.48.72-.337-.144-.192-.288-.287-.192.336-.096zm-18.72 13.104l.143-.288.336-.144-.05.384-.19.24-.24-.192zm15.55 2.976h.433l.288.192-.91.096.19-.288zm-12.383-11.328l.096-.24.24.192v.336l-.336.096v-.384zm5.376-10.752v-.288l.384-.096-.096.624-.287-.24zm-6.96 22.464l-.336-.144-.144-.288.72.24-.24.192zm17.328-4.848h.29l-.193.528-.24-.192.144-.336zm-19.68-1.392l-.047-.288.432.144-.192.384-.192-.24zm5.233-10.512l-.144-.336.383.144.144.384-.384-.192zm-.864 2.928l.287.048.048.336-.432-.096.096-.288zm14.303 10.992l.24-.048.096.336h-.48l.143-.288zm2.16-8.544l.384-.048-.24.144-.048.288h-.337l.24-.384zm-.576 4.608l.336.048-.096.24h-.432l.192-.288zm.336-8.832l-.336.432-.144-.432h.48zm2.352-1.776l.048.384-.288-.144-.096-.336.335.096zm-18.336 2.688l.383.144-.432.288.05-.432zm.48-4.704l-.193-.288.336.048.192.24h-.336zm-1.01 4.176l.097-.288.192.24-.097.288-.192-.24zm13.92 11.088v-.288l.29.144-.097.288-.192-.144zm4.225-7.536l.192-.192.144.192-.287.24-.048-.24zm-2.016-5.088l.19.096v.192h-.335l.144-.288zm-14.545.528h.384v.288l-.193-.192h-.336l.145-.096zm15.888 6.72l-.192-.336.48.192-.287.144zm-1.872 1.344l.29.096-.385.288.096-.384zm3.36-.768h.29l-.097.24h-.192v-.24zm-4.32-11.376h.29l-.29.384v-.384zm-15.935 16.944l.336.144-.095.288-.24-.432zm17.52-17.184l-.336.24-.097-.24h.432zM118 16.504l.097.288-.288.144.19-.432zm15.41 1.536l.287-.144-.096.384-.19-.24zm-17.09-1.728h.145l-.048.288h-.192l.096-.288zm1.49-1.248l-.193-.24H118l-.19.24zm18.335-4.848h.192l-.096.24h-.19l.095-.24zm-.912 9.312l-.144-.288.43.24-.287.048zm1.056-8.16l.143-.288.096.432-.24-.144zm-4.32 14.352h.19v.24l-.24-.096.05-.144zm3.407-11.376v.288l-.288.096.287-.384zm-19.2 14.256l-.144-.24.384.096-.24.144zm13.584.096h.193v.192h-.192v-.192zm-1.055 1.44l.384.288-.193.048-.192-.336zm-10.896-2.4h.383l-.384.192v-.192zm-.72-10.8l.19.192-.24.144.05-.336zm20.11 3.696v.288l-.24-.096.24-.192zm-2.447-5.376l.144.192-.24.144.096-.336zm-.48 1.824v-.336l.192.432-.192-.096zm.384-6.864l.24.24h-.24v-.24zM114.64 23.56h.145v.192h-.144v-.192zm19.105-8.736h.192v.144h-.192v-.144zm-3.504-8.88l.193.144-.192.144v-.288zm.05-1.872l.287.192h-.288v-.192zm-12.913 6.768l.24.144-.048.192-.193-.336zm12.912 19.536l-.145-.144.24-.096-.096.24zm4.175-21.312l.192.144-.192.096v-.24zm-17.52 8.592h.144v.144h-.145v-.144zM131.2 5.32h.193l-.288.192.096-.192zm21.82 22.656l.575-.48 2.064-1.152 1.15-1.008.673-.24 1.344-.912.576-.528.672-.384 1.248-.96 2.304-2.112v-.432l.816-.432.096-.288.43-.528.433-.96.624-.528.192-.528.335-.48.096-.576.72-1.392.097-.384.096-1.488.144-.384-.24-.624.096-.288v-.384l-.24-1.2.144-.336-.528-.72.047-.432-.576-1.008-.287-.864-.288-.24-.768-1.2L163.58 3.4l-1.105-1.008-2.4-.864L156.907 1l-.24.144-.72.096-.288-.192-1.057.144-.336-.144-.72.24-.72.048-.288.24-.72.192-.337.192-.768.096-1.152.528-.384.528-1.153.528-.528.528-.433.72-.336.192-.527.528-.432.624-.335.72-.48.576-.144.864-.67 1.872.143.72v1.536l.288.624v.384l.193.336.096.432.287.144.672.816.43.192.577.576.336.144.768.144.385.192.288-.144.672.048.432-.288.48-.048 1.008-.528 1.104-1.008V14.2l.287-1.056v-.432l-.192-.384.24-.432-.576-1.536-.48-.624.047-.432.144-.336v-.432l.29-.24.48-.624.287-.24.48-.096.576-.576 1.2-.192.672.048.336.192.29-.144.815.096.576.528.337.192.48.048.096.384.528.432.865 1.92-.144 2.4-.43.624-.385 1.2-.384.672-1.92 2.4-.335.192-1.008.96-.576.432-.19.528-.77.288-1.535 1.2-.72.384-.432.624h-.432l-.527.528-.672.432-.383.144-1.296.816-.24.288-1.055.624-.528.528-.576.336h-.43l-1.057.768-1.392.816-.72.288-.143.336-.192.192-.384.048-.72.336-1.295.96-.432.096-.528.576-.288.72.096.432.624 1.104.048.912.816 1.728 1.2.192.72-.048.385-.144.336.144 1.153.096.624-.24 1.056.336 2.4-.24.72.24h.336l.67-.24.72.192 1.49-.192 1.295.192.48-.192.528.192h1.248l.53-.192 2.303.192.768-.288.29.24.767.048.864-.192h.385l.816-1.344.24-.768-.047-.432.24-.288.576-1.776.24-.24.047-.432-.24-.72-.192-.24-.576-.24-.72-.048-.817.144-.96-.24-.96.144-1.2-.144-.528.144-.864-.144-.43.144-1.44.096-1.057-.288-.192-.336.29-.288zm-2.93 2.4l.625.192-.432.528-.48-.24-.528.432.048-.384-.384-.768h.383l.336.288.43-.048zm13.633-18.672l.192.288.912.432.144.336-.43-.048-.385.144-.144-.384-.287-.288-.192-.384.193-.096zm-17.904 17.76l.383-.048.192.336.048.672.72-.096-.624.24-.625-.24.144-.336-.48-.48.24-.048zm16.27-14.928l-.383-.672.288.24.768.144.336.192-.77.384-.24-.288zm-2.207 2.496l.816-.528.383-.096-.192.288-.575.48-.384.096-.047-.24zm-11.472 13.92v-.48l.337.192.192.288-.385.768-.144-.144.145-.288-.144-.336zm4.513 1.776l.288.096.433.432v.432l-.432-.432-.383-.096.096-.432zm-4.224-4.512l-.05-.384.433.048.24.192.336.096-.29.144-.43.048-.24-.144zm-3.12.192l-.29-.096-.095-.288.192-.288.336.192.192.336-.336.144zm2.927.48l.048-.432.288.192.096.624h-.385l-.048-.384zm1.392 2.592l.383.288.048.384-.623-.144.192-.528zm-4.513-.864l.336.144.096.336h-.337l-.288-.144-.096-.288.287-.048zm1.392-.912l.383-.192.24-.24.288.336-.43-.048-.24.336-.385.144.144-.336zm17.135-16.416v.528l-.384-.048-.143-.384.528-.096zm-13.632 15.408l.144-.432.144.384-.19.432h-.385l.288-.384zM162.57 9.208h.385l-.192.48h-.384l.19-.48zm-9.79 14.784l.335-.144-.096.624-.385-.096.144-.384zm10.175-7.632l.144-.336.19.384v.336h-.287l-.048-.384zM147.595 31v.384l-.192.336-.144-.192v-.336l.335-.192zm14.64-22.32l-.288-.096-.096-.336.385.096.24.192-.24.144zm-.384 6.768l.097-.384.24.192.048.336-.192.096-.192-.24zm-2.015-8.688v-.384h.336v.432l-.335-.048zm-10.128 20.256l.48.096-.096.24-.383.048v-.384zm-.96 0l.384-.144-.19.432h-.385l.192-.288zm15.744-16.08l-.047-.384.336.096.095.336-.384-.048zm-8.495 9.888l.192.384-.336-.048-.19-.336h.335zm-2.88 10.992l.24.336h-.336l-.29-.24.385-.096zm-1.824-1.776l.193.288-.336.048-.192-.336h.336zm-3.455-1.68l.144.336h-.385l-.096-.24.335-.096zm3.648 3.552l-.096.336h-.336v-.24l.433-.096zm12.192-22.56l-.144-.384.337.096.144.24-.335.048zm-19.44 21.744l.336-.096-.095.336-.336.048.095-.288zm.336-.816l-.43-.144.335-.096.384.096-.29.144zm17.57-19.44l.24.048-.05.288-.287-.096v-.192l.096-.048zm-12.72 21.648l.047-.336.24.192-.048.288-.24-.144zm-1.49-6.624h.385l-.336.384-.05-.384zm11.52-8.352l.29-.048-.097.288-.24.048.048-.288zm-8.83-9.6l.19.24-.48.096.29-.336zm-2.497 18.672l.384.096-.192.288-.192-.384zm-1.92 4.512l-.288.384-.096-.288.383-.096zM162.86 6.04l.335-.096v.336l-.336-.24zm-15.457 20.64h.336l.047.288-.384-.288zm15.072-16.608l.192.288h-.336l.145-.288zm-13.008 19.536h.336l-.096.192h-.144l-.096-.192zm.768.096l.192.24-.432-.096.24-.144zm1.344.768l.383-.048-.192.24-.19-.192zm8.88-15.216h.24v.336l-.24-.336zm-13.92 13.44l.143.192-.336.096.192-.288zm15.647-22.032l.144.24-.383-.096.24-.144zM145.58 28.648l-.193.144-.096-.336.29.192zm.96 4.416h.19v.192h-.19v-.192zm-1.25-2.928h.193v.192h-.192v-.192zm3.025-18.432l.24.288h-.24v-.288zm4.272 21.552h.144l-.095.24h-.144l.097-.24zM161.13 6.28l-.143-.24.336.096-.192.144zm-4.03 25.296l.143.192-.24.144.096-.336zm-9.84-1.536h.143v.192h-.144v-.192zm14.783-22.416h.288l-.383.192.096-.192zm-.816 2.736l.288.192h-.288v-.192zM147.26 27.544h.143v.192h-.144v-.192zm-3.553 4.032h.192v.144h-.193v-.144zm20.928-18.144l.24-.048v.192l-.24-.144zM152.49 31.288l.24.192h-.24v-.192zm7.153-25.68l.192.144-.192.096v-.24zm2.592 6.816l.144.24h-.145v-.24zm.096 4.224l-.19-.144.335.096-.144.048zm-4.27 4.368l.143.048-.24.048.096-.096zm-11.33-10.752l-.095.288v-.192l.096-.096zm1.057 21.984l.24.096h-.144l-.096-.096zm26.474-1.056l.05-.768-.433-.48v-.384l-.48-.672-.144-.432-.336-.096-.384-.528-.624-.24-.193-.288-.72-.24-.768-.096-1.49.048-.383.144-1.2.768-.72.24-.48.864-.24.672v.432l-.432.432.24 1.968v.768l.96 1.152.576.48.77.24v.288l1.055.288 1.584.192.383-.048.96-.528h.384l.672-.912.383-.096.336-.24.335-.672.24-.816.336-.72-.383-.432.144-.288zm-3.36-.432l.05-.336h.43l-.047.384-.24.288-.384.144h-.337l-.336-.192-.144-.288h.432l.336.192.24-.192zm-.143 1.44l-.24-.288.048-.336.336.144.193.288v.336l-.336-.144zm-1.344 1.2l.144-.24.336-.096-.048.432-.336.192-.097-.288zm-.432-1.824l.145.24-.048.432-.24-.144-.048-.48.19-.048zm1.68 1.104l-.24-.24h.433l-.192.24zm0-2.832h.193v.192h-.192v-.192zm21.242-1.872l.576-.48 2.064-1.152 1.152-1.008.672-.24 1.344-.912.576-.528.672-.384 1.248-.96 2.304-2.112v-.432l.816-.432.096-.288.432-.528.432-.96.624-.528.192-.528.336-.48.096-.576.72-1.392.096-.384.096-1.488.144-.384-.24-.624.096-.288v-.384l-.24-1.2.144-.336-.528-.72.048-.432-.576-1.008-.288-.864-.288-.24-.768-1.2-1.488-1.104-1.104-1.008-2.4-.864L195.79 1l-.24.144-.72.096-.288-.192-1.056.144-.336-.144-.72.24-.72.048-.288.24-.72.192-.336.192-.768.096-1.152.528-.384.528-1.152.528-.528.528-.432.72-.336.192-.528.528-.432.624-.336.72-.48.576-.144.864-.672 1.872.144.72v1.536l.288.624v.384l.192.336.096.432.288.144.672.816.432.192.576.576.336.144.768.144.384.192.288-.144.672.048.432-.288.48-.048 1.008-.528 1.104-1.008V14.2l.288-1.056v-.432l-.192-.384.24-.432-.576-1.536-.48-.624.048-.432.144-.336v-.432l.288-.24.48-.624.288-.24.48-.096.576-.576 1.2-.192.672.048.336.192.288-.144.816.096.576.528.336.192.48.048.096.384.528.432.864 1.92-.144 2.4-.432.624-.384 1.2-.384.672-1.92 2.4-.336.192-1.008.96-.576.432-.192.528-.768.288-1.536 1.2-.72.384-.432.624h-.432l-.528.528-.672.432-.384.144-1.296.816-.24.288-1.056.624-.528.528-.576.336h-.432l-1.056.768-1.392.816-.72.288-.144.336-.192.192-.384.048-.72.336-1.296.96-.432.096-.528.576-.288.72.096.432.624 1.104.048.912.816 1.728 1.2.192.72-.048.384-.144.336.144 1.152.096.624-.24 1.056.336 2.4-.24.72.24h.336l.672-.24.72.192 1.488-.192 1.296.192.48-.192.528.192h1.248l.528-.192 2.304.192.768-.288.288.24.768.048.864-.192h.384l.816-1.344.24-.768-.048-.432.24-.288.576-1.776.24-.24.048-.432-.24-.72-.192-.24-.576-.24-.72-.048-.816.144-.96-.24-.96.144-1.2-.144-.528.144-.864-.144-.432.144-1.44.096-1.056-.288-.192-.336.288-.288zm-2.928 2.4l.624.192-.432.528-.48-.24-.528.432.048-.384-.384-.768h.384l.336.288.432-.048zm13.632-18.672l.192.288.912.432.144.336-.432-.048-.384.144-.144-.384-.288-.288-.192-.384.192-.096zm-17.904 17.76l.384-.048.192.336.048.672.72-.096-.624.24-.624-.24.144-.336-.48-.48.24-.048zm16.272-14.928l-.384-.672.288.24.768.144.336.192-.768.384-.24-.288zm-2.208 2.496l.816-.528.384-.096-.192.288-.576.48-.384.096-.048-.24zm-11.472 13.92v-.48l.336.192.192.288-.384.768-.144-.144.144-.288-.144-.336zm4.512 1.776l.288.096.432.432v.432l-.432-.432-.384-.096.096-.432zm-4.224-4.512l-.048-.384.432.048.24.192.336.096-.288.144-.432.048-.24-.144zm-3.12.192l-.288-.096-.096-.288.192-.288.336.192.192.336-.336.144zm2.928.48l.048-.432.288.192.096.624h-.384l-.048-.384zm1.392 2.592l.384.288.048.384-.624-.144.192-.528zm-4.512-.864l.336.144.096.336h-.336l-.288-.144-.096-.288.288-.048zm1.392-.912l.384-.192.24-.24.288.336-.432-.048-.24.336-.384.144.144-.336zm17.136-16.416v.528l-.384-.048-.144-.384.528-.096zm-13.632 15.408l.144-.432.144.384-.192.432h-.384l.288-.384zm12.288-19.488h.384l-.192.48h-.384l.192-.48zm-9.792 14.784l.336-.144-.096.624-.384-.096.144-.384zm10.176-7.632l.144-.336.192.384v.336h-.288l-.048-.384zM186.478 31v.384l-.192.336-.144-.192v-.336l.336-.192zm14.64-22.32l-.288-.096-.096-.336.384.096.24.192-.24.144zm-.384 6.768l.096-.384.24.192.048.336-.192.096-.192-.24zm-2.016-8.688v-.384h.336v.432l-.336-.048zM188.59 27.016l.48.096-.096.24-.384.048v-.384zm-.96 0l.384-.144-.192.432h-.384l.192-.288zm15.744-16.08l-.048-.384.336.096.096.336-.384-.048zm-8.496 9.888l.192.384-.336-.048-.192-.336h.336zm-2.88 10.992l.24.336h-.336l-.288-.24.384-.096zm-1.824-1.776l.192.288-.336.048-.192-.336h.336zm-3.456-1.68l.144.336h-.384l-.096-.24.336-.096zm3.648 3.552l-.096.336h-.336v-.24l.432-.096zm12.192-22.56l-.144-.384.336.096.144.24-.336.048zm-19.44 21.744l.336-.096-.096.336-.336.048.096-.288zm.336-.816l-.432-.144.336-.096.384.096-.288.144zm17.568-19.44l.24.048-.048.288-.288-.096v-.192l.096-.048zm-12.72 21.648l.048-.336.24.192-.048.288-.24-.144zm-1.488-6.624h.384l-.336.384-.048-.384zm11.52-8.352l.288-.048-.096.288-.24.048.048-.288zm-8.832-9.6l.192.24-.48.096.288-.336zm-2.496 18.672l.384.096-.192.288-.192-.384zm-1.92 4.512l-.288.384-.096-.288.384-.096zM201.742 6.04l.336-.096v.336l-.336-.24zm-15.456 20.64h.336l.048.288-.384-.288zm15.072-16.608l.192.288h-.336l.144-.288zM188.35 29.608h.336l-.096.192h-.144l-.096-.192zm.768.096l.192.24-.432-.096.24-.144zm1.344.768l.384-.048-.192.24-.192-.192zm8.88-15.216h.24v.336l-.24-.336zm-13.92 13.44l.144.192-.336.096.192-.288zM201.07 6.664l.144.24-.384-.096.24-.144zm-16.608 21.984l-.192.144-.096-.336.288.192zm.96 4.416h.192v.192h-.192v-.192zm-1.248-2.928h.192v.192h-.192v-.192zm3.024-18.432l.24.288h-.24v-.288zm4.272 21.552h.144l-.096.24h-.144l.096-.24zm8.544-26.976l-.144-.24.336.096-.192.144zm-4.032 25.296l.144.192-.24.144.096-.336zm-9.84-1.536h.144v.192h-.144v-.192zm14.784-22.416h.288l-.384.192.096-.192zm-.816 2.736l.288.192h-.288v-.192zm-13.968 17.184h.144v.192h-.144v-.192zm-3.552 4.032h.192v.144h-.192v-.144zm20.928-18.144l.24-.048v.192l-.24-.144zm-12.144 17.856l.24.192h-.24v-.192zm7.152-25.68l.192.144-.192.096v-.24zm2.592 6.816l.144.24h-.144v-.24zm.096 4.224l-.192-.144.336.096-.144.048zm-4.272 4.368l.144.048-.24.048.096-.096zm-11.328-10.752l-.096.288v-.192l.096-.096zm1.056 21.984l.24.096h-.144l-.096-.096zM222.504 1.72l-.768.144-.528-.24-4.128.192-.768-.096-.96.864v1.248l-.288.144-.432.576-.096.864-.576 1.056-.096.384.096.336-.288.24-.336.672-.288.24-.048.72-.24.72-.672 1.344-.192.768.432.336-.624.144-.384.528-.048.864-.432.528-.48 1.536-.144.864.432.576 1.104.96 2.016 1.104.384-.144.384.144.624-.336 2.256-.576.336.192.864-.096.816.192 1.488.528.192.336 1.248.816.528 1.488.288.192v1.104l-.288 2.88-.24.624-.816 1.344-1.056 1.2-.96.672-.672.336-1.824.384-.72.048-1.104-.432-.768-.096-.96-.48-.384-.048-.336.192.432-.48-.624-.864.144-.336-.144-.624.336-.192.336-.624.24-.24-.144-2.304-.192-.672-.384-.576-.624-.432-.432-.576-1.44-.336-.528-.288h-.384l-1.296.288-.432.192-.672.48-.96 1.104-.336.24-.048.768-.192.624-.192.24.192.816-.288 1.488.192.336.144.768.336.72.432.48.144.336v.432l.816.72.096.432.48.576.144.336.672.144.768.816.576.432 2.304 1.248h.432l.816.432 2.784.336h1.488l1.392-.24.432.096.72-.096.336.096 1.008-.528 1.44-.48 1.296-.768.528-.192 1.968-1.68.336-.672.816-.72.096-.432.912-1.152.288-.672v-.48l.288-.576.48-1.392.288-1.536.048-1.584-.096-.768.144-1.008-.768-2.304-.288-.576-.864-1.152-.192-.528-.528-.576-1.152-.96-.432-.528-2.592-1.104-1.488-.336-1.68-.048-.384.24-.528-.24-.816.048-.672.192-.624-.096.192-.384-.192-.768.528-.144.048-.864.96-1.824.048-.432.288-.048.624-.384.432.096.624-.528.528.432.72-.288.336.192.432.048 1.248-.144 1.296.24 2.4-.096.912.144 3.12-.24.72-.288.432-.528.096-.816.192-.288.288-.768.24-1.296.336-.672-.144-.384.24-1.008-.624-.528-1.152.048-1.632-.144-.336.144-1.152-.144-.432.144-1.776-.144-.384.192-.384.048-1.632-.096v.528l-.192-.24-.096-.336h-2.4zm2.64 18.336l-.816-.528.768-.096.912.624v.384l-.144.336-.864 1.296-.24-.672.24-.672.336.192.384-.096-.192-.864-.384.096zm-6.336-4.176l-.816-.336v.768l-.336-.192-.432-.672.096-.192h.432l-.192-.384.096-.432.288.096h.432l.096.288-.528-.192-.096.72h.432l.288.336h.288l.288.192h-.336zm-5.616-4.128l.816.048.288-.288.096.672.336.144v.432l-.096-.336-1.056.192.384-.384-.192-.24h-.816l.24-.24zm12.48 5.76l.624-.192.336.144-.048.384-.144.288-.288.144v-.528l-.624.096.144-.336zm-10.512-5.808l.528.576.048.336-.192.336-.144-.288.144-.24-.288-.24-.432-.048v-.432h.336zm10.416 10.56l.24-.384.288.192.144.384-.336.192-.432.048.096-.432zm.96-1.008l.24-.432h.192l-.144.432-.048.72-.624-.528.384-.192zm-.336 2.592l.48.096-.288.24-.768.288.192-.624h.384zm-15.264 3.792l-.192.288-.336.096-.288.24-.336-.144.24-.24.384-.096.144-.288.384.144zm6.096-15.552l.288.192.096.384-.432.144-.288-.288.336-.432zm3.264 5.424l-.144-.384-.432-.624.384.096.48.528-.288.384zm5.424 8.352l.096-.24h.24l-.192.384.048.432-.432-.096-.096-.384.336-.096zm-10.752-11.04l.144-.288.288.192.048.432h-.528l.048-.336zm2.544-9.408l-.24-.384.048-.432.24.24.288.576h-.336zm3.168 11.328l.384.096.336.384-.72-.096v-.384zm-1.056-1.488l-.096-.336.528.048-.192.576-.24-.288zm-5.52-1.056l.192-.624.336.192-.24.24-.096.384-.192-.192zm-4.944 12.48l.624.096-.192.288-.336.048-.096-.432zm15.072-8.304l.24.192V19l-.432-.192.192-.432zm-4.896-13.68l.24.288-.048.336H219l.336-.336v-.288zm-3.696 6.336l.144.432-.528-.096v-.288l.384-.048zm-1.776 19.728l.288.096.144.24-.336.096-.288-.096.192-.336zm4.752-16.944l.096-.336.384.096-.096.432-.384-.192zm6.576 13.824l.192-.24.192.144.048.384h-.336l-.096-.288zm-1.152.864v-.336l.336-.144v.624l-.336-.144zm-.768-7.92l.24-.192.24.192-.144.24-.288.096-.048-.336zm-13.056 8.4l-.096-.432.384.144.144.384-.432-.096zm15.216-22.896l.384-.096.24.24-.864.096.24-.24zm-1.728 13.44l.528.048-.336.288h-.384l.192-.336zM216.6 10.36l.24-.144-.144.72-.288-.288.192-.288zm10.464 12.336l.288-.048.144.336h-.624l.192-.288zm-4.368-4.512l.192.192.096.336h-.432l.144-.528zm2.352 7.008l-.048-.384.384.096v.384l-.336-.096zm-13.92 3.744l.336-.288-.144.384-.336.192-.24-.24.384-.048zm12.624-11.568l.384.096-.096.288-.288.096v-.48zM209.832 29.8l-.144-.48.336.096.096.384h-.288zm6.432-17.52l.336-.144v.384h-.528l.192-.24zm7.776 3.936l.288.096.144.288-.336.096-.096-.48zm-12.96 15.312l-.144-.336.432.144v.384l-.288-.192zm6.432-19.968l-.288-.192h.624v.336l-.336-.144zm-1.248 4.128h.336l-.048.336-.384-.048.096-.288zm-7.104 8.448l.24.144-.336.192-.288-.288.384-.048zm13.248 7.872l-.048-.384.288.192.048.384-.288-.192zm-13.68-5.376l-.288-.192.432-.048.192.384-.336-.144zm1.104-.288l-.048-.384.288.192.144.288-.384-.096zm15.456-2.16l.24.384-.144.096-.288-.192.192-.288zm-9.6-7.44l.192.24.288.144v.144l-.384-.192-.144.048.048-.384zm-.816-.24l.048-.288.336.384-.144.144-.24-.24zm3.648-12.048l.288.096-.192.24-.336-.192.24-.144zm2.976 13.344l.144-.24.144.336-.384.192.096-.288zm5.04-11.664l.096-.288.24.192-.096.288-.24-.192zm-1.392 22.272l.336.048-.192.192h-.384l.24-.24zm-8.592-19.056l-.144-.288.288.048.144.384-.288-.144zm11.76 16.464l.192.096.048.336h-.24v-.432zm-.912-2.16l.336.24-.336.24v-.48zm-6.432-8.88l-.048-.336.288.192v.288l-.24-.144zm5.376 10.32l.288.336-.384.096.096-.432zm2.688-1.776l-.048-.336.24.144.144.288-.336-.096zm-1.44-2.832l.336.096-.336.336v-.432zm-9.888-12.576l.24-.192v.288l-.384.144.144-.24zm1.584-1.152l.24-.096.096.24h-.48l.144-.144zm8.976 18l.096-.288.096.384-.24.24.048-.336zm-5.376-8.448l.288.096-.384.336.096-.432zm-12.672 14.256l.336.288-.336.096v-.384zm15.696-25.68l-.384.288-.048-.288h.432zM207.816 27.64l.24.24-.336.144.096-.384zm18.96-7.968l.192.384h-.288l.096-.384zm-2.208 7.632l.192.24-.288.192.096-.432zm-6.48 6.576l.288.048-.096.192h-.192v-.24zm4.32-30.144l.144.288-.384-.096.24-.192zm1.008 25.344h.288l-.096.336-.192-.336zm.72-6.48l-.144.288-.288-.096.432-.192zm5.328-17.616h.144v.24h-.24l.096-.24zm-3.168 21.168l.24-.192v.384l-.24-.192zm-6.864-20.64l.336-.096-.048.288-.288-.192zm5.952 23.568h.144v.24h-.24l.096-.24zm-4.8-22.224l.288.048-.096.288-.192-.336zm5.856 11.856v.192l-.432-.096.432-.096zM217.032 7.72l.192.288h-.288l.096-.288zm3.36 8.544l-.144-.288.336.096-.192.192zm5.328.432l.288.048.048.288-.336-.336zm-1.152 12.576v.24l-.336-.096.336-.144zm-9.792-18.384l-.144-.24.384.096-.24.144zM225 18.712h.192v.192H225v-.192zm-8.592-1.872l.288.096-.192.192-.096-.288zm11.952 5.52l.048.288-.288-.192.24-.096zm-2.544-6.24h.192v.192h-.192v-.192zm-9.408-5.136h.192v.192h-.192v-.192zm7.968 20.496h.288v.24l-.288-.24zm-7.536-18.336l.288.24h-.288v-.24zm8.016-5.616h.24v.288l-.24-.288zm-7.2 8.976v.336h-.192l.192-.336zm7.536 9.84l-.144.192-.288-.048.432-.144zm-3.888-10.032l.192.144-.192.144v-.288zm4.32 13.392l.192.24h-.192v-.24zm1.152-10.8l.192.144-.192.096v-.24zm-.72 9.264l-.144.096-.192-.144.336.048zm-6.096 4.272h.192l-.288.192.096-.192zm6.672-7.776h.24v.144l-.24-.144zm-3.12-3.024l.24.24h-.144l-.096-.24zm-8.496-13.008l.24.048h-.144l-.096-.048z"/>
</svg>
